<?xml version="1.0" encoding="utf-8"?>
<!-- Generator: $$$/GeneralStr/196=Adobe Illustrator 27.6.0, SVG Export Plug-In . SVG Version: 6.00 Build 0)  -->
<svg version="1.1" id="Calque_1" xmlns="http://www.w3.org/2000/svg" xmlns:xlink="http://www.w3.org/1999/xlink" x="0px" y="0px"
	 viewBox="0 0 1920 1080" style="enable-background:new 0 0 1920 1080;" xml:space="preserve">
<style type="text/css">
	.st0{clip-path:url(#SVGID_00000075865655017670457750000007613892194639618724_);}
	.st1{fill:url(#SVGID_00000161591919543427879440000004285286199636145554_);}
	.st2{fill:url(#SVGID_00000153694650499785273500000007185060964783488155_);}
	.st3{opacity:0.6;fill:url(#SVGID_00000062161063276994084090000016294382073088316804_);enable-background:new    ;}
	.st4{opacity:0.4;fill:url(#SVGID_00000180366878255607627500000013126247008957401271_);enable-background:new    ;}
	.st5{opacity:0.6;fill:url(#SVGID_00000026881382641612552190000004042560846714611090_);enable-background:new    ;}
	.st6{opacity:0.4;fill:url(#SVGID_00000091727305350762378770000013439502598154194577_);enable-background:new    ;}
	.st7{fill:url(#SVGID_00000032614187464458454490000017608152420501941150_);}
	.st8{opacity:0.6;fill:url(#SVGID_00000070082967855347623780000014669044178658355895_);enable-background:new    ;}
	.st9{fill:url(#SVGID_00000180336073085567558310000001721645907029559444_);}
	.st10{opacity:0.5;fill:url(#SVGID_00000076566439759373976360000010629208562166431367_);enable-background:new    ;}
	.st11{opacity:0.5;fill:url(#SVGID_00000107585952926337053540000012342368395981090721_);enable-background:new    ;}
	.st12{opacity:0.5;fill:url(#SVGID_00000038413893336163652440000004062071632129721262_);enable-background:new    ;}
	.st13{fill:#FFFFFF;}
</style>
<g>
	<defs>
		<rect id="SVGID_1_" width="1920" height="1080"/>
	</defs>
	<clipPath id="SVGID_00000159436633106969098640000013594480136703671936_">
		<use xlink:href="#SVGID_1_"  style="overflow:visible;"/>
	</clipPath>
	<g id="Calque_3" style="clip-path:url(#SVGID_00000159436633106969098640000013594480136703671936_);">
		
			<linearGradient id="SVGID_00000046327824225858540760000004502769451600566150_" gradientUnits="userSpaceOnUse" x1="-4.36" y1="539.345" x2="1923.04" y2="539.345" gradientTransform="matrix(1 0 0 -1 0 1080)">
			<stop  offset="0" style="stop-color:#2F7274"/>
			<stop  offset="0.5" style="stop-color:#69A8A8"/>
			<stop  offset="0.6" style="stop-color:#6CA9A8"/>
			<stop  offset="0.68" style="stop-color:#76ACA9"/>
			<stop  offset="0.76" style="stop-color:#88B2AA"/>
			<stop  offset="0.83" style="stop-color:#A0BBAC"/>
			<stop  offset="0.9" style="stop-color:#C0C6AE"/>
			<stop  offset="0.97" style="stop-color:#E7D3B1"/>
			<stop  offset="1" style="stop-color:#FCDBB3"/>
		</linearGradient>
		
			<rect x="-4.4" y="-96" style="fill:url(#SVGID_00000046327824225858540760000004502769451600566150_);" width="1927.4" height="1273.2"/>
	</g>
	<g id="LOGO" style="clip-path:url(#SVGID_00000159436633106969098640000013594480136703671936_);">
		
			<linearGradient id="SVGID_00000070103440312507957990000008839502658533006251_" gradientUnits="userSpaceOnUse" x1="7589.2251" y1="1195.4423" x2="7603.9253" y2="1195.4423" gradientTransform="matrix(-0.17 0 0 -0.52 2348.9102 1131.54)">
			<stop  offset="0" style="stop-color:#F2DAB8;stop-opacity:0"/>
			<stop  offset="1" style="stop-color:#FCDBB3"/>
		</linearGradient>
		
			<rect x="1058.1" y="365" style="fill:url(#SVGID_00000070103440312507957990000008839502658533006251_);" width="2.5" height="289.7"/>
		
			<linearGradient id="SVGID_00000057869858022219836990000017385152599747903647_" gradientUnits="userSpaceOnUse" x1="245.33" y1="-804.735" x2="445.33" y2="-804.735" gradientTransform="matrix(6.123234e-17 1 1 -6.123234e-17 1747.1499 152.72)">
			<stop  offset="0" style="stop-color:#F2D6B0"/>
			<stop  offset="1" style="stop-color:#FF8C8E;stop-opacity:0"/>
		</linearGradient>
		
			<rect x="892.2" y="398.1" style="opacity:0.6;fill:url(#SVGID_00000057869858022219836990000017385152599747903647_);enable-background:new    ;" width="100.4" height="200"/>
		
			<radialGradient id="SVGID_00000063609241213655585450000004653642641912030848_" cx="850.96" cy="600.73" r="237.76" gradientTransform="matrix(1 0 0 -1 0 1080)" gradientUnits="userSpaceOnUse">
			<stop  offset="0" style="stop-color:#A80030"/>
			<stop  offset="1" style="stop-color:#FF8C8E;stop-opacity:0"/>
		</radialGradient>
		
			<circle style="opacity:0.4;fill:url(#SVGID_00000063609241213655585450000004653642641912030848_);enable-background:new    ;" cx="851" cy="479.3" r="237.8"/>
		
			<radialGradient id="SVGID_00000121241214090906710020000009146616888110485175_" cx="879.53" cy="481.31" r="270.8" gradientTransform="matrix(1 0 0 -1 0 1080)" gradientUnits="userSpaceOnUse">
			<stop  offset="0" style="stop-color:#F2D6B0"/>
			<stop  offset="1" style="stop-color:#FF8C8E;stop-opacity:0"/>
		</radialGradient>
		
			<circle style="opacity:0.6;fill:url(#SVGID_00000121241214090906710020000009146616888110485175_);enable-background:new    ;" cx="879.5" cy="598.7" r="270.8"/>
		
			<radialGradient id="SVGID_00000169548894532760059220000002910031819056103082_" cx="796.7" cy="464.64" r="146.34" gradientTransform="matrix(1 0 0 -1 0 1080)" gradientUnits="userSpaceOnUse">
			<stop  offset="0" style="stop-color:#A80030"/>
			<stop  offset="1" style="stop-color:#FF8C8E;stop-opacity:0"/>
		</radialGradient>
		
			<circle style="opacity:0.4;fill:url(#SVGID_00000169548894532760059220000002910031819056103082_);enable-background:new    ;" cx="796.7" cy="615.4" r="146.3"/>
		
			<linearGradient id="SVGID_00000020374088558103419700000007337353513383584416_" gradientUnits="userSpaceOnUse" x1="4003.5208" y1="-1131.6143" x2="4219.269" y2="-915.8558" gradientTransform="matrix(-1 0 0 1 4868.2197 1487.28)">
			<stop  offset="0" style="stop-color:#487C80;stop-opacity:0"/>
			<stop  offset="1" style="stop-color:#5EA498"/>
		</linearGradient>
		
			<rect x="723.6" y="281" style="fill:url(#SVGID_00000020374088558103419700000007337353513383584416_);" width="66.4" height="365.1"/>
		
			<radialGradient id="SVGID_00000130617804885395438510000002118141665899389337_" cx="991.86" cy="621.35" r="248.14" gradientTransform="matrix(1 0 0 -1 0 1080)" gradientUnits="userSpaceOnUse">
			<stop  offset="0" style="stop-color:#F2D6B0"/>
			<stop  offset="1" style="stop-color:#FF8C8E;stop-opacity:0"/>
		</radialGradient>
		
			<circle style="opacity:0.6;fill:url(#SVGID_00000130617804885395438510000002118141665899389337_);enable-background:new    ;" cx="991.9" cy="458.6" r="248.1"/>
		
			<linearGradient id="SVGID_00000105407048236683432080000009351755802760525243_" gradientUnits="userSpaceOnUse" x1="1439.97" y1="529.36" x2="1439.97" y2="731.73" gradientTransform="matrix(-1 0 0 1 2437.47 -94.6499)">
			<stop  offset="0" style="stop-color:#F2D6B0"/>
			<stop  offset="1" style="stop-color:#FF8C8E;stop-opacity:0"/>
		</linearGradient>
		
			<rect x="952.1" y="434.7" style="fill:url(#SVGID_00000105407048236683432080000009351755802760525243_);" width="90.8" height="202.4"/>
		
			<linearGradient id="SVGID_00000147204235700118117980000011673134625685933486_" gradientUnits="userSpaceOnUse" x1="2994.6082" y1="798.4512" x2="3357.6782" y2="798.4512" gradientTransform="matrix(6.735558e-17 -1.1 -0.41 -2.510526e-17 1124.64 3919.8201)">
			<stop  offset="0" style="stop-color:#F2D6B0"/>
			<stop  offset="1" style="stop-color:#FF8C8E;stop-opacity:0"/>
		</linearGradient>
		
			<rect x="741.6" y="233" style="opacity:0.5;fill:url(#SVGID_00000147204235700118117980000011673134625685933486_);enable-background:new    ;" width="111.3" height="398.1"/>
		
			<linearGradient id="SVGID_00000010277549627073886310000002705997101072223915_" gradientUnits="userSpaceOnUse" x1="3238.792" y1="-1304.0244" x2="3431.792" y2="-1304.0244" gradientTransform="matrix(6.735558e-17 1.1 0.41 -2.510526e-17 1585.38 -3188.1301)">
			<stop  offset="0" style="stop-color:#F2D6B0"/>
			<stop  offset="1" style="stop-color:#FF8C8E;stop-opacity:0"/>
		</linearGradient>
		
			<rect x="1042.3" y="365" style="opacity:0.5;fill:url(#SVGID_00000010277549627073886310000002705997101072223915_);enable-background:new    ;" width="16.8" height="211.6"/>
		
			<linearGradient id="SVGID_00000181804832450768659040000013523646002543311035_" gradientUnits="userSpaceOnUse" x1="2939.9182" y1="727.1829" x2="3180.8682" y2="727.1829" gradientTransform="matrix(6.735558e-17 -1.1 -0.41 -2.510526e-17 1124.64 3919.8301)">
			<stop  offset="0" style="stop-color:#F2D6B0"/>
			<stop  offset="1" style="stop-color:#FF8C8E;stop-opacity:0"/>
		</linearGradient>
		
			<rect x="775.7" y="426.9" style="opacity:0.5;fill:url(#SVGID_00000181804832450768659040000013523646002543311035_);enable-background:new    ;" width="101.7" height="264.2"/>
		<g id="LOGO-2">
			<path class="st13" d="M1177.6,514c0,0,0,7.6-0.1,9.6c-0.1,1.6-0.2,5-3.6,5s-4.4-4-4.6-5.8c-0.3-1.9-0.3-3.5-0.3-4.3
				c0-2.3,0.1-8.6,5.5-8.6c1.6,0,2.5,0.5,3.2,0.9L1177.6,514L1177.6,514z M1163.9,519.6c0,13.3,7.1,13.3,8.1,13.3
				c2.9,0,4.8-1.6,5.6-4.4l0.1,4.2c0.9,0,1.8-0.1,3.3-0.1c0.5,0,0.9,0,1.3,0c0.4,0,0.8,0,1.2,0.1c-0.8-1.5-1.3-4.9-1.3-12.3
				s0-19.3,0.6-23c-1.7,0.8-3.2,1.3-6.4,1.6c1.3,1.4,1.3,2.1,1.3,8.3c-0.9-0.3-2-0.6-4-0.6C1165.2,506.7,1163.9,514.1,1163.9,519.6"
				/>
			<path class="st13" d="M1189.5,517.2c0-3.9,0.9-7.4,4.2-7.4c3.7,0,4,4.1,3.9,7.4H1189.5z M1202.2,517.6c0-5.5-1.1-11-8.1-11
				c-9.6,0-9.6,10.7-9.6,12.9c0,9.6,4.3,13.4,11.5,13.4c3.2,0,4.8-0.5,5.6-0.7c0-1.7,0.2-2.8,0.5-4.3c-1,0.6-2.3,1.4-5.1,1.4
				c-7.4,0-7.5-6.7-7.5-9h12.6L1202.2,517.6"/>
			<path class="st13" d="M1217.6,519.7c0,4.4-0.8,10.3-6.3,10.3c-0.8,0-1.7-0.1-2.3-0.3c-0.1-1.7-0.1-4.6-0.1-8c0-4,0.4-6.2,0.8-7.2
				c1-3.4,3.2-3.4,3.6-3.4C1216.9,511,1217.6,516,1217.6,519.7L1217.6,519.7z M1204,524.8c0,3.5,0,5.5-0.6,7
				c1.9,0.8,4.4,1.2,7.2,1.2c1.8,0,7.2,0,10.1-5.9c1.4-2.8,1.8-6.4,1.8-9.2c0-1.7-0.2-5.4-1.6-7.8c-1.3-2.2-3.4-3.4-5.7-3.4
				c-4.5,0-5.9,3.8-6.6,5.7c0-2.4,0-10.8,0.4-15.1c-3.1,1.4-5,1.6-7,1.9c1.8,0.7,1.8,3.9,1.8,14L1204,524.8"/>
			<path class="st13" d="M1231.7,532.7c-0.9-0.1-1.6-0.2-3-0.2c-1.5,0-2.5,0.1-3.6,0.2c0.5-0.9,0.7-1.3,0.8-4.4
				c0.2-4.2,0.2-15.4-0.1-17.8c-0.2-1.8-0.7-2.1-1.3-2.5c3.9-0.4,5-0.6,6.8-1.5c-0.4,2.1-0.4,3.1-0.4,6.3
				C1230.7,529,1230.6,530.8,1231.7,532.7"/>
			<path class="st13" d="M1246.8,519.3c-0.1,3-0.1,5-0.9,6.7c-1,2.1-2.6,2.8-3.9,2.8c-2.8,0-3.4-2.4-3.4-4.7c0-4.4,4-4.8,5.8-4.8
				L1246.8,519.3L1246.8,519.3L1246.8,519.3z M1233.8,525.2c0,3,0.9,6,3.5,7.2c1.2,0.5,2.4,0.5,2.8,0.5c4.4,0,5.8-3.2,6.7-5.2
				c0,2.1,0,3.4,0.1,5c0.9,0,1.7-0.1,3.1-0.1c0.8,0,1.6,0.1,2.4,0.1c-0.5-0.8-0.8-1.3-0.9-3.1c-0.1-1.8-0.1-3.6-0.1-6.1l0-9.6
				c0-3.6-0.9-7.1-8-7.1c-4.7,0-7.4,1.4-8.8,2.1c0.6,1,1,1.9,1.5,4c1.8-1.6,4.3-2.5,6.7-2.5c3.9,0,3.9,2.6,3.9,6.3
				c-0.9,0-1.6-0.1-2.9-0.1C1237.8,516.5,1233.8,518.8,1233.8,525.2"/>
			<path class="st13" d="M1274,528c0,1.6,0,3.3,0.7,4.7c-1-0.1-1.6-0.2-3.6-0.2c-1.1,0-1.8,0.1-2.6,0.2c0.2-0.6,0.3-0.9,0.4-1.6
				c0.1-1.1,0.2-4.7,0.2-6V520c0-2.2,0-5.4-0.1-6.6c-0.1-0.8-0.3-3-3.1-3s-3.6,2-3.9,3.6c-0.4,1.6-0.4,3.5-0.4,10.4
				c0,6,0,6.6,0.5,8.3c-0.8-0.1-1.8-0.2-3.2-0.2c-1.1,0-1.9,0-2.8,0.2c0.3-0.8,0.5-1.1,0.6-3.8c0.1-2.6,0.3-15.3-0.1-18.4
				c-0.2-1.9-0.7-2.3-1.2-2.8c3.8-0.2,5.1-0.8,6.2-1.4v5c0.6-1.5,1.7-4.7,6.5-4.7c5.9,0,5.9,4.3,6,7.1L1274,528"/>
			<path class="st13" d="M1232.1,499.8l-3.9,3.9l-3.9-3.9l3.9-3.9L1232.1,499.8"/>
			<path class="st13" d="M1293.3,523.8c0,2.9,0,4.6,0.1,6.1c0.1,1.8,0.3,2.3,0.5,2.8c-0.8-0.1-1.6-0.1-2.3-0.1c-0.8,0-1.2,0-1.9,0.1
				c0.3-0.7,0.4-1.1,0.5-2.7c0.1-1.2,0.1-2.6,0.1-6.1v-3.4c-0.1-4.4-0.1-4.9-0.2-5.7c-1.3,0.5-2.6,1-3.8,1.7c0-0.3,0.1-0.6,0.1-0.9
				c0-0.6-0.1-0.9-0.1-1.3c1.5-0.3,4.7-1.2,7-2.9c-0.1,2.2-0.2,3.8-0.2,8.4L1293.3,523.8L1293.3,523.8z"/>
			<path class="st13" d="M1306.1,521.9l0.6,0.1c1.4,0.2,4.5,1.1,4.5,4.9c0,1.7-0.8,6.1-7.3,6.1c-0.9,0-2.7-0.1-4.2-0.6
				c0.4-0.9,0.5-1.5,0.6-2.9c0.4,0.3,1.2,1.1,3.5,1.1c3.2,0,4.3-2,4.3-3.6c0-3.7-4.1-3.7-5.2-3.7c-1,0-1.3,0.1-1.8,0.2
				c0-0.4,0-0.7,0-1.1c0-0.4,0-0.8,0-1.3l0.8,0c1.1,0,5.4,0,5.4-3.7c0-1.8-1.2-3.2-3.8-3.2c-1.8,0-2.6,0.5-3.3,0.9
				c0.1-0.4,0.2-1,0.2-1.6c0-0.5,0-0.8-0.1-1.2c1.2-0.3,2.3-0.5,4-0.5c1.1,0,6.1,0,6.1,5.1c0,1.1-0.3,3.9-3.7,4.9L1306.1,521.9
				L1306.1,521.9z"/>
			<path class="st13" d="M1136.6,511.2c-0.8,0,0.1,0.4,1.1,0.5c0.3-0.2,0.5-0.4,0.8-0.6C1137.9,511.3,1137.2,511.3,1136.6,511.2"/>
			<path class="st13" d="M1140.7,510.2c0.5-0.6,0.8-1.3,0.9-2c-0.1,0.5-0.4,0.9-0.6,1.4c-1.4,0.9-0.1-0.5,0-1.1
				C1139.4,510.4,1140.8,509.7,1140.7,510.2"/>
			<path class="st13" d="M1142.2,506.2c0.1-1.4-0.3-0.9-0.4-0.4C1142,505.9,1142.1,506.8,1142.2,506.2"/>
			<path class="st13" d="M1133.7,487.4c0.4,0.1,0.9,0.1,0.8,0.2C1135,487.6,1135.1,487.5,1133.7,487.4"/>
			<path class="st13" d="M1134.5,487.6l-0.3,0.1L1134.5,487.6L1134.5,487.6"/>
			<path class="st13" d="M1147.3,506.8c0.1,1.2-0.4,1.8-0.7,2.9l-0.7,0.3c-0.5,1,0.1,0.7-0.3,1.5c-0.8,0.8-2.6,2.4-3.1,2.5
				c-0.4,0,0.3-0.5,0.4-0.7c-1.1,0.8-0.9,1.2-2.6,1.6l-0.1-0.1c-4.3,2-10.2-2-10.1-7.4c-0.1,0.3-0.1,0.3-0.2,0.4
				c-0.2-2.8,1.3-5.6,3.8-6.7c2.5-1.2,5.4-0.7,7.2,0.9c-1-1.3-2.9-2.6-5.2-2.5c-2.3,0-4.4,1.5-5.1,3c-1.2,0.7-1.3,2.8-1.8,3.2
				c-0.7,5,1.3,7.2,4.6,9.7c0.5,0.3,0.2,0.4,0.2,0.7c-1.1-0.5-2.1-1.3-2.9-2.2c0.4,0.6,0.9,1.3,1.5,1.8c-1-0.3-2.4-2.5-2.8-2.6
				c1.8,3.2,7.3,5.6,10.1,4.4c-1.3,0-3,0-4.5-0.5c-0.6-0.3-1.5-1-1.3-1.1c3.9,1.5,7.9,1.1,11.3-1.6c0.9-0.7,1.8-1.8,2.1-1.8
				c-0.4,0.6,0.1,0.3-0.2,0.8c0.9-1.4-0.4-0.6,0.9-2.4l0.5,0.6c-0.2-1.1,1.4-2.5,1.3-4.4c0.4-0.6,0.4,0.6,0,1.9
				c0.5-1.4,0.1-1.6,0.3-2.8c0.2,0.4,0.3,0.8,0.4,1.2c-0.3-1.4,0.4-2.3,0.5-3.1c-0.2-0.1-0.5,0.6-0.6-1c0-0.7,0.2-0.4,0.3-0.5
				c-0.1-0.1-0.5-0.6-0.7-1.6c0.2-0.2,0.4,0.6,0.6,0.7c-0.1-0.8-0.4-1.5-0.4-2.1c-0.6-1.3-0.2,0.2-0.7-0.6c-0.7-2.1,0.6-0.5,0.6-1.5
				c1,1.5,1.6,3.8,1.9,4.7c-0.2-1.2-0.5-2.3-0.9-3.4c0.3,0.1-0.5-2.4,0.4-0.7c-1-3.6-4.1-6.9-7.1-8.4c0.4,0.3,0.8,0.7,0.7,0.8
				c-1.4-0.9-1.2-0.9-1.4-1.3c-1.2-0.5-1.3,0-2,0c-2.2-1.2-2.7-1.1-4.7-1.8l0.1,0.4c-1.5-0.5-1.7,0.2-3.3,0c-0.1-0.1,0.5-0.3,1-0.4
				c-1.4,0.2-1.4-0.3-2.8,0c0.3-0.2,0.7-0.4,1.1-0.6c-1.2,0.1-2.8,0.7-2.3,0.1c-1.9,0.9-5.3,2-7.2,3.8l-0.1-0.4
				c-0.9,1-3.8,3.1-4,4.5l-0.2,0c-0.4,0.8-0.7,1.6-1.1,2.4c-0.6,1-0.9,0.4-0.8,0.5c-1.2,2.4-1.7,4.3-2.2,6c0.3,0.5,0,3.2,0.1,5.3
				c-0.6,10.5,7.4,20.7,16.1,23.1c1.3,0.5,3.2,0.4,4.8,0.5c-1.9-0.5-2.2-0.3-4-0.9c-1.3-0.6-1.6-1.3-2.6-2.2l0.4,0.7
				c-1.9-0.7-1.1-0.8-2.6-1.3l0.4-0.5c-0.6,0-1.6-1-1.9-1.5l-0.7,0c-0.8-1-1.2-1.7-1.2-2.2l-0.2,0.4c-0.2-0.4-2.9-3.7-1.5-2.9
				c-0.3-0.2-0.6-0.4-1-1.1l0.3-0.3c-0.7-0.9-1.2-2-1.2-2.3c0.4,0.5,0.6,0.6,0.8,0.7c-1.7-4.2-1.8-0.2-3.1-4.2l0.3,0
				c-0.2-0.3-0.3-0.7-0.5-1l0.1-1.2c-1.2-1.4-0.3-6-0.2-8.5c0.1-1,1-2.1,1.7-3.8l-0.4-0.1c0.8-1.4,4.5-5.5,6.2-5.3
				c0.8-1-0.2,0-0.3-0.3c1.8-1.9,2.4-1.3,3.7-1.7c1.3-0.8-1.1,0.3-0.5-0.3c2.3-0.6,1.6-1.3,4.6-1.6c0.3,0.2-0.7,0.3-1,0.5
				c1.9-0.9,6.1-0.7,8.8,0.5c3.1,1.5,6.7,5.8,6.8,9.9l0.2,0c-0.1,1.6,0.2,3.5-0.3,5.2L1147.3,506.8"/>
			<path class="st13" d="M1128.3,512.3l-0.1,0.5c0.5,0.7,0.9,1.4,1.5,2C1129.2,513.9,1128.9,513.5,1128.3,512.3"/>
			<path class="st13" d="M1129.4,512.2c-0.3-0.3-0.4-0.6-0.6-1c0.2,0.6,0.5,1.2,0.8,1.7L1129.4,512.2"/>
			<path class="st13" d="M1150.5,507.6l-0.1,0.3c-0.2,1.5-0.7,2.9-1.3,4.2C1149.8,510.8,1150.3,509.2,1150.5,507.6"/>
			<path class="st13" d="M1133.9,487c0.5-0.2,1.3-0.1,1.8-0.2c-0.7,0.1-1.4,0.1-2.1,0.2L1133.9,487"/>
			<path class="st13" d="M1115.7,496.7c0.1,1.1-0.8,1.5,0.2,0.8C1116.5,496.2,1115.7,497.2,1115.7,496.7"/>
			<path class="st13" d="M1114.5,501.8c0.2-0.7,0.3-1.2,0.4-1.6C1114.2,501.1,1114.5,501.2,1114.5,501.8"/>
		</g>
	</g>
</g>
</svg>
