<?xml version="1.0" encoding="UTF-8"?><svg xmlns="http://www.w3.org/2000/svg" xmlns:xlink="http://www.w3.org/1999/xlink" viewBox="0 0 1600 1200"><defs><style>.cls-1{fill:#fff;}.cls-2{fill:url(#Dégradé_sans_nom_304-2);}.cls-3{fill:url(#Dégradé_sans_nom_35);}.cls-4{fill:url(#Dégradé_sans_nom_304-5);}.cls-4,.cls-5,.cls-6{opacity:.5;}.cls-5{fill:url(#Dégradé_sans_nom_304-4);}.cls-6{fill:url(#Dégradé_sans_nom_304-3);}.cls-7{fill:url(#Dégradé_sans_nom_297-2);}.cls-7,.cls-8,.cls-9{opacity:.6;}.cls-10{fill:url(#Dégradé_sans_nom_153);}.cls-10,.cls-11{opacity:.4;}.cls-8{fill:url(#Dégradé_sans_nom_297);}.cls-9{fill:url(#Dégradé_sans_nom_304);}.cls-11{fill:url(#Dégradé_sans_nom_30);}.cls-12{fill:url(#Dégradé_sans_nom_138);}.cls-13{fill:url(#Dégradé_sans_nom_293);}</style><linearGradient id="Dégradé_sans_nom_35" x1="-164.36" y1="600.66" x2="1763.04" y2="600.66" gradientUnits="userSpaceOnUse"><stop offset="0" stop-color="#2f7274"/><stop offset=".5" stop-color="#69a8a8"/><stop offset=".6" stop-color="#6ca9a8"/><stop offset=".68" stop-color="#76aca9"/><stop offset=".76" stop-color="#88b2aa"/><stop offset=".83" stop-color="#a0bbac"/><stop offset=".9" stop-color="#c0c6ae"/><stop offset=".97" stop-color="#e7d3b1"/><stop offset="1" stop-color="#fcdbb3"/></linearGradient><linearGradient id="Dégradé_sans_nom_138" x1="890.99" y1="432.59" x2="905.69" y2="432.59" gradientTransform="translate(1050.49 344.24) rotate(-180) scale(.17 -.52)" gradientUnits="userSpaceOnUse"><stop offset="0" stop-color="#f2dab8" stop-opacity="0"/><stop offset="1" stop-color="#fcdbb3"/></linearGradient><linearGradient id="Dégradé_sans_nom_304" x1="-334.67" y1="464.74" x2="-134.67" y2="464.74" gradientTransform="translate(1017.07 93.31)" gradientUnits="userSpaceOnUse"><stop offset="0" stop-color="#f2d6b0"/><stop offset="1" stop-color="#ff8c8e" stop-opacity="0"/></linearGradient><radialGradient id="Dégradé_sans_nom_153" cx="690.96" cy="539.27" fx="690.96" fy="539.27" r="237.76" gradientUnits="userSpaceOnUse"><stop offset="0" stop-color="#a80030"/><stop offset="1" stop-color="#ff8c8e" stop-opacity="0"/></radialGradient><radialGradient id="Dégradé_sans_nom_297" cx="719.53" cy="658.69" fx="719.53" fy="658.69" r="270.8" gradientUnits="userSpaceOnUse"><stop offset="0" stop-color="#f2d6b0"/><stop offset="1" stop-color="#ff8c8e" stop-opacity="0"/></radialGradient><radialGradient id="Dégradé_sans_nom_30" cx="636.7" cy="675.36" fx="636.7" fy="675.36" r="146.34" gradientUnits="userSpaceOnUse"><stop offset="0" stop-color="#a80030"/><stop offset="1" stop-color="#ff8c8e" stop-opacity="0"/></radialGradient><linearGradient id="Dégradé_sans_nom_293" x1="1943.52" y1="1211.62" x2="2159.27" y2="995.86" gradientTransform="translate(-1454.57 -580.19)" gradientUnits="userSpaceOnUse"><stop offset="0" stop-color="#487c80" stop-opacity="0"/><stop offset="1" stop-color="#5ea498"/></linearGradient><radialGradient id="Dégradé_sans_nom_297-2" cx="831.86" cy="518.65" fx="831.86" fy="518.65" r="248.14" xlink:href="#Dégradé_sans_nom_297"/><linearGradient id="Dégradé_sans_nom_304-2" x1="-620.03" y1="-449.36" x2="-620.03" y2="-651.73" gradientTransform="translate(1457.52 1146.44)" xlink:href="#Dégradé_sans_nom_304"/><linearGradient id="Dégradé_sans_nom_304-3" x1="1402.79" y1="2135.41" x2="1765.86" y2="2135.41" gradientTransform="translate(-1100.05 -380.61) scale(1.1 .41)" xlink:href="#Dégradé_sans_nom_304"/><linearGradient id="Dégradé_sans_nom_304-4" x1="2610.61" y1="-404.56" x2="2803.61" y2="-404.56" gradientTransform="translate(-2077.81 696.19) scale(1.1 .41)" xlink:href="#Dégradé_sans_nom_304"/><linearGradient id="Dégradé_sans_nom_304-5" x1="1348.1" y1="2206.91" x2="1589.05" y2="2206.91" gradientTransform="translate(-943.91 -282.9) scale(1.1 .41)" xlink:href="#Dégradé_sans_nom_304"/></defs><g id="Calque_3"><rect class="cls-3" x="-164.36" y="-35.97" width="1927.4" height="1273.25"/></g><g id="LOGO"><rect class="cls-12" x="898.13" y="425.04" width="2.47" height="289.74"/><rect class="cls-9" x="682.4" y="507.84" width="200" height="100.41" transform="translate(1340.46 -224.35) rotate(90)"/><circle class="cls-10" cx="690.96" cy="539.27" r="237.76"/><circle class="cls-8" cx="719.53" cy="658.69" r="270.8"/><circle class="cls-11" cx="636.7" cy="675.36" r="146.34"/><rect class="cls-13" x="563.61" y="341.01" width="66.43" height="365.07" transform="translate(1193.65 1047.09) rotate(180)"/><circle class="cls-7" cx="831.86" cy="518.65" r="248.14"/><rect class="cls-2" x="792.09" y="494.71" width="90.8" height="202.37" transform="translate(1674.99 1191.79) rotate(180)"/><rect class="cls-6" x="438.21" y="436.41" width="398.14" height="111.27" transform="translate(145.23 1129.32) rotate(-90)"/><rect class="cls-5" x="784.92" y="522.47" width="211.64" height="16.78" transform="translate(1421.59 -359.87) rotate(90)"/><rect class="cls-4" x="534.39" y="568.14" width="264.21" height="101.67" transform="translate(47.52 1285.47) rotate(-90)"/><g id="LOGO-2"><path class="cls-1" d="m1017.56,574.02s-.04,7.63-.13,9.62c-.09,1.6-.22,5.05-3.62,5.05s-4.36-4.01-4.61-5.78c-.35-1.94-.35-3.54-.35-4.27,0-2.29.13-8.58,5.48-8.58,1.6,0,2.5.47,3.19.86l.04,3.11Zm-13.71,5.56c0,13.33,7.07,13.33,8.11,13.33,2.93,0,4.83-1.6,5.61-4.4l.09,4.18c.91-.04,1.81-.13,3.28-.13.52,0,.95,0,1.34.04.39,0,.78.04,1.16.09-.78-1.51-1.34-4.92-1.34-12.29s0-19.32.6-22.99c-1.68.82-3.15,1.34-6.38,1.6,1.29,1.38,1.29,2.07,1.29,8.32-.91-.3-2.03-.6-3.97-.6-8.41,0-9.79,7.37-9.79,12.85"/><path class="cls-1" d="m1029.46,577.17c.04-3.92.86-7.42,4.18-7.42,3.67,0,3.97,4.05,3.88,7.42h-8.06Zm12.77.47c0-5.52-1.08-10.95-8.06-10.95-9.62,0-9.62,10.7-9.62,12.94,0,9.57,4.31,13.37,11.51,13.37,3.19,0,4.79-.47,5.61-.69-.04-1.68.17-2.8.47-4.27-.99.6-2.29,1.42-5.09,1.42-7.37,0-7.46-6.73-7.46-9.01h12.55l.09-2.8"/><path class="cls-1" d="m1057.58,579.67c0,4.4-.82,10.31-6.3,10.31-.78,0-1.68-.13-2.33-.3-.09-1.68-.09-4.61-.09-8.02,0-4.05.43-6.17.78-7.25.99-3.36,3.19-3.41,3.62-3.41,3.62.04,4.31,5,4.31,8.67Zm-13.54,5.13c0,3.49,0,5.48-.56,6.99,1.94.78,4.36,1.16,7.25,1.16,1.85,0,7.16,0,10.05-5.91,1.38-2.76,1.85-6.43,1.85-9.23,0-1.68-.17-5.43-1.55-7.81-1.34-2.2-3.45-3.36-5.69-3.36-4.53,0-5.87,3.8-6.56,5.74,0-2.42.04-10.82.43-15.09-3.06,1.42-4.96,1.64-6.99,1.85,1.85.73,1.85,3.88,1.85,14.02l-.09,11.64"/><path class="cls-1" d="m1071.68,592.69c-.95-.13-1.6-.22-2.98-.22-1.51,0-2.54.09-3.62.22.47-.91.65-1.34.82-4.4.17-4.23.22-15.44-.09-17.81-.22-1.81-.65-2.07-1.34-2.54,3.88-.39,4.96-.65,6.77-1.51-.39,2.07-.43,3.11-.43,6.3-.13,16.3-.17,18.03.86,19.97"/><path class="cls-1" d="m1086.82,579.33c-.09,2.98-.13,5.05-.95,6.73-.99,2.11-2.63,2.76-3.88,2.76-2.85,0-3.45-2.37-3.45-4.66,0-4.44,3.97-4.79,5.78-4.79h2.5v-.04Zm-12.98,5.82c0,2.98.91,5.95,3.54,7.25,1.16.52,2.37.52,2.76.52,4.36,0,5.82-3.23,6.73-5.22-.04,2.07,0,3.36.13,5,.86-.04,1.68-.13,3.11-.13.82,0,1.55.09,2.37.13-.52-.82-.82-1.29-.95-3.11-.09-1.81-.09-3.58-.09-6.08l.04-9.62c0-3.58-.95-7.12-8.02-7.12-4.66,0-7.42,1.42-8.8,2.11.56,1.04,1.04,1.94,1.47,3.97,1.85-1.6,4.27-2.46,6.73-2.46,3.92,0,3.92,2.59,3.92,6.3-.91-.04-1.64-.13-2.93-.13-6.04-.04-10.01,2.24-10.01,8.58"/><path class="cls-1" d="m1114.03,588.04c.04,1.6.04,3.32.69,4.66-1.04-.09-1.64-.22-3.58-.22-1.12,0-1.77.09-2.63.22.17-.6.3-.86.39-1.64.13-1.08.22-4.74.22-5.99v-5.09c0-2.2,0-5.43-.13-6.56-.09-.82-.35-2.98-3.06-2.98s-3.58,1.98-3.92,3.58c-.39,1.64-.39,3.45-.39,10.44.04,6.04.04,6.6.52,8.28-.82-.09-1.81-.17-3.19-.17-1.12,0-1.9.04-2.85.17.35-.78.52-1.12.6-3.8.09-2.59.3-15.35-.13-18.37-.22-1.85-.69-2.29-1.21-2.76,3.84-.17,5.05-.82,6.25-1.42v5c.56-1.47,1.73-4.74,6.47-4.74,5.91,0,5.95,4.31,5.99,7.12l-.04,14.27"/><path class="cls-1" d="m1072.07,559.75l-3.92,3.92-3.92-3.92,3.92-3.92,3.92,3.92"/><path class="cls-1" d="m1133.26,583.83c0,2.87.03,4.57.09,6.06.09,1.85.26,2.26.53,2.78-.79-.09-1.55-.09-2.28-.09-.85,0-1.23.03-1.87.09.29-.73.41-1.14.47-2.69.06-1.17.09-2.61.12-6.06v-3.4c-.09-4.39-.09-4.86-.15-5.68-1.29.5-2.55,1.03-3.78,1.7.03-.32.06-.62.09-.94,0-.56-.06-.88-.09-1.29,1.46-.32,4.66-1.23,7.03-2.9-.12,2.23-.15,3.84-.15,8.35v4.07Z"/><path class="cls-1" d="m1146.09,581.87l.64.06c1.44.21,4.54,1.11,4.54,4.89,0,1.73-.79,6.09-7.32,6.09-.94,0-2.72-.09-4.25-.59.38-.91.5-1.52.56-2.87.38.35,1.2,1.08,3.49,1.08,3.25,0,4.31-2.02,4.31-3.63,0-3.66-4.07-3.66-5.16-3.66-.97,0-1.32.06-1.82.18,0-.38.03-.73.03-1.11,0-.44-.03-.85-.03-1.29l.79.03c1.08,0,5.45,0,5.45-3.66,0-1.79-1.23-3.19-3.75-3.19-1.85,0-2.61.47-3.28.88.09-.44.18-1.05.18-1.58,0-.47-.03-.85-.06-1.17,1.17-.29,2.26-.53,4.01-.53,1.11,0,6.09,0,6.09,5.07,0,1.14-.32,3.93-3.72,4.86l-.7.15Z"/><path class="cls-1" d="m976.61,571.22c-.76.01.14.39,1.14.55.28-.22.53-.43.75-.65-.62.15-1.25.16-1.89.1"/><path class="cls-1" d="m980.72,570.2c.46-.63.79-1.32.91-2.03-.1.51-.38.94-.64,1.41-1.43.9-.14-.53,0-1.08-1.54,1.94-.21,1.16-.27,1.7"/><path class="cls-1" d="m982.24,566.25c.09-1.38-.27-.94-.39-.42.14.07.26.97.39.42"/><path class="cls-1" d="m973.71,547.42c.41.07.88.13.81.23.45-.1.55-.19-.81-.23"/><path class="cls-1" d="m974.53,547.65l-.29.06.27-.02.02-.04"/><path class="cls-1" d="m987.26,566.77c.05,1.24-.36,1.84-.73,2.9l-.66.33c-.54,1.05.05.67-.33,1.5-.85.75-2.56,2.35-3.11,2.5-.4,0,.27-.47.36-.66-1.13.78-.91,1.17-2.64,1.64l-.05-.11c-4.27,2.01-10.19-1.97-10.11-7.4-.05.34-.13.26-.22.4-.22-2.79,1.29-5.59,3.83-6.74,2.49-1.23,5.41-.73,7.19.94-.98-1.28-2.93-2.64-5.24-2.52-2.26.04-4.38,1.48-5.09,3.04-1.16.73-1.29,2.81-1.8,3.2-.68,5,1.28,7.16,4.59,9.7.52.35.15.41.22.67-1.1-.52-2.11-1.29-2.94-2.25.44.64.91,1.27,1.53,1.76-1.04-.35-2.43-2.52-2.83-2.6,1.79,3.2,7.26,5.62,10.13,4.42-1.33.05-3.01.03-4.5-.52-.63-.32-1.48-.99-1.32-1.11,3.91,1.46,7.95,1.1,11.33-1.61.86-.67,1.8-1.81,2.07-1.83-.41.62.07.3-.24.84.86-1.38-.37-.56.89-2.39l.46.64c-.17-1.15,1.43-2.54,1.26-4.36.37-.56.41.6.02,1.87.54-1.42.14-1.64.28-2.81.15.39.35.81.45,1.23-.35-1.37.36-2.31.54-3.1-.18-.08-.54.61-.63-1.01.01-.7.2-.37.27-.54-.14-.08-.5-.62-.72-1.65.16-.24.43.63.64.66-.14-.82-.38-1.45-.39-2.08-.63-1.33-.22.18-.74-.57-.68-2.11.56-.49.64-1.45,1.02,1.48,1.61,3.78,1.88,4.73-.2-1.16-.54-2.29-.94-3.37.31.13-.5-2.39.41-.72-.97-3.56-4.14-6.88-7.05-8.44.36.33.81.74.65.8-1.45-.86-1.2-.93-1.4-1.3-1.18-.48-1.26.04-2.04,0-2.23-1.18-2.66-1.06-4.71-1.8l.09.44c-1.48-.49-1.72.19-3.31,0-.1-.08.51-.27,1.01-.35-1.43.19-1.36-.28-2.76.05.34-.24.71-.4,1.07-.61-1.16.07-2.78.68-2.28.12-1.9.85-5.27,2.04-7.16,3.81l-.06-.4c-.87,1.04-3.78,3.11-4.01,4.45l-.23.05c-.45.76-.74,1.63-1.1,2.41-.59,1.01-.86.39-.78.54-1.16,2.35-1.74,4.33-2.23,5.95.35.53,0,3.19.14,5.32-.58,10.52,7.38,20.73,16.09,23.09,1.28.46,3.17.44,4.79.49-1.9-.54-2.15-.29-4-.93-1.34-.63-1.63-1.35-2.58-2.17l.38.66c-1.86-.66-1.08-.81-2.59-1.29l.4-.52c-.6-.05-1.6-1.01-1.87-1.55l-.66.03c-.79-.98-1.21-1.68-1.18-2.23l-.21.38c-.24-.41-2.91-3.67-1.53-2.91-.26-.23-.6-.38-.97-1.06l.28-.32c-.67-.86-1.23-1.96-1.18-2.33.36.48.6.57.85.65-1.69-4.18-1.78-.23-3.06-4.25l.27-.02c-.21-.31-.33-.65-.5-.98l.12-1.17c-1.21-1.4-.34-5.96-.16-8.46.12-1.02,1.01-2.1,1.69-3.8l-.41-.07c.79-1.38,4.51-5.53,6.23-5.32.83-1.05-.17,0-.33-.27,1.83-1.9,2.41-1.34,3.65-1.68,1.33-.79-1.14.31-.51-.3,2.31-.59,1.63-1.34,4.64-1.64.32.18-.74.28-1,.51,1.92-.94,6.08-.73,8.78.52,3.13,1.46,6.65,5.79,6.79,9.86l.16.04c-.08,1.62.25,3.49-.32,5.21l.38-.81"/><path class="cls-1" d="m968.26,572.27l-.11.54c.5.68.9,1.42,1.54,1.96-.46-.9-.8-1.27-1.44-2.49"/><path class="cls-1" d="m969.45,572.22c-.27-.29-.42-.65-.6-1,.17.62.52,1.15.84,1.7l-.24-.69"/><path class="cls-1" d="m990.49,567.65l-.11.28c-.21,1.46-.65,2.91-1.33,4.25.75-1.42,1.24-2.97,1.45-4.54"/><path class="cls-1" d="m973.86,547.05c.52-.19,1.27-.1,1.82-.23-.72.06-1.43.1-2.13.19l.31.04"/><path class="cls-1" d="m955.7,556.71c.12,1.1-.83,1.53.21.8.56-1.26-.22-.35-.21-.8"/><path class="cls-1" d="m954.48,561.82c.24-.74.28-1.18.37-1.6-.66.85-.31,1.03-.37,1.6"/></g></g></svg>