<?xml version="1.0" encoding="utf-8"?>
<!-- Generator: $$$/GeneralStr/196=Adobe Illustrator 27.6.0, SVG Export Plug-In . SVG Version: 6.00 Build 0)  -->
<svg version="1.1" id="Calque_1" xmlns="http://www.w3.org/2000/svg" xmlns:xlink="http://www.w3.org/1999/xlink" x="0px" y="0px"
	 viewBox="0 0 1280 1024" style="enable-background:new 0 0 1280 1024;" xml:space="preserve">
<style type="text/css">
	.st0{clip-path:url(#SVGID_00000121243052151660087880000012412001274722608043_);}
	.st1{fill:url(#SVGID_00000149363219075504320280000001788881003342446986_);}
	.st2{fill:url(#SVGID_00000090263400000051489100000015982325476090173326_);}
	.st3{opacity:0.6;fill:url(#SVGID_00000115510866994295975710000011549208848495863942_);enable-background:new    ;}
	.st4{opacity:0.4;fill:url(#SVGID_00000176028186925433268270000012443413151571436980_);enable-background:new    ;}
	.st5{opacity:0.6;fill:url(#SVGID_00000062910218459570649310000004807202737939368623_);enable-background:new    ;}
	.st6{opacity:0.4;fill:url(#SVGID_00000092426267442908442800000017419035385226387617_);enable-background:new    ;}
	.st7{fill:url(#SVGID_00000176726555352984118530000006035799411861602494_);}
	.st8{opacity:0.6;fill:url(#SVGID_00000067943943735984905780000015792336047018873265_);enable-background:new    ;}
	.st9{fill:url(#SVGID_00000083080771837946677970000016091432463924244632_);}
	.st10{opacity:0.5;fill:url(#SVGID_00000127034774596151443560000017768569305782290060_);enable-background:new    ;}
	.st11{opacity:0.5;fill:url(#SVGID_00000031183139272165765760000002874511249455843518_);enable-background:new    ;}
	.st12{opacity:0.5;fill:url(#SVGID_00000037662911296227049010000003855982995467627687_);enable-background:new    ;}
	.st13{fill:#FFFFFF;}
</style>
<g>
	<defs>
		<rect id="SVGID_1_" width="1280" height="1024"/>
	</defs>
	<clipPath id="SVGID_00000009568054535720019420000005486093754639242936_">
		<use xlink:href="#SVGID_1_"  style="overflow:visible;"/>
	</clipPath>
	<g id="Calque_3" style="clip-path:url(#SVGID_00000009568054535720019420000005486093754639242936_);">
		
			<linearGradient id="SVGID_00000148663179135777081470000002115712789718667148_" gradientUnits="userSpaceOnUse" x1="-324.36" y1="511.345" x2="1603.04" y2="511.345" gradientTransform="matrix(1 0 0 -1 0 1024)">
			<stop  offset="0" style="stop-color:#2F7274"/>
			<stop  offset="0.5" style="stop-color:#69A8A8"/>
			<stop  offset="0.6" style="stop-color:#6CA9A8"/>
			<stop  offset="0.68" style="stop-color:#76ACA9"/>
			<stop  offset="0.76" style="stop-color:#88B2AA"/>
			<stop  offset="0.83" style="stop-color:#A0BBAC"/>
			<stop  offset="0.9" style="stop-color:#C0C6AE"/>
			<stop  offset="0.97" style="stop-color:#E7D3B1"/>
			<stop  offset="1" style="stop-color:#FCDBB3"/>
		</linearGradient>
		
			<rect x="-324.4" y="-124" style="fill:url(#SVGID_00000148663179135777081470000002115712789718667148_);" width="1927.4" height="1273.2"/>
	</g>
	<g id="LOGO" style="clip-path:url(#SVGID_00000009568054535720019420000005486093754639242936_);">
		
			<linearGradient id="SVGID_00000097485303702759775250000012517030297084965022_" gradientUnits="userSpaceOnUse" x1="5066.8721" y1="1141.6923" x2="5081.5723" y2="1141.6923" gradientTransform="matrix(-0.17 0 0 -0.52 1600.6801 1075.59)">
			<stop  offset="0" style="stop-color:#F2DAB8;stop-opacity:0"/>
			<stop  offset="1" style="stop-color:#FCDBB3"/>
		</linearGradient>
		
			<rect x="738.1" y="337" style="fill:url(#SVGID_00000097485303702759775250000012517030297084965022_);" width="2.5" height="289.7"/>
		
			<linearGradient id="SVGID_00000062900243703310569410000001632213335815485863_" gradientUnits="userSpaceOnUse" x1="-366.67" y1="-484.735" x2="-166.67" y2="-484.735" gradientTransform="matrix(6.123234e-17 1 1 -6.123234e-17 1107.1499 736.72)">
			<stop  offset="0" style="stop-color:#F2D6B0"/>
			<stop  offset="1" style="stop-color:#FF8C8E;stop-opacity:0"/>
		</linearGradient>
		
			<rect x="572.2" y="370.1" style="opacity:0.6;fill:url(#SVGID_00000062900243703310569410000001632213335815485863_);enable-background:new    ;" width="100.4" height="200"/>
		
			<radialGradient id="SVGID_00000163039471367567049570000005202784091973152653_" cx="530.96" cy="572.73" r="237.76" gradientTransform="matrix(1 0 0 -1 0 1024)" gradientUnits="userSpaceOnUse">
			<stop  offset="0" style="stop-color:#A80030"/>
			<stop  offset="1" style="stop-color:#FF8C8E;stop-opacity:0"/>
		</radialGradient>
		
			<circle style="opacity:0.4;fill:url(#SVGID_00000163039471367567049570000005202784091973152653_);enable-background:new    ;" cx="531" cy="451.3" r="237.8"/>
		
			<radialGradient id="SVGID_00000139279007491840177640000006414436961573022372_" cx="559.53" cy="453.31" r="270.8" gradientTransform="matrix(1 0 0 -1 0 1024)" gradientUnits="userSpaceOnUse">
			<stop  offset="0" style="stop-color:#F2D6B0"/>
			<stop  offset="1" style="stop-color:#FF8C8E;stop-opacity:0"/>
		</radialGradient>
		
			<circle style="opacity:0.6;fill:url(#SVGID_00000139279007491840177640000006414436961573022372_);enable-background:new    ;" cx="559.5" cy="570.7" r="270.8"/>
		
			<radialGradient id="SVGID_00000095310446785303895090000011940441213934333880_" cx="476.7" cy="436.64" r="146.34" gradientTransform="matrix(1 0 0 -1 0 1024)" gradientUnits="userSpaceOnUse">
			<stop  offset="0" style="stop-color:#A80030"/>
			<stop  offset="1" style="stop-color:#FF8C8E;stop-opacity:0"/>
		</radialGradient>
		
			<circle style="opacity:0.4;fill:url(#SVGID_00000095310446785303895090000011940441213934333880_);enable-background:new    ;" cx="476.7" cy="587.4" r="146.3"/>
		
			<linearGradient id="SVGID_00000125587801455775156680000015129163917503284136_" gradientUnits="userSpaceOnUse" x1="3043.5208" y1="-1103.6143" x2="3259.269" y2="-887.8558" gradientTransform="matrix(-1 0 0 1 3588.22 1431.28)">
			<stop  offset="0" style="stop-color:#487C80;stop-opacity:0"/>
			<stop  offset="1" style="stop-color:#5EA498"/>
		</linearGradient>
		
			<rect x="403.6" y="253" style="fill:url(#SVGID_00000125587801455775156680000015129163917503284136_);" width="66.4" height="365.1"/>
		
			<radialGradient id="SVGID_00000072983857070370473090000008203743937613279415_" cx="671.86" cy="593.35" r="248.14" gradientTransform="matrix(1 0 0 -1 0 1024)" gradientUnits="userSpaceOnUse">
			<stop  offset="0" style="stop-color:#F2D6B0"/>
			<stop  offset="1" style="stop-color:#FF8C8E;stop-opacity:0"/>
		</radialGradient>
		
			<circle style="opacity:0.6;fill:url(#SVGID_00000072983857070370473090000008203743937613279415_);enable-background:new    ;" cx="671.9" cy="430.6" r="248.1"/>
		
			<linearGradient id="SVGID_00000065035902772595183270000017942152888549769865_" gradientUnits="userSpaceOnUse" x1="479.97" y1="557.36" x2="479.97" y2="759.73" gradientTransform="matrix(-1 0 0 1 1157.47 -150.65)">
			<stop  offset="0" style="stop-color:#F2D6B0"/>
			<stop  offset="1" style="stop-color:#FF8C8E;stop-opacity:0"/>
		</linearGradient>
		
			<rect x="632.1" y="406.7" style="fill:url(#SVGID_00000065035902772595183270000017942152888549769865_);" width="90.8" height="202.4"/>
		
			<linearGradient id="SVGID_00000147185737757718615670000004765755012170915982_" gradientUnits="userSpaceOnUse" x1="2329.1536" y1="17.8659" x2="2692.2236" y2="17.8659" gradientTransform="matrix(6.735558e-17 -1.1 -0.41 -2.510526e-17 484.6 3160.9199)">
			<stop  offset="0" style="stop-color:#F2D6B0"/>
			<stop  offset="1" style="stop-color:#FF8C8E;stop-opacity:0"/>
		</linearGradient>
		
			<rect x="421.6" y="205" style="opacity:0.5;fill:url(#SVGID_00000147185737757718615670000004765755012170915982_);enable-background:new    ;" width="111.3" height="398.1"/>
		
			<linearGradient id="SVGID_00000150809640492394556960000005961559000243920793_" gradientUnits="userSpaceOnUse" x1="2624.2466" y1="-523.6341" x2="2817.2466" y2="-523.6341" gradientTransform="matrix(6.735558e-17 1.1 0.41 -2.510526e-17 945.4199 -2541.2202)">
			<stop  offset="0" style="stop-color:#F2D6B0"/>
			<stop  offset="1" style="stop-color:#FF8C8E;stop-opacity:0"/>
		</linearGradient>
		
			<rect x="722.3" y="337" style="opacity:0.5;fill:url(#SVGID_00000150809640492394556960000005961559000243920793_);enable-background:new    ;" width="16.8" height="211.6"/>
		
			<linearGradient id="SVGID_00000096746581466745038160000006056339272744760761_" gradientUnits="userSpaceOnUse" x1="2274.4636" y1="-53.4025" x2="2515.4136" y2="-53.4025" gradientTransform="matrix(6.735558e-17 -1.1 -0.41 -2.510526e-17 484.6 3160.9199)">
			<stop  offset="0" style="stop-color:#F2D6B0"/>
			<stop  offset="1" style="stop-color:#FF8C8E;stop-opacity:0"/>
		</linearGradient>
		
			<rect x="455.7" y="398.9" style="opacity:0.5;fill:url(#SVGID_00000096746581466745038160000006056339272744760761_);enable-background:new    ;" width="101.7" height="264.2"/>
		<g id="LOGO-2">
			<path class="st13" d="M857.6,486c0,0,0,7.6-0.1,9.6c-0.1,1.6-0.2,5-3.6,5s-4.4-4-4.6-5.8c-0.3-1.9-0.3-3.5-0.3-4.3
				c0-2.3,0.1-8.6,5.5-8.6c1.6,0,2.5,0.5,3.2,0.9L857.6,486L857.6,486z M843.8,491.6c0,13.3,7.1,13.3,8.1,13.3
				c2.9,0,4.8-1.6,5.6-4.4l0.1,4.2c0.9,0,1.8-0.1,3.3-0.1c0.5,0,1,0,1.3,0c0.4,0,0.8,0,1.2,0.1c-0.8-1.5-1.3-4.9-1.3-12.3
				s0-19.3,0.6-23c-1.7,0.8-3.2,1.3-6.4,1.6c1.3,1.4,1.3,2.1,1.3,8.3c-0.9-0.3-2-0.6-4-0.6C845.2,478.7,843.8,486.1,843.8,491.6"/>
			<path class="st13" d="M869.5,489.2c0-3.9,0.9-7.4,4.2-7.4c3.7,0,4,4,3.9,7.4H869.5z M882.2,489.6c0-5.5-1.1-11-8.1-11
				c-9.6,0-9.6,10.7-9.6,12.9c0,9.6,4.3,13.4,11.5,13.4c3.2,0,4.8-0.5,5.6-0.7c0-1.7,0.2-2.8,0.5-4.3c-1,0.6-2.3,1.4-5.1,1.4
				c-7.4,0-7.5-6.7-7.5-9h12.5L882.2,489.6"/>
			<path class="st13" d="M897.6,491.7c0,4.4-0.8,10.3-6.3,10.3c-0.8,0-1.7-0.1-2.3-0.3c-0.1-1.7-0.1-4.6-0.1-8c0-4,0.4-6.2,0.8-7.2
				c1-3.4,3.2-3.4,3.6-3.4C896.9,483,897.6,488,897.6,491.7L897.6,491.7z M884,496.8c0,3.5,0,5.5-0.6,7c1.9,0.8,4.4,1.2,7.2,1.2
				c1.8,0,7.2,0,10-5.9c1.4-2.8,1.8-6.4,1.8-9.2c0-1.7-0.2-5.4-1.5-7.8c-1.3-2.2-3.5-3.4-5.7-3.4c-4.5,0-5.9,3.8-6.6,5.7
				c0-2.4,0-10.8,0.4-15.1c-3.1,1.4-5,1.6-7,1.9c1.8,0.7,1.8,3.9,1.8,14L884,496.8"/>
			<path class="st13" d="M911.7,504.7c-1-0.1-1.6-0.2-3-0.2c-1.5,0-2.5,0.1-3.6,0.2c0.5-0.9,0.7-1.3,0.8-4.4
				c0.2-4.2,0.2-15.4-0.1-17.8c-0.2-1.8-0.7-2.1-1.3-2.5c3.9-0.4,5-0.6,6.8-1.5c-0.4,2.1-0.4,3.1-0.4,6.3
				C910.7,501,910.6,502.8,911.7,504.7"/>
			<path class="st13" d="M926.8,491.3c-0.1,3-0.1,5-1,6.7c-1,2.1-2.6,2.8-3.9,2.8c-2.8,0-3.5-2.4-3.5-4.7c0-4.4,4-4.8,5.8-4.8
				L926.8,491.3L926.8,491.3z M913.8,497.1c0,3,0.9,6,3.5,7.2c1.2,0.5,2.4,0.5,2.8,0.5c4.4,0,5.8-3.2,6.7-5.2c0,2.1,0,3.4,0.1,5
				c0.9,0,1.7-0.1,3.1-0.1c0.8,0,1.5,0.1,2.4,0.1c-0.5-0.8-0.8-1.3-1-3.1c-0.1-1.8-0.1-3.6-0.1-6.1l0-9.6c0-3.6-1-7.1-8-7.1
				c-4.7,0-7.4,1.4-8.8,2.1c0.6,1,1,1.9,1.5,4c1.8-1.6,4.3-2.5,6.7-2.5c3.9,0,3.9,2.6,3.9,6.3c-0.9,0-1.6-0.1-2.9-0.1
				C917.8,488.5,913.8,490.8,913.8,497.1"/>
			<path class="st13" d="M954,500c0,1.6,0,3.3,0.7,4.7c-1-0.1-1.6-0.2-3.6-0.2c-1.1,0-1.8,0.1-2.6,0.2c0.2-0.6,0.3-0.9,0.4-1.6
				c0.1-1.1,0.2-4.7,0.2-6V492c0-2.2,0-5.4-0.1-6.6c-0.1-0.8-0.3-3-3.1-3s-3.6,2-3.9,3.6c-0.4,1.6-0.4,3.5-0.4,10.4
				c0,6,0,6.6,0.5,8.3c-0.8-0.1-1.8-0.2-3.2-0.2c-1.1,0-1.9,0-2.8,0.2c0.3-0.8,0.5-1.1,0.6-3.8c0.1-2.6,0.3-15.4-0.1-18.4
				c-0.2-1.9-0.7-2.3-1.2-2.8c3.8-0.2,5-0.8,6.2-1.4v5c0.6-1.5,1.7-4.7,6.5-4.7c5.9,0,6,4.3,6,7.1L954,500"/>
			<path class="st13" d="M912.1,471.8l-3.9,3.9l-3.9-3.9l3.9-3.9L912.1,471.8"/>
			<path class="st13" d="M973.3,495.8c0,2.9,0,4.6,0.1,6.1c0.1,1.9,0.3,2.3,0.5,2.8c-0.8-0.1-1.5-0.1-2.3-0.1c-0.8,0-1.2,0-1.9,0.1
				c0.3-0.7,0.4-1.1,0.5-2.7c0.1-1.2,0.1-2.6,0.1-6.1v-3.4c-0.1-4.4-0.1-4.9-0.2-5.7c-1.3,0.5-2.5,1-3.8,1.7c0-0.3,0.1-0.6,0.1-0.9
				c0-0.6-0.1-0.9-0.1-1.3c1.5-0.3,4.7-1.2,7-2.9c-0.1,2.2-0.2,3.8-0.2,8.4L973.3,495.8L973.3,495.8z"/>
			<path class="st13" d="M986.1,493.9l0.6,0.1c1.4,0.2,4.5,1.1,4.5,4.9c0,1.7-0.8,6.1-7.3,6.1c-0.9,0-2.7-0.1-4.2-0.6
				c0.4-0.9,0.5-1.5,0.6-2.9c0.4,0.4,1.2,1.1,3.5,1.1c3.2,0,4.3-2,4.3-3.6c0-3.7-4.1-3.7-5.2-3.7c-1,0-1.3,0.1-1.8,0.2
				c0-0.4,0-0.7,0-1.1c0-0.4,0-0.9,0-1.3l0.8,0c1.1,0,5.5,0,5.5-3.7c0-1.8-1.2-3.2-3.8-3.2c-1.8,0-2.6,0.5-3.3,0.9
				c0.1-0.4,0.2-1,0.2-1.6c0-0.5,0-0.9-0.1-1.2c1.2-0.3,2.3-0.5,4-0.5c1.1,0,6.1,0,6.1,5.1c0,1.1-0.3,3.9-3.7,4.9L986.1,493.9
				L986.1,493.9z"/>
			<path class="st13" d="M816.6,483.2c-0.8,0,0.1,0.4,1.1,0.5c0.3-0.2,0.5-0.4,0.8-0.6C817.9,483.3,817.2,483.3,816.6,483.2"/>
			<path class="st13" d="M820.7,482.2c0.5-0.6,0.8-1.3,0.9-2c-0.1,0.5-0.4,0.9-0.6,1.4c-1.4,0.9-0.1-0.5,0-1.1
				C819.4,482.4,820.8,481.7,820.7,482.2"/>
			<path class="st13" d="M822.2,478.2c0.1-1.4-0.3-0.9-0.4-0.4C822,477.9,822.1,478.8,822.2,478.2"/>
			<path class="st13" d="M813.7,459.4c0.4,0.1,0.9,0.1,0.8,0.2C815,459.6,815.1,459.5,813.7,459.4"/>
			<path class="st13" d="M814.5,459.6l-0.3,0.1L814.5,459.6L814.5,459.6"/>
			<path class="st13" d="M827.3,478.8c0,1.2-0.4,1.8-0.7,2.9l-0.7,0.3c-0.5,1,0,0.7-0.3,1.5c-0.8,0.8-2.6,2.4-3.1,2.5
				c-0.4,0,0.3-0.5,0.4-0.7c-1.1,0.8-0.9,1.2-2.6,1.6l0-0.1c-4.3,2-10.2-2-10.1-7.4c0,0.3-0.1,0.3-0.2,0.4c-0.2-2.8,1.3-5.6,3.8-6.7
				c2.5-1.2,5.4-0.7,7.2,0.9c-1-1.3-2.9-2.6-5.2-2.5c-2.3,0-4.4,1.5-5.1,3c-1.2,0.7-1.3,2.8-1.8,3.2c-0.7,5,1.3,7.2,4.6,9.7
				c0.5,0.4,0.2,0.4,0.2,0.7c-1.1-0.5-2.1-1.3-2.9-2.2c0.4,0.6,0.9,1.3,1.5,1.8c-1-0.4-2.4-2.5-2.8-2.6c1.8,3.2,7.3,5.6,10.1,4.4
				c-1.3,0-3,0-4.5-0.5c-0.6-0.3-1.5-1-1.3-1.1c3.9,1.5,8,1.1,11.3-1.6c0.9-0.7,1.8-1.8,2.1-1.8c-0.4,0.6,0.1,0.3-0.2,0.8
				c0.9-1.4-0.4-0.6,0.9-2.4l0.5,0.6c-0.2-1.1,1.4-2.5,1.3-4.4c0.4-0.6,0.4,0.6,0,1.9c0.5-1.4,0.1-1.6,0.3-2.8
				c0.2,0.4,0.3,0.8,0.5,1.2c-0.3-1.4,0.4-2.3,0.5-3.1c-0.2-0.1-0.5,0.6-0.6-1c0-0.7,0.2-0.4,0.3-0.5c-0.1-0.1-0.5-0.6-0.7-1.6
				c0.2-0.2,0.4,0.6,0.6,0.7c-0.1-0.8-0.4-1.5-0.4-2.1c-0.6-1.3-0.2,0.2-0.7-0.6c-0.7-2.1,0.6-0.5,0.6-1.5c1,1.5,1.6,3.8,1.9,4.7
				c-0.2-1.2-0.5-2.3-0.9-3.4c0.3,0.1-0.5-2.4,0.4-0.7c-1-3.6-4.1-6.9-7-8.4c0.4,0.3,0.8,0.7,0.7,0.8c-1.5-0.9-1.2-0.9-1.4-1.3
				c-1.2-0.5-1.3,0-2,0c-2.2-1.2-2.7-1.1-4.7-1.8l0.1,0.4c-1.5-0.5-1.7,0.2-3.3,0c-0.1-0.1,0.5-0.3,1-0.4c-1.4,0.2-1.4-0.3-2.8,0
				c0.3-0.2,0.7-0.4,1.1-0.6c-1.2,0.1-2.8,0.7-2.3,0.1c-1.9,0.9-5.3,2-7.2,3.8l-0.1-0.4c-0.9,1-3.8,3.1-4,4.5l-0.2,0
				c-0.5,0.8-0.7,1.6-1.1,2.4c-0.6,1-0.9,0.4-0.8,0.5c-1.2,2.4-1.7,4.3-2.2,6c0.3,0.5,0,3.2,0.1,5.3c-0.6,10.5,7.4,20.7,16.1,23.1
				c1.3,0.5,3.2,0.4,4.8,0.5c-1.9-0.5-2.2-0.3-4-0.9c-1.3-0.6-1.6-1.4-2.6-2.2l0.4,0.7c-1.9-0.7-1.1-0.8-2.6-1.3l0.4-0.5
				c-0.6,0-1.6-1-1.9-1.5l-0.7,0c-0.8-1-1.2-1.7-1.2-2.2l-0.2,0.4c-0.2-0.4-2.9-3.7-1.5-2.9c-0.3-0.2-0.6-0.4-1-1.1l0.3-0.3
				c-0.7-0.9-1.2-2-1.2-2.3c0.4,0.5,0.6,0.6,0.8,0.6c-1.7-4.2-1.8-0.2-3.1-4.2l0.3,0c-0.2-0.3-0.3-0.6-0.5-1l0.1-1.2
				c-1.2-1.4-0.3-6-0.2-8.5c0.1-1,1-2.1,1.7-3.8l-0.4-0.1c0.8-1.4,4.5-5.5,6.2-5.3c0.8-1-0.2,0-0.3-0.3c1.8-1.9,2.4-1.3,3.7-1.7
				c1.3-0.8-1.1,0.3-0.5-0.3c2.3-0.6,1.6-1.3,4.6-1.6c0.3,0.2-0.7,0.3-1,0.5c1.9-0.9,6.1-0.7,8.8,0.5c3.1,1.5,6.7,5.8,6.8,9.9l0.2,0
				c-0.1,1.6,0.2,3.5-0.3,5.2L827.3,478.8"/>
			<path class="st13" d="M808.3,484.3l-0.1,0.5c0.5,0.7,0.9,1.4,1.5,2C809.2,485.9,808.9,485.5,808.3,484.3"/>
			<path class="st13" d="M809.5,484.2c-0.3-0.3-0.4-0.6-0.6-1c0.2,0.6,0.5,1.1,0.8,1.7L809.5,484.2"/>
			<path class="st13" d="M830.5,479.6l-0.1,0.3c-0.2,1.5-0.7,2.9-1.3,4.2C829.8,482.8,830.3,481.2,830.5,479.6"/>
			<path class="st13" d="M813.9,459c0.5-0.2,1.3-0.1,1.8-0.2c-0.7,0.1-1.4,0.1-2.1,0.2L813.9,459"/>
			<path class="st13" d="M795.7,468.7c0.1,1.1-0.8,1.5,0.2,0.8C796.5,468.2,795.7,469.2,795.7,468.7"/>
			<path class="st13" d="M794.5,473.8c0.2-0.7,0.3-1.2,0.4-1.6C794.2,473.1,794.5,473.2,794.5,473.8"/>
		</g>
	</g>
</g>
</svg>
