<?xml version="1.0" encoding="utf-8"?>
<!-- Generator: $$$/GeneralStr/196=Adobe Illustrator 27.6.0, SVG Export Plug-In . SVG Version: 6.00 Build 0)  -->
<svg version="1.1" id="Calque_1" xmlns="http://www.w3.org/2000/svg" xmlns:xlink="http://www.w3.org/1999/xlink" x="0px" y="0px"
	 viewBox="0 0 1920 1200" style="enable-background:new 0 0 1920 1200;" xml:space="preserve">
<style type="text/css">
	.st0{clip-path:url(#SVGID_00000130611434385494130970000002732845317640911289_);}
	.st1{fill:url(#SVGID_00000151512660829011656510000009165017312381981070_);}
	.st2{fill:url(#SVGID_00000106118983195676446170000007291859245992112264_);}
	.st3{opacity:0.6;fill:url(#SVGID_00000134951156859874516910000016386779510799791283_);enable-background:new    ;}
	.st4{opacity:0.4;fill:url(#SVGID_00000143595062249438109560000010197208822420081068_);enable-background:new    ;}
	.st5{opacity:0.6;fill:url(#SVGID_00000151531549206490783680000007400730912436667570_);enable-background:new    ;}
	.st6{opacity:0.4;fill:url(#SVGID_00000181785931767074552420000002095279190724690335_);enable-background:new    ;}
	.st7{fill:url(#SVGID_00000138536724346048042020000010272080425808032913_);}
	.st8{opacity:0.6;fill:url(#SVGID_00000132051636389224206420000002322294658032499631_);enable-background:new    ;}
	.st9{fill:url(#SVGID_00000120530189622086730240000016751647007893033875_);}
	.st10{opacity:0.5;fill:url(#SVGID_00000181083577169636255890000016679649675104124308_);enable-background:new    ;}
	.st11{opacity:0.5;fill:url(#SVGID_00000152261411041050646820000015648084295578798000_);enable-background:new    ;}
	.st12{opacity:0.5;fill:url(#SVGID_00000002358478935309739340000006148483525740370054_);enable-background:new    ;}
	.st13{fill:#FFFFFF;}
</style>
<g>
	<defs>
		<rect id="SVGID_1_" width="1920" height="1200"/>
	</defs>
	<clipPath id="SVGID_00000036235958978794504100000004792022258510259869_">
		<use xlink:href="#SVGID_1_"  style="overflow:visible;"/>
	</clipPath>
	<g id="Calque_3" style="clip-path:url(#SVGID_00000036235958978794504100000004792022258510259869_);">
		
			<linearGradient id="SVGID_00000118361704206895629990000015783681704568118698_" gradientUnits="userSpaceOnUse" x1="-4.36" y1="599.345" x2="1923.04" y2="599.345" gradientTransform="matrix(1 0 0 -1 0 1200)">
			<stop  offset="0" style="stop-color:#2F7274"/>
			<stop  offset="0.5" style="stop-color:#69A8A8"/>
			<stop  offset="0.6" style="stop-color:#6CA9A8"/>
			<stop  offset="0.68" style="stop-color:#76ACA9"/>
			<stop  offset="0.76" style="stop-color:#88B2AA"/>
			<stop  offset="0.83" style="stop-color:#A0BBAC"/>
			<stop  offset="0.9" style="stop-color:#C0C6AE"/>
			<stop  offset="0.97" style="stop-color:#E7D3B1"/>
			<stop  offset="1" style="stop-color:#FCDBB3"/>
		</linearGradient>
		
			<rect x="-4.4" y="-36" style="fill:url(#SVGID_00000118361704206895629990000015783681704568118698_);" width="1927.4" height="1273.2"/>
	</g>
	<g id="LOGO" style="clip-path:url(#SVGID_00000036235958978794504100000004792022258510259869_);">
		
			<linearGradient id="SVGID_00000083783765598824660570000006997271644939527586_" gradientUnits="userSpaceOnUse" x1="7589.2251" y1="1310.6346" x2="7603.9253" y2="1310.6346" gradientTransform="matrix(-0.17 0 0 -0.52 2348.9102 1251.4399)">
			<stop  offset="0" style="stop-color:#F2DAB8;stop-opacity:0"/>
			<stop  offset="1" style="stop-color:#FCDBB3"/>
		</linearGradient>
		
			<rect x="1058.1" y="425" style="fill:url(#SVGID_00000083783765598824660570000006997271644939527586_);" width="2.5" height="289.7"/>
		
			<linearGradient id="SVGID_00000172437713058260883280000000699946629560259733_" gradientUnits="userSpaceOnUse" x1="185.33" y1="-804.735" x2="385.33" y2="-804.735" gradientTransform="matrix(6.123234e-17 1 1 -6.123234e-17 1747.1499 272.72)">
			<stop  offset="0" style="stop-color:#F2D6B0"/>
			<stop  offset="1" style="stop-color:#FF8C8E;stop-opacity:0"/>
		</linearGradient>
		
			<rect x="892.2" y="458.1" style="opacity:0.6;fill:url(#SVGID_00000172437713058260883280000000699946629560259733_);enable-background:new    ;" width="100.4" height="200"/>
		
			<radialGradient id="SVGID_00000155832547683928348260000001272799991506340757_" cx="850.96" cy="660.73" r="237.76" gradientTransform="matrix(1 0 0 -1 0 1200)" gradientUnits="userSpaceOnUse">
			<stop  offset="0" style="stop-color:#A80030"/>
			<stop  offset="1" style="stop-color:#FF8C8E;stop-opacity:0"/>
		</radialGradient>
		
			<circle style="opacity:0.4;fill:url(#SVGID_00000155832547683928348260000001272799991506340757_);enable-background:new    ;" cx="851" cy="539.3" r="237.8"/>
		
			<radialGradient id="SVGID_00000159444506176487080620000007796524852605565093_" cx="879.53" cy="541.31" r="270.8" gradientTransform="matrix(1 0 0 -1 0 1200)" gradientUnits="userSpaceOnUse">
			<stop  offset="0" style="stop-color:#F2D6B0"/>
			<stop  offset="1" style="stop-color:#FF8C8E;stop-opacity:0"/>
		</radialGradient>
		
			<circle style="opacity:0.6;fill:url(#SVGID_00000159444506176487080620000007796524852605565093_);enable-background:new    ;" cx="879.5" cy="658.7" r="270.8"/>
		
			<radialGradient id="SVGID_00000004522981577167928650000001472293184272521899_" cx="796.7" cy="524.64" r="146.34" gradientTransform="matrix(1 0 0 -1 0 1200)" gradientUnits="userSpaceOnUse">
			<stop  offset="0" style="stop-color:#A80030"/>
			<stop  offset="1" style="stop-color:#FF8C8E;stop-opacity:0"/>
		</radialGradient>
		
			<circle style="opacity:0.4;fill:url(#SVGID_00000004522981577167928650000001472293184272521899_);enable-background:new    ;" cx="796.7" cy="675.4" r="146.3"/>
		
			<linearGradient id="SVGID_00000101062506365448822770000008990114369482914469_" gradientUnits="userSpaceOnUse" x1="4003.5208" y1="-1191.6143" x2="4219.269" y2="-975.8558" gradientTransform="matrix(-1 0 0 1 4868.2197 1607.28)">
			<stop  offset="0" style="stop-color:#487C80;stop-opacity:0"/>
			<stop  offset="1" style="stop-color:#5EA498"/>
		</linearGradient>
		
			<rect x="723.6" y="341" style="fill:url(#SVGID_00000101062506365448822770000008990114369482914469_);" width="66.4" height="365.1"/>
		
			<radialGradient id="SVGID_00000048498431099160383890000006176427232022742965_" cx="991.86" cy="681.35" r="248.14" gradientTransform="matrix(1 0 0 -1 0 1200)" gradientUnits="userSpaceOnUse">
			<stop  offset="0" style="stop-color:#F2D6B0"/>
			<stop  offset="1" style="stop-color:#FF8C8E;stop-opacity:0"/>
		</radialGradient>
		
			<circle style="opacity:0.6;fill:url(#SVGID_00000048498431099160383890000006176427232022742965_);enable-background:new    ;" cx="991.9" cy="518.7" r="248.1"/>
		
			<linearGradient id="SVGID_00000152256674159478296810000000716053722217701811_" gradientUnits="userSpaceOnUse" x1="1439.97" y1="469.36" x2="1439.97" y2="671.73" gradientTransform="matrix(-1 0 0 1 2437.47 25.3501)">
			<stop  offset="0" style="stop-color:#F2D6B0"/>
			<stop  offset="1" style="stop-color:#FF8C8E;stop-opacity:0"/>
		</linearGradient>
		
			<rect x="952.1" y="494.7" style="fill:url(#SVGID_00000152256674159478296810000000716053722217701811_);" width="90.8" height="202.4"/>
		
			<linearGradient id="SVGID_00000033359955354092466770000008794156945775787451_" gradientUnits="userSpaceOnUse" x1="3049.1536" y1="798.6464" x2="3412.2236" y2="798.6464" gradientTransform="matrix(6.735558e-17 -1.1 -0.41 -2.510526e-17 1124.72 4039.8201)">
			<stop  offset="0" style="stop-color:#F2D6B0"/>
			<stop  offset="1" style="stop-color:#FF8C8E;stop-opacity:0"/>
		</linearGradient>
		
			<rect x="741.6" y="293" style="opacity:0.5;fill:url(#SVGID_00000033359955354092466770000008794156945775787451_);enable-background:new    ;" width="111.3" height="398.1"/>
		
			<linearGradient id="SVGID_00000150098022965311140290000000541638266588547494_" gradientUnits="userSpaceOnUse" x1="3184.2466" y1="-1303.8292" x2="3377.2466" y2="-1303.8292" gradientTransform="matrix(6.735558e-17 1.1 0.41 -2.510526e-17 1585.2999 -3068.1301)">
			<stop  offset="0" style="stop-color:#F2D6B0"/>
			<stop  offset="1" style="stop-color:#FF8C8E;stop-opacity:0"/>
		</linearGradient>
		
			<rect x="1042.3" y="425" style="opacity:0.5;fill:url(#SVGID_00000150098022965311140290000000541638266588547494_);enable-background:new    ;" width="16.8" height="211.6"/>
		
			<linearGradient id="SVGID_00000057840465029818338680000002381846005204975036_" gradientUnits="userSpaceOnUse" x1="2994.4636" y1="727.3781" x2="3235.4136" y2="727.3781" gradientTransform="matrix(6.735558e-17 -1.1 -0.41 -2.510526e-17 1124.72 4039.8301)">
			<stop  offset="0" style="stop-color:#F2D6B0"/>
			<stop  offset="1" style="stop-color:#FF8C8E;stop-opacity:0"/>
		</linearGradient>
		
			<rect x="775.7" y="486.9" style="opacity:0.5;fill:url(#SVGID_00000057840465029818338680000002381846005204975036_);enable-background:new    ;" width="101.7" height="264.2"/>
		<g id="LOGO-2">
			<path class="st13" d="M1177.6,574c0,0,0,7.6-0.1,9.6c-0.1,1.6-0.2,5-3.6,5s-4.4-4-4.6-5.8c-0.3-1.9-0.3-3.5-0.3-4.3
				c0-2.3,0.1-8.6,5.5-8.6c1.6,0,2.5,0.5,3.2,0.9L1177.6,574L1177.6,574z M1163.9,579.6c0,13.3,7.1,13.3,8.1,13.3
				c2.9,0,4.8-1.6,5.6-4.4l0.1,4.2c0.9,0,1.8-0.1,3.3-0.1c0.5,0,0.9,0,1.3,0c0.4,0,0.8,0,1.2,0.1c-0.8-1.5-1.3-4.9-1.3-12.3
				s0-19.3,0.6-23c-1.7,0.8-3.2,1.3-6.4,1.6c1.3,1.4,1.3,2.1,1.3,8.3c-0.9-0.3-2-0.6-4-0.6C1165.2,566.7,1163.9,574.1,1163.9,579.6"
				/>
			<path class="st13" d="M1189.5,577.2c0-3.9,0.9-7.4,4.2-7.4c3.7,0,4,4,3.9,7.4H1189.5z M1202.2,577.6c0-5.5-1.1-11-8.1-11
				c-9.6,0-9.6,10.7-9.6,12.9c0,9.6,4.3,13.4,11.5,13.4c3.2,0,4.8-0.5,5.6-0.7c0-1.7,0.2-2.8,0.5-4.3c-1,0.6-2.3,1.4-5.1,1.4
				c-7.4,0-7.5-6.7-7.5-9h12.6L1202.2,577.6"/>
			<path class="st13" d="M1217.6,579.7c0,4.4-0.8,10.3-6.3,10.3c-0.8,0-1.7-0.1-2.3-0.3c-0.1-1.7-0.1-4.6-0.1-8c0-4,0.4-6.2,0.8-7.2
				c1-3.4,3.2-3.4,3.6-3.4C1216.9,571,1217.6,576,1217.6,579.7L1217.6,579.7z M1204,584.8c0,3.5,0,5.5-0.6,7
				c1.9,0.8,4.4,1.2,7.2,1.2c1.8,0,7.2,0,10.1-5.9c1.4-2.8,1.8-6.4,1.8-9.2c0-1.7-0.2-5.4-1.6-7.8c-1.3-2.2-3.4-3.4-5.7-3.4
				c-4.5,0-5.9,3.8-6.6,5.7c0-2.4,0-10.8,0.4-15.1c-3.1,1.4-5,1.6-7,1.8c1.8,0.7,1.8,3.9,1.8,14L1204,584.8"/>
			<path class="st13" d="M1231.7,592.7c-0.9-0.1-1.6-0.2-3-0.2c-1.5,0-2.5,0.1-3.6,0.2c0.5-0.9,0.7-1.3,0.8-4.4
				c0.2-4.2,0.2-15.4-0.1-17.8c-0.2-1.8-0.7-2.1-1.3-2.5c3.9-0.4,5-0.7,6.8-1.5c-0.4,2.1-0.4,3.1-0.4,6.3
				C1230.7,589,1230.6,590.8,1231.7,592.7"/>
			<path class="st13" d="M1246.8,579.3c-0.1,3-0.1,5-0.9,6.7c-1,2.1-2.6,2.8-3.9,2.8c-2.8,0-3.4-2.4-3.4-4.7c0-4.4,4-4.8,5.8-4.8
				L1246.8,579.3L1246.8,579.3L1246.8,579.3z M1233.8,585.2c0,3,0.9,6,3.5,7.2c1.2,0.5,2.4,0.5,2.8,0.5c4.4,0,5.8-3.2,6.7-5.2
				c0,2.1,0,3.4,0.1,5c0.9,0,1.7-0.1,3.1-0.1c0.8,0,1.6,0.1,2.4,0.1c-0.5-0.8-0.8-1.3-0.9-3.1c-0.1-1.8-0.1-3.6-0.1-6.1l0-9.6
				c0-3.6-0.9-7.1-8-7.1c-4.7,0-7.4,1.4-8.8,2.1c0.6,1,1,1.9,1.5,4c1.8-1.6,4.3-2.5,6.7-2.5c3.9,0,3.9,2.6,3.9,6.3
				c-0.9,0-1.6-0.1-2.9-0.1C1237.8,576.5,1233.8,578.8,1233.8,585.2"/>
			<path class="st13" d="M1274,588c0,1.6,0,3.3,0.7,4.7c-1-0.1-1.6-0.2-3.6-0.2c-1.1,0-1.8,0.1-2.6,0.2c0.2-0.6,0.3-0.9,0.4-1.6
				c0.1-1.1,0.2-4.7,0.2-6V580c0-2.2,0-5.4-0.1-6.6c-0.1-0.8-0.3-3-3.1-3s-3.6,2-3.9,3.6c-0.4,1.6-0.4,3.5-0.4,10.4
				c0,6,0,6.6,0.5,8.3c-0.8-0.1-1.8-0.2-3.2-0.2c-1.1,0-1.9,0-2.8,0.2c0.3-0.8,0.5-1.1,0.6-3.8c0.1-2.6,0.3-15.3-0.1-18.4
				c-0.2-1.8-0.7-2.3-1.2-2.8c3.8-0.2,5.1-0.8,6.2-1.4v5c0.6-1.5,1.7-4.7,6.5-4.7c5.9,0,5.9,4.3,6,7.1L1274,588"/>
			<path class="st13" d="M1232.1,559.8l-3.9,3.9l-3.9-3.9l3.9-3.9L1232.1,559.8"/>
			<path class="st13" d="M1293.3,583.8c0,2.9,0,4.6,0.1,6.1c0.1,1.8,0.3,2.3,0.5,2.8c-0.8-0.1-1.6-0.1-2.3-0.1c-0.8,0-1.2,0-1.9,0.1
				c0.3-0.7,0.4-1.1,0.5-2.7c0.1-1.2,0.1-2.6,0.1-6.1v-3.4c-0.1-4.4-0.1-4.9-0.2-5.7c-1.3,0.5-2.6,1-3.8,1.7c0-0.3,0.1-0.6,0.1-0.9
				c0-0.6-0.1-0.9-0.1-1.3c1.5-0.3,4.7-1.2,7-2.9c-0.1,2.2-0.2,3.8-0.2,8.3L1293.3,583.8L1293.3,583.8z"/>
			<path class="st13" d="M1306.1,581.9l0.6,0.1c1.4,0.2,4.5,1.1,4.5,4.9c0,1.7-0.8,6.1-7.3,6.1c-0.9,0-2.7-0.1-4.2-0.6
				c0.4-0.9,0.5-1.5,0.6-2.9c0.4,0.3,1.2,1.1,3.5,1.1c3.2,0,4.3-2,4.3-3.6c0-3.7-4.1-3.7-5.2-3.7c-1,0-1.3,0.1-1.8,0.2
				c0-0.4,0-0.7,0-1.1c0-0.4,0-0.8,0-1.3l0.8,0c1.1,0,5.4,0,5.4-3.7c0-1.8-1.2-3.2-3.8-3.2c-1.8,0-2.6,0.5-3.3,0.9
				c0.1-0.4,0.2-1,0.2-1.6c0-0.5,0-0.8-0.1-1.2c1.2-0.3,2.3-0.5,4-0.5c1.1,0,6.1,0,6.1,5.1c0,1.1-0.3,3.9-3.7,4.9L1306.1,581.9
				L1306.1,581.9z"/>
			<path class="st13" d="M1136.6,571.2c-0.8,0,0.1,0.4,1.1,0.5c0.3-0.2,0.5-0.4,0.8-0.7C1137.9,571.3,1137.2,571.3,1136.6,571.2"/>
			<path class="st13" d="M1140.7,570.2c0.5-0.6,0.8-1.3,0.9-2c-0.1,0.5-0.4,0.9-0.6,1.4c-1.4,0.9-0.1-0.5,0-1.1
				C1139.4,570.4,1140.8,569.7,1140.7,570.2"/>
			<path class="st13" d="M1142.2,566.2c0.1-1.4-0.3-0.9-0.4-0.4C1142,565.9,1142.1,566.8,1142.2,566.2"/>
			<path class="st13" d="M1133.7,547.4c0.4,0.1,0.9,0.1,0.8,0.2C1135,547.5,1135.1,547.5,1133.7,547.4"/>
			<path class="st13" d="M1134.5,547.7l-0.3,0.1L1134.5,547.7L1134.5,547.7"/>
			<path class="st13" d="M1147.3,566.8c0.1,1.2-0.4,1.8-0.7,2.9l-0.7,0.3c-0.5,1,0.1,0.7-0.3,1.5c-0.8,0.8-2.6,2.3-3.1,2.5
				c-0.4,0,0.3-0.5,0.4-0.7c-1.1,0.8-0.9,1.2-2.6,1.6l-0.1-0.1c-4.3,2-10.2-2-10.1-7.4c-0.1,0.3-0.1,0.3-0.2,0.4
				c-0.2-2.8,1.3-5.6,3.8-6.7c2.5-1.2,5.4-0.7,7.2,0.9c-1-1.3-2.9-2.6-5.2-2.5c-2.3,0-4.4,1.5-5.1,3c-1.2,0.7-1.3,2.8-1.8,3.2
				c-0.7,5,1.3,7.2,4.6,9.7c0.5,0.3,0.2,0.4,0.2,0.7c-1.1-0.5-2.1-1.3-2.9-2.2c0.4,0.6,0.9,1.3,1.5,1.8c-1-0.3-2.4-2.5-2.8-2.6
				c1.8,3.2,7.3,5.6,10.1,4.4c-1.3,0-3,0-4.5-0.5c-0.6-0.3-1.5-1-1.3-1.1c3.9,1.5,7.9,1.1,11.3-1.6c0.9-0.7,1.8-1.8,2.1-1.8
				c-0.4,0.6,0.1,0.3-0.2,0.8c0.9-1.4-0.4-0.6,0.9-2.4l0.5,0.6c-0.2-1.2,1.4-2.5,1.3-4.4c0.4-0.6,0.4,0.6,0,1.9
				c0.5-1.4,0.1-1.6,0.3-2.8c0.2,0.4,0.3,0.8,0.4,1.2c-0.3-1.4,0.4-2.3,0.5-3.1c-0.2-0.1-0.5,0.6-0.6-1c0-0.7,0.2-0.4,0.3-0.5
				c-0.1-0.1-0.5-0.6-0.7-1.7c0.2-0.2,0.4,0.6,0.6,0.7c-0.1-0.8-0.4-1.5-0.4-2.1c-0.6-1.3-0.2,0.2-0.7-0.6c-0.7-2.1,0.6-0.5,0.6-1.5
				c1,1.5,1.6,3.8,1.9,4.7c-0.2-1.2-0.5-2.3-0.9-3.4c0.3,0.1-0.5-2.4,0.4-0.7c-1-3.6-4.1-6.9-7.1-8.4c0.4,0.3,0.8,0.7,0.7,0.8
				c-1.4-0.9-1.2-0.9-1.4-1.3c-1.2-0.5-1.3,0-2,0c-2.2-1.2-2.7-1.1-4.7-1.8l0.1,0.4c-1.5-0.5-1.7,0.2-3.3,0c-0.1-0.1,0.5-0.3,1-0.3
				c-1.4,0.2-1.4-0.3-2.8,0c0.3-0.2,0.7-0.4,1.1-0.6c-1.2,0.1-2.8,0.7-2.3,0.1c-1.9,0.8-5.3,2-7.2,3.8l-0.1-0.4
				c-0.9,1-3.8,3.1-4,4.5l-0.2,0c-0.4,0.8-0.7,1.6-1.1,2.4c-0.6,1-0.9,0.4-0.8,0.5c-1.2,2.3-1.7,4.3-2.2,6c0.3,0.5,0,3.2,0.1,5.3
				c-0.6,10.5,7.4,20.7,16.1,23.1c1.3,0.5,3.2,0.4,4.8,0.5c-1.9-0.5-2.2-0.3-4-0.9c-1.3-0.6-1.6-1.3-2.6-2.2l0.4,0.7
				c-1.9-0.7-1.1-0.8-2.6-1.3l0.4-0.5c-0.6,0-1.6-1-1.9-1.5l-0.7,0c-0.8-1-1.2-1.7-1.2-2.2l-0.2,0.4c-0.2-0.4-2.9-3.7-1.5-2.9
				c-0.3-0.2-0.6-0.4-1-1.1l0.3-0.3c-0.7-0.9-1.2-2-1.2-2.3c0.4,0.5,0.6,0.6,0.8,0.7c-1.7-4.2-1.8-0.2-3.1-4.2l0.3,0
				c-0.2-0.3-0.3-0.7-0.5-1l0.1-1.2c-1.2-1.4-0.3-6-0.2-8.5c0.1-1,1-2.1,1.7-3.8l-0.4-0.1c0.8-1.4,4.5-5.5,6.2-5.3
				c0.8-1-0.2,0-0.3-0.3c1.8-1.9,2.4-1.3,3.7-1.7c1.3-0.8-1.1,0.3-0.5-0.3c2.3-0.6,1.6-1.3,4.6-1.6c0.3,0.2-0.7,0.3-1,0.5
				c1.9-0.9,6.1-0.7,8.8,0.5c3.1,1.5,6.7,5.8,6.8,9.9l0.2,0c-0.1,1.6,0.2,3.5-0.3,5.2L1147.3,566.8"/>
			<path class="st13" d="M1128.3,572.3l-0.1,0.5c0.5,0.7,0.9,1.4,1.5,2C1129.2,573.9,1128.9,573.5,1128.3,572.3"/>
			<path class="st13" d="M1129.4,572.2c-0.3-0.3-0.4-0.7-0.6-1c0.2,0.6,0.5,1.2,0.8,1.7L1129.4,572.2"/>
			<path class="st13" d="M1150.5,567.7l-0.1,0.3c-0.2,1.5-0.7,2.9-1.3,4.2C1149.8,570.8,1150.3,569.2,1150.5,567.7"/>
			<path class="st13" d="M1133.9,547c0.5-0.2,1.3-0.1,1.8-0.2c-0.7,0.1-1.4,0.1-2.1,0.2L1133.9,547"/>
			<path class="st13" d="M1115.7,556.7c0.1,1.1-0.8,1.5,0.2,0.8C1116.5,556.2,1115.7,557.2,1115.7,556.7"/>
			<path class="st13" d="M1114.5,561.8c0.2-0.7,0.3-1.2,0.4-1.6C1114.2,561.1,1114.5,561.3,1114.5,561.8"/>
		</g>
	</g>
</g>
</svg>
