<?xml version="1.0" encoding="UTF-8"?><svg id="Calque_1" xmlns="http://www.w3.org/2000/svg" xmlns:xlink="http://www.w3.org/1999/xlink" viewBox="0 0 380 380"><defs><style>.cls-1{fill:#fff;}.cls-2{fill:url(#Dégradé_sans_nom_304-2);}.cls-3{fill:url(#Dégradé_sans_nom_34);}.cls-4{fill:url(#Dégradé_sans_nom_304-6);}.cls-4,.cls-5,.cls-6,.cls-7,.cls-8{opacity:.5;}.cls-5{fill:url(#Dégradé_sans_nom_304-5);}.cls-6{fill:url(#Dégradé_sans_nom_304-4);}.cls-7{fill:url(#Dégradé_sans_nom_304-3);}.cls-9{fill:url(#Dégradé_sans_nom_153);opacity:.4;}.cls-10{fill:url(#Dégradé_sans_nom_304);opacity:.6;}.cls-8{fill:url(#Dégradé_sans_nom_334);}.cls-11{fill:url(#Dégradé_sans_nom_342);}</style><linearGradient id="Dégradé_sans_nom_342" x1="-4.83" y1="220.98" x2="385.88" y2="220.98" gradientUnits="userSpaceOnUse"><stop offset="0" stop-color="#2f7274"/><stop offset=".5" stop-color="#69a8a8"/><stop offset=".6" stop-color="#6ca9a8"/><stop offset=".68" stop-color="#76aca9"/><stop offset=".76" stop-color="#88b2aa"/><stop offset=".83" stop-color="#a0bbac"/><stop offset=".9" stop-color="#c0c6ae"/><stop offset=".97" stop-color="#e7d3b1"/><stop offset="1" stop-color="#fcdbb3"/></linearGradient><linearGradient id="Dégradé_sans_nom_304" x1="-555.24" y1="1053.28" x2="-355.24" y2="1053.28" gradientTransform="translate(739.49 -726.68)" gradientUnits="userSpaceOnUse"><stop offset="0" stop-color="#f2d6b0"/><stop offset="1" stop-color="#ff8c8e" stop-opacity="0"/></linearGradient><radialGradient id="Dégradé_sans_nom_153" cx="306.28" cy="430.39" fx="306.28" fy="430.39" r="237.76" gradientUnits="userSpaceOnUse"><stop offset="0" stop-color="#a80030"/><stop offset="1" stop-color="#ff8c8e" stop-opacity="0"/></radialGradient><linearGradient id="Dégradé_sans_nom_304-2" x1="337.54" y1="449.2" x2="337.54" y2="154.6" gradientTransform="matrix(1,0,0,1,0,0)" xlink:href="#Dégradé_sans_nom_304"/><linearGradient id="Dégradé_sans_nom_304-3" x1="1768.56" y1="601.64" x2="2131.64" y2="601.64" gradientTransform="translate(-2093.56 -59.65) scale(1.1 .41)" xlink:href="#Dégradé_sans_nom_304"/><linearGradient id="Dégradé_sans_nom_334" x1="-12.45" y1="338.29" x2="386.34" y2="338.29" gradientUnits="userSpaceOnUse"><stop offset="0" stop-color="#206f73"/><stop offset=".31" stop-color="#69a8a8"/><stop offset=".37" stop-color="#6ca9a8"/><stop offset=".43" stop-color="#76aca9"/><stop offset=".48" stop-color="#88b2aa"/><stop offset=".53" stop-color="#a0bbac"/><stop offset=".58" stop-color="#c0c6ae"/><stop offset=".6" stop-color="#d0ccb0"/><stop offset="1" stop-color="#fcdbb3" stop-opacity="0"/></linearGradient><linearGradient id="Dégradé_sans_nom_304-4" x1="1714.52" y1="648.78" x2="2085.74" y2="648.78" gradientTransform="translate(-2019.5 -24.12) scale(1.1 .41)" xlink:href="#Dégradé_sans_nom_304"/><linearGradient id="Dégradé_sans_nom_304-5" x1="1707.15" y1="1399.28" x2="2144.81" y2="1399.28" gradientTransform="translate(-1741.14 -359.16) scale(1.1 .41)" xlink:href="#Dégradé_sans_nom_304"/><linearGradient id="Dégradé_sans_nom_304-6" x1="1721.33" y1="643.81" x2="1962.27" y2="643.81" gradientTransform="translate(-1957.57 41.88) scale(1.1 .41)" xlink:href="#Dégradé_sans_nom_304"/><radialGradient id="Dégradé_sans_nom_34" cx="69.6" cy="359.47" fx="69.6" fy="359.47" r="187.75" gradientUnits="userSpaceOnUse"><stop offset="0" stop-color="#009696"/><stop offset="1" stop-color="#497e81" stop-opacity="0"/></radialGradient></defs><rect class="cls-11" x="-4.83" y="-6.65" width="390.71" height="455.25"/><rect class="cls-10" x="184.25" y="262.04" width="200" height="129.13" transform="translate(610.85 42.35) rotate(90)"/><circle class="cls-9" cx="306.28" cy="430.39" r="237.76"/><rect class="cls-2" x="292.14" y="154.6" width="90.8" height="294.6"/><rect class="cls-7" x="-154.2" y="130.59" width="398.14" height="111.27" transform="translate(-141.35 231.09) rotate(-90)"/><rect class="cls-8" x="-12.45" y="274.2" width="398.78" height="128.18"/><rect class="cls-6" x="-139.4" y="160.69" width="407.07" height="160.66" transform="translate(-176.88 305.15) rotate(-90)"/><rect class="cls-5" x="130.87" y="204.51" width="479.93" height="16.31" transform="translate(158.17 583.5) rotate(-90)"/><rect class="cls-4" x="-70" y="254.14" width="264.21" height="101.67" transform="translate(-242.88 367.08) rotate(-90)"/><circle class="cls-3" cx="69.6" cy="359.47" r="187.75"/><path class="cls-1" d="m107.19,248.04c-.06.06-.06,10.54-.18,13.27-.12,2.2-.3,6.96-5,6.96s-6.01-5.54-6.37-7.98c-.48-2.68-.48-4.88-.48-5.89,0-3.15.18-11.85,7.56-11.85,2.2,0,3.45.65,4.4,1.19l.06,4.29Zm-18.93,7.68c0,18.39,9.76,18.39,11.19,18.39,4.05,0,6.67-2.2,7.74-6.07l.12,5.77c1.25-.06,2.5-.18,4.52-.18.71,0,1.31,0,1.85.06.54,0,1.07.06,1.61.12-1.07-2.08-1.85-6.79-1.85-16.96s0-26.67.83-31.73c-2.32,1.13-4.35,1.85-8.81,2.2,1.79,1.9,1.79,2.86,1.79,11.49-1.25-.42-2.8-.83-5.48-.83-11.61,0-13.51,10.18-13.51,17.74"/><path class="cls-1" d="m123.62,252.38c.06-5.42,1.19-10.24,5.77-10.24,5.06,0,5.48,5.6,5.36,10.24h-11.13Zm17.62.65c0-7.62-1.49-15.12-11.13-15.12-13.27,0-13.27,14.76-13.27,17.86,0,13.21,5.95,18.45,15.89,18.45,4.4,0,6.61-.65,7.74-.95-.06-2.32.24-3.87.65-5.89-1.37.83-3.15,1.96-7.02,1.96-10.18,0-10.3-9.29-10.3-12.44h17.32l.12-3.87"/><path class="cls-1" d="m162.43,255.84c0,6.07-1.13,14.23-8.69,14.23-1.07,0-2.32-.18-3.21-.42-.12-2.32-.12-6.37-.12-11.07,0-5.6.6-8.51,1.07-10,1.37-4.64,4.4-4.7,5-4.7,5,.06,5.95,6.91,5.95,11.96Zm-18.69,7.08c0,4.82,0,7.56-.77,9.64,2.68,1.07,6.01,1.61,10,1.61,2.56,0,9.88,0,13.87-8.16,1.9-3.81,2.56-8.87,2.56-12.74,0-2.32-.24-7.5-2.14-10.77-1.85-3.04-4.76-4.64-7.86-4.64-6.25,0-8.1,5.24-9.05,7.92,0-3.33.06-14.94.6-20.83-4.23,1.96-6.85,2.26-9.64,2.56,2.56,1.01,2.56,5.36,2.56,19.35l-.12,16.07"/><path class="cls-1" d="m181.89,273.81c-1.31-.18-2.2-.3-4.11-.3-2.08,0-3.51.12-5,.3.65-1.25.89-1.85,1.13-6.07.24-5.83.3-21.31-.12-24.58-.3-2.5-.89-2.86-1.85-3.51,5.36-.54,6.85-.89,9.35-2.08-.54,2.86-.6,4.29-.6,8.69-.18,22.5-.24,24.88,1.19,27.56"/><path class="cls-1" d="m202.78,255.36c-.12,4.11-.18,6.96-1.31,9.29-1.37,2.92-3.63,3.81-5.36,3.81-3.93,0-4.76-3.27-4.76-6.43,0-6.13,5.48-6.61,7.98-6.61h3.45v-.06Zm-17.92,8.04c0,4.11,1.25,8.21,4.88,10,1.61.71,3.27.71,3.81.71,6.01,0,8.04-4.46,9.29-7.2-.06,2.86,0,4.64.18,6.91,1.19-.06,2.32-.18,4.29-.18,1.13,0,2.14.12,3.27.18-.71-1.13-1.13-1.79-1.31-4.29-.12-2.5-.12-4.94-.12-8.39l.06-13.27c0-4.94-1.31-9.82-11.07-9.82-6.43,0-10.24,1.96-12.14,2.92.77,1.43,1.43,2.68,2.02,5.48,2.56-2.2,5.89-3.39,9.29-3.39,5.42,0,5.42,3.57,5.42,8.69-1.25-.06-2.26-.18-4.05-.18-8.33-.06-13.81,3.1-13.81,11.85"/><path class="cls-1" d="m240.35,267.38c.06,2.2.06,4.58.95,6.43-1.43-.12-2.26-.3-4.94-.3-1.55,0-2.44.12-3.63.3.24-.83.42-1.19.54-2.26.18-1.49.3-6.55.3-8.27v-7.02c0-3.04,0-7.5-.18-9.05-.12-1.13-.48-4.11-4.23-4.11s-4.94,2.74-5.42,4.94c-.54,2.26-.54,4.76-.54,14.41.06,8.33.06,9.11.71,11.43-1.13-.12-2.5-.24-4.4-.24-1.55,0-2.62.06-3.93.24.48-1.07.71-1.55.83-5.24.12-3.57.42-21.19-.18-25.36-.3-2.56-.95-3.15-1.67-3.81,5.3-.24,6.96-1.13,8.63-1.96v6.91c.77-2.02,2.38-6.55,8.93-6.55,8.16,0,8.21,5.95,8.27,9.82l-.06,19.7"/><path class="cls-1" d="m182.43,228.33l-5.42,5.42-5.42-5.42,5.42-5.42,5.42,5.42"/><path class="cls-1" d="m266.88,261.58c0,3.96.04,6.31.12,8.37.12,2.55.36,3.11.73,3.84-1.09-.12-2.14-.12-3.15-.12-1.17,0-1.7.04-2.59.12.4-1.01.57-1.58.65-3.72.08-1.62.12-3.6.16-8.37v-4.69c-.12-6.06-.12-6.71-.2-7.84-1.78.69-3.52,1.42-5.22,2.35.04-.44.08-.85.12-1.29,0-.77-.08-1.21-.12-1.78,2.02-.44,6.43-1.7,9.7-4-.16,3.07-.2,5.3-.2,11.52v5.62Z"/><path class="cls-1" d="m284.59,258.87l.89.08c1.98.28,6.27,1.54,6.27,6.75,0,2.39-1.09,8.41-10.11,8.41-1.29,0-3.76-.12-5.86-.81.53-1.25.69-2.1.77-3.96.53.49,1.66,1.5,4.81,1.5,4.49,0,5.94-2.79,5.94-5.01,0-5.05-5.62-5.05-7.12-5.05-1.33,0-1.82.08-2.51.24,0-.53.04-1.01.04-1.54,0-.61-.04-1.17-.04-1.78l1.09.04c1.5,0,7.52,0,7.52-5.05,0-2.47-1.7-4.41-5.18-4.41-2.55,0-3.6.65-4.53,1.21.12-.61.24-1.46.24-2.18,0-.65-.04-1.17-.08-1.62,1.62-.4,3.11-.73,5.54-.73,1.54,0,8.41,0,8.41,6.99,0,1.58-.44,5.42-5.13,6.71l-.97.2Z"/><path class="cls-1" d="m197.1,150.5c-1.5.02.28.77,2.24,1.07.54-.42,1.03-.85,1.47-1.27-1.22.3-2.46.31-3.71.19"/><path class="cls-1" d="m205.15,148.5c.9-1.23,1.55-2.58,1.78-3.98-.2.99-.74,1.85-1.25,2.76-2.8,1.77-.27-1.05,0-2.12-3.01,3.8-.42,2.28-.53,3.34"/><path class="cls-1" d="m208.12,140.76c.18-2.7-.53-1.85-.77-.82.28.15.5,1.91.77.82"/><path class="cls-1" d="m191.41,103.84c.8.14,1.73.25,1.6.44.88-.19,1.08-.37-1.6-.44"/><path class="cls-1" d="m193.01,104.28l-.56.12.53-.05.04-.07"/><path class="cls-1" d="m217.98,141.79c.09,2.43-.71,3.6-1.43,5.69l-1.3.65c-1.06,2.06.11,1.31-.65,2.95-1.66,1.47-5.03,4.61-6.1,4.89-.79-.02.53-.93.71-1.29-2.22,1.52-1.78,2.29-5.17,3.21l-.1-.22c-8.36,3.94-19.98-3.86-19.83-14.5-.09.67-.25.51-.44.78-.43-5.47,2.53-10.97,7.52-13.22,4.88-2.42,10.61-1.43,14.1,1.84-1.92-2.52-5.74-5.18-10.27-4.94-4.44.07-8.59,2.89-9.98,5.96-2.27,1.43-2.54,5.52-3.53,6.27-1.33,9.8,2.51,14.03,9.01,19.01,1.02.69.29.79.42,1.32-2.16-1.01-4.13-2.54-5.76-4.4.86,1.26,1.79,2.49,3,3.45-2.04-.69-4.76-4.93-5.55-5.11,3.51,6.28,14.23,11.02,19.85,8.67-2.6.1-5.9.05-8.82-1.03-1.23-.63-2.9-1.94-2.6-2.18,7.67,2.86,15.58,2.17,22.22-3.15,1.69-1.32,3.53-3.55,4.07-3.58-.8,1.21.14.58-.48,1.65,1.68-2.71-.73-1.1,1.74-4.68l.91,1.25c-.34-2.25,2.8-4.99,2.48-8.55.72-1.09.8,1.17.04,3.68,1.06-2.78.28-3.22.55-5.52.29.77.68,1.59.88,2.4-.69-2.69.71-4.52,1.05-6.08-.34-.15-1.07,1.19-1.23-1.98.03-1.38.38-.72.52-1.06-.27-.16-.98-1.21-1.41-3.24.31-.48.84,1.23,1.26,1.3-.27-1.61-.74-2.84-.77-4.07-1.24-2.6-.44.35-1.45-1.12-1.33-4.13,1.1-.96,1.26-2.83,2.01,2.91,3.15,7.41,3.68,9.28-.4-2.28-1.05-4.48-1.84-6.62.61.26-.98-4.68.79-1.41-1.9-6.97-8.11-13.49-13.83-16.54.7.64,1.58,1.44,1.27,1.57-2.85-1.69-2.35-1.83-2.75-2.54-2.31-.94-2.47.08-4,0-4.37-2.32-5.21-2.07-9.23-3.52l.18.86c-2.89-.96-3.37.36-6.5,0-.19-.15,1-.54,1.98-.68-2.8.37-2.67-.55-5.4.1.67-.47,1.39-.79,2.11-1.19-2.28.14-5.45,1.33-4.47.24-3.72,1.66-10.33,3.99-14.03,7.47l-.12-.78c-1.7,2.04-7.41,6.09-7.86,8.73l-.45.11c-.88,1.5-1.46,3.19-2.16,4.73-1.16,1.97-1.69.76-1.53,1.07-2.27,4.61-3.41,8.48-4.38,11.66.69,1.04.02,6.26.28,10.43-1.14,20.63,14.48,40.65,31.54,45.27,2.5.9,6.22.86,9.39.95-3.73-1.07-4.21-.57-7.85-1.83-2.62-1.24-3.2-2.65-5.06-4.26l.74,1.3c-3.64-1.29-2.12-1.6-5.09-2.54l.79-1.03c-1.18-.09-3.13-1.99-3.66-3.05l-1.29.05c-1.55-1.91-2.38-3.3-2.32-4.37l-.42.74c-.47-.81-5.71-7.19-2.99-5.7-.5-.46-1.18-.75-1.9-2.07l.55-.63c-1.31-1.68-2.41-3.84-2.32-4.56.7.94,1.18,1.12,1.66,1.28-3.3-8.2-3.49-.45-5.99-8.34l.53-.04c-.4-.61-.65-1.28-.98-1.93l.23-2.29c-2.38-2.75-.66-11.69-.32-16.6.24-1.99,1.98-4.12,3.31-7.45l-.81-.14c1.55-2.7,8.84-10.84,12.21-10.42,1.64-2.05-.33,0-.65-.52,3.59-3.72,4.72-2.63,7.15-3.3,2.61-1.55-2.24.61-1-.59,4.52-1.15,3.2-2.62,9.1-3.21.62.35-1.44.55-1.96,1,3.76-1.84,11.92-1.42,17.21,1.02,6.14,2.87,13.05,11.36,13.32,19.34l.31.08c-.16,3.17.49,6.85-.63,10.22l.75-1.6"/><path class="cls-1" d="m180.73,152.56l-.21,1.05c.99,1.34,1.77,2.79,3.03,3.84-.91-1.77-1.58-2.5-2.82-4.89"/><path class="cls-1" d="m183.06,152.47c-.52-.58-.83-1.27-1.18-1.96.33,1.22,1.01,2.26,1.64,3.33l-.46-1.36"/><path class="cls-1" d="m224.3,143.51l-.22.55c-.4,2.87-1.28,5.71-2.62,8.34,1.48-2.78,2.43-5.82,2.84-8.9"/><path class="cls-1" d="m191.71,103.12c1.01-.37,2.49-.2,3.57-.45-1.4.12-2.8.19-4.18.36l.61.08"/><path class="cls-1" d="m156.1,122.05c.23,2.16-1.63,3,.41,1.58,1.09-2.46-.43-.68-.41-1.58"/><path class="cls-1" d="m153.7,132.07c.47-1.44.56-2.31.73-3.14-1.3,1.66-.6,2.01-.73,3.14"/></svg>