<?xml version="1.0" encoding="utf-8"?>
<!-- Generator: $$$/GeneralStr/196=Adobe Illustrator 27.6.0, SVG Export Plug-In . SVG Version: 6.00 Build 0)  -->
<svg version="1.1" id="Calque_1" xmlns="http://www.w3.org/2000/svg" xmlns:xlink="http://www.w3.org/1999/xlink" x="0px" y="0px"
	 viewBox="0 0 380 380" style="enable-background:new 0 0 380 380;" xml:space="preserve">
<style type="text/css">
	
		.st0{clip-path:url(#SVGID_00000017500534575583493370000008058974535105034397_);fill:url(#SVGID_00000111162707294562859730000010302273538246950564_);}
	
		.st1{opacity:0.6;clip-path:url(#SVGID_00000017500534575583493370000008058974535105034397_);fill:url(#SVGID_00000130623856721239297150000000913837461089599657_);enable-background:new    ;}
	
		.st2{opacity:0.4;clip-path:url(#SVGID_00000017500534575583493370000008058974535105034397_);fill:url(#SVGID_00000154426506257093760270000004178649094400042943_);enable-background:new    ;}
	
		.st3{clip-path:url(#SVGID_00000017500534575583493370000008058974535105034397_);fill:url(#SVGID_00000000919863390713801540000010740212914416404150_);}
	
		.st4{opacity:0.5;clip-path:url(#SVGID_00000017500534575583493370000008058974535105034397_);fill:url(#SVGID_00000165941981762611243130000015124107355376796558_);enable-background:new    ;}
	
		.st5{opacity:0.5;clip-path:url(#SVGID_00000017500534575583493370000008058974535105034397_);fill:url(#SVGID_00000044896708326305245150000003305184433019063204_);enable-background:new    ;}
	
		.st6{opacity:0.5;clip-path:url(#SVGID_00000017500534575583493370000008058974535105034397_);fill:url(#SVGID_00000092456436880179520870000000703482025259738766_);enable-background:new    ;}
	
		.st7{opacity:0.5;clip-path:url(#SVGID_00000017500534575583493370000008058974535105034397_);fill:url(#SVGID_00000166646516472674958240000015575385100674353315_);enable-background:new    ;}
	
		.st8{opacity:0.5;clip-path:url(#SVGID_00000017500534575583493370000008058974535105034397_);fill:url(#SVGID_00000004547870387775322700000016275489369819594881_);enable-background:new    ;}
	
		.st9{clip-path:url(#SVGID_00000017500534575583493370000008058974535105034397_);fill:url(#SVGID_00000043434332521380686910000018002476251651017373_);}
	.st10{clip-path:url(#SVGID_00000017500534575583493370000008058974535105034397_);fill:#FFFFFF;}
</style>
<g>
	<defs>
		<rect id="SVGID_1_" width="380" height="380"/>
	</defs>
	<clipPath id="SVGID_00000031930349366936999720000003426269924051075764_">
		<use xlink:href="#SVGID_1_"  style="overflow:visible;"/>
	</clipPath>
	
		<linearGradient id="SVGID_00000035504479048906783520000013424934788839214727_" gradientUnits="userSpaceOnUse" x1="-4.83" y1="159.025" x2="385.88" y2="159.025" gradientTransform="matrix(1 0 0 -1 0 380)">
		<stop  offset="0" style="stop-color:#2F7274"/>
		<stop  offset="0.5" style="stop-color:#69A8A8"/>
		<stop  offset="0.6" style="stop-color:#6CA9A8"/>
		<stop  offset="0.68" style="stop-color:#76ACA9"/>
		<stop  offset="0.76" style="stop-color:#88B2AA"/>
		<stop  offset="0.83" style="stop-color:#A0BBAC"/>
		<stop  offset="0.9" style="stop-color:#C0C6AE"/>
		<stop  offset="0.97" style="stop-color:#E7D3B1"/>
		<stop  offset="1" style="stop-color:#FCDBB3"/>
	</linearGradient>
	
		<rect x="-4.8" y="-6.7" style="clip-path:url(#SVGID_00000031930349366936999720000003426269924051075764_);fill:url(#SVGID_00000035504479048906783520000013424934788839214727_);" width="390.7" height="455.2"/>
	
		<linearGradient id="SVGID_00000114044527010765079770000001935580556809719454_" gradientUnits="userSpaceOnUse" x1="-555.24" y1="-1033.285" x2="-355.24" y2="-1033.285" gradientTransform="matrix(6.123234e-17 1 1 -6.123234e-17 1317.53 781.84)">
		<stop  offset="0" style="stop-color:#F2D6B0"/>
		<stop  offset="1" style="stop-color:#FF8C8E;stop-opacity:0"/>
	</linearGradient>
	
		<rect x="219.7" y="226.6" style="opacity:0.6;clip-path:url(#SVGID_00000031930349366936999720000003426269924051075764_);fill:url(#SVGID_00000114044527010765079770000001935580556809719454_);enable-background:new    ;" width="129.1" height="200"/>
	
		<radialGradient id="SVGID_00000035499471396915420940000008149135083764411293_" cx="306.28" cy="-50.39" r="237.76" gradientTransform="matrix(1 0 0 -1 0 380)" gradientUnits="userSpaceOnUse">
		<stop  offset="0" style="stop-color:#A80030"/>
		<stop  offset="1" style="stop-color:#FF8C8E;stop-opacity:0"/>
	</radialGradient>
	
		<circle style="opacity:0.4;clip-path:url(#SVGID_00000031930349366936999720000003426269924051075764_);fill:url(#SVGID_00000035499471396915420940000008149135083764411293_);enable-background:new    ;" cx="306.3" cy="430.4" r="237.8"/>
	
		<linearGradient id="SVGID_00000142857139862402167350000007735920020359870625_" gradientUnits="userSpaceOnUse" x1="337.54" y1="-69.2" x2="337.54" y2="225.4" gradientTransform="matrix(1 0 0 -1 0 380)">
		<stop  offset="0" style="stop-color:#F2D6B0"/>
		<stop  offset="1" style="stop-color:#FF8C8E;stop-opacity:0"/>
	</linearGradient>
	
		<rect x="292.1" y="154.6" style="clip-path:url(#SVGID_00000031930349366936999720000003426269924051075764_);fill:url(#SVGID_00000142857139862402167350000007735920020359870625_);" width="90.8" height="294.6"/>
	
		<linearGradient id="SVGID_00000092427223258637619350000018273564278133755558_" gradientUnits="userSpaceOnUse" x1="2112.1965" y1="39.3293" x2="2475.2764" y2="39.3293" gradientTransform="matrix(6.735558e-17 -1.1 -0.41 -2.510526e-17 61 2702.6501)">
		<stop  offset="0" style="stop-color:#F2D6B0"/>
		<stop  offset="1" style="stop-color:#FF8C8E;stop-opacity:0"/>
	</linearGradient>
	
		<rect x="-10.8" y="-12.9" style="opacity:0.5;clip-path:url(#SVGID_00000031930349366936999720000003426269924051075764_);fill:url(#SVGID_00000092427223258637619350000018273564278133755558_);enable-background:new    ;" width="111.3" height="398.1"/>
	
		<linearGradient id="SVGID_00000000181334488519791870000008355991977102576301_" gradientUnits="userSpaceOnUse" x1="-12.45" y1="41.71" x2="386.33" y2="41.71" gradientTransform="matrix(1 0 0 -1 0 380)">
		<stop  offset="0" style="stop-color:#206F73"/>
		<stop  offset="0.31" style="stop-color:#69A8A8"/>
		<stop  offset="0.37" style="stop-color:#6CA9A8"/>
		<stop  offset="0.43" style="stop-color:#76ACA9"/>
		<stop  offset="0.48" style="stop-color:#88B2AA"/>
		<stop  offset="0.53" style="stop-color:#A0BBAC"/>
		<stop  offset="0.58" style="stop-color:#C0C6AE"/>
		<stop  offset="0.6" style="stop-color:#D0CCB0"/>
		<stop  offset="1" style="stop-color:#FCDBB3;stop-opacity:0"/>
	</linearGradient>
	
		<rect x="-12.4" y="274.2" style="opacity:0.5;clip-path:url(#SVGID_00000031930349366936999720000003426269924051075764_);fill:url(#SVGID_00000000181334488519791870000008355991977102576301_);enable-background:new    ;" width="398.8" height="128.2"/>
	
		<linearGradient id="SVGID_00000103975528644081988870000002898864656939777448_" gradientUnits="userSpaceOnUse" x1="2058.1565" y1="-7.6586" x2="2429.3765" y2="-7.6586" gradientTransform="matrix(6.735558e-17 -1.1 -0.41 -2.510526e-17 61 2702.6499)">
		<stop  offset="0" style="stop-color:#F2D6B0"/>
		<stop  offset="1" style="stop-color:#FF8C8E;stop-opacity:0"/>
	</linearGradient>
	
		<rect x="-16.2" y="37.5" style="opacity:0.5;clip-path:url(#SVGID_00000031930349366936999720000003426269924051075764_);fill:url(#SVGID_00000103975528644081988870000002898864656939777448_);enable-background:new    ;" width="160.7" height="407.1"/>
	
		<linearGradient id="SVGID_00000039135126744309250000000005929544026662024069_" gradientUnits="userSpaceOnUse" x1="2050.7864" y1="-755.6707" x2="2488.4465" y2="-755.6707" gradientTransform="matrix(6.735558e-17 -1.1 -0.41 -2.510526e-17 61.01 2702.6401)">
		<stop  offset="0" style="stop-color:#F2D6B0"/>
		<stop  offset="1" style="stop-color:#FF8C8E;stop-opacity:0"/>
	</linearGradient>
	
		<rect x="362.7" y="-27.3" style="opacity:0.5;clip-path:url(#SVGID_00000031930349366936999720000003426269924051075764_);fill:url(#SVGID_00000039135126744309250000000005929544026662024069_);enable-background:new    ;" width="16.3" height="479.9"/>
	
		<linearGradient id="SVGID_00000006690738571623072950000009357628342933690541_" gradientUnits="userSpaceOnUse" x1="2064.9663" y1="-2.6707" x2="2305.9065" y2="-2.6707" gradientTransform="matrix(6.735558e-17 -1.1 -0.41 -2.510526e-17 61 2702.6499)">
		<stop  offset="0" style="stop-color:#F2D6B0"/>
		<stop  offset="1" style="stop-color:#FF8C8E;stop-opacity:0"/>
	</linearGradient>
	
		<rect x="11.3" y="172.9" style="opacity:0.5;clip-path:url(#SVGID_00000031930349366936999720000003426269924051075764_);fill:url(#SVGID_00000006690738571623072950000009357628342933690541_);enable-background:new    ;" width="101.7" height="264.2"/>
	
		<radialGradient id="SVGID_00000173128551659418086800000012640495103562739361_" cx="69.6" cy="20.53" r="187.75" gradientTransform="matrix(1 0 0 -1 0 380)" gradientUnits="userSpaceOnUse">
		<stop  offset="0" style="stop-color:#009696"/>
		<stop  offset="1" style="stop-color:#497E81;stop-opacity:0"/>
	</radialGradient>
	
		<circle style="clip-path:url(#SVGID_00000031930349366936999720000003426269924051075764_);fill:url(#SVGID_00000173128551659418086800000012640495103562739361_);" cx="69.6" cy="359.5" r="187.7"/>
	<path style="clip-path:url(#SVGID_00000031930349366936999720000003426269924051075764_);fill:#FFFFFF;" d="M107.2,248
		c-0.1,0.1-0.1,10.5-0.2,13.3c-0.1,2.2-0.3,7-5,7s-6-5.5-6.4-8c-0.5-2.7-0.5-4.9-0.5-5.9c0-3.1,0.2-11.9,7.6-11.9
		c2.2,0,3.4,0.6,4.4,1.2L107.2,248L107.2,248z M88.3,255.7c0,18.4,9.8,18.4,11.2,18.4c4.1,0,6.7-2.2,7.7-6.1l0.1,5.8
		c1.2-0.1,2.5-0.2,4.5-0.2c0.7,0,1.3,0,1.8,0.1c0.5,0,1.1,0.1,1.6,0.1c-1.1-2.1-1.8-6.8-1.8-17s0-26.7,0.8-31.7
		c-2.3,1.1-4.3,1.9-8.8,2.2c1.8,1.9,1.8,2.9,1.8,11.5c-1.2-0.4-2.8-0.8-5.5-0.8C90.2,238,88.3,248.2,88.3,255.7"/>
	<path style="clip-path:url(#SVGID_00000031930349366936999720000003426269924051075764_);fill:#FFFFFF;" d="M123.6,252.4
		c0.1-5.4,1.2-10.2,5.8-10.2c5.1,0,5.5,5.6,5.4,10.2H123.6z M141.2,253c0-7.6-1.5-15.1-11.1-15.1c-13.3,0-13.3,14.8-13.3,17.9
		c0,13.2,5.9,18.4,15.9,18.4c4.4,0,6.6-0.6,7.7-1c-0.1-2.3,0.2-3.9,0.6-5.9c-1.4,0.8-3.1,2-7,2c-10.2,0-10.3-9.3-10.3-12.4h17.3
		L141.2,253"/>
	<path style="clip-path:url(#SVGID_00000031930349366936999720000003426269924051075764_);fill:#FFFFFF;" d="M162.4,255.8
		c0,6.1-1.1,14.2-8.7,14.2c-1.1,0-2.3-0.2-3.2-0.4c-0.1-2.3-0.1-6.4-0.1-11.1c0-5.6,0.6-8.5,1.1-10c1.4-4.6,4.4-4.7,5-4.7
		C161.5,243.9,162.4,250.8,162.4,255.8z M143.7,262.9c0,4.8,0,7.6-0.8,9.6c2.7,1.1,6,1.6,10,1.6c2.6,0,9.9,0,13.9-8.2
		c1.9-3.8,2.6-8.9,2.6-12.7c0-2.3-0.2-7.5-2.1-10.8c-1.9-3-4.8-4.6-7.9-4.6c-6.2,0-8.1,5.2-9.1,7.9c0-3.3,0.1-14.9,0.6-20.8
		c-4.2,2-6.9,2.3-9.6,2.6c2.6,1,2.6,5.4,2.6,19.4L143.7,262.9"/>
	<path style="clip-path:url(#SVGID_00000031930349366936999720000003426269924051075764_);fill:#FFFFFF;" d="M181.9,273.8
		c-1.3-0.2-2.2-0.3-4.1-0.3c-2.1,0-3.5,0.1-5,0.3c0.6-1.2,0.9-1.9,1.1-6.1c0.2-5.8,0.3-21.3-0.1-24.6c-0.3-2.5-0.9-2.9-1.9-3.5
		c5.4-0.5,6.9-0.9,9.4-2.1c-0.5,2.9-0.6,4.3-0.6,8.7C180.5,268.8,180.4,271.1,181.9,273.8"/>
	<path style="clip-path:url(#SVGID_00000031930349366936999720000003426269924051075764_);fill:#FFFFFF;" d="M202.8,255.4
		c-0.1,4.1-0.2,7-1.3,9.3c-1.4,2.9-3.6,3.8-5.4,3.8c-3.9,0-4.8-3.3-4.8-6.4c0-6.1,5.5-6.6,8-6.6L202.8,255.4L202.8,255.4z
		 M184.9,263.4c0,4.1,1.2,8.2,4.9,10c1.6,0.7,3.3,0.7,3.8,0.7c6,0,8-4.5,9.3-7.2c-0.1,2.9,0,4.6,0.2,6.9c1.2-0.1,2.3-0.2,4.3-0.2
		c1.1,0,2.1,0.1,3.3,0.2c-0.7-1.1-1.1-1.8-1.3-4.3c-0.1-2.5-0.1-4.9-0.1-8.4l0.1-13.3c0-4.9-1.3-9.8-11.1-9.8
		c-6.4,0-10.2,2-12.1,2.9c0.8,1.4,1.4,2.7,2,5.5c2.6-2.2,5.9-3.4,9.3-3.4c5.4,0,5.4,3.6,5.4,8.7c-1.2-0.1-2.3-0.2-4.1-0.2
		C190.3,251.5,184.9,254.7,184.9,263.4"/>
	<path style="clip-path:url(#SVGID_00000031930349366936999720000003426269924051075764_);fill:#FFFFFF;" d="M240.4,267.4
		c0.1,2.2,0.1,4.6,0.9,6.4c-1.4-0.1-2.3-0.3-4.9-0.3c-1.6,0-2.4,0.1-3.6,0.3c0.2-0.8,0.4-1.2,0.5-2.3c0.2-1.5,0.3-6.5,0.3-8.3v-7
		c0-3,0-7.5-0.2-9.1c-0.1-1.1-0.5-4.1-4.2-4.1s-4.9,2.7-5.4,4.9c-0.5,2.3-0.5,4.8-0.5,14.4c0.1,8.3,0.1,9.1,0.7,11.4
		c-1.1-0.1-2.5-0.2-4.4-0.2c-1.6,0-2.6,0.1-3.9,0.2c0.5-1.1,0.7-1.5,0.8-5.2c0.1-3.6,0.4-21.2-0.2-25.4c-0.3-2.6-0.9-3.1-1.7-3.8
		c5.3-0.2,7-1.1,8.6-2v6.9c0.8-2,2.4-6.6,8.9-6.6c8.2,0,8.2,5.9,8.3,9.8L240.4,267.4"/>
	<path style="clip-path:url(#SVGID_00000031930349366936999720000003426269924051075764_);fill:#FFFFFF;" d="M182.4,228.3l-5.4,5.4
		l-5.4-5.4l5.4-5.4L182.4,228.3"/>
	<path style="clip-path:url(#SVGID_00000031930349366936999720000003426269924051075764_);fill:#FFFFFF;" d="M266.9,261.6
		c0,4,0,6.3,0.1,8.4c0.1,2.5,0.4,3.1,0.7,3.8c-1.1-0.1-2.1-0.1-3.1-0.1c-1.2,0-1.7,0-2.6,0.1c0.4-1,0.6-1.6,0.6-3.7
		c0.1-1.6,0.1-3.6,0.2-8.4V257c-0.1-6.1-0.1-6.7-0.2-7.8c-1.8,0.7-3.5,1.4-5.2,2.4c0-0.4,0.1-0.9,0.1-1.3c0-0.8-0.1-1.2-0.1-1.8
		c2-0.4,6.4-1.7,9.7-4c-0.2,3.1-0.2,5.3-0.2,11.5V261.6L266.9,261.6z"/>
	<path style="clip-path:url(#SVGID_00000031930349366936999720000003426269924051075764_);fill:#FFFFFF;" d="M284.6,258.9l0.9,0.1
		c2,0.3,6.3,1.5,6.3,6.8c0,2.4-1.1,8.4-10.1,8.4c-1.3,0-3.8-0.1-5.9-0.8c0.5-1.2,0.7-2.1,0.8-4c0.5,0.5,1.7,1.5,4.8,1.5
		c4.5,0,5.9-2.8,5.9-5c0-5-5.6-5-7.1-5c-1.3,0-1.8,0.1-2.5,0.2c0-0.5,0-1,0-1.5c0-0.6,0-1.2,0-1.8l1.1,0c1.5,0,7.5,0,7.5-5.1
		c0-2.5-1.7-4.4-5.2-4.4c-2.5,0-3.6,0.6-4.5,1.2c0.1-0.6,0.2-1.5,0.2-2.2c0-0.6,0-1.2-0.1-1.6c1.6-0.4,3.1-0.7,5.5-0.7
		c1.5,0,8.4,0,8.4,7c0,1.6-0.4,5.4-5.1,6.7L284.6,258.9L284.6,258.9z"/>
	<path style="clip-path:url(#SVGID_00000031930349366936999720000003426269924051075764_);fill:#FFFFFF;" d="M197.1,150.5
		c-1.5,0,0.3,0.8,2.2,1.1c0.5-0.4,1-0.9,1.5-1.3C199.6,150.6,198.4,150.6,197.1,150.5"/>
	<path style="clip-path:url(#SVGID_00000031930349366936999720000003426269924051075764_);fill:#FFFFFF;" d="M205.1,148.5
		c0.9-1.2,1.6-2.6,1.8-4c-0.2,1-0.7,1.9-1.2,2.8c-2.8,1.8-0.3-1.1,0-2.1C202.7,149,205.3,147.4,205.1,148.5"/>
	<path style="clip-path:url(#SVGID_00000031930349366936999720000003426269924051075764_);fill:#FFFFFF;" d="M208.1,140.8
		c0.2-2.7-0.5-1.9-0.8-0.8C207.6,140.1,207.8,141.8,208.1,140.8"/>
	<path style="clip-path:url(#SVGID_00000031930349366936999720000003426269924051075764_);fill:#FFFFFF;" d="M191.4,103.8
		c0.8,0.1,1.7,0.2,1.6,0.4C193.9,104.1,194.1,103.9,191.4,103.8"/>
	<path style="clip-path:url(#SVGID_00000031930349366936999720000003426269924051075764_);fill:#FFFFFF;" d="M193,104.3l-0.6,0.1
		L193,104.3L193,104.3"/>
	<path style="clip-path:url(#SVGID_00000031930349366936999720000003426269924051075764_);fill:#FFFFFF;" d="M218,141.8
		c0.1,2.4-0.7,3.6-1.4,5.7l-1.3,0.6c-1.1,2.1,0.1,1.3-0.6,2.9c-1.7,1.5-5,4.6-6.1,4.9c-0.8,0,0.5-0.9,0.7-1.3
		c-2.2,1.5-1.8,2.3-5.2,3.2l-0.1-0.2c-8.4,3.9-20-3.9-19.8-14.5c-0.1,0.7-0.2,0.5-0.4,0.8c-0.4-5.5,2.5-11,7.5-13.2
		c4.9-2.4,10.6-1.4,14.1,1.8c-1.9-2.5-5.7-5.2-10.3-4.9c-4.4,0.1-8.6,2.9-10,6c-2.3,1.4-2.5,5.5-3.5,6.3c-1.3,9.8,2.5,14,9,19
		c1,0.7,0.3,0.8,0.4,1.3c-2.2-1-4.1-2.5-5.8-4.4c0.9,1.3,1.8,2.5,3,3.4c-2-0.7-4.8-4.9-5.6-5.1c3.5,6.3,14.2,11,19.9,8.7
		c-2.6,0.1-5.9,0.1-8.8-1c-1.2-0.6-2.9-1.9-2.6-2.2c7.7,2.9,15.6,2.2,22.2-3.1c1.7-1.3,3.5-3.6,4.1-3.6c-0.8,1.2,0.1,0.6-0.5,1.6
		c1.7-2.7-0.7-1.1,1.7-4.7l0.9,1.2c-0.3-2.2,2.8-5,2.5-8.6c0.7-1.1,0.8,1.2,0,3.7c1.1-2.8,0.3-3.2,0.6-5.5c0.3,0.8,0.7,1.6,0.9,2.4
		c-0.7-2.7,0.7-4.5,1.1-6.1c-0.3-0.1-1.1,1.2-1.2-2c0-1.4,0.4-0.7,0.5-1.1c-0.3-0.2-1-1.2-1.4-3.2c0.3-0.5,0.8,1.2,1.3,1.3
		c-0.3-1.6-0.7-2.8-0.8-4.1c-1.2-2.6-0.4,0.3-1.4-1.1c-1.3-4.1,1.1-1,1.3-2.8c2,2.9,3.1,7.4,3.7,9.3c-0.4-2.3-1.1-4.5-1.8-6.6
		c0.6,0.3-1-4.7,0.8-1.4c-1.9-7-8.1-13.5-13.8-16.5c0.7,0.6,1.6,1.4,1.3,1.6c-2.9-1.7-2.4-1.8-2.8-2.5c-2.3-0.9-2.5,0.1-4,0
		c-4.4-2.3-5.2-2.1-9.2-3.5l0.2,0.9c-2.9-1-3.4,0.4-6.5,0c-0.2-0.2,1-0.5,2-0.7c-2.8,0.4-2.7-0.6-5.4,0.1c0.7-0.5,1.4-0.8,2.1-1.2
		c-2.3,0.1-5.4,1.3-4.5,0.2c-3.7,1.7-10.3,4-14,7.5l-0.1-0.8c-1.7,2-7.4,6.1-7.9,8.7l-0.4,0.1c-0.9,1.5-1.5,3.2-2.2,4.7
		c-1.2,2-1.7,0.8-1.5,1.1c-2.3,4.6-3.4,8.5-4.4,11.7c0.7,1,0,6.3,0.3,10.4c-1.1,20.6,14.5,40.6,31.5,45.3c2.5,0.9,6.2,0.9,9.4,0.9
		c-3.7-1.1-4.2-0.6-7.9-1.8c-2.6-1.2-3.2-2.6-5.1-4.3l0.7,1.3c-3.6-1.3-2.1-1.6-5.1-2.5l0.8-1c-1.2-0.1-3.1-2-3.7-3.1l-1.3,0.1
		c-1.6-1.9-2.4-3.3-2.3-4.4l-0.4,0.7c-0.5-0.8-5.7-7.2-3-5.7c-0.5-0.5-1.2-0.8-1.9-2.1l0.6-0.6c-1.3-1.7-2.4-3.8-2.3-4.6
		c0.7,0.9,1.2,1.1,1.7,1.3c-3.3-8.2-3.5-0.4-6-8.3l0.5,0c-0.4-0.6-0.6-1.3-1-1.9l0.2-2.3c-2.4-2.8-0.7-11.7-0.3-16.6
		c0.2-2,2-4.1,3.3-7.4l-0.8-0.1c1.6-2.7,8.8-10.8,12.2-10.4c1.6-2.1-0.3,0-0.6-0.5c3.6-3.7,4.7-2.6,7.1-3.3c2.6-1.6-2.2,0.6-1-0.6
		c4.5-1.2,3.2-2.6,9.1-3.2c0.6,0.3-1.4,0.6-2,1c3.8-1.8,11.9-1.4,17.2,1c6.1,2.9,13.1,11.4,13.3,19.3l0.3,0.1
		c-0.2,3.2,0.5,6.9-0.6,10.2L218,141.8"/>
	<path style="clip-path:url(#SVGID_00000031930349366936999720000003426269924051075764_);fill:#FFFFFF;" d="M180.7,152.6l-0.2,1.1
		c1,1.3,1.8,2.8,3,3.8C182.6,155.7,182,154.9,180.7,152.6"/>
	<path style="clip-path:url(#SVGID_00000031930349366936999720000003426269924051075764_);fill:#FFFFFF;" d="M183.1,152.5
		c-0.5-0.6-0.8-1.3-1.2-2c0.3,1.2,1,2.3,1.6,3.3L183.1,152.5"/>
	<path style="clip-path:url(#SVGID_00000031930349366936999720000003426269924051075764_);fill:#FFFFFF;" d="M224.3,143.5l-0.2,0.6
		c-0.4,2.9-1.3,5.7-2.6,8.3C222.9,149.6,223.9,146.6,224.3,143.5"/>
	<path style="clip-path:url(#SVGID_00000031930349366936999720000003426269924051075764_);fill:#FFFFFF;" d="M191.7,103.1
		c1-0.4,2.5-0.2,3.6-0.4c-1.4,0.1-2.8,0.2-4.2,0.4L191.7,103.1"/>
	<path style="clip-path:url(#SVGID_00000031930349366936999720000003426269924051075764_);fill:#FFFFFF;" d="M156.1,122.1
		c0.2,2.2-1.6,3,0.4,1.6C157.6,121.2,156.1,123,156.1,122.1"/>
	<path style="clip-path:url(#SVGID_00000031930349366936999720000003426269924051075764_);fill:#FFFFFF;" d="M153.7,132.1
		c0.5-1.4,0.6-2.3,0.7-3.1C153.1,130.6,153.8,130.9,153.7,132.1"/>
</g>
</svg>
