<?xml version="1.0" encoding="UTF-8"?><svg id="Calque_1" xmlns="http://www.w3.org/2000/svg" xmlns:xlink="http://www.w3.org/1999/xlink" viewBox="0 0 2642.37 510.75"><defs><style>.cls-1,.cls-2,.cls-3,.cls-4{fill:#fff;}.cls-5{fill:url(#Dégradé_sans_nom_304-2);}.cls-6{letter-spacing:.02em;}.cls-7{fill:url(#Dégradé_sans_nom_304-6);}.cls-7,.cls-8,.cls-9,.cls-10{opacity:.5;}.cls-8{fill:url(#Dégradé_sans_nom_304-5);}.cls-9{fill:url(#Dégradé_sans_nom_304-4);}.cls-10{fill:url(#Dégradé_sans_nom_304-3);}.cls-2{font-size:30px;}.cls-2,.cls-4{font-family:PopplLaudatio-Condensed, 'Poppl-Laudatio Condensed';}.cls-11{fill:url(#Dégradé_sans_nom_153);opacity:.4;}.cls-12{fill:url(#Dégradé_sans_nom_304);opacity:.6;}.cls-13{fill:url(#Dégradé_sans_nom_342);}.cls-3{opacity:.8;}.cls-4{font-size:20px;}</style><linearGradient id="Dégradé_sans_nom_342" x1="131.37" y1="235.64" x2="522.09" y2="235.64" gradientUnits="userSpaceOnUse"><stop offset="0" stop-color="#2f7274"/><stop offset=".5" stop-color="#69a8a8"/><stop offset=".6" stop-color="#6ca9a8"/><stop offset=".68" stop-color="#76aca9"/><stop offset=".76" stop-color="#88b2aa"/><stop offset=".83" stop-color="#a0bbac"/><stop offset=".9" stop-color="#c0c6ae"/><stop offset=".97" stop-color="#e7d3b1"/><stop offset="1" stop-color="#fcdbb3"/></linearGradient><linearGradient id="Dégradé_sans_nom_304" x1="-493.41" y1="1160.38" x2="-293.41" y2="1160.38" gradientTransform="translate(719.61 -895.31)" gradientUnits="userSpaceOnUse"><stop offset="0" stop-color="#f2d6b0"/><stop offset="1" stop-color="#ff8c8e" stop-opacity="0"/></linearGradient><radialGradient id="Dégradé_sans_nom_153" cx="237.76" cy="272.99" fx="237.76" fy="272.99" r="237.76" gradientUnits="userSpaceOnUse"><stop offset="0" stop-color="#a80030"/><stop offset="1" stop-color="#ff8c8e" stop-opacity="0"/></radialGradient><linearGradient id="Dégradé_sans_nom_304-2" x1="111.67" y1="139.47" x2="111.67" y2="-62.9" gradientTransform="translate(367.79 73.98)" xlink:href="#Dégradé_sans_nom_304"/><linearGradient id="Dégradé_sans_nom_304-3" x1="1904.77" y1="614.49" x2="2267.84" y2="614.49" gradientTransform="translate(-2106.71 -52.05) scale(1.1 .41)" xlink:href="#Dégradé_sans_nom_304"/><linearGradient id="Dégradé_sans_nom_304-4" x1="1850.73" y1="677.45" x2="2221.95" y2="677.45" gradientTransform="translate(-2026.19 -22.98) scale(1.1 .41)" xlink:href="#Dégradé_sans_nom_304"/><linearGradient id="Dégradé_sans_nom_304-5" x1="2369.64" y1="1228.14" x2="2675.3" y2="1228.14" gradientTransform="translate(-2334.23 -325.78) scale(1.1 .41)" xlink:href="#Dégradé_sans_nom_304"/><linearGradient id="Dégradé_sans_nom_304-6" x1="1857.54" y1="656.65" x2="2098.48" y2="656.65" gradientTransform="translate(-1970.72 49.48) scale(1.1 .41)" xlink:href="#Dégradé_sans_nom_304"/></defs><rect class="cls-13" x="131.37" y="9.82" width="390.71" height="451.63"/><rect class="cls-12" x="226.2" y="214.86" width="200" height="100.41" transform="translate(591.28 -61.13) rotate(90)"/><circle class="cls-11" cx="237.76" cy="272.99" r="237.76"/><rect class="cls-5" x="434.06" y="11.08" width="90.8" height="202.37" transform="translate(958.93 224.53) rotate(180)"/><rect class="cls-10" x="-17.99" y="143.43" width="398.14" height="111.27" transform="translate(-17.99 380.14) rotate(-90)"/><rect class="cls-9" x="3.27" y="180" width="407.07" height="147.73" transform="translate(-47.06 460.67) rotate(-90)"/><rect class="cls-8" x="264.26" y="170.41" width="335.18" height="11.41" transform="translate(607.96 -255.73) rotate(90)"/><rect class="cls-7" x="66.2" y="266.99" width="264.21" height="101.67" transform="translate(-119.52 516.13) rotate(-90)"/><path class="cls-3" d="m2557.29,136.65s-.04,6.7-.12,8.44c-.08,1.4-.21,4.42-3.18,4.42s-3.8-3.52-4.05-5.04c-.29-1.7-.29-3.1-.29-3.72,0-1.99.12-7.53,4.8-7.53,1.41,0,2.19.42,2.81.74l.04,2.69Zm-11.99,4.88c0,11.66,6.2,11.66,7.11,11.66,2.56,0,4.22-1.41,4.92-3.85l.08,3.68c.79-.04,1.57-.12,2.85-.12.46,0,.83,0,1.16.04.33,0,.66.04,1.03.08-.66-1.32-1.16-4.3-1.16-10.75s0-16.91.54-20.14c-1.49.7-2.77,1.16-5.58,1.41,1.12,1.2,1.12,1.82,1.12,7.28-.78-.25-1.78-.54-3.47-.54-7.4,0-8.6,6.45-8.6,11.25"/><path class="cls-3" d="m2567.73,139.42c.04-3.43.75-6.49,3.68-6.49,3.23,0,3.47,3.56,3.39,6.49h-7.07Zm11.17.42c0-4.84-.95-9.6-7.07-9.6-8.44,0-8.44,9.35-8.44,11.33,0,8.4,3.76,11.7,10.09,11.7,2.81,0,4.18-.41,4.92-.62-.04-1.49.17-2.44.42-3.72-.87.54-1.99,1.24-4.47,1.24-6.45,0-6.54-5.87-6.54-7.9h11l.08-2.44"/><path class="cls-3" d="m2592.35,141.61c0,3.85-.7,9.02-5.5,9.02-.66,0-1.49-.13-2.03-.25-.08-1.49-.08-4.05-.08-7.03,0-3.56.37-5.42.66-6.33.87-2.94,2.81-2.98,3.18-2.98,3.14,0,3.76,4.34,3.76,7.57Zm-11.87,4.51c0,3.06,0,4.8-.5,6.12,1.7.66,3.8,1.03,6.33,1.03,1.61,0,6.29,0,8.81-5.17,1.2-2.4,1.61-5.63,1.61-8.07,0-1.49-.17-4.76-1.36-6.82-1.16-1.94-3.02-2.94-5-2.94-3.97,0-5.13,3.31-5.75,5,0-2.11.04-9.47.37-13.23-2.69,1.24-4.34,1.45-6.12,1.61,1.61.66,1.61,3.39,1.61,12.28v10.17"/><path class="cls-3" d="m2604.68,153.03c-.83-.12-1.41-.21-2.61-.21-1.32,0-2.23.08-3.18.21.41-.79.58-1.16.7-3.85.17-3.68.21-13.53-.08-15.59-.21-1.57-.58-1.82-1.16-2.23,3.39-.33,4.34-.58,5.91-1.32-.33,1.82-.37,2.73-.37,5.5-.08,14.27-.12,15.8.79,17.5"/><path class="cls-3" d="m2617.92,141.32c-.08,2.61-.12,4.43-.83,5.87-.87,1.86-2.32,2.4-3.39,2.4-2.48,0-3.02-2.07-3.02-4.09,0-3.89,3.47-4.18,5.04-4.18h2.19Zm-11.37,5.09c0,2.61.79,5.21,3.1,6.33,1.03.46,2.07.46,2.4.46,3.81,0,5.09-2.81,5.87-4.55-.04,1.82,0,2.94.12,4.38.74-.04,1.49-.12,2.73-.12.7,0,1.36.08,2.07.12-.46-.7-.7-1.12-.83-2.73-.08-1.57-.08-3.14-.08-5.33l.04-8.44c0-3.14-.83-6.25-7.03-6.25-4.09,0-6.49,1.24-7.69,1.86.5.91.91,1.69,1.28,3.47,1.61-1.41,3.72-2.15,5.87-2.15,3.43,0,3.43,2.28,3.43,5.5-.79-.04-1.45-.12-2.57-.12-5.25,0-8.73,2.02-8.73,7.57"/><path class="cls-3" d="m2641.75,148.94c.04,1.41.04,2.9.62,4.09-.91-.08-1.45-.21-3.14-.21-.99,0-1.53.08-2.32.21.16-.54.25-.74.33-1.45.12-.95.21-4.14.21-5.25v-4.47c0-1.94,0-4.76-.13-5.75-.08-.7-.29-2.6-2.69-2.6s-3.14,1.74-3.43,3.14c-.33,1.45-.33,3.02-.33,9.14.04,5.29.04,5.79.45,7.24-.7-.08-1.57-.16-2.81-.16-.99,0-1.65.04-2.48.16.29-.66.46-.99.54-3.31.08-2.28.25-13.44-.13-16.09-.21-1.61-.62-1.99-1.07-2.4,3.35-.17,4.42-.7,5.46-1.24v4.38c.5-1.28,1.53-4.14,5.67-4.14,5.17,0,5.21,3.76,5.25,6.24v12.45"/><path class="cls-3" d="m2605.03,124.18l-3.43,3.42-3.42-3.42,3.42-3.42,3.43,3.42"/><path class="cls-1" d="m277.49,96.36c-.06.06-.06,10.54-.18,13.27-.12,2.2-.3,6.96-5,6.96s-6.01-5.54-6.37-7.98c-.48-2.68-.48-4.88-.48-5.89,0-3.15.18-11.85,7.56-11.85,2.2,0,3.45.65,4.4,1.19l.06,4.29Zm-18.93,7.68c0,18.39,9.76,18.39,11.19,18.39,4.05,0,6.67-2.2,7.74-6.07l.12,5.77c1.25-.06,2.5-.18,4.52-.18.71,0,1.31,0,1.85.06.54,0,1.07.06,1.61.12-1.07-2.08-1.85-6.79-1.85-16.96s0-26.67.83-31.73c-2.32,1.13-4.35,1.85-8.81,2.2,1.79,1.9,1.79,2.86,1.79,11.49-1.25-.42-2.8-.83-5.48-.83-11.61,0-13.51,10.18-13.51,17.74"/><path class="cls-1" d="m293.91,100.71c.06-5.42,1.19-10.24,5.77-10.24,5.06,0,5.48,5.6,5.36,10.24h-11.13Zm17.62.65c0-7.62-1.49-15.12-11.13-15.12-13.27,0-13.27,14.76-13.27,17.86,0,13.21,5.95,18.45,15.89,18.45,4.4,0,6.61-.65,7.74-.95-.06-2.32.24-3.87.65-5.89-1.37.83-3.15,1.96-7.02,1.96-10.18,0-10.3-9.29-10.3-12.44h17.32l.12-3.87"/><path class="cls-1" d="m332.73,104.16c0,6.07-1.13,14.23-8.69,14.23-1.07,0-2.32-.18-3.21-.42-.12-2.32-.12-6.37-.12-11.07,0-5.6.6-8.51,1.07-10,1.37-4.64,4.4-4.7,5-4.7,5,.06,5.95,6.91,5.95,11.96Zm-18.69,7.08c0,4.82,0,7.56-.77,9.64,2.68,1.07,6.01,1.61,10,1.61,2.56,0,9.88,0,13.87-8.16,1.9-3.81,2.56-8.87,2.56-12.74,0-2.32-.24-7.5-2.14-10.77-1.85-3.04-4.76-4.64-7.86-4.64-6.25,0-8.1,5.24-9.05,7.92,0-3.33.06-14.94.6-20.83-4.23,1.96-6.85,2.26-9.64,2.56,2.56,1.01,2.56,5.36,2.56,19.35l-.12,16.07"/><path class="cls-1" d="m352.19,122.14c-1.31-.18-2.2-.3-4.11-.3-2.08,0-3.51.12-5,.3.65-1.25.89-1.85,1.13-6.07.24-5.83.3-21.31-.12-24.58-.3-2.5-.89-2.86-1.85-3.51,5.36-.54,6.85-.89,9.35-2.08-.54,2.86-.6,4.29-.6,8.69-.18,22.5-.24,24.88,1.19,27.56"/><path class="cls-1" d="m373.08,103.68c-.12,4.11-.18,6.96-1.31,9.29-1.37,2.92-3.63,3.81-5.36,3.81-3.93,0-4.76-3.27-4.76-6.43,0-6.13,5.48-6.61,7.98-6.61h3.45v-.06Zm-17.92,8.04c0,4.11,1.25,8.21,4.88,10,1.61.71,3.27.71,3.81.71,6.01,0,8.04-4.46,9.29-7.2-.06,2.86,0,4.64.18,6.91,1.19-.06,2.32-.18,4.29-.18,1.13,0,2.14.12,3.27.18-.71-1.13-1.13-1.79-1.31-4.29-.12-2.5-.12-4.94-.12-8.39l.06-13.27c0-4.94-1.31-9.82-11.07-9.82-6.43,0-10.24,1.96-12.14,2.92.77,1.43,1.43,2.68,2.02,5.48,2.56-2.2,5.89-3.39,9.29-3.39,5.42,0,5.42,3.57,5.42,8.69-1.25-.06-2.26-.18-4.05-.18-8.33-.06-13.81,3.1-13.81,11.85"/><path class="cls-1" d="m410.64,115.71c.06,2.2.06,4.58.95,6.43-1.43-.12-2.26-.3-4.94-.3-1.55,0-2.44.12-3.63.3.24-.83.42-1.19.54-2.26.18-1.49.3-6.55.3-8.27v-7.02c0-3.04,0-7.5-.18-9.05-.12-1.13-.48-4.11-4.23-4.11s-4.94,2.74-5.42,4.94c-.54,2.26-.54,4.76-.54,14.41.06,8.33.06,9.11.71,11.43-1.13-.12-2.5-.24-4.4-.24-1.55,0-2.62.06-3.93.24.48-1.07.71-1.55.83-5.24.12-3.57.42-21.19-.18-25.36-.3-2.56-.95-3.15-1.67-3.81,5.3-.24,6.96-1.13,8.63-1.96v6.91c.77-2.02,2.38-6.55,8.93-6.55,8.16,0,8.21,5.95,8.27,9.82l-.06,19.7"/><path class="cls-1" d="m352.73,76.66l-5.42,5.42-5.42-5.42,5.42-5.42,5.42,5.42"/><path class="cls-1" d="m437.18,109.9c0,3.96.04,6.31.12,8.37.12,2.55.36,3.11.73,3.84-1.09-.12-2.14-.12-3.15-.12-1.17,0-1.7.04-2.59.12.4-1.01.57-1.58.65-3.72.08-1.62.12-3.6.16-8.37v-4.69c-.12-6.06-.12-6.71-.2-7.84-1.78.69-3.52,1.42-5.22,2.35.04-.44.08-.85.12-1.29,0-.77-.08-1.21-.12-1.78,2.02-.44,6.43-1.7,9.7-4-.16,3.07-.2,5.3-.2,11.52v5.62Z"/><path class="cls-1" d="m454.89,107.19l.89.08c1.98.28,6.27,1.54,6.27,6.75,0,2.39-1.09,8.41-10.11,8.41-1.29,0-3.76-.12-5.86-.81.53-1.25.69-2.1.77-3.96.53.49,1.66,1.5,4.81,1.5,4.49,0,5.94-2.79,5.94-5.01,0-5.05-5.62-5.05-7.12-5.05-1.33,0-1.82.08-2.51.24,0-.53.04-1.01.04-1.54,0-.61-.04-1.17-.04-1.78l1.09.04c1.5,0,7.52,0,7.52-5.05,0-2.47-1.7-4.41-5.18-4.41-2.55,0-3.6.65-4.53,1.21.12-.61.24-1.46.24-2.18,0-.65-.04-1.17-.08-1.62,1.62-.4,3.11-.73,5.54-.73,1.54,0,8.41,0,8.41,6.99,0,1.58-.44,5.42-5.13,6.71l-.97.2Z"/><path class="cls-1" d="m220.97,92.49c-1.06.01.2.54,1.58.76.38-.3.73-.6,1.03-.89-.86.21-1.73.21-2.61.13"/><path class="cls-1" d="m226.63,91.08c.63-.87,1.09-1.82,1.25-2.8-.14.7-.52,1.3-.88,1.94-1.97,1.24-.19-.74,0-1.49-2.12,2.67-.29,1.6-.37,2.35"/><path class="cls-1" d="m228.73,85.64c.13-1.9-.37-1.3-.54-.58.2.1.35,1.34.54.58"/><path class="cls-1" d="m216.96,59.64c.56.1,1.22.18,1.12.31.62-.14.76-.26-1.12-.31"/><path class="cls-1" d="m218.08,59.96l-.4.08.37-.03.03-.05"/><path class="cls-1" d="m235.66,86.36c.06,1.71-.5,2.54-1.01,4l-.91.45c-.75,1.45.07.92-.46,2.08-1.17,1.04-3.54,3.24-4.3,3.45-.55-.01.38-.65.5-.91-1.56,1.07-1.25,1.61-3.64,2.26l-.07-.16c-5.89,2.77-14.07-2.72-13.96-10.21-.06.47-.18.36-.31.55-.3-3.85,1.78-7.72,5.29-9.3,3.44-1.7,7.47-1,9.93,1.29-1.35-1.77-4.04-3.65-7.23-3.47-3.12.05-6.05,2.04-7.02,4.19-1.6,1.01-1.79,3.88-2.48,4.41-.94,6.9,1.76,9.88,6.34,13.38.72.48.2.56.3.93-1.52-.71-2.91-1.79-4.06-3.1.61.89,1.26,1.75,2.11,2.43-1.43-.48-3.35-3.47-3.91-3.59,2.47,4.42,10.02,7.76,13.98,6.1-1.83.07-4.15.04-6.21-.72-.87-.44-2.04-1.36-1.83-1.54,5.4,2.01,10.97,1.53,15.64-2.22,1.19-.93,2.49-2.5,2.86-2.52-.56.85.1.41-.34,1.16,1.18-1.91-.52-.78,1.22-3.3l.64.88c-.24-1.59,1.97-3.51,1.74-6.02.51-.77.56.83.03,2.59.75-1.96.2-2.27.39-3.88.21.54.48,1.12.62,1.69-.49-1.89.5-3.18.74-4.28-.24-.11-.75.84-.87-1.4.02-.97.27-.51.37-.75-.19-.11-.69-.85-.99-2.28.22-.34.59.87.89.92-.19-1.13-.52-2-.54-2.87-.88-1.83-.31.24-1.02-.79-.93-2.91.77-.67.89-2,1.41,2.05,2.22,5.22,2.59,6.53-.28-1.6-.74-3.15-1.3-4.66.43.18-.69-3.3.56-.99-1.34-4.91-5.71-9.49-9.73-11.65.49.45,1.11,1.02.89,1.1-2-1.19-1.65-1.28-1.94-1.79-1.63-.66-1.74.05-2.82,0-3.07-1.63-3.67-1.46-6.5-2.48l.13.6c-2.04-.68-2.37.26-4.57,0-.13-.1.71-.38,1.4-.48-1.97.26-1.88-.39-3.8.07.47-.33.98-.55,1.48-.84-1.6.1-3.83.93-3.15.17-2.62,1.17-7.27,2.81-9.88,5.26l-.08-.55c-1.2,1.44-5.21,4.29-5.54,6.15l-.32.07c-.62,1.05-1.02,2.25-1.52,3.33-.81,1.39-1.19.53-1.08.75-1.6,3.25-2.4,5.97-3.08,8.21.49.73.01,4.4.2,7.34-.8,14.52,10.19,28.61,22.21,31.87,1.76.63,4.38.61,6.61.67-2.63-.75-2.97-.4-5.53-1.29-1.85-.87-2.25-1.86-3.56-3l.52.92c-2.57-.91-1.49-1.12-3.58-1.78l.55-.72c-.83-.06-2.2-1.4-2.58-2.14l-.91.04c-1.09-1.35-1.68-2.32-1.63-3.07l-.29.52c-.33-.57-4.02-5.06-2.11-4.01-.36-.32-.83-.53-1.34-1.46l.39-.44c-.92-1.19-1.69-2.7-1.64-3.21.49.66.83.79,1.17.9-2.33-5.77-2.46-.32-4.22-5.87l.37-.03c-.28-.43-.46-.9-.69-1.36l.16-1.61c-1.67-1.93-.47-8.23-.23-11.68.17-1.4,1.4-2.9,2.33-5.24l-.57-.1c1.09-1.9,6.22-7.63,8.6-7.34,1.15-1.45-.23,0-.45-.37,2.53-2.62,3.32-1.85,5.03-2.32,1.84-1.09-1.58.43-.71-.42,3.18-.81,2.25-1.85,6.41-2.26.44.25-1.02.38-1.38.71,2.65-1.3,8.39-1,12.12.72,4.32,2.02,9.18,8,9.38,13.62l.22.06c-.11,2.23.34,4.82-.44,7.19l.53-1.12"/><path class="cls-1" d="m209.44,93.94l-.15.74c.69.94,1.25,1.97,2.13,2.7-.64-1.24-1.11-1.76-1.98-3.44"/><path class="cls-1" d="m211.08,93.88c-.37-.41-.58-.9-.83-1.38.23.86.71,1.59,1.15,2.34l-.33-.96"/><path class="cls-1" d="m240.11,87.57l-.15.39c-.28,2.02-.9,4.02-1.84,5.87,1.04-1.96,1.71-4.09,2-6.26"/><path class="cls-1" d="m217.17,59.14c.71-.26,1.75-.14,2.51-.32-.99.08-1.97.13-2.94.26l.43.06"/><path class="cls-1" d="m192.1,72.47c.16,1.52-1.14,2.11.29,1.11.77-1.73-.3-.48-.29-1.11"/><path class="cls-1" d="m190.41,79.52c.33-1.02.39-1.62.52-2.21-.91,1.17-.42,1.42-.52,2.21"/><text class="cls-4" transform="translate(279.45 51.41)"><tspan x="0" y="0">2024/</tspan><tspan class="cls-6" x="46.26" y="0">0</tspan><tspan x="56.68" y="0">8/01</tspan></text><text class="cls-2" transform="translate(215.04 291.47)"><tspan x="0" y="0">https://deb.li/trixie</tspan></text></svg>