<?xml version="1.0" encoding="utf-8"?>
<!-- Generator: $$$/GeneralStr/196=Adobe Illustrator 27.6.0, SVG Export Plug-In . SVG Version: 6.00 Build 0)  -->
<svg version="1.1" id="Calque_1" xmlns="http://www.w3.org/2000/svg" xmlns:xlink="http://www.w3.org/1999/xlink" x="0px" y="0px"
	 viewBox="0 0 380 380" style="enable-background:new 0 0 380 380;" xml:space="preserve">
<style type="text/css">
	.st0{opacity:0.8;fill:#FFFFFF;enable-background:new    ;}
	
		.st1{clip-path:url(#SVGID_00000177455568485460297870000016772828216119298239_);fill:url(#SVGID_00000032634951550563117060000005142595442028098234_);}
	
		.st2{opacity:0.6;clip-path:url(#SVGID_00000177455568485460297870000016772828216119298239_);fill:url(#SVGID_00000144322404424351790340000002893348678590815676_);enable-background:new    ;}
	
		.st3{opacity:0.4;clip-path:url(#SVGID_00000177455568485460297870000016772828216119298239_);fill:url(#SVGID_00000137827458923573122510000013377793200218536608_);enable-background:new    ;}
	
		.st4{clip-path:url(#SVGID_00000177455568485460297870000016772828216119298239_);fill:url(#SVGID_00000178186226610559457300000009419552690375309239_);}
	
		.st5{opacity:0.5;clip-path:url(#SVGID_00000177455568485460297870000016772828216119298239_);fill:url(#SVGID_00000107579347129212970720000010392534363237047693_);enable-background:new    ;}
	
		.st6{opacity:0.5;clip-path:url(#SVGID_00000177455568485460297870000016772828216119298239_);fill:url(#SVGID_00000076573766882310957150000013842459444381114523_);enable-background:new    ;}
	
		.st7{opacity:0.5;clip-path:url(#SVGID_00000177455568485460297870000016772828216119298239_);fill:url(#SVGID_00000088817128451686779830000011379565804265038208_);enable-background:new    ;}
	
		.st8{opacity:0.5;clip-path:url(#SVGID_00000177455568485460297870000016772828216119298239_);fill:url(#SVGID_00000023250336856780753040000010649216945794523044_);enable-background:new    ;}
	.st9{clip-path:url(#SVGID_00000177455568485460297870000016772828216119298239_);fill:#FFFFFF;}
	.st10{fill:#FFFFFF;}
	.st11{font-family:'PopplLaudatio-Condensed';}
	.st12{font-size:20px;}
	.st13{font-size:30px;}
</style>
<path class="st0" d="M2420.6,468.5c0,0,0,6.7-0.1,8.4c-0.1,1.4-0.2,4.4-3.2,4.4c-3,0-3.8-3.5-4.1-5c-0.3-1.7-0.3-3.1-0.3-3.7
	c0-2,0.1-7.5,4.8-7.5c1.4,0,2.2,0.4,2.8,0.7L2420.6,468.5L2420.6,468.5z M2408.6,473.4c0,11.7,6.2,11.7,7.1,11.7
	c2.6,0,4.2-1.4,4.9-3.9l0.1,3.7c0.8,0,1.6-0.1,2.9-0.1c0.5,0,0.8,0,1.2,0c0.3,0,0.7,0,1,0.1c-0.7-1.3-1.2-4.3-1.2-10.8
	c0-6.4,0-16.9,0.5-20.1c-1.5,0.7-2.8,1.2-5.6,1.4c1.1,1.2,1.1,1.8,1.1,7.3c-0.8-0.2-1.8-0.5-3.5-0.5
	C2409.8,462.2,2408.6,468.6,2408.6,473.4"/>
<path class="st0" d="M2431,471.3c0-3.4,0.8-6.5,3.7-6.5c3.2,0,3.5,3.6,3.4,6.5H2431L2431,471.3z M2442.2,471.7
	c0-4.8-0.9-9.6-7.1-9.6c-8.4,0-8.4,9.4-8.4,11.3c0,8.4,3.8,11.7,10.1,11.7c2.8,0,4.2-0.4,4.9-0.6c0-1.5,0.2-2.4,0.4-3.7
	c-0.9,0.5-2,1.2-4.5,1.2c-6.5,0-6.5-5.9-6.5-7.9h11L2442.2,471.7"/>
<path class="st0" d="M2455.6,473.5c0,3.9-0.7,9-5.5,9c-0.7,0-1.5-0.1-2-0.2c-0.1-1.5-0.1-4-0.1-7c0-3.6,0.4-5.4,0.7-6.3
	c0.9-2.9,2.8-3,3.2-3C2455,465.9,2455.6,470.3,2455.6,473.5L2455.6,473.5z M2443.8,478c0,3.1,0,4.8-0.5,6.1c1.7,0.7,3.8,1,6.3,1
	c1.6,0,6.3,0,8.8-5.2c1.2-2.4,1.6-5.6,1.6-8.1c0-1.5-0.2-4.8-1.4-6.8c-1.2-1.9-3-2.9-5-2.9c-4,0-5.1,3.3-5.8,5c0-2.1,0-9.5,0.4-13.2
	c-2.7,1.2-4.3,1.4-6.1,1.6c1.6,0.7,1.6,3.4,1.6,12.3L2443.8,478"/>
<path class="st0" d="M2468,484.9c-0.8-0.1-1.4-0.2-2.6-0.2c-1.3,0-2.2,0.1-3.2,0.2c0.4-0.8,0.6-1.2,0.7-3.9
	c0.2-3.7,0.2-13.5-0.1-15.6c-0.2-1.6-0.6-1.8-1.2-2.2c3.4-0.3,4.3-0.6,5.9-1.3c-0.3,1.8-0.4,2.7-0.4,5.5
	C2467.1,481.7,2467,483.2,2468,484.9"/>
<path class="st0" d="M2481.2,473.2c-0.1,2.6-0.1,4.4-0.8,5.9c-0.9,1.9-2.3,2.4-3.4,2.4c-2.5,0-3-2.1-3-4.1c0-3.9,3.5-4.2,5-4.2
	H2481.2L2481.2,473.2z M2469.8,478.3c0,2.6,0.8,5.2,3.1,6.3c1,0.5,2.1,0.5,2.4,0.5c3.8,0,5.1-2.8,5.9-4.5c0,1.8,0,2.9,0.1,4.4
	c0.7,0,1.5-0.1,2.7-0.1c0.7,0,1.4,0.1,2.1,0.1c-0.5-0.7-0.7-1.1-0.8-2.7c-0.1-1.6-0.1-3.1-0.1-5.3l0-8.4c0-3.1-0.8-6.2-7-6.2
	c-4.1,0-6.5,1.2-7.7,1.9c0.5,0.9,0.9,1.7,1.3,3.5c1.6-1.4,3.7-2.1,5.9-2.1c3.4,0,3.4,2.3,3.4,5.5c-0.8,0-1.4-0.1-2.6-0.1
	C2473.3,470.7,2469.8,472.7,2469.8,478.3"/>
<path class="st0" d="M2505,480.8c0,1.4,0,2.9,0.6,4.1c-0.9-0.1-1.4-0.2-3.1-0.2c-1,0-1.5,0.1-2.3,0.2c0.2-0.5,0.2-0.7,0.3-1.4
	c0.1-1,0.2-4.1,0.2-5.2v-4.5c0-1.9,0-4.8-0.1-5.8c-0.1-0.7-0.3-2.6-2.7-2.6s-3.1,1.7-3.4,3.1c-0.3,1.5-0.3,3-0.3,9.1
	c0,5.3,0,5.8,0.4,7.2c-0.7-0.1-1.6-0.2-2.8-0.2c-1,0-1.6,0-2.5,0.2c0.3-0.7,0.5-1,0.5-3.3c0.1-2.3,0.2-13.4-0.1-16.1
	c-0.2-1.6-0.6-2-1.1-2.4c3.4-0.2,4.4-0.7,5.5-1.2v4.4c0.5-1.3,1.5-4.1,5.7-4.1c5.2,0,5.2,3.8,5.2,6.2L2505,480.8"/>
<path class="st0" d="M2468.3,456.1l-3.4,3.4l-3.4-3.4l3.4-3.4L2468.3,456.1"/>
<g>
	<defs>
		<rect id="SVGID_1_" width="380" height="380"/>
	</defs>
	<clipPath id="SVGID_00000088817237787434437040000008376966703702767778_">
		<use xlink:href="#SVGID_1_"  style="overflow:visible;"/>
	</clipPath>
	
		<linearGradient id="SVGID_00000180348000453994013940000008132016102171516579_" gradientUnits="userSpaceOnUse" x1="-5.355" y1="948.4211" x2="385.355" y2="948.4211" gradientTransform="matrix(1 0 0 -1 0 1173.7479)">
		<stop  offset="0" style="stop-color:#2F7274"/>
		<stop  offset="0.5" style="stop-color:#69A8A8"/>
		<stop  offset="0.6" style="stop-color:#6CA9A8"/>
		<stop  offset="0.68" style="stop-color:#76ACA9"/>
		<stop  offset="0.76" style="stop-color:#88B2AA"/>
		<stop  offset="0.83" style="stop-color:#A0BBAC"/>
		<stop  offset="0.9" style="stop-color:#C0C6AE"/>
		<stop  offset="0.97" style="stop-color:#E7D3B1"/>
		<stop  offset="1" style="stop-color:#FCDBB3"/>
	</linearGradient>
	
		<rect x="-5.4" y="-0.5" style="clip-path:url(#SVGID_00000088817237787434437040000008376966703702767778_);fill:url(#SVGID_00000180348000453994013940000008132016102171516579_);" width="390.7" height="451.6"/>
	
		<linearGradient id="SVGID_00000117678404466524392940000010337965501848663215_" gradientUnits="userSpaceOnUse" x1="93.6829" y1="-1874.5011" x2="293.6829" y2="-1874.5011" gradientTransform="matrix(6.123234e-17 1 1 -6.123234e-17 2063.991 61.0789)">
		<stop  offset="0" style="stop-color:#F2D6B0"/>
		<stop  offset="1" style="stop-color:#FF8C8E;stop-opacity:0"/>
	</linearGradient>
	
		<rect x="139.3" y="154.8" style="opacity:0.6;clip-path:url(#SVGID_00000088817237787434437040000008376966703702767778_);fill:url(#SVGID_00000117678404466524392940000010337965501848663215_);enable-background:new    ;" width="100.4" height="200"/>
	
		<radialGradient id="SVGID_00000110444290852836670910000015682281343868755606_" cx="101.035" cy="911.0662" r="237.76" gradientTransform="matrix(1 0 0 -1 0 1173.7479)" gradientUnits="userSpaceOnUse">
		<stop  offset="0" style="stop-color:#A80030"/>
		<stop  offset="1" style="stop-color:#FF8C8E;stop-opacity:0"/>
	</radialGradient>
	
		<circle style="opacity:0.4;clip-path:url(#SVGID_00000088817237787434437040000008376966703702767778_);fill:url(#SVGID_00000110444290852836670910000015682281343868755606_);enable-background:new    ;" cx="101" cy="262.7" r="237.8"/>
	
		<linearGradient id="SVGID_00000051342968622160832420000010742993318385927310_" gradientUnits="userSpaceOnUse" x1="2596.9451" y1="-129.7782" x2="2596.9451" y2="72.5918" gradientTransform="matrix(-1 0 0 1 2939.6899 130.55)">
		<stop  offset="0" style="stop-color:#F2D6B0"/>
		<stop  offset="1" style="stop-color:#FF8C8E;stop-opacity:0"/>
	</linearGradient>
	
		<rect x="297.3" y="0.8" style="clip-path:url(#SVGID_00000088817237787434437040000008376966703702767778_);fill:url(#SVGID_00000051342968622160832420000010742993318385927310_);" width="90.8" height="202.4"/>
	
		<linearGradient id="SVGID_00000005953962931826046180000013621408745929727930_" gradientUnits="userSpaceOnUse" x1="3612.8469" y1="3181.9595" x2="3975.917" y2="3181.9595" gradientTransform="matrix(6.735558e-17 -1.1 -0.41 -2.510526e-17 1348.9534 4355.4263)">
		<stop  offset="0" style="stop-color:#F2D6B0"/>
		<stop  offset="1" style="stop-color:#FF8C8E;stop-opacity:0"/>
	</linearGradient>
	
		<rect x="-11.3" y="-10.3" style="opacity:0.5;clip-path:url(#SVGID_00000088817237787434437040000008376966703702767778_);fill:url(#SVGID_00000005953962931826046180000013621408745929727930_);enable-background:new    ;" width="111.3" height="398.1"/>
	
		<linearGradient id="SVGID_00000031190963679250176670000010074738718383046567_" gradientUnits="userSpaceOnUse" x1="3558.8069" y1="3119.2034" x2="3930.0269" y2="3119.2034" gradientTransform="matrix(6.735558e-17 -1.1 -0.41 -2.510526e-17 1348.9534 4355.4365)">
		<stop  offset="0" style="stop-color:#F2D6B0"/>
		<stop  offset="1" style="stop-color:#FF8C8E;stop-opacity:0"/>
	</linearGradient>
	
		<rect x="-3.8" y="40" style="opacity:0.5;clip-path:url(#SVGID_00000088817237787434437040000008376966703702767778_);fill:url(#SVGID_00000031190963679250176670000010074738718383046567_);enable-background:new    ;" width="147.7" height="407.1"/>
	
		<linearGradient id="SVGID_00000081617982570971107170000008328127061679343530_" gradientUnits="userSpaceOnUse" x1="3010.113" y1="-3824.8213" x2="3315.7732" y2="-3824.8213" gradientTransform="matrix(6.735558e-17 1.1 0.41 -2.510526e-17 1863.2968 -3304.7886)">
		<stop  offset="0" style="stop-color:#F2D6B0"/>
		<stop  offset="1" style="stop-color:#FF8C8E;stop-opacity:0"/>
	</linearGradient>
	
		<rect x="289.4" y="-1.8" style="opacity:0.5;clip-path:url(#SVGID_00000088817237787434437040000008376966703702767778_);fill:url(#SVGID_00000081617982570971107170000008328127061679343530_);enable-background:new    ;" width="11.4" height="335.2"/>
	
		<linearGradient id="SVGID_00000162313603534965918500000006837138099548270475_" gradientUnits="userSpaceOnUse" x1="3565.6169" y1="3139.9351" x2="3806.5569" y2="3139.9351" gradientTransform="matrix(6.735558e-17 -1.1 -0.41 -2.510526e-17 1348.9534 4355.4263)">
		<stop  offset="0" style="stop-color:#F2D6B0"/>
		<stop  offset="1" style="stop-color:#FF8C8E;stop-opacity:0"/>
	</linearGradient>
	
		<rect x="10.7" y="175.4" style="opacity:0.5;clip-path:url(#SVGID_00000088817237787434437040000008376966703702767778_);fill:url(#SVGID_00000162313603534965918500000006837138099548270475_);enable-background:new    ;" width="101.7" height="264.2"/>
	<path style="clip-path:url(#SVGID_00000088817237787434437040000008376966703702767778_);fill:#FFFFFF;" d="M140.8,86.1
		c-0.1,0.1-0.1,10.5-0.2,13.3c-0.1,2.2-0.3,7-5,7s-6-5.5-6.4-8c-0.5-2.7-0.5-4.9-0.5-5.9c0-3.2,0.2-11.8,7.6-11.8
		c2.2,0,3.5,0.7,4.4,1.2L140.8,86.1L140.8,86.1z M121.8,93.7c0,18.4,9.8,18.4,11.2,18.4c4,0,6.7-2.2,7.7-6.1l0.1,5.8
		c1.2-0.1,2.5-0.2,4.5-0.2c0.7,0,1.3,0,1.9,0.1c0.5,0,1.1,0.1,1.6,0.1c-1.1-2.1-1.9-6.8-1.9-17s0-26.7,0.8-31.7
		c-2.3,1.1-4.4,1.9-8.8,2.2c1.8,1.9,1.8,2.9,1.8,11.5c-1.2-0.4-2.8-0.8-5.5-0.8C123.7,76,121.8,86.2,121.8,93.7"/>
	<path style="clip-path:url(#SVGID_00000088817237787434437040000008376966703702767778_);fill:#FFFFFF;" d="M157.2,90.4
		c0.1-5.4,1.2-10.2,5.8-10.2c5.1,0,5.5,5.6,5.4,10.2H157.2L157.2,90.4z M174.8,91.1c0-7.6-1.5-15.1-11.1-15.1
		c-13.3,0-13.3,14.8-13.3,17.9c0,13.2,6,18.5,15.9,18.5c4.4,0,6.6-0.7,7.7-0.9c-0.1-2.3,0.2-3.9,0.6-5.9c-1.4,0.8-3.1,2-7,2
		c-10.2,0-10.3-9.3-10.3-12.4h17.3L174.8,91.1"/>
	<path style="clip-path:url(#SVGID_00000088817237787434437040000008376966703702767778_);fill:#FFFFFF;" d="M196,93.9
		c0,6.1-1.1,14.2-8.7,14.2c-1.1,0-2.3-0.2-3.2-0.4c-0.1-2.3-0.1-6.4-0.1-11.1c0-5.6,0.6-8.5,1.1-10c1.4-4.6,4.4-4.7,5-4.7
		C195.1,82,196,88.8,196,93.9L196,93.9z M177.3,100.9c0,4.8,0,7.6-0.8,9.6c2.7,1.1,6,1.6,10,1.6c2.6,0,9.9,0,13.9-8.2
		c1.9-3.8,2.6-8.9,2.6-12.7c0-2.3-0.2-7.5-2.1-10.8c-1.9-3-4.8-4.6-7.9-4.6c-6.2,0-8.1,5.2-9,7.9c0-3.3,0.1-14.9,0.6-20.8
		c-4.2,2-6.9,2.3-9.6,2.6c2.6,1,2.6,5.4,2.6,19.3L177.3,100.9"/>
	<path style="clip-path:url(#SVGID_00000088817237787434437040000008376966703702767778_);fill:#FFFFFF;" d="M215.5,111.8
		c-1.3-0.2-2.2-0.3-4.1-0.3c-2.1,0-3.5,0.1-5,0.3c0.6-1.2,0.9-1.8,1.1-6.1c0.2-5.8,0.3-21.3-0.1-24.6c-0.3-2.5-0.9-2.9-1.9-3.5
		c5.4-0.5,6.9-0.9,9.4-2.1c-0.5,2.9-0.6,4.3-0.6,8.7C214.1,106.8,214,109.2,215.5,111.8"/>
	<path style="clip-path:url(#SVGID_00000088817237787434437040000008376966703702767778_);fill:#FFFFFF;" d="M236.4,93.4
		c-0.1,4.1-0.2,7-1.3,9.3c-1.4,2.9-3.6,3.8-5.4,3.8c-3.9,0-4.8-3.3-4.8-6.4c0-6.1,5.5-6.6,8-6.6L236.4,93.4L236.4,93.4L236.4,93.4z
		 M218.4,101.4c0,4.1,1.2,8.2,4.9,10c1.6,0.7,3.3,0.7,3.8,0.7c6,0,8-4.5,9.3-7.2c-0.1,2.9,0,4.6,0.2,6.9c1.2-0.1,2.3-0.2,4.3-0.2
		c1.1,0,2.1,0.1,3.3,0.2c-0.7-1.1-1.1-1.8-1.3-4.3c-0.1-2.5-0.1-4.9-0.1-8.4l0.1-13.3c0-4.9-1.3-9.8-11.1-9.8
		c-6.4,0-10.2,2-12.1,2.9c0.8,1.4,1.4,2.7,2,5.5c2.6-2.2,5.9-3.4,9.3-3.4c5.4,0,5.4,3.6,5.4,8.7c-1.2-0.1-2.3-0.2-4-0.2
		C223.9,89.5,218.4,92.7,218.4,101.4"/>
	<path style="clip-path:url(#SVGID_00000088817237787434437040000008376966703702767778_);fill:#FFFFFF;" d="M273.9,105.4
		c0.1,2.2,0.1,4.6,1,6.4c-1.4-0.1-2.3-0.3-4.9-0.3c-1.5,0-2.4,0.1-3.6,0.3c0.2-0.8,0.4-1.2,0.5-2.3c0.2-1.5,0.3-6.6,0.3-8.3v-7
		c0-3,0-7.5-0.2-9.1c-0.1-1.1-0.5-4.1-4.2-4.1s-4.9,2.7-5.4,4.9c-0.5,2.3-0.5,4.8-0.5,14.4c0.1,8.3,0.1,9.1,0.7,11.4
		c-1.1-0.1-2.5-0.2-4.4-0.2c-1.5,0-2.6,0.1-3.9,0.2c0.5-1.1,0.7-1.6,0.8-5.2c0.1-3.6,0.4-21.2-0.2-25.4c-0.3-2.6-1-3.2-1.7-3.8
		c5.3-0.2,7-1.1,8.6-2v6.9c0.8-2,2.4-6.6,8.9-6.6c8.2,0,8.2,5.9,8.3,9.8L273.9,105.4"/>
	<path style="clip-path:url(#SVGID_00000088817237787434437040000008376966703702767778_);fill:#FFFFFF;" d="M216,66.4l-5.4,5.4
		l-5.4-5.4l5.4-5.4L216,66.4"/>
	<path style="clip-path:url(#SVGID_00000088817237787434437040000008376966703702767778_);fill:#FFFFFF;" d="M300.5,99.6
		c0,4,0,6.3,0.1,8.4c0.1,2.6,0.4,3.1,0.7,3.8c-1.1-0.1-2.1-0.1-3.1-0.1c-1.2,0-1.7,0-2.6,0.1c0.4-1,0.6-1.6,0.6-3.7
		c0.1-1.6,0.1-3.6,0.2-8.4V95c-0.1-6.1-0.1-6.7-0.2-7.8c-1.8,0.7-3.5,1.4-5.2,2.3c0-0.4,0.1-0.8,0.1-1.3c0-0.8-0.1-1.2-0.1-1.8
		c2-0.4,6.4-1.7,9.7-4c-0.2,3.1-0.2,5.3-0.2,11.5V99.6L300.5,99.6z"/>
	<path style="clip-path:url(#SVGID_00000088817237787434437040000008376966703702767778_);fill:#FFFFFF;" d="M318.2,96.9l0.9,0.1
		c2,0.3,6.3,1.5,6.3,6.8c0,2.4-1.1,8.4-10.1,8.4c-1.3,0-3.8-0.1-5.9-0.8c0.5-1.2,0.7-2.1,0.8-4c0.5,0.5,1.7,1.5,4.8,1.5
		c4.5,0,5.9-2.8,5.9-5c0-5.1-5.6-5.1-7.1-5.1c-1.3,0-1.8,0.1-2.5,0.2c0-0.5,0-1,0-1.5c0-0.6,0-1.2,0-1.8l1.1,0c1.5,0,7.5,0,7.5-5.1
		c0-2.5-1.7-4.4-5.2-4.4c-2.5,0-3.6,0.7-4.5,1.2c0.1-0.6,0.2-1.5,0.2-2.2c0-0.7,0-1.2-0.1-1.6c1.6-0.4,3.1-0.7,5.5-0.7
		c1.5,0,8.4,0,8.4,7c0,1.6-0.4,5.4-5.1,6.7L318.2,96.9L318.2,96.9z"/>
	<path style="clip-path:url(#SVGID_00000088817237787434437040000008376966703702767778_);fill:#FFFFFF;" d="M84.2,82.2
		c-1.1,0,0.2,0.5,1.6,0.8c0.4-0.3,0.7-0.6,1-0.9C86,82.3,85.1,82.3,84.2,82.2"/>
	<path style="clip-path:url(#SVGID_00000088817237787434437040000008376966703702767778_);fill:#FFFFFF;" d="M89.9,80.8
		c0.6-0.9,1.1-1.8,1.2-2.8c-0.1,0.7-0.5,1.3-0.9,1.9c-2,1.2-0.2-0.7,0-1.5C88.2,81.1,90,80,89.9,80.8"/>
	<path style="clip-path:url(#SVGID_00000088817237787434437040000008376966703702767778_);fill:#FFFFFF;" d="M92,75.3
		c0.1-1.9-0.4-1.3-0.5-0.6C91.7,74.9,91.8,76.1,92,75.3"/>
	<path style="clip-path:url(#SVGID_00000088817237787434437040000008376966703702767778_);fill:#FFFFFF;" d="M80.2,49.3
		c0.6,0.1,1.2,0.2,1.1,0.3C82,49.5,82.1,49.4,80.2,49.3"/>
	<path style="clip-path:url(#SVGID_00000088817237787434437040000008376966703702767778_);fill:#FFFFFF;" d="M81.4,49.7L81,49.7
		L81.4,49.7L81.4,49.7"/>
	<path style="clip-path:url(#SVGID_00000088817237787434437040000008376966703702767778_);fill:#FFFFFF;" d="M98.9,76.1
		c0.1,1.7-0.5,2.5-1,4L97,80.5c-0.8,1.4,0.1,0.9-0.5,2.1c-1.2,1-3.5,3.2-4.3,3.4c-0.6,0,0.4-0.7,0.5-0.9c-1.6,1.1-1.2,1.6-3.6,2.3
		L89,87.2C83.2,90,75,84.5,75.1,77c-0.1,0.5-0.2,0.4-0.3,0.6c-0.3-3.8,1.8-7.7,5.3-9.3c3.4-1.7,7.5-1,9.9,1.3
		c-1.4-1.8-4-3.7-7.2-3.5c-3.1,0.1-6.1,2-7,4.2c-1.6,1-1.8,3.9-2.5,4.4c-0.9,6.9,1.8,9.9,6.3,13.4c0.7,0.5,0.2,0.6,0.3,0.9
		c-1.5-0.7-2.9-1.8-4.1-3.1c0.6,0.9,1.3,1.8,2.1,2.4c-1.4-0.5-3.4-3.5-3.9-3.6c2.5,4.4,10,7.8,14,6.1c-1.8,0.1-4.1,0-6.2-0.7
		c-0.9-0.4-2-1.4-1.8-1.5c5.4,2,11,1.5,15.6-2.2c1.2-0.9,2.5-2.5,2.9-2.5c-0.6,0.8,0.1,0.4-0.3,1.2c1.2-1.9-0.5-0.8,1.2-3.3l0.6,0.9
		c-0.2-1.6,2-3.5,1.7-6c0.5-0.8,0.6,0.8,0,2.6c0.8-2,0.2-2.3,0.4-3.9c0.2,0.5,0.5,1.1,0.6,1.7c-0.5-1.9,0.5-3.2,0.7-4.3
		c-0.2-0.1-0.8,0.8-0.9-1.4c0-1,0.3-0.5,0.4-0.8c-0.2-0.1-0.7-0.8-1-2.3c0.2-0.3,0.6,0.9,0.9,0.9c-0.2-1.1-0.5-2-0.5-2.9
		c-0.9-1.8-0.3,0.2-1-0.8c-0.9-2.9,0.8-0.7,0.9-2c1.4,2.1,2.2,5.2,2.6,6.5c-0.3-1.6-0.7-3.2-1.3-4.7c0.4,0.2-0.7-3.3,0.6-1
		c-1.3-4.9-5.7-9.5-9.7-11.7c0.5,0.5,1.1,1,0.9,1.1c-2-1.2-1.6-1.3-1.9-1.8c-1.6-0.7-1.7,0-2.8,0c-3.1-1.6-3.7-1.5-6.5-2.5l0.1,0.6
		c-2-0.7-2.4,0.3-4.6,0c-0.1-0.1,0.7-0.4,1.4-0.5c-2,0.3-1.9-0.4-3.8,0.1c0.5-0.3,1-0.5,1.5-0.8c-1.6,0.1-3.8,0.9-3.1,0.2
		c-2.6,1.2-7.3,2.8-9.9,5.3l-0.1-0.6c-1.2,1.4-5.2,4.3-5.5,6.2L59.7,60c-0.6,1.1-1,2.2-1.5,3.3c-0.8,1.4-1.2,0.5-1.1,0.8
		c-1.6,3.2-2.4,6-3.1,8.2c0.5,0.7,0,4.4,0.2,7.3c-0.8,14.5,10.2,28.6,22.2,31.9c1.8,0.6,4.4,0.6,6.6,0.7c-2.6-0.8-3-0.4-5.5-1.3
		c-1.9-0.9-2.2-1.9-3.6-3l0.5,0.9c-2.6-0.9-1.5-1.1-3.6-1.8l0.6-0.7c-0.8-0.1-2.2-1.4-2.6-2.1l-0.9,0c-1.1-1.3-1.7-2.3-1.6-3.1
		l-0.3,0.5c-0.3-0.6-4-5.1-2.1-4c-0.4-0.3-0.8-0.5-1.3-1.5l0.4-0.4c-0.9-1.2-1.7-2.7-1.6-3.2c0.5,0.7,0.8,0.8,1.2,0.9
		c-2.3-5.8-2.5-0.3-4.2-5.9l0.4,0c-0.3-0.4-0.5-0.9-0.7-1.4l0.2-1.6c-1.7-1.9-0.5-8.2-0.2-11.7c0.2-1.4,1.4-2.9,2.3-5.2l-0.6-0.1
		c1.1-1.9,6.2-7.6,8.6-7.3c1.1-1.4-0.2,0-0.4-0.4c2.5-2.6,3.3-1.8,5-2.3c1.8-1.1-1.6,0.4-0.7-0.4c3.2-0.8,2.2-1.8,6.4-2.3
		c0.4,0.2-1,0.4-1.4,0.7c2.6-1.3,8.4-1,12.1,0.7c4.3,2,9.2,8,9.4,13.6l0.2,0.1c-0.1,2.2,0.3,4.8-0.4,7.2L98.9,76.1"/>
	<path style="clip-path:url(#SVGID_00000088817237787434437040000008376966703702767778_);fill:#FFFFFF;" d="M72.7,83.6l-0.1,0.7
		c0.7,0.9,1.2,2,2.1,2.7C74.1,85.8,73.6,85.3,72.7,83.6"/>
	<path style="clip-path:url(#SVGID_00000088817237787434437040000008376966703702767778_);fill:#FFFFFF;" d="M74.4,83.6
		c-0.4-0.4-0.6-0.9-0.8-1.4c0.2,0.9,0.7,1.6,1.1,2.3L74.4,83.6"/>
	<path style="clip-path:url(#SVGID_00000088817237787434437040000008376966703702767778_);fill:#FFFFFF;" d="M103.4,77.3l-0.1,0.4
		c-0.3,2-0.9,4-1.8,5.9C102.4,81.6,103.1,79.4,103.4,77.3"/>
	<path style="clip-path:url(#SVGID_00000088817237787434437040000008376966703702767778_);fill:#FFFFFF;" d="M80.4,48.8
		c0.7-0.3,1.8-0.1,2.5-0.3c-1,0.1-2,0.1-2.9,0.3L80.4,48.8"/>
	<path style="clip-path:url(#SVGID_00000088817237787434437040000008376966703702767778_);fill:#FFFFFF;" d="M55.4,62.2
		c0.2,1.5-1.1,2.1,0.3,1.1C56.4,61.5,55.4,62.8,55.4,62.2"/>
	<path style="clip-path:url(#SVGID_00000088817237787434437040000008376966703702767778_);fill:#FFFFFF;" d="M53.7,69.2
		c0.3-1,0.4-1.6,0.5-2.2C53.3,68.2,53.8,68.4,53.7,69.2"/>
	<text transform="matrix(1 0 0 1 142.725 41.1019)" class="st10 st11 st12">2024/</text>
	<text transform="matrix(1 0 0 1 188.985 41.1019)" class="st10 st11 st12">0</text>
	<text transform="matrix(1 0 0 1 199.405 41.1019)" class="st10 st11 st12">8/01</text>
	<text transform="matrix(1 0 0 1 78.3151 281.1618)" class="st10 st11 st13">https://deb.li/trixie</text>
</g>
</svg>
