<?xml version="1.0" encoding="utf-8"?>
<!-- Generator: $$$/GeneralStr/196=Adobe Illustrator 27.6.0, SVG Export Plug-In . SVG Version: 6.00 Build 0)  -->
<svg version="1.1" id="Calque_1" xmlns="http://www.w3.org/2000/svg" xmlns:xlink="http://www.w3.org/1999/xlink" x="0px" y="0px"
	 viewBox="0 0 1920 118.9" style="enable-background:new 0 0 1920 118.9;" xml:space="preserve">
<style type="text/css">
	
		.st0{clip-path:url(#SVGID_00000145034660342807368100000016647720584846500496_);fill:url(#SVGID_00000090270331998443585200000008873563529109441163_);}
	
		.st1{opacity:0.5;clip-path:url(#SVGID_00000145034660342807368100000016647720584846500496_);fill:url(#SVGID_00000099663685143011552520000001900369589660832420_);enable-background:new    ;}
	
		.st2{opacity:0.3;clip-path:url(#SVGID_00000145034660342807368100000016647720584846500496_);fill:url(#SVGID_00000060719725105474571980000001696646055786746762_);enable-background:new    ;}
	
		.st3{clip-path:url(#SVGID_00000145034660342807368100000016647720584846500496_);fill:url(#SVGID_00000080895897957112212820000009017711068873238924_);}
	
		.st4{opacity:0.4;clip-path:url(#SVGID_00000145034660342807368100000016647720584846500496_);fill:url(#SVGID_00000089544880274443131230000003910218676518930563_);enable-background:new    ;}
	
		.st5{opacity:0.5;clip-path:url(#SVGID_00000145034660342807368100000016647720584846500496_);fill:url(#SVGID_00000140013859829480276750000016187473059367434896_);enable-background:new    ;}
	
		.st6{opacity:0.5;clip-path:url(#SVGID_00000145034660342807368100000016647720584846500496_);fill:url(#SVGID_00000143587419931027112740000000599392358574157996_);enable-background:new    ;}
	
		.st7{clip-path:url(#SVGID_00000145034660342807368100000016647720584846500496_);fill:url(#SVGID_00000017509628331783064940000005048371219627713202_);}
	.st8{clip-path:url(#SVGID_00000145034660342807368100000016647720584846500496_);}
	.st9{enable-background:new    ;}
	.st10{fill:#FFFFFF;}
	
		.st11{clip-path:url(#SVGID_00000145034660342807368100000016647720584846500496_);fill:url(#SVGID_00000053511460677392652270000014186107147437646217_);}
	
		.st12{opacity:0.3;clip-path:url(#SVGID_00000145034660342807368100000016647720584846500496_);fill:url(#SVGID_00000135666395005106849680000005595673271101933732_);enable-background:new    ;}
</style>
<g>
	<defs>
		<rect id="SVGID_1_" width="1920" height="119"/>
	</defs>
	<clipPath id="SVGID_00000139288212795259148290000005835176601244673466_">
		<use xlink:href="#SVGID_1_"  style="overflow:visible;"/>
	</clipPath>
	
		<linearGradient id="SVGID_00000010274623926612662350000014244960987498778022_" gradientUnits="userSpaceOnUse" x1="-1.6" y1="59.25" x2="1918.8" y2="59.25" gradientTransform="matrix(1 0 0 -1 0 118)">
		<stop  offset="0" style="stop-color:#2F7274"/>
		<stop  offset="0.5" style="stop-color:#69A8A8"/>
		<stop  offset="0.5972" style="stop-color:#6CA9A8"/>
		<stop  offset="0.6792" style="stop-color:#77ADA9"/>
		<stop  offset="0.7557" style="stop-color:#88B3AA"/>
		<stop  offset="0.8289" style="stop-color:#A1BBAC"/>
		<stop  offset="0.8997" style="stop-color:#C1C6AF"/>
		<stop  offset="0.9678" style="stop-color:#E7D4B1"/>
		<stop  offset="1" style="stop-color:#FCDBB3"/>
	</linearGradient>
	
		<rect x="-1.6" y="-2.6" style="clip-path:url(#SVGID_00000139288212795259148290000005835176601244673466_);fill:url(#SVGID_00000010274623926612662350000014244960987498778022_);" width="1920.4" height="122.7"/>
	
		<radialGradient id="SVGID_00000090293636507517477860000002379697697761878701_" cx="1173.8" cy="119.4" r="75.3" gradientTransform="matrix(1 0 0 -1 0 118)" gradientUnits="userSpaceOnUse">
		<stop  offset="0" style="stop-color:#FCDBB3"/>
		<stop  offset="1" style="stop-color:#F2DAB8;stop-opacity:0"/>
	</radialGradient>
	
		<circle style="opacity:0.5;clip-path:url(#SVGID_00000139288212795259148290000005835176601244673466_);fill:url(#SVGID_00000090293636507517477860000002379697697761878701_);enable-background:new    ;" cx="1173.8" cy="-1.4" r="75.3"/>
	
		<linearGradient id="SVGID_00000047766579623253740400000016338165521489315251_" gradientUnits="userSpaceOnUse" x1="3932.2937" y1="1569.5953" x2="4026.6763" y2="1569.5953" gradientTransform="matrix(0 -1.0966 -0.4087 0 1793.4436 4341.0537)">
		<stop  offset="0" style="stop-color:#F2D6B0"/>
		<stop  offset="1" style="stop-color:#FF8C8E;stop-opacity:0"/>
	</linearGradient>
	
		<polygon style="opacity:0.3;clip-path:url(#SVGID_00000139288212795259148290000005835176601244673466_);fill:url(#SVGID_00000047766579623253740400000016338165521489315251_);enable-background:new    ;" points="
		1176.9,-74.6 1176.9,28.9 1127,28.9 1127,-74.6 	"/>
	
		<linearGradient id="SVGID_00000016037500481060347870000001075251363507545017_" gradientUnits="userSpaceOnUse" x1="5739.3306" y1="-1407.411" x2="5826.8306" y2="-1319.911" gradientTransform="matrix(-1 0 0 1 6575.4307 1426.111)">
		<stop  offset="0" style="stop-color:#487C80;stop-opacity:0"/>
		<stop  offset="0" style="stop-color:#69A8A8;stop-opacity:3.000000e-02"/>
		<stop  offset="1" style="stop-color:#69A8A8"/>
	</linearGradient>
	
		<polygon style="clip-path:url(#SVGID_00000139288212795259148290000005835176601244673466_);fill:url(#SVGID_00000016037500481060347870000001075251363507545017_);" points="
		761.9,5.4 822.8,5.4 822.8,119.5 761.9,119.5 	"/>
	
		<radialGradient id="SVGID_00000131326316897489436520000015776718347729128327_" cx="695.4" cy="-62.7" r="169.4" gradientTransform="matrix(1 0 0 -1 0 118)" gradientUnits="userSpaceOnUse">
		<stop  offset="0" style="stop-color:#A80030"/>
		<stop  offset="1" style="stop-color:#FF8C8E;stop-opacity:0"/>
	</radialGradient>
	
		<circle style="opacity:0.4;clip-path:url(#SVGID_00000139288212795259148290000005835176601244673466_);fill:url(#SVGID_00000131326316897489436520000015776718347729128327_);enable-background:new    ;" cx="695.4" cy="180.7" r="169.4"/>
	
		<linearGradient id="SVGID_00000023240144162577000900000006929083709313820817_" gradientUnits="userSpaceOnUse" x1="753.8" y1="-1.8" x2="753.8" y2="101.8" gradientTransform="matrix(1 0 0 -1 0 118)">
		<stop  offset="0" style="stop-color:#F2D6B0"/>
		<stop  offset="1" style="stop-color:#FF8C8E;stop-opacity:0"/>
	</linearGradient>
	
		<rect x="736.3" y="16.2" style="opacity:0.5;clip-path:url(#SVGID_00000139288212795259148290000005835176601244673466_);fill:url(#SVGID_00000023240144162577000900000006929083709313820817_);enable-background:new    ;" width="35" height="103.6"/>
	
		<linearGradient id="SVGID_00000059988972539587858460000010251532292998788011_" gradientUnits="userSpaceOnUse" x1="776.7" y1="-1.1" x2="776.7" y2="54.9" gradientTransform="matrix(1 0 0 -1 0 118)">
		<stop  offset="0" style="stop-color:#F2D6B0"/>
		<stop  offset="1" style="stop-color:#FF8C8E;stop-opacity:0"/>
	</linearGradient>
	
		<rect x="759.2" y="63.1" style="opacity:0.5;clip-path:url(#SVGID_00000139288212795259148290000005835176601244673466_);fill:url(#SVGID_00000059988972539587858460000010251532292998788011_);enable-background:new    ;" width="35" height="56"/>
	
		<linearGradient id="SVGID_00000047054625341277878630000010053411421477105595_" gradientUnits="userSpaceOnUse" x1="4389.8354" y1="-1355.359" x2="4514.4355" y2="-1230.759" gradientTransform="matrix(1 0 0 -1 -3820.7854 -1233.609)">
		<stop  offset="0" style="stop-color:#487C80;stop-opacity:0"/>
		<stop  offset="1" style="stop-color:#5EA498"/>
	</linearGradient>
	
		<rect x="567.8" y="-1.6" style="clip-path:url(#SVGID_00000139288212795259148290000005835176601244673466_);fill:url(#SVGID_00000047054625341277878630000010053411421477105595_);" width="127.1" height="122.1"/>
	<g style="clip-path:url(#SVGID_00000139288212795259148290000005835176601244673466_);">
		<g class="st9">
			<path class="st10" d="M894.1,44c-0.7,0,0.1,0.4,1.1,0.5c0.3-0.2,0.5-0.4,0.7-0.6C895.3,44,894.7,44,894.1,44"/>
			<path class="st10" d="M898.1,43c0.4-0.6,0.8-1.3,0.9-2c-0.1,0.5-0.4,0.9-0.6,1.4c-1.4,0.9-0.1-0.5,0-1.1
				C896.8,43.2,898.1,42.5,898.1,43"/>
			<path class="st10" d="M899.5,39.2c0.1-1.3-0.3-0.9-0.4-0.4C899.3,38.8,899.4,39.7,899.5,39.2"/>
			<path class="st10" d="M891.3,20.8c0.4,0.1,0.9,0.1,0.8,0.2C892.5,21,892.6,20.9,891.3,20.8"/>
			<path class="st10" d="M892,21.1l-0.3,0.1L892,21.1L892,21.1"/>
			<path class="st10" d="M904.4,39.7c0,1.2-0.4,1.8-0.7,2.8l-0.7,0.3c-0.5,1,0,0.7-0.3,1.5c-0.8,0.7-2.5,2.3-3,2.4
				c-0.4,0,0.3-0.5,0.4-0.6c-1.1,0.8-0.9,1.1-2.6,1.6v-0.1c-4.1,2-9.9-1.9-9.8-7.2c0,0.3-0.1,0.3-0.2,0.4c-0.2-2.7,1.3-5.4,3.7-6.5
				c2.4-1.2,5.3-0.7,7,0.9c-0.9-1.2-2.8-2.6-5.1-2.4c-2.2,0-4.3,1.4-4.9,2.9c-1.1,0.7-1.3,2.7-1.7,3.1c-0.7,4.9,1.2,6.9,4.5,9.4
				c0.5,0.3,0.1,0.4,0.2,0.7c-1.1-0.5-2-1.3-2.9-2.2c0.4,0.6,0.9,1.2,1.5,1.7c-1-0.3-2.4-2.4-2.8-2.5c1.7,3.1,7.1,5.5,9.8,4.3
				c-1.3,0-2.9,0-4.4-0.5c-0.6-0.3-1.4-1-1.3-1.1c3.8,1.4,7.7,1.1,11-1.6c0.8-0.7,1.7-1.8,2-1.8c-0.4,0.6,0.1,0.3-0.2,0.8
				c0.8-1.3-0.4-0.5,0.9-2.3l0.4,0.6c-0.2-1.1,1.4-2.5,1.2-4.2c0.4-0.5,0.4,0.6,0,1.8c0.5-1.4,0.1-1.6,0.3-2.7
				c0.1,0.4,0.3,0.8,0.4,1.2c-0.3-1.3,0.4-2.2,0.5-3c-0.2-0.1-0.5,0.6-0.6-1c0-0.7,0.2-0.4,0.3-0.5c-0.1-0.1-0.5-0.6-0.7-1.6
				c0.1-0.2,0.4,0.6,0.6,0.7c-0.1-0.8-0.4-1.4-0.4-2c-0.6-1.3-0.2,0.2-0.7-0.5c-0.7-2,0.5-0.5,0.6-1.4c1,1.4,1.6,3.7,1.8,4.6
				c-0.2-1.1-0.5-2.2-0.9-3.3c0.3,0.1-0.5-2.3,0.4-0.7c-0.9-3.5-4-6.7-6.9-8.2c0.3,0.3,0.8,0.7,0.6,0.8c-1.4-0.8-1.2-0.9-1.4-1.3
				c-1.1-0.5-1.2,0-2,0c-2.2-1.2-2.6-1-4.6-1.7l0.1,0.4c-1.4-0.5-1.7,0.2-3.2,0c-0.1-0.1,0.5-0.3,1-0.3c-1.4,0.2-1.3-0.3-2.7,0
				c0.3-0.2,0.7-0.4,1.1-0.6c-1.1,0.1-2.7,0.7-2.2,0.1c-1.9,0.8-5.1,2-6.9,3.7l-0.1-0.4c-0.8,1-3.7,3-3.9,4.3h-0.2
				c-0.4,0.7-0.7,1.6-1.1,2.3c-0.6,1-0.8,0.4-0.8,0.5c-1.1,2.3-1.7,4.2-2.2,5.8c0.3,0.5,0,3.1,0.1,5.2c-0.6,10.2,7.2,20.1,15.6,22.4
				c1.2,0.4,3.1,0.4,4.7,0.5c-1.9-0.5-2.1-0.3-3.9-0.9c-1.3-0.6-1.6-1.3-2.5-2.1l0.4,0.7c-1.8-0.6-1.1-0.8-2.5-1.3l0.4-0.5
				c-0.6,0-1.6-1-1.8-1.5h-0.6c-0.8-0.9-1.2-1.6-1.2-2.2l-0.2,0.4c-0.2-0.4-2.8-3.6-1.5-2.8c-0.3-0.2-0.6-0.4-0.9-1l0.3-0.3
				c-0.7-0.8-1.2-1.9-1.2-2.3c0.3,0.5,0.6,0.5,0.8,0.6c-1.6-4.1-1.7-0.2-3-4.1h0.3c-0.2-0.3-0.3-0.6-0.5-0.9l0.1-1.1
				c-1.2-1.4-0.3-5.8-0.2-8.2c0.1-1,1-2,1.6-3.7l-0.4-0.1c0.8-1.3,4.4-5.4,6.1-5.2c0.8-1-0.2,0-0.3-0.3c1.8-1.9,2.3-1.3,3.5-1.6
				c1.3-0.8-1.1,0.3-0.5-0.3c2.2-0.6,1.6-1.3,4.5-1.6c0.3,0.2-0.7,0.3-1,0.5c1.9-0.9,5.9-0.7,8.5,0.5c3.1,1.4,6.5,5.6,6.6,9.6h0.1
				c-0.1,1.6,0.2,3.4-0.3,5.1L904.4,39.7"/>
			<path class="st10" d="M886,45l-0.1,0.5c0.5,0.7,0.9,1.4,1.5,1.9C886.9,46.5,886.6,46.2,886,45"/>
			<path class="st10" d="M887.1,44.9c-0.3-0.3-0.4-0.6-0.6-1c0.2,0.6,0.5,1.1,0.8,1.6L887.1,44.9"/>
			<path class="st10" d="M907.6,40.5l-0.1,0.3c-0.2,1.4-0.6,2.8-1.3,4.1C906.9,43.5,907.3,42,907.6,40.5"/>
			<path class="st10" d="M891.4,20.5c0.5-0.2,1.2-0.1,1.8-0.2c-0.7,0.1-1.4,0.1-2.1,0.2H891.4"/>
			<path class="st10" d="M873.7,29.9c0.1,1.1-0.8,1.5,0.2,0.8C874.5,29.4,873.7,30.3,873.7,29.9"/>
			<path class="st10" d="M872.6,34.8c0.2-0.7,0.3-1.1,0.4-1.6C872.3,34.1,872.6,34.3,872.6,34.8"/>
		</g>
		<g class="st9">
			<path class="st10" d="M935.2,43.3c0,0,0,8.8-0.1,11.1c-0.1,1.8-0.2,5.8-4.2,5.8s-5-4.6-5.3-6.7c-0.4-2.2-0.4-4.1-0.4-4.9
				c0-2.6,0.1-9.9,6.3-9.9c1.8,0,2.9,0.5,3.7,1V43.3z M919.4,49.7c0,15.4,8.2,15.4,9.4,15.4c3.4,0,5.6-1.8,6.5-5.1l0.1,4.8
				c1,0,2.1-0.1,3.8-0.1c0.6,0,1.1,0,1.5,0s0.9,0,1.3,0.1c-0.9-1.7-1.5-5.7-1.5-14.2c0-8.3,0-22.3,0.7-26.5
				c-1.9,0.9-3.6,1.5-7.4,1.8c1.5,1.6,1.5,2.4,1.5,9.6c-1-0.3-2.3-0.7-4.6-0.7C921,34.9,919.4,43.4,919.4,49.7"/>
			<path class="st10" d="M949,46.9c0-4.5,1-8.6,4.8-8.6c4.2,0,4.6,4.7,4.5,8.6H949z M963.7,47.5c0-6.4-1.2-12.7-9.3-12.7
				c-11.1,0-11.1,12.4-11.1,14.9c0,11.1,5,15.4,13.3,15.4c3.7,0,5.5-0.5,6.5-0.8c0-1.9,0.2-3.2,0.5-4.9c-1.1,0.7-2.6,1.6-5.9,1.6
				c-8.5,0-8.6-7.8-8.6-10.4h14.5L963.7,47.5"/>
			<path class="st10" d="M981.4,49.8c0,5.1-0.9,11.9-7.3,11.9c-0.9,0-1.9-0.1-2.7-0.3c-0.1-1.9-0.1-5.3-0.1-9.3
				c0-4.7,0.5-7.1,0.9-8.4c1.1-3.9,3.7-3.9,4.2-3.9C980.6,39.9,981.4,45.6,981.4,49.8z M965.8,55.8c0,4,0,6.3-0.6,8.1
				c2.2,0.9,5,1.3,8.4,1.3c2.1,0,8.3,0,11.6-6.8c1.6-3.2,2.1-7.4,2.1-10.7c0-1.9-0.2-6.3-1.8-9c-1.5-2.5-4-3.9-6.6-3.9
				c-5.2,0-6.8,4.4-7.6,6.6c0-2.8,0-12.5,0.5-17.4c-3.5,1.6-5.7,1.9-8.1,2.1c2.1,0.8,2.1,4.5,2.1,16.2L965.8,55.8"/>
			<path class="st10" d="M997.7,64.9c-1.1-0.1-1.8-0.2-3.4-0.2c-1.7,0-2.9,0.1-4.2,0.2c0.5-1,0.7-1.5,0.9-5.1
				c0.2-4.9,0.2-17.8-0.1-20.6c-0.2-2.1-0.7-2.4-1.5-2.9c4.5-0.4,5.7-0.7,7.8-1.7c-0.4,2.4-0.5,3.6-0.5,7.3
				C996.6,60.6,996.5,62.6,997.7,64.9"/>
			<path class="st10" d="M1015.2,49.4c-0.1,3.4-0.1,5.8-1.1,7.8c-1.1,2.4-3,3.2-4.5,3.2c-3.3,0-4-2.7-4-5.4c0-5.1,4.6-5.5,6.7-5.5
				L1015.2,49.4L1015.2,49.4z M1000.2,56.2c0,3.4,1,6.9,4.1,8.4c1.3,0.6,2.7,0.6,3.2,0.6c5,0,6.7-3.7,7.8-6c0,2.4,0,3.9,0.1,5.8
				c1,0,1.9-0.1,3.6-0.1c0.9,0,1.8,0.1,2.7,0.1c-0.6-0.9-0.9-1.5-1.1-3.6c-0.1-2.1-0.1-4.1-0.1-7V43.3c0-4.1-1.1-8.2-9.3-8.2
				c-5.4,0-8.6,1.6-10.2,2.4c0.6,1.2,1.2,2.2,1.7,4.6c2.1-1.8,4.9-2.8,7.8-2.8c4.5,0,4.5,3,4.5,7.3c-1,0-1.9-0.1-3.4-0.1
				C1004.8,46.2,1000.2,48.8,1000.2,56.2"/>
			<path class="st10" d="M1046.6,59.5c0,1.8,0,3.8,0.8,5.4c-1.2-0.1-1.9-0.2-4.1-0.2c-1.3,0-2,0.1-3,0.2c0.2-0.7,0.3-1,0.4-1.9
				c0.1-1.2,0.2-5.5,0.2-6.9v-5.9c0-2.5,0-6.3-0.1-7.6c-0.1-0.9-0.4-3.4-3.5-3.4s-4.1,2.3-4.5,4.1c-0.4,1.9-0.4,4-0.4,12.1
				c0,7,0,7.6,0.6,9.6c-0.9-0.1-2.1-0.2-3.7-0.2c-1.3,0-2.2,0-3.3,0.2c0.4-0.9,0.6-1.3,0.7-4.4c0.1-3,0.3-17.7-0.1-21.2
				c-0.2-2.1-0.8-2.6-1.4-3.2c4.4-0.2,5.8-0.9,7.2-1.6v5.7c0.6-1.7,2-5.5,7.5-5.5c6.8,0,6.9,5,6.9,8.2L1046.6,59.5"/>
			<path class="st10" d="M998.2,26.8l-4.5,4.5l-4.5-4.5l4.5-4.5L998.2,26.8"/>
		</g>
	</g>
	<g style="clip-path:url(#SVGID_00000139288212795259148290000005835176601244673466_);">
		<path class="st10" d="M831.3,84.8c0,2.5,0,4.4,0,5.9s0.2,1.7,0.4,2.3c-0.4,0-1-0.2-1.7-0.2c-0.8,0-1.1,0-1.7,0.2
			c0.2-0.6,0.4-1,0.4-2.3c0-2.3,0-4,0-5.9v-2.9c0-1.9,0-2.3,0-3.1c-0.8,0-1.5,0-2.3,0c-1.3,0-1.5,0.6-1.9,0.8c0-0.6,0-1,0-1.3
			c0-0.6,0-1,0-1.3c0.4,0,0.8,0,1.5,0.2c0.8,0,1.7,0,3.2,0c0.4,0,4.6,0,6.1-0.2c0,0.4,0,0.8,0,1.3s0,0.8,0,1.3
			c-0.2-0.4-0.6-0.6-1.9-0.6c-1.3,0-1.5,0-2.3,0v3.1L831.3,84.8L831.3,84.8z"/>
		<path class="st10" d="M844.9,89.7c0,1.9,0.2,2.5,0.4,3.2c-0.6,0-1-0.2-1.5-0.2c-0.8,0-1.1,0-1.7,0.2c0.2-0.4,0.2-0.6,0.4-1.1
			c0-1.1,0-2.7,0-6.1c0-2.3,0-3.4-1.5-3.4c-1.3,0-1.7,1-1.9,1.7c-0.2,1-0.2,2.3-0.2,5.7c0,2.3,0,2.7,0.4,3.4c-0.4,0-0.8-0.2-1.3-0.2
			c-0.8,0-1.1,0-1.7,0.2c0.2-0.2,0.2-0.4,0.2-1c0-0.4,0-0.6,0.2-3.1v-8c0-0.6,0-2.5-0.4-3.4c-0.2-0.4-0.4-0.6-0.6-0.6
			c1.7-0.2,2.5-0.6,3.2-1c-0.2,1.1-0.2,1.7-0.2,3.4V83c0.2-0.8,1-2.5,3.2-2.5c0.8,0,1.5,0.2,2.1,0.6c0.8,0.6,1,1.5,1,3.2L844.9,89.7
			z"/>
		<path class="st10" d="M855.4,87.1h-6.1c0,1.1,0,4.4,3.6,4.4c1.3,0,1.9-0.4,2.5-0.8c-0.2,0.8-0.2,1.1-0.2,2.1
			c-0.4,0.2-1.1,0.4-2.7,0.4c-3.4,0-5.5-1.9-5.5-6.5c0-1.1,0-6.3,4.6-6.3c3.4,0,4,2.7,4,5.3L855.4,87.1z M853.3,85.3
			c0-1.7,0-3.6-1.9-3.6c-1.7,0-2.1,1.7-2.1,3.6H853.3z"/>
		<path class="st10" d="M871.6,88.4c0,1.9,0,2.5,0,3.1c0,0.8,0.2,1.1,0.6,1.3c-0.6,0-1,0-1.3,0c-0.6,0-1,0-1.5,0v-2.1
			c-0.4,0.8-1.1,2.3-3.2,2.3c-0.4,0-1,0-1.5-0.2c-1-0.4-1.3-1.1-1.3-2.7V85c0-2.1,0-2.5,0-3.1c-0.2-1-0.4-1-0.8-1.1
			c2.1,0,2.9-0.4,3.4-0.6c-0.2,0.6-0.2,1-0.2,2.1v5.2c0,1.7,0,2.1,0,2.5s0.2,1.3,1.5,1.3c1.9,0,2.1-1.9,2.1-2.9
			c0.2-1.3,0.2-2.9,0.2-5.3c0-1.9-0.2-2.1-0.6-2.5c1.7,0,2.3-0.2,3.2-0.6c-0.2,1.1-0.2,1.5-0.2,5.2v3.2
			C872,88.4,871.6,88.4,871.6,88.4z"/>
		<path class="st10" d="M882.5,90.7c0,0.8,0,1.5,0.4,2.3c-0.6,0-0.8-0.2-1.7-0.2c-0.6,0-0.8,0-1.3,0.2c0-0.4,0.2-0.4,0.2-0.8
			c0-0.6,0.2-2.3,0.2-2.9v-2.5c0-1.1,0-2.7,0-3.2c0-0.4-0.2-1.5-1.5-1.5s-1.7,1-1.9,1.7s-0.2,1.7-0.2,5.2c0,2.9,0,3.2,0.2,4
			c-0.4,0-1,0-1.5,0s-1,0-1.3,0c0.2-0.4,0.2-0.6,0.4-1.9c0-1.3,0.2-7.5,0-9c-0.2-1-0.4-1.1-0.6-1.3c1.9,0,2.5-0.4,3.1-0.8v2.5
			c0.2-0.8,0.8-2.3,3.1-2.3c2.9,0,2.9,2.1,2.9,3.4v7.1L882.5,90.7L882.5,90.7z"/>
		<path class="st10" d="M888.1,93c-0.4,0-0.8-0.2-1.5-0.2s-1.1,0-1.7,0.2c0.2-0.4,0.4-0.6,0.4-2.1c0-2.1,0.2-7.5,0-8.6
			c-0.2-1-0.4-1-0.6-1.1c1.9-0.2,2.5-0.4,3.2-0.8c-0.2,1-0.2,1.5-0.2,3.1C887.7,91.3,887.7,92,888.1,93z M886.4,79.2
			c-0.8,0-1.3-0.6-1.3-1.5c0-0.6,0.2-1.5,1.3-1.5c1,0,1.1,0.8,1.1,1.5C887.7,78.6,887.5,79.2,886.4,79.2z"/>
		<path class="st10" d="M897.1,87.2c-0.6,2.1-0.6,2.5-1.3,5.7c-0.6,0-1-0.2-1.5-0.2c-0.8,0-1.1,0-1.7,0.2c-0.2-0.8-0.2-1.1-0.4-2.3
			l-1.5-6.1c-0.4-1.3-0.8-3.2-1.3-4.2c0.2,0,0.6,0,0.8,0s0.6,0,0.8,0c0.8,0,1.3,0,1.9-0.2c0,0.2,0,0.4,0,0.6c0,1,0.6,3.4,1.3,7.6
			l0.6,2.3l0.6-2.3c0.8-2.9,1.7-6.7,1.7-7.6c0-0.4,0-0.6-0.2-0.6c0.2,0,0.4,0,0.6,0c0.2,0,0.4,0,0.8,0c0.8,0,1.1,0,1.5-0.2
			c-0.6,1.1-0.8,1.7-1.3,3.6L897.1,87.2z"/>
		<path class="st10" d="M907.9,87.1h-6.1c0,1.1,0,4.4,3.6,4.4c1.3,0,1.9-0.4,2.5-0.8c-0.2,0.8-0.2,1.1-0.2,2.1
			c-0.4,0.2-1.1,0.4-2.7,0.4c-3.4,0-5.5-1.9-5.5-6.5c0-1.1,0-6.3,4.6-6.3c3.4,0,4,2.7,4,5.3L907.9,87.1z M905.8,85.3
			c0-1.7,0-3.6-1.9-3.6c-1.7,0-2.1,1.7-2.1,3.6H905.8z"/>
		<path class="st10" d="M910.2,85.9c0-4,0-4.8-1-5.2c1,0,1.9,0,3.2-0.6l-0.2,3.4c0.4-0.8,1.3-3.1,4-3.4c-0.2,0.8-0.4,1.7-0.4,2.5
			c-0.2,0-0.4,0-0.6,0c-0.2,0-2.5,0-2.9,2.9c-0.2,1.1-0.2,3.8-0.2,4.8s0,2.1,0.4,2.9c-0.4,0-0.8-0.2-1.3-0.2c-0.8,0-1.1,0-1.5,0.2
			c0.2-0.4,0.2-0.6,0.2-1.1l0.2-3.1L910.2,85.9L910.2,85.9z"/>
		<path class="st10" d="M924.4,80.8c-0.2,0.6-0.4,1-0.6,2.1c-0.8-1-2.1-1-2.3-1c-1.5,0-1.9,1-1.9,1.7c0,1,0.8,1.3,1.9,2.1
			c1.7,1,3.1,1.5,3.1,3.6c0,2.7-1.9,4-5,4c-1.7,0-2.5-0.4-2.9-0.4c0.4-0.8,0.6-1.1,0.6-2.3c0.4,0.4,1,1,2.5,1s2.3-0.8,2.3-1.9
			c0-1-0.4-1.1-2.3-2.3c-1.1-0.6-2.5-1.5-2.5-3.4s1.3-3.6,4.4-3.6C922.3,80.2,923.2,80.4,924.4,80.8z"/>
		<path class="st10" d="M930.9,85.1c0.6,0,1,0,1.3,0c0-1.7,0-3.1-1.9-3.1c-1.1,0-2.3,0.4-3.2,1.1c-0.2-1-0.4-1.3-0.8-1.9
			c0.6-0.4,1.9-1,4.2-1c3.4,0,3.8,1.7,3.8,3.4v4.6c0,1.1,0,2.1,0,2.9c0,1,0.2,1.1,0.4,1.5c-0.4,0-0.8,0-1.1,0c-0.8,0-1.1,0-1.5,0
			c0-0.8,0-1.3,0-2.5c-0.4,1-1.1,2.5-3.2,2.5c-0.2,0-0.8,0-1.3-0.2c-1.3-0.6-1.7-2.1-1.7-3.4C926.1,86.3,928,85.1,930.9,85.1z
			 M931.2,86.5c-1,0-2.9,0.2-2.9,2.3c0,1.1,0.4,2.3,1.7,2.3c0.6,0,1.3-0.4,1.9-1.3c0.4-0.8,0.4-1.7,0.4-3.2h-1.1V86.5z"/>
		<path class="st10" d="M939.7,86.1c0,1.7,0,3.2,0,4.6c0,1.5,0.2,1.7,0.4,2.3c-0.4,0-0.8-0.2-1.5-0.2s-1.1,0-1.7,0.2
			c0.2-0.4,0.2-0.6,0.4-1.1c0-0.8,0-2.1,0.2-4.4v-4c0-2.9,0-4-0.2-5.2c-0.2-1.1-0.4-1.3-0.8-1.7c1.5-0.2,2.3-0.4,3.4-1
			c-0.2,1.3-0.2,1.5-0.2,6.1L939.7,86.1L939.7,86.1z"/>
		<path class="st10" d="M952.5,93.2c-4.2,0-4.6-3.6-4.6-6.3c0-2.7,0.6-6.5,4.8-6.5c4,0,4.6,3.2,4.6,6.1
			C957,89.5,956.5,93.2,952.5,93.2z M952.5,81.7c-1.9,0-2.3,2.1-2.3,5.2c0,1.9,0.2,4.6,2.3,4.6c1.5,0,2.1-1.3,2.1-5.2
			C954.6,83,953.8,81.7,952.5,81.7z"/>
		<path class="st10" d="M961.4,94.9c0,1.9,0.2,2.3,0.4,2.9c-0.2,0-0.6,0-0.8-0.2c-0.2,0-0.6,0-1,0c-0.8,0-1,0-1.5,0.2
			c0.2-0.2,0.4-0.6,0.4-5.9v-3.2v-3.1c0-3.6-0.2-4.2-0.8-4.8c2.1,0,2.7-0.4,3.2-0.8v2.9c0.4-1,1.1-2.7,3.2-2.7
			c3.6,0,3.6,4.4,3.6,5.3c0,2.7-0.6,7.3-5.7,7.3c-0.4,0-0.6,0-1.3,0L961.4,94.9L961.4,94.9z M961.4,91.4c0.2,0,0.6,0.2,1.1,0.2
			c3.1,0,3.4-2.7,3.4-4.8c0-1.1,0-4.6-2.1-4.6c-1,0-1.7,0.8-2.1,2.1c-0.4,1.1-0.4,3.4-0.4,4.6L961.4,91.4L961.4,91.4z"/>
		<path class="st10" d="M978.6,87.1h-6.1c0,1.1,0,4.4,3.6,4.4c1.3,0,1.9-0.4,2.5-0.8c-0.2,0.8-0.2,1.1-0.2,2.1
			c-0.4,0.2-1.1,0.4-2.7,0.4c-3.4,0-5.5-1.9-5.5-6.5c0-1.1,0-6.3,4.6-6.3c3.4,0,4,2.7,4,5.3L978.6,87.1z M976.3,85.3
			c0-1.7,0-3.6-1.9-3.6c-1.7,0-2.1,1.7-2.1,3.6H976.3z"/>
		<path class="st10" d="M980.7,85.9c0-4,0-4.8-1-5.2c1,0,1.9,0,3.2-0.6l-0.2,3.4c0.4-0.8,1.3-3.1,4-3.4c-0.2,0.8-0.4,1.7-0.4,2.5
			c-0.2,0-0.4,0-0.6,0s-2.5,0-2.9,2.9c-0.2,1.1-0.2,3.8-0.2,4.8s0,2.1,0.4,2.9c-0.4,0-0.8-0.2-1.3-0.2c-0.8,0-1.1,0-1.5,0.2
			c0.2-0.4,0.2-0.6,0.2-1.1l0.2-3.1L980.7,85.9L980.7,85.9z"/>
		<path class="st10" d="M992,85.1c0.6,0,1,0,1.3,0c0-1.7,0-3.1-1.9-3.1c-1.1,0-2.3,0.4-3.2,1.1c-0.2-1-0.4-1.3-0.8-1.9
			c0.6-0.4,1.9-1,4.2-1c3.4,0,3.8,1.7,3.8,3.4v4.6c0,1.1,0,2.1,0,2.9c0,1,0.2,1.1,0.4,1.5c-0.4,0-0.8,0-1.1,0c-0.8,0-1.1,0-1.5,0
			c0-0.8,0-1.3,0-2.5c-0.4,1-1.1,2.5-3.2,2.5c-0.2,0-0.8,0-1.3-0.2c-1.3-0.6-1.7-2.1-1.7-3.4C987.2,86.3,989.1,85.1,992,85.1z
			 M992.2,86.5c-1,0-2.9,0.2-2.9,2.3c0,1.1,0.4,2.3,1.7,2.3c0.6,0,1.3-0.4,1.9-1.3c0.4-0.8,0.4-1.7,0.4-3.2h-1.1V86.5z"/>
		<path class="st10" d="M1001,88.8c0,2.1,0.4,2.5,1.3,2.5c0.4,0,0.6,0,0.8-0.2c0,0.4-0.2,0.8-0.2,1.3V93c-0.4,0-0.8,0-1.3,0
			c-2.9,0-3.1-1.5-3.1-4v-6.3c-0.6,0-1.1,0-1.3,0c0-0.4,0-0.6,0-1c0-0.2,0-0.6,0-0.8c0.4,0,1,0.2,1.5,0c0-0.8,0-2.7-0.2-3.4
			c1.3-0.2,1.9-0.4,2.7-0.8c0,0.6-0.2,1.1-0.2,4c0.6,0,1.1,0,1.7,0c0,0.4,0,0.8,0,1.1c0,0.2,0,0.4,0,0.6c-0.6,0-1.1-0.2-1.7-0.2
			V88.8z"/>
		<path class="st10" d="M1007.5,93c-0.4,0-0.8-0.2-1.5-0.2c-0.8,0-1.1,0-1.7,0.2c0.2-0.4,0.4-0.6,0.4-2.1c0-2.1,0.2-7.5,0-8.6
			c-0.2-1-0.4-1-0.6-1.1c1.9-0.2,2.5-0.4,3.2-0.8c-0.2,1-0.2,1.5-0.2,3.1C1006.9,91.3,1006.9,92,1007.5,93z M1005.8,79.2
			c-0.8,0-1.3-0.6-1.3-1.5c0-0.6,0.2-1.5,1.3-1.5c1,0,1.1,0.8,1.1,1.5C1007.1,78.6,1006.9,79.2,1005.8,79.2z"/>
		<path class="st10" d="M1018.2,90.7c0,0.8,0,1.5,0.4,2.3c-0.6,0-0.8-0.2-1.7-0.2c-0.6,0-0.8,0-1.3,0.2c0-0.4,0.2-0.4,0.2-0.8
			c0-0.6,0.2-2.3,0.2-2.9v-2.5c0-1.1,0-2.7,0-3.2c0-0.4-0.2-1.5-1.5-1.5s-1.7,1-1.9,1.7s-0.2,1.7-0.2,5.2c0,2.9,0,3.2,0.2,4
			c-0.4,0-1,0-1.5,0s-1,0-1.3,0c0.2-0.4,0.2-0.6,0.4-1.9c0-1.3,0.2-7.5,0-9c-0.2-1-0.4-1.1-0.6-1.3c1.9,0,2.5-0.4,3.1-0.8v2.5
			c0.2-0.8,0.8-2.3,3.1-2.3c2.9,0,2.9,2.1,2.9,3.4L1018.2,90.7L1018.2,90.7z"/>
		<path class="st10" d="M1027.3,80.8l0.4,0.2c1.3,0,2.3-0.2,2.7-0.4c0,0.6,0,1,0,1.5c-0.4-0.2-0.8-0.2-1.9-0.2
			c0.2,0.4,0.6,1,0.6,2.5c0,2.3-1.3,4-4,4c-0.2,0-0.6,0-1.1-0.2h-0.4c0,0-1.1,0.4-1.1,1.1c0,0.8,0.8,1,1.1,1c0.4,0,0.6,0,2.1,0.2
			c2.5,0.2,4.8,0.4,4.8,3.2c0,3.2-2.7,4.2-5.7,4.2c-0.6,0-1.3,0-1.9-0.2c-1.3-0.4-2.7-1.1-2.7-2.5c0-1.5,1.7-2.3,2.5-2.7
			c-0.8-0.2-2.1-0.6-2.1-2.1s1.7-2.3,2.1-2.5c-0.4-0.2-1.9-1-1.9-3.4c0-3.4,2.5-4.2,4.4-4.2C1025.8,80.4,1026.8,80.6,1027.3,80.8z
			 M1022.2,94.7c0,1.5,1.3,2.1,3.1,2.1c2.1,0,3.4-1,3.4-2.1c0-1.5-1.9-1.7-5.2-1.9C1023.3,92.6,1022.2,93.4,1022.2,94.7z
			 M1024.9,87.1c1.9,0,1.9-1.7,1.9-2.7c0-1.5-0.4-2.7-1.9-2.7s-1.9,1.3-1.9,2.9C1022.9,85.1,1022.9,87.1,1024.9,87.1z"/>
		<path class="st10" d="M1044.2,80.8c-0.2,0.6-0.4,1-0.6,2.1c-0.8-1-2.1-1-2.3-1c-1.5,0-1.9,1-1.9,1.7c0,1,0.8,1.3,1.9,2.1
			c1.7,1,3.1,1.5,3.1,3.6c0,2.7-1.9,4-5,4c-1.7,0-2.5-0.4-2.9-0.4c0.4-0.8,0.6-1.1,0.6-2.3c0.4,0.4,1,1,2.5,1s2.3-0.8,2.3-1.9
			c0-1-0.4-1.1-2.3-2.3c-1.1-0.6-2.5-1.5-2.5-3.4s1.3-3.6,4.4-3.6C1042,80.2,1043.2,80.4,1044.2,80.8z"/>
		<path class="st10" d="M1050.5,88.4c0.4-1.9,1.3-5.7,1.3-6.9c0-0.4,0-0.6-0.2-1c0.2,0,0.4,0,0.6,0s0.6,0,0.8,0c0.6,0,1.1,0,1.7-0.2
			c-0.8,1.7-1.1,2.9-2.5,7.8c-1.1,4.4-1.1,4.6-1.3,5.3c-0.4,1.3-1.1,3.8-4.8,3.8c-0.6,0-0.8,0-1.1-0.2c0.4-0.8,0.4-1.3,0.6-2.1
			c0.4,0.2,0.6,0.4,1.1,0.4c2.1,0,2.5-1.7,2.7-2.7c-0.2,0-0.6,0-0.8,0c-0.2,0-0.6,0-0.8,0c-0.2-1.7-1.7-8.4-2.5-10.7
			c-0.4-1-0.4-1.3-0.8-1.7c0.4,0,0.6,0,0.8,0s0.6,0,1,0c1,0,1.1,0,1.7,0c0,0.2-0.2,0.4-0.2,0.8c0,0.6,0.8,4.6,1.9,9.7L1050.5,88.4z"
			/>
		<path class="st10" d="M1062.9,80.8c-0.2,0.6-0.4,1-0.6,2.1c-0.8-1-2.1-1-2.3-1c-1.5,0-1.9,1-1.9,1.7c0,1,0.8,1.3,1.9,2.1
			c1.7,1,3.1,1.5,3.1,3.6c0,2.7-1.9,4-5,4c-1.7,0-2.5-0.4-2.9-0.4c0.4-0.8,0.6-1.1,0.6-2.3c0.4,0.4,1,1,2.5,1s2.3-0.8,2.3-1.9
			c0-1-0.4-1.1-2.3-2.3c-1.1-0.6-2.5-1.5-2.5-3.4s1.3-3.6,4.4-3.6C1060.6,80.2,1061.7,80.4,1062.9,80.8z"/>
		<path class="st10" d="M1067.3,88.8c0,2.1,0.4,2.5,1.3,2.5c0.4,0,0.6,0,0.8-0.2c0,0.4-0.2,0.8-0.2,1.3V93c-0.4,0-0.8,0-1.3,0
			c-2.9,0-3.1-1.5-3.1-4v-6.3c-0.6,0-1.1,0-1.3,0c0-0.4,0-0.6,0-1c0-0.2,0-0.6,0-0.8c0.4,0,1,0.2,1.5,0c0-0.8,0-2.7-0.2-3.4
			c1.3-0.2,1.9-0.4,2.7-0.8c0,0.6-0.2,1.1-0.2,4c0.6,0,1.1,0,1.7,0c0,0.4,0,0.8,0,1.1c0,0.2,0,0.4,0,0.6c-0.6,0-1.1-0.2-1.7-0.2
			L1067.3,88.8z"/>
		<path class="st10" d="M1078.9,87.1h-6.1c0,1.1,0,4.4,3.6,4.4c1.3,0,1.9-0.4,2.5-0.8c-0.2,0.8-0.2,1.1-0.2,2.1
			c-0.4,0.2-1.1,0.4-2.7,0.4c-3.4,0-5.5-1.9-5.5-6.5c0-1.1,0-6.3,4.6-6.3c3.4,0,4,2.7,4,5.3L1078.9,87.1z M1076.6,85.3
			c0-1.7,0-3.6-1.9-3.6c-1.7,0-2.1,1.7-2.1,3.6H1076.6z"/>
		<path class="st10" d="M1080.8,86.1c0-2.7,0-3.1-0.2-3.8c-0.2-1-0.6-1.1-0.8-1.3c1.9,0,2.7-0.4,3.2-0.6v2.5c0.4-0.8,1-2.3,3.2-2.3
			c2.1,0,2.5,1.7,2.7,2.3c0.4-0.8,1.1-2.3,3.4-2.3s2.7,1.3,2.7,3.2V87c0,3.6,0,5.5,0.4,6.3c-0.4,0-0.8-0.2-1.5-0.2
			c-0.6,0-1,0-1.5,0.2c0.2-0.4,0.2-0.6,0.4-1.7v-1.9v-1.5V85c0-1.3-0.2-2.3-1.7-2.3c-1,0-1.5,0.8-1.7,1.3c-0.2,0.8-0.2,2.1-0.2,3.4
			v2.5c0,1.7,0,2.7,0.4,3.1c-0.6,0-0.8-0.2-1.5-0.2s-1,0-1.5,0.2c0.2-0.4,0.2-0.4,0.2-0.8c0-0.6,0.2-1.5,0.2-2.9v-2.5
			c0-3.2-0.2-4.4-1.7-4.4c-1.9,0-1.9,2.1-1.9,3.6v2.5c0,2.5,0,3.8,0.2,4.4c-0.4,0-0.8-0.2-1.3-0.2c-0.8,0-1.1,0-1.5,0.2
			c0.2-0.4,0.2-0.6,0.4-1.9v-2.9V86h-0.4V86.1z"/>
	</g>
	
		<linearGradient id="SVGID_00000063601166222583804620000009531391094559200936_" gradientUnits="userSpaceOnUse" x1="707.95" y1="-135.7" x2="707.95" y2="104.9" gradientTransform="matrix(1 0 0 -1 0 118)">
		<stop  offset="0" style="stop-color:#F2D6B0"/>
		<stop  offset="1" style="stop-color:#FF8C8E;stop-opacity:0"/>
	</linearGradient>
	
		<rect x="665.9" y="13.1" style="clip-path:url(#SVGID_00000139288212795259148290000005835176601244673466_);fill:url(#SVGID_00000063601166222583804620000009531391094559200936_);" width="84.1" height="240.6"/>
	
		<linearGradient id="SVGID_00000141442483170168202320000004692445957970722727_" gradientUnits="userSpaceOnUse" x1="3910.4875" y1="1523.4735" x2="3954.8975" y2="1523.4735" gradientTransform="matrix(0 -1.0966 -0.4087 0 1793.4436 4341.0537)">
		<stop  offset="0" style="stop-color:#F2D6B0"/>
		<stop  offset="1" style="stop-color:#FF8C8E;stop-opacity:0"/>
	</linearGradient>
	
		<polygon style="opacity:0.3;clip-path:url(#SVGID_00000139288212795259148290000005835176601244673466_);fill:url(#SVGID_00000141442483170168202320000004692445957970722727_);enable-background:new    ;" points="
		1195.7,4.2 1195.7,52.9 1145.9,52.9 1145.9,4.2 	"/>
</g>
</svg>
