<?xml version="1.0" encoding="UTF-8"?><svg id="Calque_1" xmlns="http://www.w3.org/2000/svg" xmlns:xlink="http://www.w3.org/1999/xlink" viewBox="0 0 640 300"><defs><style>.cls-1{fill:#fff;}.cls-2{fill:url(#Dégradé_sans_nom_138-2);}.cls-3{fill:url(#Dégradé_sans_nom_34);}.cls-4{fill:url(#Dégradé_sans_nom_304-2);}.cls-4,.cls-5,.cls-6,.cls-7,.cls-8{opacity:.5;}.cls-5{fill:url(#Dégradé_sans_nom_304-4);}.cls-6{fill:url(#Dégradé_sans_nom_304-3);}.cls-9{fill:url(#Dégradé_sans_nom_138);opacity:.3;}.cls-10{fill:url(#Dégradé_sans_nom_153);opacity:.4;}.cls-7{fill:url(#Dégradé_sans_nom_334);}.cls-8{fill:url(#Dégradé_sans_nom_437);}.cls-11{fill:url(#Dégradé_sans_nom_342);}.cls-12{fill:url(#Dégradé_sans_nom_304);}.cls-13{fill:url(#Dégradé_sans_nom_293);}</style><linearGradient id="Dégradé_sans_nom_342" x1="-1.34" y1="158.76" x2="641.25" y2="158.76" gradientUnits="userSpaceOnUse"><stop offset="0" stop-color="#2f7274"/><stop offset=".5" stop-color="#69a8a8"/><stop offset=".6" stop-color="#6ca9a8"/><stop offset=".68" stop-color="#76aca9"/><stop offset=".76" stop-color="#88b2aa"/><stop offset=".83" stop-color="#a0bbac"/><stop offset=".9" stop-color="#c0c6ae"/><stop offset=".97" stop-color="#e7d3b1"/><stop offset="1" stop-color="#fcdbb3"/></linearGradient><radialGradient id="Dégradé_sans_nom_34" cx="536.1" cy="314.68" fx="536.1" fy="314.68" r="269.14" gradientUnits="userSpaceOnUse"><stop offset="0" stop-color="#009696"/><stop offset="1" stop-color="#497e81" stop-opacity="0"/></radialGradient><radialGradient id="Dégradé_sans_nom_153" cx="66.65" cy="294.35" fx="66.65" fy="294.35" r="103.87" gradientUnits="userSpaceOnUse"><stop offset="0" stop-color="#a80030"/><stop offset="1" stop-color="#ff8c8e" stop-opacity="0"/></radialGradient><linearGradient id="Dégradé_sans_nom_293" x1="2803.28" y1="1963.46" x2="2936.22" y2="1830.52" gradientTransform="translate(-2253.53 -1696.89)" gradientUnits="userSpaceOnUse"><stop offset="0" stop-color="#487c80" stop-opacity="0"/><stop offset="1" stop-color="#5ea498"/></linearGradient><linearGradient id="Dégradé_sans_nom_304" x1="24.81" y1="319.48" x2="24.81" y2="153.44" gradientUnits="userSpaceOnUse"><stop offset="0" stop-color="#f2d6b0"/><stop offset="1" stop-color="#ff8c8e" stop-opacity="0"/></linearGradient><linearGradient id="Dégradé_sans_nom_138" x1="1455.89" y1="827.89" x2="1466.7" y2="827.89" gradientTransform="translate(-2117.03 1127.85) scale(1.67 -1)" gradientUnits="userSpaceOnUse"><stop offset="0" stop-color="#f2dab8" stop-opacity="0"/><stop offset="1" stop-color="#fcdbb3"/></linearGradient><linearGradient id="Dégradé_sans_nom_437" x1="-4.98" y1="304.6" x2="166.03" y2="304.6" gradientUnits="userSpaceOnUse"><stop offset="0" stop-color="#206f73" stop-opacity=".8"/><stop offset=".31" stop-color="#69a8a8"/><stop offset=".37" stop-color="#6ca9a8"/><stop offset=".43" stop-color="#76aca9"/><stop offset=".48" stop-color="#88b2aa"/><stop offset=".53" stop-color="#a0bbac"/><stop offset=".58" stop-color="#c0c6ae"/><stop offset=".6" stop-color="#d0ccb0"/><stop offset="1" stop-color="#fcdbb3" stop-opacity="0"/></linearGradient><linearGradient id="Dégradé_sans_nom_304-2" x1="2375.39" y1="91.49" x2="2510.61" y2="91.49" gradientTransform="translate(-2554.04 207.29) scale(1.1 .41)" xlink:href="#Dégradé_sans_nom_304"/><linearGradient id="Dégradé_sans_nom_334" x1="49.64" y1="290.37" x2="155.63" y2="290.37" gradientUnits="userSpaceOnUse"><stop offset="0" stop-color="#206f73"/><stop offset=".31" stop-color="#69a8a8"/><stop offset=".37" stop-color="#6ca9a8"/><stop offset=".43" stop-color="#76aca9"/><stop offset=".48" stop-color="#88b2aa"/><stop offset=".53" stop-color="#a0bbac"/><stop offset=".58" stop-color="#c0c6ae"/><stop offset=".6" stop-color="#d0ccb0"/><stop offset="1" stop-color="#fcdbb3" stop-opacity="0"/></linearGradient><linearGradient id="Dégradé_sans_nom_304-3" x1="2375.39" y1="132.85" x2="2513.65" y2="132.85" gradientTransform="translate(-2538.8 188.73) scale(1.1 .41)" xlink:href="#Dégradé_sans_nom_304"/><linearGradient id="Dégradé_sans_nom_138-2" x1="49.17" y1="255.48" x2="49.67" y2="255.48" gradientTransform="translate(98.84 510.96) rotate(-180)" xlink:href="#Dégradé_sans_nom_138"/><linearGradient id="Dégradé_sans_nom_304-4" x1="2377.1" y1="1234.33" x2="2586.44" y2="1234.33" gradientTransform="translate(-2129.52 -302.25) scale(1.1 .41)" xlink:href="#Dégradé_sans_nom_304"/></defs><rect class="cls-11" x="-1.34" y="-1.3" width="642.59" height="320.12"/><circle class="cls-3" cx="536.1" cy="314.68" r="269.14"/><circle class="cls-10" cx="66.65" cy="294.35" r="103.87"/><rect class="cls-13" x="592.34" y="91.04" width="47.77" height="218.12" transform="translate(1232.45 400.19) rotate(180)"/><rect class="cls-12" x="0" y="153.44" width="49.61" height="166.04"/><rect class="cls-9" x="315.22" y="-18.77" width="18.06" height="637.46" transform="translate(624.22 -24.29) rotate(90)"/><rect class="cls-8" x="-4.98" y="288.51" width="171.01" height="32.18"/><rect class="cls-4" x="50.75" y="229.96" width="148.28" height="29.44" transform="translate(-119.79 369.57) rotate(-90)"/><rect class="cls-7" x="49.64" y="261.71" width="105.98" height="57.31"/><rect class="cls-6" x="65.99" y="228.29" width="151.61" height="29.44" transform="translate(-101.23 384.81) rotate(-90)"/><rect class="cls-2" x="49.17" y="201.1" width=".49" height="108.77" transform="translate(98.84 510.96) rotate(180)"/><rect class="cls-5" x="477.15" y="196.27" width="229.55" height="11.79" transform="translate(389.76 794.09) rotate(-90)"/><path class="cls-1" d="m306.08,14.54c-.14,0,.03.07.21.1.05-.04.1-.08.14-.12-.12.03-.23.03-.35.02"/><path class="cls-1" d="m306.85,14.35c.09-.12.15-.25.17-.38-.02.09-.07.18-.12.26-.27.17-.03-.1,0-.2-.29.36-.04.22-.05.32"/><path class="cls-1" d="m307.13,13.61c.02-.26-.05-.18-.07-.08.03.01.05.18.07.08"/><path class="cls-1" d="m305.54,10.09c.08.01.16.02.15.04.08-.02.1-.04-.15-.04"/><path class="cls-1" d="m305.69,10.13h-.05s.05,0,.05,0h0"/><path class="cls-1" d="m308.07,13.71c0,.23-.07.34-.14.54l-.12.06c-.1.2.01.12-.06.28-.16.14-.48.44-.58.47-.08,0,.05-.09.07-.12-.21.15-.17.22-.49.31v-.02c-.81.38-1.91-.37-1.9-1.38,0,.06-.02.05-.04.07-.04-.52.24-1.05.72-1.26.47-.23,1.01-.14,1.34.18-.18-.24-.55-.49-.98-.47-.42,0-.82.28-.95.57-.22.14-.24.53-.34.6-.13.93.24,1.34.86,1.81.1.07.03.08.04.13-.21-.1-.39-.24-.55-.42.08.12.17.24.29.33-.19-.07-.45-.47-.53-.49.33.6,1.36,1.05,1.89.83-.25,0-.56,0-.84-.1-.12-.06-.28-.18-.25-.21.73.27,1.49.21,2.12-.3.16-.13.34-.34.39-.34-.08.12.01.06-.05.16.16-.26-.07-.11.17-.45l.09.12c-.03-.21.27-.48.24-.81.07-.1.08.11,0,.35.1-.26.03-.31.05-.53.03.07.06.15.08.23-.07-.26.07-.43.1-.58-.03-.01-.1.11-.12-.19,0-.13.04-.07.05-.1-.03-.01-.09-.12-.13-.31.03-.05.08.12.12.12-.03-.15-.07-.27-.07-.39-.12-.25-.04.03-.14-.11-.13-.39.1-.09.12-.27.19.28.3.71.35.88-.04-.22-.1-.43-.18-.63.06.02-.09-.45.08-.13-.18-.66-.77-1.29-1.32-1.58.07.06.15.14.12.15-.27-.16-.22-.17-.26-.24-.22-.09-.24,0-.38,0-.42-.22-.5-.2-.88-.34l.02.08c-.28-.09-.32.03-.62,0-.02-.01.1-.05.19-.06-.27.04-.25-.05-.52,0,.06-.05.13-.08.2-.11-.22.01-.52.13-.43.02-.35.16-.98.38-1.34.71v-.07c-.17.19-.72.58-.76.83h-.04c-.08.15-.14.31-.21.46-.11.19-.16.07-.15.1-.22.44-.32.81-.42,1.11.07.1,0,.6.03.99-.11,1.97,1.38,3.87,3.01,4.32.24.09.59.08.89.09-.36-.1-.4-.05-.75-.17-.25-.12-.3-.25-.48-.41l.07.12c-.35-.12-.2-.15-.48-.24l.07-.1c-.11,0-.3-.19-.35-.29h-.12c-.15-.18-.23-.31-.22-.41l-.04.07c-.05-.08-.54-.69-.29-.54-.05-.04-.11-.07-.18-.2l.05-.06c-.12-.16-.23-.37-.22-.43.07.09.11.11.16.12-.31-.78-.33-.04-.57-.8h.05c-.04-.06-.06-.13-.09-.19l.02-.22c-.23-.26-.06-1.11-.03-1.58.02-.19.19-.39.32-.71h-.08c.15-.27.84-1.05,1.16-1.01.16-.2-.03,0-.06-.05.34-.35.45-.25.68-.31.25-.15-.21.06-.1-.06.43-.11.31-.25.87-.31.06.03-.14.05-.19.1.36-.18,1.14-.14,1.64.1.59.27,1.24,1.08,1.27,1.84h.03c-.01.31.05.66-.06.98l.07-.15"/><path class="cls-1" d="m304.52,14.73l-.02.1c.09.13.17.27.29.37-.09-.17-.15-.24-.27-.47"/><path class="cls-1" d="m304.74,14.72c-.05-.06-.08-.12-.11-.19.03.12.1.22.16.32l-.04-.13"/><path class="cls-1" d="m308.68,13.87l-.02.05c-.04.27-.12.54-.25.8.14-.26.23-.55.27-.85"/><path class="cls-1" d="m305.57,10.02c.1-.04.24-.02.34-.04-.13.01-.27.02-.4.03h.06"/><path class="cls-1" d="m302.17,11.82c.02.21-.16.29.04.15.1-.23-.04-.06-.04-.15"/><path class="cls-1" d="m301.95,12.78c.04-.14.05-.22.07-.3-.12.16-.06.19-.07.3"/><path class="cls-1" d="m316.12,13.3s0,1.72-.03,2.17c-.02.36-.05,1.14-.82,1.14s-.98-.91-1.04-1.31c-.08-.44-.08-.8-.08-.96,0-.52.03-1.94,1.24-1.94.36,0,.56.11.72.19v.7Zm-3.1,1.26c0,3.01,1.6,3.01,1.83,3.01.66,0,1.09-.36,1.27-.99l.02.94c.2,0,.41-.03.74-.03.12,0,.21,0,.3,0,.09,0,.18,0,.26.02-.18-.34-.3-1.11-.3-2.78s0-4.36.14-5.19c-.38.19-.71.3-1.44.36.29.31.29.47.29,1.88-.2-.07-.46-.14-.9-.14-1.9,0-2.21,1.67-2.21,2.9"/><path class="cls-1" d="m318.81,14.01c0-.89.19-1.68.94-1.68.83,0,.9.92.88,1.68h-1.82Zm2.88.11c0-1.25-.24-2.47-1.82-2.47-2.17,0-2.17,2.42-2.17,2.92,0,2.16.97,3.02,2.6,3.02.72,0,1.08-.11,1.27-.16,0-.38.04-.63.11-.96-.22.14-.52.32-1.15.32-1.67,0-1.68-1.52-1.68-2.04h2.83l.02-.63"/><path class="cls-1" d="m325.16,14.57c0,.99-.19,2.33-1.42,2.33-.18,0-.38-.03-.53-.07-.02-.38-.02-1.04-.02-1.81,0-.92.1-1.39.18-1.64.22-.76.72-.77.82-.77.82,0,.97,1.13.97,1.96Zm-3.06,1.16c0,.79,0,1.24-.13,1.58.44.18.98.26,1.64.26.42,0,1.62,0,2.27-1.33.31-.62.42-1.45.42-2.08,0-.38-.04-1.23-.35-1.76-.3-.5-.78-.76-1.29-.76-1.02,0-1.32.86-1.48,1.3,0-.55,0-2.44.1-3.41-.69.32-1.12.37-1.58.42.42.17.42.88.42,3.17l-.02,2.63"/><path class="cls-1" d="m328.34,17.52c-.21-.03-.36-.05-.67-.05-.34,0-.57.02-.82.05.11-.2.15-.3.19-.99.04-.95.05-3.49-.02-4.02-.05-.41-.15-.47-.3-.57.88-.09,1.12-.15,1.53-.34-.09.47-.1.7-.1,1.42-.03,3.68-.04,4.07.19,4.51"/><path class="cls-1" d="m331.76,14.5c-.02.67-.03,1.14-.21,1.52-.22.48-.59.62-.88.62-.64,0-.78-.54-.78-1.05,0-1,.9-1.08,1.31-1.08h.56Zm-2.93,1.31c0,.67.2,1.34.8,1.64.26.12.54.12.62.12.98,0,1.31-.73,1.52-1.18,0,.47,0,.76.03,1.13.19,0,.38-.03.7-.03.19,0,.35.02.54.03-.12-.19-.19-.29-.21-.7-.02-.41-.02-.81-.02-1.37v-2.17c0-.81-.2-1.61-1.8-1.61-1.05,0-1.68.32-1.99.48.13.23.23.44.33.9.42-.36.96-.56,1.52-.56.89,0,.89.58.89,1.42-.2,0-.37-.03-.66-.03-1.36,0-2.26.51-2.26,1.94"/><path class="cls-1" d="m337.91,16.46c0,.36,0,.75.16,1.05-.23-.02-.37-.05-.81-.05-.25,0-.4.02-.59.05.04-.14.07-.19.09-.37.03-.24.05-1.07.05-1.35v-1.15c0-.5,0-1.23-.03-1.48-.02-.19-.08-.67-.69-.67s-.81.45-.89.81c-.09.37-.09.78-.09,2.36,0,1.36,0,1.49.12,1.87-.19-.02-.41-.04-.72-.04-.25,0-.43,0-.64.04.08-.18.12-.25.14-.86.02-.58.07-3.47-.03-4.15-.05-.42-.16-.52-.27-.62.87-.04,1.14-.19,1.41-.32v1.13c.13-.33.39-1.07,1.46-1.07,1.33,0,1.34.97,1.35,1.61v3.22"/><path class="cls-1" d="m328.43,10.08l-.89.89-.89-.89.89-.89.89.89"/></svg>