<?xml version="1.0" encoding="utf-8"?>
<!-- Generator: $$$/GeneralStr/196=Adobe Illustrator 27.6.0, SVG Export Plug-In . SVG Version: 6.00 Build 0)  -->
<svg version="1.1" id="Calque_1" xmlns="http://www.w3.org/2000/svg" xmlns:xlink="http://www.w3.org/1999/xlink" x="0px" y="0px"
	 viewBox="0 0 640 300" style="enable-background:new 0 0 640 300;" xml:space="preserve">
<style type="text/css">
	
		.st0{clip-path:url(#SVGID_00000169517974031020963370000009519529481670060416_);fill:url(#SVGID_00000101081249659960749920000017511896879891075764_);}
	
		.st1{clip-path:url(#SVGID_00000169517974031020963370000009519529481670060416_);fill:url(#SVGID_00000170971263322492013280000016192618184649335197_);}
	
		.st2{opacity:0.4;clip-path:url(#SVGID_00000169517974031020963370000009519529481670060416_);fill:url(#SVGID_00000010279518314813084350000018052445475933985426_);enable-background:new    ;}
	
		.st3{clip-path:url(#SVGID_00000169517974031020963370000009519529481670060416_);fill:url(#SVGID_00000116225396096263476660000009296237802117073340_);}
	
		.st4{clip-path:url(#SVGID_00000169517974031020963370000009519529481670060416_);fill:url(#SVGID_00000061459138603674792680000001272396287140007826_);}
	
		.st5{opacity:0.3;clip-path:url(#SVGID_00000169517974031020963370000009519529481670060416_);fill:url(#SVGID_00000176726486511118085390000013936387283038366635_);enable-background:new    ;}
	
		.st6{opacity:0.5;clip-path:url(#SVGID_00000169517974031020963370000009519529481670060416_);fill:url(#SVGID_00000081617516362516273090000010797226902284277633_);enable-background:new    ;}
	
		.st7{opacity:0.5;clip-path:url(#SVGID_00000169517974031020963370000009519529481670060416_);fill:url(#SVGID_00000183208423776653616590000013241484966402991766_);enable-background:new    ;}
	
		.st8{opacity:0.5;clip-path:url(#SVGID_00000169517974031020963370000009519529481670060416_);fill:url(#SVGID_00000178889414264915645310000001838658452244105094_);enable-background:new    ;}
	
		.st9{opacity:0.5;clip-path:url(#SVGID_00000169517974031020963370000009519529481670060416_);fill:url(#SVGID_00000008871441906747870050000009615154977136534427_);enable-background:new    ;}
	
		.st10{clip-path:url(#SVGID_00000169517974031020963370000009519529481670060416_);fill:url(#SVGID_00000138536765509477220790000008398598957101793983_);}
	
		.st11{opacity:0.5;clip-path:url(#SVGID_00000169517974031020963370000009519529481670060416_);fill:url(#SVGID_00000140722501415197895760000006270910162456357298_);enable-background:new    ;}
	.st12{clip-path:url(#SVGID_00000169517974031020963370000009519529481670060416_);fill:#FFFFFF;}
</style>
<g>
	<defs>
		<rect id="SVGID_1_" width="640" height="300"/>
	</defs>
	<clipPath id="SVGID_00000089552551881026503750000015959220494650686352_">
		<use xlink:href="#SVGID_1_"  style="overflow:visible;"/>
	</clipPath>
	
		<linearGradient id="SVGID_00000072992312892755013900000002324976014455427983_" gradientUnits="userSpaceOnUse" x1="-1.34" y1="141.24" x2="641.25" y2="141.24" gradientTransform="matrix(1 0 0 -1 0 300)">
		<stop  offset="0" style="stop-color:#2F7274"/>
		<stop  offset="0.5" style="stop-color:#69A8A8"/>
		<stop  offset="0.6" style="stop-color:#6CA9A8"/>
		<stop  offset="0.68" style="stop-color:#76ACA9"/>
		<stop  offset="0.76" style="stop-color:#88B2AA"/>
		<stop  offset="0.83" style="stop-color:#A0BBAC"/>
		<stop  offset="0.9" style="stop-color:#C0C6AE"/>
		<stop  offset="0.97" style="stop-color:#E7D3B1"/>
		<stop  offset="1" style="stop-color:#FCDBB3"/>
	</linearGradient>
	
		<rect x="-1.3" y="-1.3" style="clip-path:url(#SVGID_00000089552551881026503750000015959220494650686352_);fill:url(#SVGID_00000072992312892755013900000002324976014455427983_);" width="642.6" height="320.1"/>
	
		<radialGradient id="SVGID_00000082326377156150404800000012920167202515253912_" cx="536.1" cy="-14.68" r="269.14" gradientTransform="matrix(1 0 0 -1 0 300)" gradientUnits="userSpaceOnUse">
		<stop  offset="0" style="stop-color:#009696"/>
		<stop  offset="1" style="stop-color:#497E81;stop-opacity:0"/>
	</radialGradient>
	
		<circle style="clip-path:url(#SVGID_00000089552551881026503750000015959220494650686352_);fill:url(#SVGID_00000082326377156150404800000012920167202515253912_);" cx="536.1" cy="314.7" r="269.1"/>
	
		<radialGradient id="SVGID_00000033338295370120144600000011739998656816136329_" cx="66.65" cy="5.65" r="103.87" gradientTransform="matrix(1 0 0 -1 0 300)" gradientUnits="userSpaceOnUse">
		<stop  offset="0" style="stop-color:#A80030"/>
		<stop  offset="1" style="stop-color:#FF8C8E;stop-opacity:0"/>
	</radialGradient>
	
		<circle style="opacity:0.4;clip-path:url(#SVGID_00000089552551881026503750000015959220494650686352_);fill:url(#SVGID_00000033338295370120144600000011739998656816136329_);enable-background:new    ;" cx="66.7" cy="294.4" r="103.9"/>
	
		<linearGradient id="SVGID_00000169539550431445580090000017743345217010036669_" gradientUnits="userSpaceOnUse" x1="3423.2825" y1="-1943.4625" x2="3556.2275" y2="-1810.5175" gradientTransform="matrix(-1 0 0 1 4105.98 2077.0801)">
		<stop  offset="0" style="stop-color:#487C80;stop-opacity:0"/>
		<stop  offset="1" style="stop-color:#5EA498"/>
	</linearGradient>
	
		<rect x="592.3" y="91" style="clip-path:url(#SVGID_00000089552551881026503750000015959220494650686352_);fill:url(#SVGID_00000169539550431445580090000017743345217010036669_);" width="47.8" height="218.1"/>
	
		<linearGradient id="SVGID_00000073723762994460610680000000879140962291747487_" gradientUnits="userSpaceOnUse" x1="24.805" y1="-19.48" x2="24.805" y2="146.56" gradientTransform="matrix(1 0 0 -1 0 300)">
		<stop  offset="0" style="stop-color:#F2D6B0"/>
		<stop  offset="1" style="stop-color:#FF8C8E;stop-opacity:0"/>
	</linearGradient>
	
		<rect y="153.4" style="clip-path:url(#SVGID_00000089552551881026503750000015959220494650686352_);fill:url(#SVGID_00000073723762994460610680000000879140962291747487_);" width="49.6" height="166"/>
	
		<linearGradient id="SVGID_00000170263001316194535820000001267653852179049652_" gradientUnits="userSpaceOnUse" x1="1682.0576" y1="-357.89" x2="1692.8721" y2="-357.89" gradientTransform="matrix(1.022580e-16 1.67 -1 6.123234e-17 -33.63 -2519.02)">
		<stop  offset="0" style="stop-color:#F2DAB8;stop-opacity:0"/>
		<stop  offset="1" style="stop-color:#FCDBB3"/>
	</linearGradient>
	
		<rect x="5.5" y="290.9" style="opacity:0.3;clip-path:url(#SVGID_00000089552551881026503750000015959220494650686352_);fill:url(#SVGID_00000170263001316194535820000001267653852179049652_);enable-background:new    ;" width="637.5" height="18.1"/>
	
		<linearGradient id="SVGID_00000165946450752466759360000007166088840988020633_" gradientUnits="userSpaceOnUse" x1="-4.98" y1="-4.6" x2="166.03" y2="-4.6" gradientTransform="matrix(1 0 0 -1 0 300)">
		<stop  offset="0" style="stop-color:#206F73;stop-opacity:0.8"/>
		<stop  offset="0.31" style="stop-color:#69A8A8"/>
		<stop  offset="0.37" style="stop-color:#6CA9A8"/>
		<stop  offset="0.43" style="stop-color:#76ACA9"/>
		<stop  offset="0.48" style="stop-color:#88B2AA"/>
		<stop  offset="0.53" style="stop-color:#A0BBAC"/>
		<stop  offset="0.58" style="stop-color:#C0C6AE"/>
		<stop  offset="0.6" style="stop-color:#D0CCB0"/>
		<stop  offset="1" style="stop-color:#FCDBB3;stop-opacity:0"/>
	</linearGradient>
	
		<rect x="-5" y="288.5" style="opacity:0.5;clip-path:url(#SVGID_00000089552551881026503750000015959220494650686352_);fill:url(#SVGID_00000165946450752466759360000007166088840988020633_);enable-background:new    ;" width="171" height="32.2"/>
	
		<linearGradient id="SVGID_00000134216473405041455740000015478336781322126484_" gradientUnits="userSpaceOnUse" x1="2812.6626" y1="824.9024" x2="2947.8828" y2="824.9024" gradientTransform="matrix(6.735558e-17 -1.1 -0.41 -2.510526e-17 463.1 3404.6101)">
		<stop  offset="0" style="stop-color:#F2D6B0"/>
		<stop  offset="1" style="stop-color:#FF8C8E;stop-opacity:0"/>
	</linearGradient>
	
		<rect x="110.2" y="170.5" style="opacity:0.5;clip-path:url(#SVGID_00000089552551881026503750000015959220494650686352_);fill:url(#SVGID_00000134216473405041455740000015478336781322126484_);enable-background:new    ;" width="29.4" height="148.3"/>
	
		<linearGradient id="SVGID_00000040547713273842712390000015573400293893365655_" gradientUnits="userSpaceOnUse" x1="49.64" y1="9.635" x2="155.62" y2="9.635" gradientTransform="matrix(1 0 0 -1 0 300)">
		<stop  offset="0" style="stop-color:#206F73"/>
		<stop  offset="0.31" style="stop-color:#69A8A8"/>
		<stop  offset="0.37" style="stop-color:#6CA9A8"/>
		<stop  offset="0.43" style="stop-color:#76ACA9"/>
		<stop  offset="0.48" style="stop-color:#88B2AA"/>
		<stop  offset="0.53" style="stop-color:#A0BBAC"/>
		<stop  offset="0.58" style="stop-color:#C0C6AE"/>
		<stop  offset="0.6" style="stop-color:#D0CCB0"/>
		<stop  offset="1" style="stop-color:#FCDBB3;stop-opacity:0"/>
	</linearGradient>
	
		<rect x="49.6" y="261.7" style="opacity:0.5;clip-path:url(#SVGID_00000089552551881026503750000015959220494650686352_);fill:url(#SVGID_00000040547713273842712390000015573400293893365655_);enable-background:new    ;" width="106" height="57.3"/>
	
		<linearGradient id="SVGID_00000139258194305118159220000018305169538122063256_" gradientUnits="userSpaceOnUse" x1="2812.6626" y1="783.7073" x2="2950.9226" y2="783.7073" gradientTransform="matrix(6.735558e-17 -1.1 -0.41 -2.510526e-17 463.1 3404.6101)">
		<stop  offset="0" style="stop-color:#F2D6B0"/>
		<stop  offset="1" style="stop-color:#FF8C8E;stop-opacity:0"/>
	</linearGradient>
	
		<rect x="127.1" y="167.2" style="opacity:0.5;clip-path:url(#SVGID_00000089552551881026503750000015959220494650686352_);fill:url(#SVGID_00000139258194305118159220000018305169538122063256_);enable-background:new    ;" width="29.4" height="151.6"/>
	
		<linearGradient id="SVGID_00000090296620360396592630000000578299187474740658_" gradientUnits="userSpaceOnUse" x1="49.17" y1="44.525" x2="49.67" y2="44.525" gradientTransform="matrix(1 0 0 -1 0 300)">
		<stop  offset="0" style="stop-color:#F2DAB8;stop-opacity:0"/>
		<stop  offset="1" style="stop-color:#FCDBB3"/>
	</linearGradient>
	
		<rect x="49.2" y="201.1" style="clip-path:url(#SVGID_00000089552551881026503750000015959220494650686352_);fill:url(#SVGID_00000090296620360396592630000000578299187474740658_);" width="0.5" height="108.8"/>
	
		<linearGradient id="SVGID_00000103224616830385965740000010298507943413131140_" gradientUnits="userSpaceOnUse" x1="2814.3728" y1="-314.1829" x2="3023.7126" y2="-314.1829" gradientTransform="matrix(6.735558e-17 -1.1 -0.41 -2.510526e-17 463.11 3404.6101)">
		<stop  offset="0" style="stop-color:#F2D6B0"/>
		<stop  offset="1" style="stop-color:#FF8C8E;stop-opacity:0"/>
	</linearGradient>
	
		<rect x="586" y="87.4" style="opacity:0.5;clip-path:url(#SVGID_00000089552551881026503750000015959220494650686352_);fill:url(#SVGID_00000103224616830385965740000010298507943413131140_);enable-background:new    ;" width="11.8" height="229.6"/>
	<path style="clip-path:url(#SVGID_00000089552551881026503750000015959220494650686352_);fill:#FFFFFF;" d="M306.1,14.5
		c-0.1,0,0,0.1,0.2,0.1c0,0,0.1-0.1,0.1-0.1C306.3,14.6,306.2,14.6,306.1,14.5"/>
	<path style="clip-path:url(#SVGID_00000089552551881026503750000015959220494650686352_);fill:#FFFFFF;" d="M306.9,14.4
		c0.1-0.1,0.1-0.2,0.2-0.4c0,0.1-0.1,0.2-0.1,0.3c-0.3,0.2,0-0.1,0-0.2C306.6,14.4,306.9,14.3,306.9,14.4"/>
	<path style="clip-path:url(#SVGID_00000089552551881026503750000015959220494650686352_);fill:#FFFFFF;" d="M307.1,13.6
		C307.1,13.3,307.1,13.4,307.1,13.6C307.1,13.5,307.1,13.7,307.1,13.6"/>
	<path style="clip-path:url(#SVGID_00000089552551881026503750000015959220494650686352_);fill:#FFFFFF;" d="M305.5,10.1
		c0.1,0,0.2,0,0.1,0C305.8,10.1,305.8,10.1,305.5,10.1"/>
	<path style="clip-path:url(#SVGID_00000089552551881026503750000015959220494650686352_);fill:#FFFFFF;" d="M305.7,10.1L305.7,10.1
		L305.7,10.1L305.7,10.1"/>
	<path style="clip-path:url(#SVGID_00000089552551881026503750000015959220494650686352_);fill:#FFFFFF;" d="M308.1,13.7
		c0,0.2-0.1,0.3-0.1,0.5l-0.1,0.1c-0.1,0.2,0,0.1-0.1,0.3c-0.2,0.1-0.5,0.4-0.6,0.5c-0.1,0,0-0.1,0.1-0.1c-0.2,0.1-0.2,0.2-0.5,0.3
		v0c-0.8,0.4-1.9-0.4-1.9-1.4c0,0.1,0,0.1,0,0.1c0-0.5,0.2-1.1,0.7-1.3c0.5-0.2,1-0.1,1.3,0.2c-0.2-0.2-0.5-0.5-1-0.5
		c-0.4,0-0.8,0.3-1,0.6c-0.2,0.1-0.2,0.5-0.3,0.6c-0.1,0.9,0.2,1.3,0.9,1.8c0.1,0.1,0,0.1,0,0.1c-0.2-0.1-0.4-0.2-0.5-0.4
		c0.1,0.1,0.2,0.2,0.3,0.3c-0.2-0.1-0.5-0.5-0.5-0.5c0.3,0.6,1.4,1.1,1.9,0.8c-0.2,0-0.6,0-0.8-0.1c-0.1-0.1-0.3-0.2-0.2-0.2
		c0.7,0.3,1.5,0.2,2.1-0.3c0.2-0.1,0.3-0.3,0.4-0.3c-0.1,0.1,0,0.1,0,0.2c0.2-0.3-0.1-0.1,0.2-0.4l0.1,0.1c0-0.2,0.3-0.5,0.2-0.8
		c0.1-0.1,0.1,0.1,0,0.4c0.1-0.3,0-0.3,0-0.5c0,0.1,0.1,0.1,0.1,0.2c-0.1-0.3,0.1-0.4,0.1-0.6c0,0-0.1,0.1-0.1-0.2
		c0-0.1,0-0.1,0-0.1c0,0-0.1-0.1-0.1-0.3c0-0.1,0.1,0.1,0.1,0.1c0-0.1-0.1-0.3-0.1-0.4c-0.1-0.2,0,0-0.1-0.1
		c-0.1-0.4,0.1-0.1,0.1-0.3c0.2,0.3,0.3,0.7,0.4,0.9c0-0.2-0.1-0.4-0.2-0.6c0.1,0-0.1-0.4,0.1-0.1c-0.2-0.7-0.8-1.3-1.3-1.6
		c0.1,0.1,0.1,0.1,0.1,0.1c-0.3-0.2-0.2-0.2-0.3-0.2c-0.2-0.1-0.2,0-0.4,0c-0.4-0.2-0.5-0.2-0.9-0.3l0,0.1c-0.3-0.1-0.3,0-0.6,0
		c0,0,0.1-0.1,0.2-0.1c-0.3,0-0.2-0.1-0.5,0c0.1-0.1,0.1-0.1,0.2-0.1c-0.2,0-0.5,0.1-0.4,0c-0.4,0.2-1,0.4-1.3,0.7v-0.1
		c-0.2,0.2-0.7,0.6-0.8,0.8h0c-0.1,0.1-0.1,0.3-0.2,0.5c-0.1,0.2-0.2,0.1-0.1,0.1c-0.2,0.4-0.3,0.8-0.4,1.1c0.1,0.1,0,0.6,0,1
		c-0.1,2,1.4,3.9,3,4.3c0.2,0.1,0.6,0.1,0.9,0.1c-0.4-0.1-0.4,0-0.8-0.2c-0.2-0.1-0.3-0.2-0.5-0.4l0.1,0.1c-0.4-0.1-0.2-0.1-0.5-0.2
		l0.1-0.1c-0.1,0-0.3-0.2-0.4-0.3h-0.1c-0.1-0.2-0.2-0.3-0.2-0.4l0,0.1c0-0.1-0.5-0.7-0.3-0.5c0,0-0.1-0.1-0.2-0.2l0-0.1
		c-0.1-0.2-0.2-0.4-0.2-0.4c0.1,0.1,0.1,0.1,0.2,0.1c-0.3-0.8-0.3,0-0.6-0.8h0c0-0.1-0.1-0.1-0.1-0.2l0-0.2c-0.2-0.3-0.1-1.1,0-1.6
		c0-0.2,0.2-0.4,0.3-0.7h-0.1c0.1-0.3,0.8-1.1,1.2-1c0.2-0.2,0,0-0.1-0.1c0.3-0.4,0.5-0.2,0.7-0.3c0.2-0.1-0.2,0.1-0.1-0.1
		c0.4-0.1,0.3-0.2,0.9-0.3c0.1,0-0.1,0.1-0.2,0.1c0.4-0.2,1.1-0.1,1.6,0.1c0.6,0.3,1.2,1.1,1.3,1.8h0c0,0.3,0,0.7-0.1,1L308.1,13.7"
		/>
	<path style="clip-path:url(#SVGID_00000089552551881026503750000015959220494650686352_);fill:#FFFFFF;" d="M304.5,14.7l0,0.1
		c0.1,0.1,0.2,0.3,0.3,0.4C304.7,15,304.6,15,304.5,14.7"/>
	<path style="clip-path:url(#SVGID_00000089552551881026503750000015959220494650686352_);fill:#FFFFFF;" d="M304.7,14.7
		c0-0.1-0.1-0.1-0.1-0.2c0,0.1,0.1,0.2,0.2,0.3L304.7,14.7"/>
	<path style="clip-path:url(#SVGID_00000089552551881026503750000015959220494650686352_);fill:#FFFFFF;" d="M308.7,13.9L308.7,13.9
		c-0.1,0.3-0.1,0.6-0.3,0.9C308.6,14.5,308.6,14.2,308.7,13.9"/>
	<path style="clip-path:url(#SVGID_00000089552551881026503750000015959220494650686352_);fill:#FFFFFF;" d="M305.6,10
		c0.1,0,0.2,0,0.3,0C305.8,10,305.6,10,305.6,10L305.6,10"/>
	<path style="clip-path:url(#SVGID_00000089552551881026503750000015959220494650686352_);fill:#FFFFFF;" d="M302.2,11.8
		c0,0.2-0.2,0.3,0,0.1C302.3,11.7,302.2,11.9,302.2,11.8"/>
	<path style="clip-path:url(#SVGID_00000089552551881026503750000015959220494650686352_);fill:#FFFFFF;" d="M302,12.8
		c0-0.1,0-0.2,0.1-0.3C301.9,12.6,302,12.7,302,12.8"/>
	<path style="clip-path:url(#SVGID_00000089552551881026503750000015959220494650686352_);fill:#FFFFFF;" d="M316.1,13.3
		c0,0,0,1.7,0,2.2c0,0.4,0,1.1-0.8,1.1s-1-0.9-1-1.3c-0.1-0.4-0.1-0.8-0.1-1c0-0.5,0-1.9,1.2-1.9c0.4,0,0.6,0.1,0.7,0.2L316.1,13.3
		L316.1,13.3z M313,14.6c0,3,1.6,3,1.8,3c0.7,0,1.1-0.4,1.3-1l0,0.9c0.2,0,0.4,0,0.7,0c0.1,0,0.2,0,0.3,0s0.2,0,0.3,0
		c-0.2-0.3-0.3-1.1-0.3-2.8s0-4.4,0.1-5.2c-0.4,0.2-0.7,0.3-1.4,0.4c0.3,0.3,0.3,0.5,0.3,1.9c-0.2-0.1-0.5-0.1-0.9-0.1
		C313.3,11.6,313,13.3,313,14.6"/>
	<path style="clip-path:url(#SVGID_00000089552551881026503750000015959220494650686352_);fill:#FFFFFF;" d="M318.8,14
		c0-0.9,0.2-1.7,0.9-1.7c0.8,0,0.9,0.9,0.9,1.7H318.8z M321.7,14.1c0-1.2-0.2-2.5-1.8-2.5c-2.2,0-2.2,2.4-2.2,2.9c0,2.2,1,3,2.6,3
		c0.7,0,1.1-0.1,1.3-0.2c0-0.4,0-0.6,0.1-1c-0.2,0.1-0.5,0.3-1.1,0.3c-1.7,0-1.7-1.5-1.7-2h2.8L321.7,14.1"/>
	<path style="clip-path:url(#SVGID_00000089552551881026503750000015959220494650686352_);fill:#FFFFFF;" d="M325.2,14.6
		c0,1-0.2,2.3-1.4,2.3c-0.2,0-0.4,0-0.5-0.1c0-0.4,0-1,0-1.8c0-0.9,0.1-1.4,0.2-1.6c0.2-0.8,0.7-0.8,0.8-0.8
		C325,12.6,325.2,13.7,325.2,14.6z M322.1,15.7c0,0.8,0,1.2-0.1,1.6c0.4,0.2,1,0.3,1.6,0.3c0.4,0,1.6,0,2.3-1.3
		c0.3-0.6,0.4-1.4,0.4-2.1c0-0.4,0-1.2-0.4-1.8c-0.3-0.5-0.8-0.8-1.3-0.8c-1,0-1.3,0.9-1.5,1.3c0-0.6,0-2.4,0.1-3.4
		c-0.7,0.3-1.1,0.4-1.6,0.4c0.4,0.2,0.4,0.9,0.4,3.2L322.1,15.7"/>
	<path style="clip-path:url(#SVGID_00000089552551881026503750000015959220494650686352_);fill:#FFFFFF;" d="M328.3,17.5
		c-0.2,0-0.4,0-0.7,0c-0.3,0-0.6,0-0.8,0c0.1-0.2,0.1-0.3,0.2-1c0-0.9,0-3.5,0-4c0-0.4-0.1-0.5-0.3-0.6c0.9-0.1,1.1-0.1,1.5-0.3
		c-0.1,0.5-0.1,0.7-0.1,1.4C328.1,16.7,328.1,17.1,328.3,17.5"/>
	<path style="clip-path:url(#SVGID_00000089552551881026503750000015959220494650686352_);fill:#FFFFFF;" d="M331.8,14.5
		c0,0.7,0,1.1-0.2,1.5c-0.2,0.5-0.6,0.6-0.9,0.6c-0.6,0-0.8-0.5-0.8-1.1c0-1,0.9-1.1,1.3-1.1L331.8,14.5L331.8,14.5z M328.8,15.8
		c0,0.7,0.2,1.3,0.8,1.6c0.3,0.1,0.5,0.1,0.6,0.1c1,0,1.3-0.7,1.5-1.2c0,0.5,0,0.8,0,1.1c0.2,0,0.4,0,0.7,0c0.2,0,0.4,0,0.5,0
		c-0.1-0.2-0.2-0.3-0.2-0.7s0-0.8,0-1.4v-2.2c0-0.8-0.2-1.6-1.8-1.6c-1,0-1.7,0.3-2,0.5c0.1,0.2,0.2,0.4,0.3,0.9
		c0.4-0.4,1-0.6,1.5-0.6c0.9,0,0.9,0.6,0.9,1.4c-0.2,0-0.4,0-0.7,0C329.7,13.9,328.8,14.4,328.8,15.8"/>
	<path style="clip-path:url(#SVGID_00000089552551881026503750000015959220494650686352_);fill:#FFFFFF;" d="M337.9,16.5
		c0,0.4,0,0.8,0.2,1c-0.2,0-0.4,0-0.8,0c-0.2,0-0.4,0-0.6,0c0-0.1,0.1-0.2,0.1-0.4c0-0.2,0-1.1,0-1.4v-1.1c0-0.5,0-1.2,0-1.5
		c0-0.2-0.1-0.7-0.7-0.7s-0.8,0.4-0.9,0.8c-0.1,0.4-0.1,0.8-0.1,2.4c0,1.4,0,1.5,0.1,1.9c-0.2,0-0.4,0-0.7,0c-0.2,0-0.4,0-0.6,0
		c0.1-0.2,0.1-0.2,0.1-0.9c0-0.6,0.1-3.5,0-4.1c0-0.4-0.2-0.5-0.3-0.6c0.9,0,1.1-0.2,1.4-0.3v1.1c0.1-0.3,0.4-1.1,1.5-1.1
		c1.3,0,1.3,1,1.4,1.6L337.9,16.5"/>
	<path style="clip-path:url(#SVGID_00000089552551881026503750000015959220494650686352_);fill:#FFFFFF;" d="M328.4,10.1l-0.9,0.9
		l-0.9-0.9l0.9-0.9L328.4,10.1"/>
</g>
</svg>
