<?xml version="1.0" encoding="utf-8"?>
<!-- Generator: $$$/GeneralStr/196=Adobe Illustrator 27.6.0, SVG Export Plug-In . SVG Version: 6.00 Build 0)  -->
<svg version="1.1" id="Calque_1" xmlns="http://www.w3.org/2000/svg" xmlns:xlink="http://www.w3.org/1999/xlink" x="0px" y="0px"
	 viewBox="0 0 640 480" style="enable-background:new 0 0 640 480;" xml:space="preserve">
<style type="text/css">
	.st0{clip-path:url(#SVGID_00000165233405062182083770000013776930358569563787_);fill:#284D55;}
	
		.st1{clip-path:url(#SVGID_00000165233405062182083770000013776930358569563787_);fill:url(#SVGID_00000142864984105365794850000002362441087885386152_);}
	
		.st2{clip-path:url(#SVGID_00000165233405062182083770000013776930358569563787_);fill:url(#SVGID_00000145053446214090285920000010186755413050673810_);}
	
		.st3{opacity:0.4;clip-path:url(#SVGID_00000165233405062182083770000013776930358569563787_);fill:url(#SVGID_00000165205277483814104850000009715521462076629121_);enable-background:new    ;}
	
		.st4{clip-path:url(#SVGID_00000165233405062182083770000013776930358569563787_);fill:url(#SVGID_00000160151233217071832130000002856277896738918284_);}
	
		.st5{clip-path:url(#SVGID_00000165233405062182083770000013776930358569563787_);fill:url(#SVGID_00000111886810359557512680000013818836557430253467_);}
	
		.st6{opacity:0.3;clip-path:url(#SVGID_00000165233405062182083770000013776930358569563787_);fill:url(#SVGID_00000009577786404386149350000003343540552133880460_);enable-background:new    ;}
	
		.st7{opacity:0.5;clip-path:url(#SVGID_00000165233405062182083770000013776930358569563787_);fill:url(#SVGID_00000026859536005856535210000017358327117110911373_);enable-background:new    ;}
	
		.st8{opacity:0.5;clip-path:url(#SVGID_00000165233405062182083770000013776930358569563787_);fill:url(#SVGID_00000053542120213969221380000009270319565276838840_);enable-background:new    ;}
	
		.st9{opacity:0.5;clip-path:url(#SVGID_00000165233405062182083770000013776930358569563787_);fill:url(#SVGID_00000099627389439330413700000009342445984129333680_);enable-background:new    ;}
	
		.st10{opacity:0.5;clip-path:url(#SVGID_00000165233405062182083770000013776930358569563787_);fill:url(#SVGID_00000018234457111925883420000017441728421450539705_);enable-background:new    ;}
	
		.st11{clip-path:url(#SVGID_00000165233405062182083770000013776930358569563787_);fill:url(#SVGID_00000065064788192263096310000004305818227331717290_);}
	
		.st12{opacity:0.5;clip-path:url(#SVGID_00000165233405062182083770000013776930358569563787_);fill:url(#SVGID_00000031185218711358077110000009119795181446952584_);enable-background:new    ;}
	.st13{clip-path:url(#SVGID_00000165233405062182083770000013776930358569563787_);fill:#FFFFFF;}
</style>
<g>
	<defs>
		<rect id="SVGID_1_" width="640" height="480"/>
	</defs>
	<clipPath id="SVGID_00000173148670674078274960000001331967724311482795_">
		<use xlink:href="#SVGID_1_"  style="overflow:visible;"/>
	</clipPath>
	
		<rect x="-1.2" y="78.7" style="clip-path:url(#SVGID_00000173148670674078274960000001331967724311482795_);fill:#284D55;" width="643" height="401.9"/>
	
		<linearGradient id="SVGID_00000137832234157183838640000010275324442330324895_" gradientUnits="userSpaceOnUse" x1="-2.33" y1="239.94" x2="640.26" y2="239.94" gradientTransform="matrix(1 0 0 -1 0 480)">
		<stop  offset="0" style="stop-color:#2F7274"/>
		<stop  offset="0.5" style="stop-color:#69A8A8"/>
		<stop  offset="0.6" style="stop-color:#6CA9A8"/>
		<stop  offset="0.68" style="stop-color:#76ACA9"/>
		<stop  offset="0.76" style="stop-color:#88B2AA"/>
		<stop  offset="0.83" style="stop-color:#A0BBAC"/>
		<stop  offset="0.9" style="stop-color:#C0C6AE"/>
		<stop  offset="0.97" style="stop-color:#E7D3B1"/>
		<stop  offset="1" style="stop-color:#FCDBB3"/>
	</linearGradient>
	
		<rect x="-2.3" y="-1.4" style="clip-path:url(#SVGID_00000173148670674078274960000001331967724311482795_);fill:url(#SVGID_00000137832234157183838640000010275324442330324895_);" width="642.6" height="483"/>
	
		<radialGradient id="SVGID_00000122686098147542468760000000543466236046898340_" cx="535.12" cy="4.14" r="269.14" gradientTransform="matrix(1 0 0 -1 0 480)" gradientUnits="userSpaceOnUse">
		<stop  offset="0" style="stop-color:#009696"/>
		<stop  offset="1" style="stop-color:#497E81;stop-opacity:0"/>
	</radialGradient>
	
		<circle style="clip-path:url(#SVGID_00000173148670674078274960000001331967724311482795_);fill:url(#SVGID_00000122686098147542468760000000543466236046898340_);" cx="535.1" cy="475.9" r="269.1"/>
	
		<radialGradient id="SVGID_00000078033838656743346760000005024894790102855595_" cx="63.82" cy="26.57" r="144.66" gradientTransform="matrix(1 0 0 -1 0 480)" gradientUnits="userSpaceOnUse">
		<stop  offset="0" style="stop-color:#A80030"/>
		<stop  offset="1" style="stop-color:#FF8C8E;stop-opacity:0"/>
	</radialGradient>
	
		<circle style="opacity:0.4;clip-path:url(#SVGID_00000173148670674078274960000001331967724311482795_);fill:url(#SVGID_00000078033838656743346760000005024894790102855595_);enable-background:new    ;" cx="63.8" cy="453.4" r="144.7"/>
	
		<linearGradient id="SVGID_00000154408993877633157550000015381307170909897877_" gradientUnits="userSpaceOnUse" x1="5456.3682" y1="-1857.5216" x2="5657.3413" y2="-1656.5385" gradientTransform="matrix(-1 0 0 1 6159.9497 2077.53)">
		<stop  offset="0" style="stop-color:#487C80;stop-opacity:0"/>
		<stop  offset="1" style="stop-color:#5EA498"/>
	</linearGradient>
	
		<rect x="562.6" y="160" style="clip-path:url(#SVGID_00000173148670674078274960000001331967724311482795_);fill:url(#SVGID_00000154408993877633157550000015381307170909897877_);" width="81" height="321"/>
	
		<linearGradient id="SVGID_00000016038141210491536740000015266423934526416055_" gradientUnits="userSpaceOnUse" x1="41.075" y1="-0.13" x2="41.075" y2="240.43" gradientTransform="matrix(1 0 0 -1 0 480)">
		<stop  offset="0" style="stop-color:#F2D6B0"/>
		<stop  offset="1" style="stop-color:#FF8C8E;stop-opacity:0"/>
	</linearGradient>
	
		<rect x="-1" y="239.6" style="clip-path:url(#SVGID_00000173148670674078274960000001331967724311482795_);fill:url(#SVGID_00000016038141210491536740000015266423934526416055_);" width="84.1" height="240.6"/>
	
		<linearGradient id="SVGID_00000083089761744016328460000015498465675438792118_" gradientUnits="userSpaceOnUse" x1="2751.4954" y1="759.86" x2="2762.3098" y2="759.86" gradientTransform="matrix(1.022580e-16 1.67 -1 6.123234e-17 1083.13 -4144.5298)">
		<stop  offset="0" style="stop-color:#F2DAB8;stop-opacity:0"/>
		<stop  offset="1" style="stop-color:#FCDBB3"/>
	</linearGradient>
	
		<rect x="4.5" y="452.1" style="opacity:0.3;clip-path:url(#SVGID_00000173148670674078274960000001331967724311482795_);fill:url(#SVGID_00000083089761744016328460000015498465675438792118_);enable-background:new    ;" width="637.5" height="18.1"/>
	
		<linearGradient id="SVGID_00000147905051543886824300000000127197035238658490_" gradientUnits="userSpaceOnUse" x1="-5.96" y1="15.13" x2="165.05" y2="15.13" gradientTransform="matrix(1 0 0 -1 0 480)">
		<stop  offset="0" style="stop-color:#206F73;stop-opacity:0.8"/>
		<stop  offset="0.31" style="stop-color:#69A8A8"/>
		<stop  offset="0.37" style="stop-color:#6CA9A8"/>
		<stop  offset="0.43" style="stop-color:#76ACA9"/>
		<stop  offset="0.48" style="stop-color:#88B2AA"/>
		<stop  offset="0.53" style="stop-color:#A0BBAC"/>
		<stop  offset="0.58" style="stop-color:#C0C6AE"/>
		<stop  offset="0.6" style="stop-color:#D0CCB0"/>
		<stop  offset="1" style="stop-color:#FCDBB3;stop-opacity:0"/>
	</linearGradient>
	
		<rect x="-6" y="449.7" style="opacity:0.5;clip-path:url(#SVGID_00000173148670674078274960000001331967724311482795_);fill:url(#SVGID_00000147905051543886824300000000127197035238658490_);enable-background:new    ;" width="171" height="30.4"/>
	
		<linearGradient id="SVGID_00000013871151217345318140000006956916236980826548_" gradientUnits="userSpaceOnUse" x1="3774.6809" y1="3210.2319" x2="3909.9109" y2="3210.2319" gradientTransform="matrix(6.735558e-17 -1.1 -0.41 -2.510526e-17 1526.9 4620.9897)">
		<stop  offset="0" style="stop-color:#F2D6B0"/>
		<stop  offset="1" style="stop-color:#FF8C8E;stop-opacity:0"/>
	</linearGradient>
	
		<rect x="185.8" y="331.7" style="opacity:0.5;clip-path:url(#SVGID_00000173148670674078274960000001331967724311482795_);fill:url(#SVGID_00000013871151217345318140000006956916236980826548_);enable-background:new    ;" width="49.9" height="148.3"/>
	
		<linearGradient id="SVGID_00000085235926334290923030000008693814880799182246_" gradientUnits="userSpaceOnUse" x1="83.1" y1="28.67" x2="331.32" y2="28.67" gradientTransform="matrix(1 0 0 -1 0 480)">
		<stop  offset="0" style="stop-color:#206F73"/>
		<stop  offset="0.31" style="stop-color:#69A8A8"/>
		<stop  offset="0.37" style="stop-color:#6CA9A8"/>
		<stop  offset="0.43" style="stop-color:#76ACA9"/>
		<stop  offset="0.48" style="stop-color:#88B2AA"/>
		<stop  offset="0.53" style="stop-color:#A0BBAC"/>
		<stop  offset="0.58" style="stop-color:#C0C6AE"/>
		<stop  offset="0.6" style="stop-color:#D0CCB0"/>
		<stop  offset="1" style="stop-color:#FCDBB3;stop-opacity:0"/>
	</linearGradient>
	
		<rect x="83.1" y="423.9" style="opacity:0.5;clip-path:url(#SVGID_00000173148670674078274960000001331967724311482795_);fill:url(#SVGID_00000085235926334290923030000008693814880799182246_);enable-background:new    ;" width="248.2" height="54.9"/>
	
		<linearGradient id="SVGID_00000111894994037602540300000005433183057965883521_" gradientUnits="userSpaceOnUse" x1="3774.6809" y1="3140.3538" x2="3912.9409" y2="3140.3538" gradientTransform="matrix(6.735558e-17 -1.1 -0.41 -2.510526e-17 1526.9 4621)">
		<stop  offset="0" style="stop-color:#F2D6B0"/>
		<stop  offset="1" style="stop-color:#FF8C8E;stop-opacity:0"/>
	</linearGradient>
	
		<rect x="214.4" y="328.4" style="opacity:0.5;clip-path:url(#SVGID_00000173148670674078274960000001331967724311482795_);fill:url(#SVGID_00000111894994037602540300000005433183057965883521_);enable-background:new    ;" width="49.9" height="151.6"/>
	
		<linearGradient id="SVGID_00000075877353389063607610000009029515531708283826_" gradientUnits="userSpaceOnUse" x1="80.97" y1="129.99" x2="83.14" y2="129.99" gradientTransform="matrix(1 0 0 -1 0 480)">
		<stop  offset="0" style="stop-color:#F2DAB8;stop-opacity:0"/>
		<stop  offset="1" style="stop-color:#FCDBB3"/>
	</linearGradient>
	
		<rect x="81" y="250.4" style="clip-path:url(#SVGID_00000173148670674078274960000001331967724311482795_);fill:url(#SVGID_00000075877353389063607610000009029515531708283826_);" width="2.2" height="199.3"/>
	
		<linearGradient id="SVGID_00000172422250598681618010000014820356680492841642_" gradientUnits="userSpaceOnUse" x1="3772.0708" y1="2360.1951" x2="3900.8108" y2="2360.1951" gradientTransform="matrix(6.735558e-17 -1.1 -0.41 -2.510526e-17 1526.9 4620.9902)">
		<stop  offset="0" style="stop-color:#F2D6B0"/>
		<stop  offset="1" style="stop-color:#FF8C8E;stop-opacity:0"/>
	</linearGradient>
	
		<rect x="549.2" y="341.7" style="opacity:0.5;clip-path:url(#SVGID_00000173148670674078274960000001331967724311482795_);fill:url(#SVGID_00000172422250598681618010000014820356680492841642_);enable-background:new    ;" width="20" height="141.2"/>
	<path style="clip-path:url(#SVGID_00000173148670674078274960000001331967724311482795_);fill:#FFFFFF;" d="M306.1,15.1
		c-0.1,0,0,0.1,0.2,0.1c0,0,0.1-0.1,0.1-0.1C306.3,15.1,306.2,15.1,306.1,15.1"/>
	<path style="clip-path:url(#SVGID_00000173148670674078274960000001331967724311482795_);fill:#FFFFFF;" d="M306.9,14.9
		c0.1-0.1,0.1-0.2,0.2-0.4c0,0.1-0.1,0.2-0.1,0.3c-0.3,0.2,0-0.1,0-0.2C306.6,14.9,306.9,14.8,306.9,14.9"/>
	<path style="clip-path:url(#SVGID_00000173148670674078274960000001331967724311482795_);fill:#FFFFFF;" d="M307.1,14.1
		C307.1,13.9,307.1,13.9,307.1,14.1C307.1,14.1,307.1,14.2,307.1,14.1"/>
	<path style="clip-path:url(#SVGID_00000173148670674078274960000001331967724311482795_);fill:#FFFFFF;" d="M305.5,10.6
		c0.1,0,0.2,0,0.1,0C305.8,10.6,305.8,10.6,305.5,10.6"/>
	<path style="clip-path:url(#SVGID_00000173148670674078274960000001331967724311482795_);fill:#FFFFFF;" d="M305.7,10.7L305.7,10.7
		L305.7,10.7L305.7,10.7"/>
	<path style="clip-path:url(#SVGID_00000173148670674078274960000001331967724311482795_);fill:#FFFFFF;" d="M308.1,14.2
		c0,0.2-0.1,0.3-0.1,0.5l-0.1,0.1c-0.1,0.2,0,0.1-0.1,0.3c-0.2,0.1-0.5,0.4-0.6,0.5c-0.1,0,0-0.1,0.1-0.1c-0.2,0.1-0.2,0.2-0.5,0.3
		v0c-0.8,0.4-1.9-0.4-1.9-1.4c0,0.1,0,0.1,0,0.1c0-0.5,0.2-1.1,0.7-1.3c0.5-0.2,1-0.1,1.3,0.2c-0.2-0.2-0.5-0.5-1-0.5
		c-0.4,0-0.8,0.3-1,0.6c-0.2,0.1-0.2,0.5-0.3,0.6c-0.1,0.9,0.2,1.3,0.9,1.8c0.1,0.1,0,0.1,0,0.1c-0.2-0.1-0.4-0.2-0.5-0.4
		c0.1,0.1,0.2,0.2,0.3,0.3c-0.2-0.1-0.5-0.5-0.5-0.5c0.3,0.6,1.4,1.1,1.9,0.8c-0.2,0-0.6,0-0.8-0.1c-0.1-0.1-0.3-0.2-0.2-0.2
		c0.7,0.3,1.5,0.2,2.1-0.3c0.2-0.1,0.3-0.3,0.4-0.3c-0.1,0.1,0,0.1,0,0.2c0.2-0.3-0.1-0.1,0.2-0.4l0.1,0.1c0-0.2,0.3-0.5,0.2-0.8
		c0.1-0.1,0.1,0.1,0,0.4c0.1-0.3,0-0.3,0-0.5c0,0.1,0.1,0.1,0.1,0.2c-0.1-0.3,0.1-0.4,0.1-0.6c0,0-0.1,0.1-0.1-0.2
		c0-0.1,0-0.1,0-0.1c0,0-0.1-0.1-0.1-0.3c0-0.1,0.1,0.1,0.1,0.1c0-0.1-0.1-0.3-0.1-0.4c-0.1-0.2,0,0-0.1-0.1
		c-0.1-0.4,0.1-0.1,0.1-0.3c0.2,0.3,0.3,0.7,0.4,0.9c0-0.2-0.1-0.4-0.2-0.6c0.1,0-0.1-0.4,0.1-0.1c-0.2-0.7-0.8-1.3-1.3-1.6
		c0.1,0.1,0.1,0.1,0.1,0.1c-0.3-0.2-0.2-0.2-0.3-0.2c-0.2-0.1-0.2,0-0.4,0c-0.4-0.2-0.5-0.2-0.9-0.3l0,0.1c-0.3-0.1-0.3,0-0.6,0
		c0,0,0.1-0.1,0.2-0.1c-0.3,0-0.2-0.1-0.5,0c0.1-0.1,0.1-0.1,0.2-0.1c-0.2,0-0.5,0.1-0.4,0c-0.4,0.2-1,0.4-1.3,0.7v-0.1
		c-0.2,0.2-0.7,0.6-0.8,0.8h0c-0.1,0.1-0.1,0.3-0.2,0.5c-0.1,0.2-0.2,0.1-0.1,0.1c-0.2,0.4-0.3,0.8-0.4,1.1c0.1,0.1,0,0.6,0,1
		c-0.1,2,1.4,3.9,3,4.3c0.2,0.1,0.6,0.1,0.9,0.1c-0.4-0.1-0.4,0-0.8-0.2c-0.2-0.1-0.3-0.2-0.5-0.4l0.1,0.1c-0.4-0.1-0.2-0.1-0.5-0.2
		l0.1-0.1c-0.1,0-0.3-0.2-0.4-0.3h-0.1c-0.1-0.2-0.2-0.3-0.2-0.4l0,0.1c0-0.1-0.5-0.7-0.3-0.5c0,0-0.1-0.1-0.2-0.2l0-0.1
		c-0.1-0.2-0.2-0.4-0.2-0.4c0.1,0.1,0.1,0.1,0.2,0.1c-0.3-0.8-0.3,0-0.6-0.8h0c0-0.1-0.1-0.1-0.1-0.2l0-0.2c-0.2-0.3-0.1-1.1,0-1.6
		c0-0.2,0.2-0.4,0.3-0.7h-0.1c0.1-0.3,0.8-1.1,1.2-1c0.2-0.2,0,0-0.1-0.1c0.3-0.4,0.5-0.2,0.7-0.3c0.2-0.1-0.2,0.1-0.1-0.1
		c0.4-0.1,0.3-0.2,0.9-0.3c0.1,0-0.1,0.1-0.2,0.1c0.4-0.2,1.1-0.1,1.6,0.1c0.6,0.3,1.2,1.1,1.3,1.8h0c0,0.3,0,0.7-0.1,1L308.1,14.2"
		/>
	<path style="clip-path:url(#SVGID_00000173148670674078274960000001331967724311482795_);fill:#FFFFFF;" d="M304.5,15.3l0,0.1
		c0.1,0.1,0.2,0.3,0.3,0.4C304.7,15.6,304.6,15.5,304.5,15.3"/>
	<path style="clip-path:url(#SVGID_00000173148670674078274960000001331967724311482795_);fill:#FFFFFF;" d="M304.7,15.2
		c0-0.1-0.1-0.1-0.1-0.2c0,0.1,0.1,0.2,0.2,0.3L304.7,15.2"/>
	<path style="clip-path:url(#SVGID_00000173148670674078274960000001331967724311482795_);fill:#FFFFFF;" d="M308.7,14.4L308.7,14.4
		c-0.1,0.3-0.1,0.6-0.3,0.9C308.6,15,308.6,14.7,308.7,14.4"/>
	<path style="clip-path:url(#SVGID_00000173148670674078274960000001331967724311482795_);fill:#FFFFFF;" d="M305.6,10.5
		c0.1,0,0.2,0,0.3,0C305.8,10.5,305.6,10.5,305.6,10.5L305.6,10.5"/>
	<path style="clip-path:url(#SVGID_00000173148670674078274960000001331967724311482795_);fill:#FFFFFF;" d="M302.2,12.4
		c0,0.2-0.2,0.3,0,0.1C302.3,12.3,302.2,12.4,302.2,12.4"/>
	<path style="clip-path:url(#SVGID_00000173148670674078274960000001331967724311482795_);fill:#FFFFFF;" d="M302,13.3
		c0-0.1,0-0.2,0.1-0.3C301.9,13.2,302,13.2,302,13.3"/>
	<path style="clip-path:url(#SVGID_00000173148670674078274960000001331967724311482795_);fill:#FFFFFF;" d="M316.1,13.8
		c0,0,0,1.7,0,2.2c0,0.4,0,1.1-0.8,1.1s-1-0.9-1-1.3c-0.1-0.4-0.1-0.8-0.1-1c0-0.5,0-1.9,1.2-1.9c0.4,0,0.6,0.1,0.7,0.2L316.1,13.8
		L316.1,13.8z M313,15.1c0,3,1.6,3,1.8,3c0.7,0,1.1-0.4,1.3-1l0,0.9c0.2,0,0.4,0,0.7,0c0.1,0,0.2,0,0.3,0s0.2,0,0.3,0
		c-0.2-0.3-0.3-1.1-0.3-2.8s0-4.4,0.1-5.2c-0.4,0.2-0.7,0.3-1.4,0.4c0.3,0.3,0.3,0.5,0.3,1.9c-0.2-0.1-0.5-0.1-0.9-0.1
		C313.3,12.2,313,13.8,313,15.1"/>
	<path style="clip-path:url(#SVGID_00000173148670674078274960000001331967724311482795_);fill:#FFFFFF;" d="M318.8,14.5
		c0-0.9,0.2-1.7,0.9-1.7c0.8,0,0.9,0.9,0.9,1.7H318.8z M321.7,14.6c0-1.2-0.2-2.5-1.8-2.5c-2.2,0-2.2,2.4-2.2,2.9c0,2.2,1,3,2.6,3
		c0.7,0,1.1-0.1,1.3-0.2c0-0.4,0-0.6,0.1-1c-0.2,0.1-0.5,0.3-1.1,0.3c-1.7,0-1.7-1.5-1.7-2h2.8L321.7,14.6"/>
	<path style="clip-path:url(#SVGID_00000173148670674078274960000001331967724311482795_);fill:#FFFFFF;" d="M325.2,15.1
		c0,1-0.2,2.3-1.4,2.3c-0.2,0-0.4,0-0.5-0.1c0-0.4,0-1,0-1.8c0-0.9,0.1-1.4,0.2-1.6c0.2-0.8,0.7-0.8,0.8-0.8
		C325,13.1,325.2,14.3,325.2,15.1z M322.1,16.3c0,0.8,0,1.2-0.1,1.6c0.4,0.2,1,0.3,1.6,0.3c0.4,0,1.6,0,2.3-1.3
		c0.3-0.6,0.4-1.4,0.4-2.1c0-0.4,0-1.2-0.4-1.8c-0.3-0.5-0.8-0.8-1.3-0.8c-1,0-1.3,0.9-1.5,1.3c0-0.6,0-2.4,0.1-3.4
		c-0.7,0.3-1.1,0.4-1.6,0.4c0.4,0.2,0.4,0.9,0.4,3.2L322.1,16.3"/>
	<path style="clip-path:url(#SVGID_00000173148670674078274960000001331967724311482795_);fill:#FFFFFF;" d="M328.3,18
		c-0.2,0-0.4,0-0.7,0c-0.3,0-0.6,0-0.8,0c0.1-0.2,0.1-0.3,0.2-1c0-1,0-3.5,0-4c0-0.4-0.1-0.5-0.3-0.6c0.9-0.1,1.1-0.1,1.5-0.3
		c-0.1,0.5-0.1,0.7-0.1,1.4C328.1,17.2,328.1,17.6,328.3,18"/>
	<path style="clip-path:url(#SVGID_00000173148670674078274960000001331967724311482795_);fill:#FFFFFF;" d="M331.8,15
		c0,0.7,0,1.1-0.2,1.5c-0.2,0.5-0.6,0.6-0.9,0.6c-0.6,0-0.8-0.5-0.8-1c0-1,0.9-1.1,1.3-1.1L331.8,15L331.8,15z M328.8,16.3
		c0,0.7,0.2,1.3,0.8,1.6c0.3,0.1,0.5,0.1,0.6,0.1c1,0,1.3-0.7,1.5-1.2c0,0.5,0,0.8,0,1.1c0.2,0,0.4,0,0.7,0c0.2,0,0.4,0,0.5,0
		c-0.1-0.2-0.2-0.3-0.2-0.7s0-0.8,0-1.4v-2.2c0-0.8-0.2-1.6-1.8-1.6c-1,0-1.7,0.3-2,0.5c0.1,0.2,0.2,0.4,0.3,0.9
		c0.4-0.4,1-0.6,1.5-0.6c0.9,0,0.9,0.6,0.9,1.4c-0.2,0-0.4,0-0.7,0C329.7,14.4,328.8,14.9,328.8,16.3"/>
	<path style="clip-path:url(#SVGID_00000173148670674078274960000001331967724311482795_);fill:#FFFFFF;" d="M337.9,17
		c0,0.4,0,0.8,0.2,1c-0.2,0-0.4,0-0.8,0c-0.2,0-0.4,0-0.6,0c0-0.1,0.1-0.2,0.1-0.4c0-0.2,0-1.1,0-1.4v-1.1c0-0.5,0-1.2,0-1.5
		c0-0.2-0.1-0.7-0.7-0.7s-0.8,0.4-0.9,0.8c-0.1,0.4-0.1,0.8-0.1,2.4c0,1.4,0,1.5,0.1,1.9c-0.2,0-0.4,0-0.7,0c-0.2,0-0.4,0-0.6,0
		c0.1-0.2,0.1-0.2,0.1-0.9c0-0.6,0.1-3.5,0-4.1c0-0.4-0.2-0.5-0.3-0.6c0.9,0,1.1-0.2,1.4-0.3v1.1c0.1-0.3,0.4-1.1,1.5-1.1
		c1.3,0,1.3,1,1.4,1.6L337.9,17"/>
	<path style="clip-path:url(#SVGID_00000173148670674078274960000001331967724311482795_);fill:#FFFFFF;" d="M328.4,10.6l-0.9,0.9
		l-0.9-0.9l0.9-0.9L328.4,10.6"/>
</g>
</svg>
