<?xml version="1.0" encoding="utf-8"?>
<!-- Generator: $$$/GeneralStr/196=Adobe Illustrator 27.6.0, SVG Export Plug-In . SVG Version: 6.00 Build 0)  -->
<svg version="1.1" id="Calque_1" xmlns="http://www.w3.org/2000/svg" xmlns:xlink="http://www.w3.org/1999/xlink" x="0px" y="0px"
	 viewBox="0 0 1920 1080" style="enable-background:new 0 0 1920 1080;" xml:space="preserve">
<style type="text/css">
	.st0{clip-path:url(#SVGID_00000012440233193736101770000003681129809116997558_);fill:#284D55;}
	
		.st1{clip-path:url(#SVGID_00000012440233193736101770000003681129809116997558_);fill:url(#SVGID_00000129168562829440780350000001517434973706902912_);}
	
		.st2{opacity:0.6;clip-path:url(#SVGID_00000012440233193736101770000003681129809116997558_);fill:url(#SVGID_00000152946177531014020370000008699455675263368597_);enable-background:new    ;}
	
		.st3{opacity:0.4;clip-path:url(#SVGID_00000012440233193736101770000003681129809116997558_);fill:url(#SVGID_00000005240930925140793370000009387141971184159383_);enable-background:new    ;}
	
		.st4{clip-path:url(#SVGID_00000012440233193736101770000003681129809116997558_);fill:url(#SVGID_00000173853047917443108940000014820206943601591429_);}
	
		.st5{clip-path:url(#SVGID_00000012440233193736101770000003681129809116997558_);fill:url(#SVGID_00000067195711238565224450000008706396774177519239_);}
	
		.st6{opacity:0.5;clip-path:url(#SVGID_00000012440233193736101770000003681129809116997558_);fill:url(#SVGID_00000000925246192443523180000014822141970124047503_);enable-background:new    ;}
	
		.st7{opacity:0.5;clip-path:url(#SVGID_00000012440233193736101770000003681129809116997558_);fill:url(#SVGID_00000113328661988040908330000015401569944086213778_);enable-background:new    ;}
	
		.st8{opacity:0.5;clip-path:url(#SVGID_00000012440233193736101770000003681129809116997558_);fill:url(#SVGID_00000165192755915252058760000007354301731047283114_);enable-background:new    ;}
	
		.st9{clip-path:url(#SVGID_00000012440233193736101770000003681129809116997558_);fill:url(#SVGID_00000182506038498811184850000013528830656156430259_);}
	
		.st10{opacity:0.5;clip-path:url(#SVGID_00000012440233193736101770000003681129809116997558_);fill:url(#SVGID_00000003087448368088634220000000416961942601359500_);enable-background:new    ;}
	
		.st11{opacity:0.5;clip-path:url(#SVGID_00000012440233193736101770000003681129809116997558_);fill:url(#SVGID_00000090977193549046175690000014823129386465819272_);enable-background:new    ;}
	
		.st12{opacity:0.5;clip-path:url(#SVGID_00000012440233193736101770000003681129809116997558_);fill:url(#SVGID_00000147905632618909090120000014547033549573640612_);enable-background:new    ;}
	
		.st13{opacity:0.5;clip-path:url(#SVGID_00000012440233193736101770000003681129809116997558_);fill:url(#SVGID_00000023984295368729605460000003444223918658902715_);enable-background:new    ;}
	
		.st14{opacity:0.5;clip-path:url(#SVGID_00000012440233193736101770000003681129809116997558_);fill:url(#SVGID_00000068647937854991906750000000003616215186562205_);enable-background:new    ;}
	
		.st15{clip-path:url(#SVGID_00000012440233193736101770000003681129809116997558_);fill:url(#SVGID_00000060737972373477549260000006384501991632185229_);}
	
		.st16{opacity:0.8;clip-path:url(#SVGID_00000012440233193736101770000003681129809116997558_);fill:#FFFFFF;enable-background:new    ;}
</style>
<g>
	<defs>
		<rect id="SVGID_1_" width="1920" height="1080"/>
	</defs>
	<clipPath id="SVGID_00000166670727002277533790000000281417107742496912_">
		<use xlink:href="#SVGID_1_"  style="overflow:visible;"/>
	</clipPath>
	
		<rect y="-60" style="clip-path:url(#SVGID_00000166670727002277533790000000281417107742496912_);fill:#284D55;" width="1920" height="1200"/>
	
		<linearGradient id="SVGID_00000031900324737414307360000015918141265056325784_" gradientUnits="userSpaceOnUse" x1="-11.05" y1="536.4249" x2="1924.7699" y2="536.4249" gradientTransform="matrix(1 0 0 -1 0 1080)">
		<stop  offset="0" style="stop-color:#2F7274"/>
		<stop  offset="0.5" style="stop-color:#69A8A8"/>
		<stop  offset="0.6" style="stop-color:#6CA9A8"/>
		<stop  offset="0.68" style="stop-color:#76ACA9"/>
		<stop  offset="0.76" style="stop-color:#88B2AA"/>
		<stop  offset="0.83" style="stop-color:#A0BBAC"/>
		<stop  offset="0.9" style="stop-color:#C0C6AE"/>
		<stop  offset="0.97" style="stop-color:#E7D3B1"/>
		<stop  offset="1" style="stop-color:#FCDBB3"/>
	</linearGradient>
	
		<rect x="-11.1" y="-65.6" style="clip-path:url(#SVGID_00000166670727002277533790000000281417107742496912_);fill:url(#SVGID_00000031900324737414307360000015918141265056325784_);" width="1935.8" height="1218.3"/>
	
		<linearGradient id="SVGID_00000106137601796110492710000011814374238603532462_" gradientUnits="userSpaceOnUse" x1="762.41" y1="-2035.5551" x2="1120.64" y2="-2035.5551" gradientTransform="matrix(6.123234e-17 1 1 -6.123234e-17 2857.8301 -57.87)">
		<stop  offset="0" style="stop-color:#F2D6B0"/>
		<stop  offset="1" style="stop-color:#FF8C8E;stop-opacity:0"/>
	</linearGradient>
	
		<rect x="706.6" y="704.5" style="opacity:0.6;clip-path:url(#SVGID_00000166670727002277533790000000281417107742496912_);fill:url(#SVGID_00000106137601796110492710000011814374238603532462_);enable-background:new    ;" width="231.3" height="358.2"/>
	
		<radialGradient id="SVGID_00000140727182949998924320000013345351865666011289_" cx="277.62" cy="102.67" r="425.86" gradientTransform="matrix(1 0 0 -1 0 1080)" gradientUnits="userSpaceOnUse">
		<stop  offset="0" style="stop-color:#A80030"/>
		<stop  offset="1" style="stop-color:#FF8C8E;stop-opacity:0"/>
	</radialGradient>
	
		<circle style="opacity:0.4;clip-path:url(#SVGID_00000166670727002277533790000000281417107742496912_);fill:url(#SVGID_00000140727182949998924320000013345351865666011289_);enable-background:new    ;" cx="277.6" cy="977.3" r="425.9"/>
	
		<linearGradient id="SVGID_00000093137655164851375410000016829689606890402996_" gradientUnits="userSpaceOnUse" x1="4193.1099" y1="-1998.4301" x2="4872.6802" y2="-1318.86" gradientTransform="matrix(-1 0 0 1 6189.48 2387.3699)">
		<stop  offset="0" style="stop-color:#487C80;stop-opacity:0"/>
		<stop  offset="1" style="stop-color:#5EA498"/>
	</linearGradient>
	
		<rect x="1384.1" y="321.6" style="clip-path:url(#SVGID_00000166670727002277533790000000281417107742496912_);fill:url(#SVGID_00000093137655164851375410000016829689606890402996_);" width="545" height="814.2"/>
	
		<linearGradient id="SVGID_00000053517977511427384440000014426369022119520148_" gradientUnits="userSpaceOnUse" x1="954.55" y1="-61.3101" x2="954.55" y2="670.28" gradientTransform="matrix(1 0 0 -1 0 1080)">
		<stop  offset="0" style="stop-color:#F2D6B0"/>
		<stop  offset="1" style="stop-color:#FF8C8E;stop-opacity:0"/>
	</linearGradient>
	
		<rect x="829" y="409.7" style="clip-path:url(#SVGID_00000166670727002277533790000000281417107742496912_);fill:url(#SVGID_00000053517977511427384440000014426369022119520148_);" width="251.1" height="731.6"/>
	
		<linearGradient id="SVGID_00000011715364527600891800000007727452823545029307_" gradientUnits="userSpaceOnUse" x1="2576.3" y1="1506.9449" x2="2947.03" y2="1506.9449" gradientTransform="matrix(6.123234e-17 -1 -1 -6.123234e-17 1986.46 3733.9099)">
		<stop  offset="0" style="stop-color:#206F73;stop-opacity:0.8"/>
		<stop  offset="0.31" style="stop-color:#69A8A8"/>
		<stop  offset="0.37" style="stop-color:#6CA9A8"/>
		<stop  offset="0.43" style="stop-color:#76ACA9"/>
		<stop  offset="0.48" style="stop-color:#88B2AA"/>
		<stop  offset="0.53" style="stop-color:#A0BBAC"/>
		<stop  offset="0.58" style="stop-color:#C0C6AE"/>
		<stop  offset="0.6" style="stop-color:#D0CCB0"/>
		<stop  offset="1" style="stop-color:#FCDBB3;stop-opacity:0"/>
	</linearGradient>
	
		<rect x="424.3" y="786.9" style="opacity:0.5;clip-path:url(#SVGID_00000166670727002277533790000000281417107742496912_);fill:url(#SVGID_00000011715364527600891800000007727452823545029307_);enable-background:new    ;" width="110.4" height="370.7"/>
	
		<linearGradient id="SVGID_00000114053954390191650920000004564538464362792600_" gradientUnits="userSpaceOnUse" x1="3606.738" y1="597.9513" x2="3969.8882" y2="597.9513" gradientTransform="matrix(6.735558e-17 -1.1 -0.41 -2.510526e-17 1601.35 5094.2998)">
		<stop  offset="0" style="stop-color:#F2D6B0"/>
		<stop  offset="1" style="stop-color:#FF8C8E;stop-opacity:0"/>
	</linearGradient>
	
		<rect x="1218" y="736.1" style="opacity:0.5;clip-path:url(#SVGID_00000166670727002277533790000000281417107742496912_);fill:url(#SVGID_00000114053954390191650920000004564538464362792600_);enable-background:new    ;" width="276.4" height="398.2"/>
	
		<linearGradient id="SVGID_00000103259175494426840980000007637488159671945368_" gradientUnits="userSpaceOnUse" x1="3589.968" y1="3103.0732" x2="4240.2881" y2="3103.0732" gradientTransform="matrix(6.735558e-17 -1.1 -0.41 -2.510526e-17 1601.35 5094.3003)">
		<stop  offset="0" style="stop-color:#F2D6B0"/>
		<stop  offset="1" style="stop-color:#FF8C8E;stop-opacity:0"/>
	</linearGradient>
	
		<rect x="229.4" y="439.6" style="opacity:0.5;clip-path:url(#SVGID_00000166670727002277533790000000281417107742496912_);fill:url(#SVGID_00000103259175494426840980000007637488159671945368_);enable-background:new    ;" width="199.3" height="713.1"/>
	
		<radialGradient id="SVGID_00000019649449448477022500000000567876983620904077_" cx="1325.96" cy="41.52" r="734.5601" gradientTransform="matrix(1 0 0 -1 0 1080)" gradientUnits="userSpaceOnUse">
		<stop  offset="0" style="stop-color:#FCDBB3"/>
		<stop  offset="1" style="stop-color:#F2DAB8;stop-opacity:0"/>
	</radialGradient>
	
		<circle style="clip-path:url(#SVGID_00000166670727002277533790000000281417107742496912_);fill:url(#SVGID_00000019649449448477022500000000567876983620904077_);" cx="1326" cy="1038.5" r="734.6"/>
	
		<linearGradient id="SVGID_00000052804573387645523500000000763993838278616467_" gradientUnits="userSpaceOnUse" x1="-3.01" y1="53.465" x2="1443.0699" y2="53.465" gradientTransform="matrix(1 0 0 -1 0 1080)">
		<stop  offset="0" style="stop-color:#206F73"/>
		<stop  offset="0.31" style="stop-color:#69A8A8"/>
		<stop  offset="0.37" style="stop-color:#6CA9A8"/>
		<stop  offset="0.43" style="stop-color:#76ACA9"/>
		<stop  offset="0.48" style="stop-color:#88B2AA"/>
		<stop  offset="0.53" style="stop-color:#A0BBAC"/>
		<stop  offset="0.58" style="stop-color:#C0C6AE"/>
		<stop  offset="0.6" style="stop-color:#D0CCB0"/>
		<stop  offset="1" style="stop-color:#FCDBB3;stop-opacity:0"/>
	</linearGradient>
	
		<rect x="-3" y="911.7" style="opacity:0.5;clip-path:url(#SVGID_00000166670727002277533790000000281417107742496912_);fill:url(#SVGID_00000052804573387645523500000000763993838278616467_);enable-background:new    ;" width="1446.1" height="229.6"/>
	
		<linearGradient id="SVGID_00000073706733776051768810000016509615776304042412_" gradientUnits="userSpaceOnUse" x1="3589.2881" y1="3506.4878" x2="4254.1982" y2="3506.4878" gradientTransform="matrix(6.735558e-17 -1.1 -0.41 -2.510526e-17 1601.35 5094.2998)">
		<stop  offset="0" style="stop-color:#F2D6B0"/>
		<stop  offset="1" style="stop-color:#FF8C8E;stop-opacity:0"/>
	</linearGradient>
	
		<rect x="-13.2" y="424.3" style="opacity:0.5;clip-path:url(#SVGID_00000166670727002277533790000000281417107742496912_);fill:url(#SVGID_00000073706733776051768810000016509615776304042412_);enable-background:new    ;" width="353.8" height="729.1"/>
	
		<linearGradient id="SVGID_00000017487946502839305290000015048738308354280359_" gradientUnits="userSpaceOnUse" x1="3598.7881" y1="1859.7439" x2="4382.6982" y2="1859.7439" gradientTransform="matrix(6.735558e-17 -1.1 -0.41 -2.510526e-17 1601.36 5094.3003)">
		<stop  offset="0" style="stop-color:#F2D6B0"/>
		<stop  offset="1" style="stop-color:#FF8C8E;stop-opacity:0"/>
	</linearGradient>
	
		<rect x="809" y="283.5" style="opacity:0.5;clip-path:url(#SVGID_00000166670727002277533790000000281417107742496912_);fill:url(#SVGID_00000017487946502839305290000015048738308354280359_);enable-background:new    ;" width="59.7" height="859.6"/>
	
		<linearGradient id="SVGID_00000085967408295567710150000004365237792505755812_" gradientUnits="userSpaceOnUse" x1="3601.488" y1="3434.8171" x2="4033.0481" y2="3434.8171" gradientTransform="matrix(6.735558e-17 -1.1 -0.41 -2.510526e-17 1601.35 5094.3003)">
		<stop  offset="0" style="stop-color:#F2D6B0"/>
		<stop  offset="1" style="stop-color:#FF8C8E;stop-opacity:0"/>
	</linearGradient>
	
		<rect x="102" y="666.9" style="opacity:0.5;clip-path:url(#SVGID_00000166670727002277533790000000281417107742496912_);fill:url(#SVGID_00000085967408295567710150000004365237792505755812_);enable-background:new    ;" width="182.1" height="473.2"/>
	
		<linearGradient id="SVGID_00000043429539611629203230000016549755267879029637_" gradientUnits="userSpaceOnUse" x1="3607.5381" y1="33.2073" x2="4329.8081" y2="33.2073" gradientTransform="matrix(6.735558e-17 -1.1 -0.41 -2.510526e-17 1601.36 5094.2998)">
		<stop  offset="0" style="stop-color:#F2D6B0"/>
		<stop  offset="1" style="stop-color:#FF8C8E;stop-opacity:0"/>
	</linearGradient>
	
		<rect x="1345.6" y="341.4" style="opacity:0.5;clip-path:url(#SVGID_00000166670727002277533790000000281417107742496912_);fill:url(#SVGID_00000043429539611629203230000016549755267879029637_);enable-background:new    ;" width="484.4" height="792"/>
	
		<radialGradient id="SVGID_00000017481274991765182000000008901135620375104136_" cx="946.79" cy="523.49" r="691.56" gradientTransform="matrix(1 0 0 -1 0 1080)" gradientUnits="userSpaceOnUse">
		<stop  offset="0" style="stop-color:#009696"/>
		<stop  offset="1" style="stop-color:#497E81;stop-opacity:0"/>
	</radialGradient>
	
		<circle style="clip-path:url(#SVGID_00000166670727002277533790000000281417107742496912_);fill:url(#SVGID_00000017481274991765182000000008901135620375104136_);" cx="946.8" cy="556.5" r="691.6"/>
	
		<path style="opacity:0.8;clip-path:url(#SVGID_00000166670727002277533790000000281417107742496912_);fill:#FFFFFF;enable-background:new    ;" d="
		M923.5,987.9c0,0,0,6.7-0.1,8.4c-0.1,1.4-0.2,4.4-3.2,4.4s-3.8-3.5-4-5c-0.3-1.7-0.3-3.1-0.3-3.7c0-2,0.1-7.5,4.8-7.5
		c1.4,0,2.2,0.4,2.8,0.7L923.5,987.9L923.5,987.9z M911.5,992.8c0,11.7,6.2,11.7,7.1,11.7c2.6,0,4.2-1.4,4.9-3.8l0.1,3.7
		c0.8,0,1.6-0.1,2.8-0.1c0.5,0,0.8,0,1.2,0c0.3,0,0.7,0,1,0.1c-0.7-1.3-1.2-4.3-1.2-10.8s0-16.9,0.5-20.1c-1.5,0.7-2.8,1.2-5.6,1.4
		c1.1,1.2,1.1,1.8,1.1,7.3c-0.8-0.2-1.8-0.5-3.5-0.5C912.7,981.5,911.5,988,911.5,992.8"/>
	
		<path style="opacity:0.8;clip-path:url(#SVGID_00000166670727002277533790000000281417107742496912_);fill:#FFFFFF;enable-background:new    ;" d="
		M933.9,990.7c0-3.4,0.8-6.5,3.7-6.5c3.2,0,3.5,3.6,3.4,6.5H933.9z M945.1,991.1c0-4.8-1-9.6-7.1-9.6c-8.4,0-8.4,9.3-8.4,11.3
		c0,8.4,3.8,11.7,10.1,11.7c2.8,0,4.2-0.4,4.9-0.6c0-1.5,0.2-2.4,0.4-3.7c-0.9,0.5-2,1.2-4.5,1.2c-6.5,0-6.5-5.9-6.5-7.9h11
		L945.1,991.1"/>
	
		<path style="opacity:0.8;clip-path:url(#SVGID_00000166670727002277533790000000281417107742496912_);fill:#FFFFFF;enable-background:new    ;" d="
		M958.5,992.9c0,3.8-0.7,9-5.5,9c-0.7,0-1.5-0.1-2-0.2c-0.1-1.5-0.1-4-0.1-7c0-3.6,0.4-5.4,0.7-6.3c0.9-2.9,2.8-3,3.2-3
		C957.9,985.3,958.5,989.6,958.5,992.9L958.5,992.9z M946.6,997.4c0,3.1,0,4.8-0.5,6.1c1.7,0.7,3.8,1,6.3,1c1.6,0,6.3,0,8.8-5.2
		c1.2-2.4,1.6-5.6,1.6-8.1c0-1.5-0.2-4.8-1.4-6.8c-1.2-1.9-3-2.9-5-2.9c-4,0-5.1,3.3-5.8,5c0-2.1,0-9.5,0.4-13.2
		c-2.7,1.2-4.3,1.5-6.1,1.6c1.6,0.7,1.6,3.4,1.6,12.3V997.4"/>
	
		<path style="opacity:0.8;clip-path:url(#SVGID_00000166670727002277533790000000281417107742496912_);fill:#FFFFFF;enable-background:new    ;" d="
		M970.8,1004.3c-0.8-0.1-1.4-0.2-2.6-0.2c-1.3,0-2.2,0.1-3.2,0.2c0.4-0.8,0.6-1.2,0.7-3.8c0.2-3.7,0.2-13.5-0.1-15.6
		c-0.2-1.6-0.6-1.8-1.2-2.2c3.4-0.3,4.3-0.6,5.9-1.3c-0.3,1.8-0.4,2.7-0.4,5.5C970,1001.1,969.9,1002.6,970.8,1004.3"/>
	
		<path style="opacity:0.8;clip-path:url(#SVGID_00000166670727002277533790000000281417107742496912_);fill:#FFFFFF;enable-background:new    ;" d="
		M984.1,992.6c-0.1,2.6-0.1,4.4-0.8,5.9c-0.9,1.9-2.3,2.4-3.4,2.4c-2.5,0-3-2.1-3-4.1c0-3.9,3.5-4.2,5-4.2H984.1L984.1,992.6z
		 M972.7,997.7c0,2.6,0.8,5.2,3.1,6.3c1,0.5,2.1,0.5,2.4,0.5c3.8,0,5.1-2.8,5.9-4.5c0,1.8,0,2.9,0.1,4.4c0.7,0,1.5-0.1,2.7-0.1
		c0.7,0,1.4,0.1,2.1,0.1c-0.5-0.7-0.7-1.1-0.8-2.7c-0.1-1.6-0.1-3.1-0.1-5.3l0-8.4c0-3.1-0.8-6.2-7-6.2c-4.1,0-6.5,1.2-7.7,1.9
		c0.5,0.9,0.9,1.7,1.3,3.5c1.6-1.4,3.7-2.2,5.9-2.2c3.4,0,3.4,2.3,3.4,5.5c-0.8,0-1.5-0.1-2.6-0.1
		C976.2,990.1,972.7,992.1,972.7,997.7"/>
	
		<path style="opacity:0.8;clip-path:url(#SVGID_00000166670727002277533790000000281417107742496912_);fill:#FFFFFF;enable-background:new    ;" d="
		M1007.9,1000.2c0,1.4,0,2.9,0.6,4.1c-0.9-0.1-1.5-0.2-3.1-0.2c-1,0-1.5,0.1-2.3,0.2c0.2-0.5,0.2-0.7,0.3-1.5c0.1-1,0.2-4.1,0.2-5.2
		v-4.5c0-1.9,0-4.8-0.1-5.8c-0.1-0.7-0.3-2.6-2.7-2.6s-3.1,1.7-3.4,3.1c-0.3,1.5-0.3,3-0.3,9.1c0,5.3,0,5.8,0.5,7.2
		c-0.7-0.1-1.6-0.2-2.8-0.2c-1,0-1.7,0-2.5,0.2c0.3-0.7,0.5-1,0.5-3.3c0.1-2.3,0.2-13.4-0.1-16.1c-0.2-1.6-0.6-2-1.1-2.4
		c3.3-0.2,4.4-0.7,5.5-1.2v4.4c0.5-1.3,1.5-4.1,5.7-4.1c5.2,0,5.2,3.8,5.2,6.2V1000.2"/>
	
		<path style="opacity:0.8;clip-path:url(#SVGID_00000166670727002277533790000000281417107742496912_);fill:#FFFFFF;enable-background:new    ;" d="
		M971.2,975.4l-3.4,3.4l-3.4-3.4l3.4-3.4L971.2,975.4"/>
</g>
</svg>
