<?xml version="1.0" encoding="utf-8"?>
<!-- Generator: $$$/GeneralStr/196=Adobe Illustrator 27.6.0, SVG Export Plug-In . SVG Version: 6.00 Build 0)  -->
<svg version="1.1" id="Calque_1" xmlns="http://www.w3.org/2000/svg" xmlns:xlink="http://www.w3.org/1999/xlink" x="0px" y="0px"
	 viewBox="0 0 1600 1200" style="enable-background:new 0 0 1600 1200;" xml:space="preserve">
<style type="text/css">
	.st0{clip-path:url(#SVGID_00000158020837602555031250000005432927836329117360_);fill:#284D55;}
	
		.st1{clip-path:url(#SVGID_00000158020837602555031250000005432927836329117360_);fill:url(#SVGID_00000179643805479629284190000011011314304296163993_);}
	
		.st2{opacity:0.6;clip-path:url(#SVGID_00000158020837602555031250000005432927836329117360_);fill:url(#SVGID_00000145023907226862058920000016964725524834589070_);enable-background:new    ;}
	
		.st3{opacity:0.4;clip-path:url(#SVGID_00000158020837602555031250000005432927836329117360_);fill:url(#SVGID_00000168085949369911955290000013602845949960643504_);enable-background:new    ;}
	
		.st4{clip-path:url(#SVGID_00000158020837602555031250000005432927836329117360_);fill:url(#SVGID_00000086657824135792617450000002542917188913986434_);}
	
		.st5{clip-path:url(#SVGID_00000158020837602555031250000005432927836329117360_);fill:url(#SVGID_00000152262986288214754010000000973463994644930200_);}
	
		.st6{opacity:0.5;clip-path:url(#SVGID_00000158020837602555031250000005432927836329117360_);fill:url(#SVGID_00000106125238321774207880000017019103945212405635_);enable-background:new    ;}
	
		.st7{opacity:0.5;clip-path:url(#SVGID_00000158020837602555031250000005432927836329117360_);fill:url(#SVGID_00000031185429524637855480000013134491538114636223_);enable-background:new    ;}
	
		.st8{opacity:0.5;clip-path:url(#SVGID_00000158020837602555031250000005432927836329117360_);fill:url(#SVGID_00000132084376068111147320000009599342665671618995_);enable-background:new    ;}
	
		.st9{clip-path:url(#SVGID_00000158020837602555031250000005432927836329117360_);fill:url(#SVGID_00000145751186575454449200000012998803196292842422_);}
	
		.st10{opacity:0.5;clip-path:url(#SVGID_00000158020837602555031250000005432927836329117360_);fill:url(#SVGID_00000164484626618440365000000010736417823833857959_);enable-background:new    ;}
	
		.st11{opacity:0.5;clip-path:url(#SVGID_00000158020837602555031250000005432927836329117360_);fill:url(#SVGID_00000029760315100117151290000013405695162914469533_);enable-background:new    ;}
	
		.st12{opacity:0.5;clip-path:url(#SVGID_00000158020837602555031250000005432927836329117360_);fill:url(#SVGID_00000021079929469327776370000002286404803837048727_);enable-background:new    ;}
	
		.st13{opacity:0.5;clip-path:url(#SVGID_00000158020837602555031250000005432927836329117360_);fill:url(#SVGID_00000088816396357500827140000006261748475523475111_);enable-background:new    ;}
	
		.st14{opacity:0.5;clip-path:url(#SVGID_00000158020837602555031250000005432927836329117360_);fill:url(#SVGID_00000121270405593291211920000008944917752280877467_);enable-background:new    ;}
	
		.st15{clip-path:url(#SVGID_00000158020837602555031250000005432927836329117360_);fill:url(#SVGID_00000136411684129457698450000013408425346021687946_);}
	
		.st16{opacity:0.8;clip-path:url(#SVGID_00000158020837602555031250000005432927836329117360_);fill:#FFFFFF;enable-background:new    ;}
</style>
<g>
	<defs>
		<rect id="SVGID_1_" width="1600" height="1200"/>
	</defs>
	<clipPath id="SVGID_00000083806317803380142980000001584457809886947234_">
		<use xlink:href="#SVGID_1_"  style="overflow:visible;"/>
	</clipPath>
	
		<rect x="-160" style="clip-path:url(#SVGID_00000083806317803380142980000001584457809886947234_);fill:#284D55;" width="1920" height="1200"/>
	
		<linearGradient id="SVGID_00000008120193601427859030000013366549836564167578_" gradientUnits="userSpaceOnUse" x1="-171.05" y1="596.4249" x2="1764.7699" y2="596.4249" gradientTransform="matrix(1 0 0 -1 0 1200)">
		<stop  offset="0" style="stop-color:#2F7274"/>
		<stop  offset="0.5" style="stop-color:#69A8A8"/>
		<stop  offset="0.6" style="stop-color:#6CA9A8"/>
		<stop  offset="0.68" style="stop-color:#76ACA9"/>
		<stop  offset="0.76" style="stop-color:#88B2AA"/>
		<stop  offset="0.83" style="stop-color:#A0BBAC"/>
		<stop  offset="0.9" style="stop-color:#C0C6AE"/>
		<stop  offset="0.97" style="stop-color:#E7D3B1"/>
		<stop  offset="1" style="stop-color:#FCDBB3"/>
	</linearGradient>
	
		<rect x="-171.1" y="-5.6" style="clip-path:url(#SVGID_00000083806317803380142980000001584457809886947234_);fill:url(#SVGID_00000008120193601427859030000013366549836564167578_);" width="1935.8" height="1218.3"/>
	
		<linearGradient id="SVGID_00000159456181683116144450000010755724734409080234_" gradientUnits="userSpaceOnUse" x1="382.41" y1="-1875.5551" x2="740.64" y2="-1875.5551" gradientTransform="matrix(6.123234e-17 1 1 -6.123234e-17 2537.8301 382.13)">
		<stop  offset="0" style="stop-color:#F2D6B0"/>
		<stop  offset="1" style="stop-color:#FF8C8E;stop-opacity:0"/>
	</linearGradient>
	
		<rect x="546.6" y="764.5" style="opacity:0.6;clip-path:url(#SVGID_00000083806317803380142980000001584457809886947234_);fill:url(#SVGID_00000159456181683116144450000010755724734409080234_);enable-background:new    ;" width="231.3" height="358.2"/>
	
		<radialGradient id="SVGID_00000159456967252383323110000004579519414881243021_" cx="117.62" cy="162.67" r="425.86" gradientTransform="matrix(1 0 0 -1 0 1200)" gradientUnits="userSpaceOnUse">
		<stop  offset="0" style="stop-color:#A80030"/>
		<stop  offset="1" style="stop-color:#FF8C8E;stop-opacity:0"/>
	</radialGradient>
	
		<circle style="opacity:0.4;clip-path:url(#SVGID_00000083806317803380142980000001584457809886947234_);fill:url(#SVGID_00000159456967252383323110000004579519414881243021_);enable-background:new    ;" cx="117.6" cy="1037.3" r="425.9"/>
	
		<linearGradient id="SVGID_00000078740804238358755480000003427530515639327666_" gradientUnits="userSpaceOnUse" x1="3713.1099" y1="-2058.4299" x2="4392.6802" y2="-1378.86" gradientTransform="matrix(-1 0 0 1 5549.48 2507.3699)">
		<stop  offset="0" style="stop-color:#487C80;stop-opacity:0"/>
		<stop  offset="1" style="stop-color:#5EA498"/>
	</linearGradient>
	
		<rect x="1224.1" y="381.6" style="clip-path:url(#SVGID_00000083806317803380142980000001584457809886947234_);fill:url(#SVGID_00000078740804238358755480000003427530515639327666_);" width="545" height="814.2"/>
	
		<linearGradient id="SVGID_00000003806336707445142570000005422774002938613437_" gradientUnits="userSpaceOnUse" x1="794.55" y1="-1.3101" x2="794.55" y2="730.28" gradientTransform="matrix(1 0 0 -1 0 1200)">
		<stop  offset="0" style="stop-color:#F2D6B0"/>
		<stop  offset="1" style="stop-color:#FF8C8E;stop-opacity:0"/>
	</linearGradient>
	
		<rect x="669" y="469.7" style="clip-path:url(#SVGID_00000083806317803380142980000001584457809886947234_);fill:url(#SVGID_00000003806336707445142570000005422774002938613437_);" width="251.1" height="731.6"/>
	
		<linearGradient id="SVGID_00000182486777550646562290000000566460907194460081_" gradientUnits="userSpaceOnUse" x1="2316.3" y1="1346.9449" x2="2687.03" y2="1346.9449" gradientTransform="matrix(6.123234e-17 -1 -1 -6.123234e-17 1666.46 3533.9099)">
		<stop  offset="0" style="stop-color:#206F73;stop-opacity:0.8"/>
		<stop  offset="0.31" style="stop-color:#69A8A8"/>
		<stop  offset="0.37" style="stop-color:#6CA9A8"/>
		<stop  offset="0.43" style="stop-color:#76ACA9"/>
		<stop  offset="0.48" style="stop-color:#88B2AA"/>
		<stop  offset="0.53" style="stop-color:#A0BBAC"/>
		<stop  offset="0.58" style="stop-color:#C0C6AE"/>
		<stop  offset="0.6" style="stop-color:#D0CCB0"/>
		<stop  offset="1" style="stop-color:#FCDBB3;stop-opacity:0"/>
	</linearGradient>
	
		<rect x="264.3" y="846.9" style="opacity:0.5;clip-path:url(#SVGID_00000083806317803380142980000001584457809886947234_);fill:url(#SVGID_00000182486777550646562290000000566460907194460081_);enable-background:new    ;" width="110.4" height="370.7"/>
	
		<linearGradient id="SVGID_00000049938730504457322230000013144055427701667510_" gradientUnits="userSpaceOnUse" x1="3341.2837" y1="207.9025" x2="3704.4336" y2="207.9025" gradientTransform="matrix(6.735558e-17 -1.1 -0.41 -2.510526e-17 1281.4301 4862.8501)">
		<stop  offset="0" style="stop-color:#F2D6B0"/>
		<stop  offset="1" style="stop-color:#FF8C8E;stop-opacity:0"/>
	</linearGradient>
	
		<rect x="1058" y="796.1" style="opacity:0.5;clip-path:url(#SVGID_00000083806317803380142980000001584457809886947234_);fill:url(#SVGID_00000049938730504457322230000013144055427701667510_);enable-background:new    ;" width="276.4" height="398.2"/>
	
		<linearGradient id="SVGID_00000151534970827973080210000009283744905492621954_" gradientUnits="userSpaceOnUse" x1="3324.5137" y1="2713.0244" x2="3974.8335" y2="2713.0244" gradientTransform="matrix(6.735558e-17 -1.1 -0.41 -2.510526e-17 1281.4299 4862.8501)">
		<stop  offset="0" style="stop-color:#F2D6B0"/>
		<stop  offset="1" style="stop-color:#FF8C8E;stop-opacity:0"/>
	</linearGradient>
	
		<rect x="69.4" y="499.6" style="opacity:0.5;clip-path:url(#SVGID_00000083806317803380142980000001584457809886947234_);fill:url(#SVGID_00000151534970827973080210000009283744905492621954_);enable-background:new    ;" width="199.3" height="713.1"/>
	
		<radialGradient id="SVGID_00000016785413746994471020000014581264036115967620_" cx="1165.96" cy="101.52" r="734.5601" gradientTransform="matrix(1 0 0 -1 0 1200)" gradientUnits="userSpaceOnUse">
		<stop  offset="0" style="stop-color:#FCDBB3"/>
		<stop  offset="1" style="stop-color:#F2DAB8;stop-opacity:0"/>
	</radialGradient>
	
		<circle style="clip-path:url(#SVGID_00000083806317803380142980000001584457809886947234_);fill:url(#SVGID_00000016785413746994471020000014581264036115967620_);" cx="1166" cy="1098.5" r="734.6"/>
	
		<linearGradient id="SVGID_00000073687705540226059970000004920557413329115070_" gradientUnits="userSpaceOnUse" x1="-163.01" y1="113.465" x2="1283.0699" y2="113.465" gradientTransform="matrix(1 0 0 -1 0 1200)">
		<stop  offset="0" style="stop-color:#206F73"/>
		<stop  offset="0.31" style="stop-color:#69A8A8"/>
		<stop  offset="0.37" style="stop-color:#6CA9A8"/>
		<stop  offset="0.43" style="stop-color:#76ACA9"/>
		<stop  offset="0.48" style="stop-color:#88B2AA"/>
		<stop  offset="0.53" style="stop-color:#A0BBAC"/>
		<stop  offset="0.58" style="stop-color:#C0C6AE"/>
		<stop  offset="0.6" style="stop-color:#D0CCB0"/>
		<stop  offset="1" style="stop-color:#FCDBB3;stop-opacity:0"/>
	</linearGradient>
	
		<rect x="-163" y="971.7" style="opacity:0.5;clip-path:url(#SVGID_00000083806317803380142980000001584457809886947234_);fill:url(#SVGID_00000073687705540226059970000004920557413329115070_);enable-background:new    ;" width="1446.1" height="229.6"/>
	
		<linearGradient id="SVGID_00000083075642456632815680000001085119601548935359_" gradientUnits="userSpaceOnUse" x1="3323.8335" y1="3116.439" x2="3988.7434" y2="3116.439" gradientTransform="matrix(6.735558e-17 -1.1 -0.41 -2.510526e-17 1281.4301 4862.8501)">
		<stop  offset="0" style="stop-color:#F2D6B0"/>
		<stop  offset="1" style="stop-color:#FF8C8E;stop-opacity:0"/>
	</linearGradient>
	
		<rect x="-173.2" y="484.3" style="opacity:0.5;clip-path:url(#SVGID_00000083806317803380142980000001584457809886947234_);fill:url(#SVGID_00000083075642456632815680000001085119601548935359_);enable-background:new    ;" width="353.8" height="729.1"/>
	
		<linearGradient id="SVGID_00000125597156876164718110000017301678370600439197_" gradientUnits="userSpaceOnUse" x1="3333.3335" y1="1469.6952" x2="4117.2437" y2="1469.6952" gradientTransform="matrix(6.735558e-17 -1.1 -0.41 -2.510526e-17 1281.4401 4862.8501)">
		<stop  offset="0" style="stop-color:#F2D6B0"/>
		<stop  offset="1" style="stop-color:#FF8C8E;stop-opacity:0"/>
	</linearGradient>
	
		<rect x="649" y="343.4" style="opacity:0.5;clip-path:url(#SVGID_00000083806317803380142980000001584457809886947234_);fill:url(#SVGID_00000125597156876164718110000017301678370600439197_);enable-background:new    ;" width="59.7" height="859.6"/>
	
		<linearGradient id="SVGID_00000099627303593214193780000014233393160519582632_" gradientUnits="userSpaceOnUse" x1="3336.0337" y1="3044.7927" x2="3767.5935" y2="3044.7927" gradientTransform="matrix(6.735558e-17 -1.1 -0.41 -2.510526e-17 1281.4401 4862.8501)">
		<stop  offset="0" style="stop-color:#F2D6B0"/>
		<stop  offset="1" style="stop-color:#FF8C8E;stop-opacity:0"/>
	</linearGradient>
	
		<rect x="-58" y="726.9" style="opacity:0.5;clip-path:url(#SVGID_00000083806317803380142980000001584457809886947234_);fill:url(#SVGID_00000099627303593214193780000014233393160519582632_);enable-background:new    ;" width="182.1" height="473.2"/>
	
		<linearGradient id="SVGID_00000136370487645337596380000012118932154309272724_" gradientUnits="userSpaceOnUse" x1="3342.0835" y1="-356.8416" x2="4064.3535" y2="-356.8416" gradientTransform="matrix(6.735558e-17 -1.1 -0.41 -2.510526e-17 1281.4399 4862.8501)">
		<stop  offset="0" style="stop-color:#F2D6B0"/>
		<stop  offset="1" style="stop-color:#FF8C8E;stop-opacity:0"/>
	</linearGradient>
	
		<rect x="1185.6" y="401.4" style="opacity:0.5;clip-path:url(#SVGID_00000083806317803380142980000001584457809886947234_);fill:url(#SVGID_00000136370487645337596380000012118932154309272724_);enable-background:new    ;" width="484.4" height="792"/>
	
		<radialGradient id="SVGID_00000036239488899867184790000013389634841772874670_" cx="786.79" cy="583.49" r="691.56" gradientTransform="matrix(1 0 0 -1 0 1200)" gradientUnits="userSpaceOnUse">
		<stop  offset="0" style="stop-color:#009696"/>
		<stop  offset="1" style="stop-color:#497E81;stop-opacity:0"/>
	</radialGradient>
	
		<circle style="clip-path:url(#SVGID_00000083806317803380142980000001584457809886947234_);fill:url(#SVGID_00000036239488899867184790000013389634841772874670_);" cx="786.8" cy="616.5" r="691.6"/>
	
		<path style="opacity:0.8;clip-path:url(#SVGID_00000083806317803380142980000001584457809886947234_);fill:#FFFFFF;enable-background:new    ;" d="
		M763.5,1047.9c0,0,0,6.7-0.1,8.4c-0.1,1.4-0.2,4.4-3.2,4.4s-3.8-3.5-4-5c-0.3-1.7-0.3-3.1-0.3-3.7c0-2,0.1-7.5,4.8-7.5
		c1.4,0,2.2,0.4,2.8,0.7L763.5,1047.9L763.5,1047.9z M751.5,1052.8c0,11.7,6.2,11.7,7.1,11.7c2.6,0,4.2-1.4,4.9-3.8l0.1,3.7
		c0.8,0,1.6-0.1,2.8-0.1c0.5,0,0.8,0,1.2,0c0.3,0,0.7,0,1,0.1c-0.7-1.3-1.2-4.3-1.2-10.8s0-16.9,0.5-20.1c-1.5,0.7-2.8,1.2-5.6,1.4
		c1.1,1.2,1.1,1.8,1.1,7.3c-0.8-0.2-1.8-0.5-3.5-0.5C752.7,1041.5,751.5,1048,751.5,1052.8"/>
	
		<path style="opacity:0.8;clip-path:url(#SVGID_00000083806317803380142980000001584457809886947234_);fill:#FFFFFF;enable-background:new    ;" d="
		M773.9,1050.7c0-3.4,0.8-6.5,3.7-6.5c3.2,0,3.5,3.6,3.4,6.5H773.9z M785.1,1051.1c0-4.8-1-9.6-7.1-9.6c-8.4,0-8.4,9.3-8.4,11.3
		c0,8.4,3.8,11.7,10.1,11.7c2.8,0,4.2-0.4,4.9-0.6c0-1.5,0.2-2.4,0.4-3.7c-0.9,0.5-2,1.2-4.5,1.2c-6.5,0-6.5-5.9-6.5-7.9h11
		L785.1,1051.1"/>
	
		<path style="opacity:0.8;clip-path:url(#SVGID_00000083806317803380142980000001584457809886947234_);fill:#FFFFFF;enable-background:new    ;" d="
		M798.5,1052.9c0,3.8-0.7,9-5.5,9c-0.7,0-1.5-0.1-2-0.2c-0.1-1.5-0.1-4.1-0.1-7c0-3.6,0.4-5.4,0.7-6.3c0.9-2.9,2.8-3,3.2-3
		C797.9,1045.3,798.5,1049.6,798.5,1052.9L798.5,1052.9z M786.6,1057.4c0,3.1,0,4.8-0.5,6.1c1.7,0.7,3.8,1,6.3,1
		c1.6,0,6.3,0,8.8-5.2c1.2-2.4,1.6-5.6,1.6-8.1c0-1.5-0.2-4.8-1.4-6.8c-1.2-1.9-3-2.9-5-2.9c-4,0-5.1,3.3-5.8,5
		c0-2.1,0-9.5,0.4-13.2c-2.7,1.2-4.3,1.4-6.1,1.6c1.6,0.7,1.6,3.4,1.6,12.3V1057.4"/>
	
		<path style="opacity:0.8;clip-path:url(#SVGID_00000083806317803380142980000001584457809886947234_);fill:#FFFFFF;enable-background:new    ;" d="
		M810.8,1064.3c-0.8-0.1-1.4-0.2-2.6-0.2c-1.3,0-2.2,0.1-3.2,0.2c0.4-0.8,0.6-1.2,0.7-3.8c0.2-3.7,0.2-13.5-0.1-15.6
		c-0.2-1.6-0.6-1.8-1.2-2.2c3.4-0.3,4.3-0.6,5.9-1.3c-0.3,1.8-0.4,2.7-0.4,5.5C810,1061.1,809.9,1062.6,810.8,1064.3"/>
	
		<path style="opacity:0.8;clip-path:url(#SVGID_00000083806317803380142980000001584457809886947234_);fill:#FFFFFF;enable-background:new    ;" d="
		M824.1,1052.6c-0.1,2.6-0.1,4.4-0.8,5.9c-0.9,1.9-2.3,2.4-3.4,2.4c-2.5,0-3-2.1-3-4.1c0-3.9,3.5-4.2,5-4.2H824.1L824.1,1052.6z
		 M812.7,1057.7c0,2.6,0.8,5.2,3.1,6.3c1,0.5,2.1,0.5,2.4,0.5c3.8,0,5.1-2.8,5.9-4.6c0,1.8,0,2.9,0.1,4.4c0.7,0,1.5-0.1,2.7-0.1
		c0.7,0,1.4,0.1,2.1,0.1c-0.5-0.7-0.7-1.1-0.8-2.7c-0.1-1.6-0.1-3.1-0.1-5.3l0-8.4c0-3.1-0.8-6.2-7-6.2c-4.1,0-6.5,1.2-7.7,1.9
		c0.5,0.9,0.9,1.7,1.3,3.5c1.6-1.4,3.7-2.2,5.9-2.2c3.4,0,3.4,2.3,3.4,5.5c-0.8,0-1.5-0.1-2.6-0.1
		C816.2,1050.1,812.7,1052.1,812.7,1057.7"/>
	
		<path style="opacity:0.8;clip-path:url(#SVGID_00000083806317803380142980000001584457809886947234_);fill:#FFFFFF;enable-background:new    ;" d="
		M847.9,1060.2c0,1.4,0,2.9,0.6,4.1c-0.9-0.1-1.5-0.2-3.1-0.2c-1,0-1.5,0.1-2.3,0.2c0.2-0.5,0.2-0.7,0.3-1.4
		c0.1-0.9,0.2-4.1,0.2-5.2v-4.5c0-1.9,0-4.8-0.1-5.8c-0.1-0.7-0.3-2.6-2.7-2.6s-3.1,1.7-3.4,3.1c-0.3,1.4-0.3,3-0.3,9.1
		c0,5.3,0,5.8,0.5,7.2c-0.7-0.1-1.6-0.2-2.8-0.2c-1,0-1.7,0-2.5,0.2c0.3-0.7,0.5-1,0.5-3.3c0.1-2.3,0.2-13.4-0.1-16.1
		c-0.2-1.6-0.6-2-1.1-2.4c3.3-0.2,4.4-0.7,5.5-1.2v4.4c0.5-1.3,1.5-4.1,5.7-4.1c5.2,0,5.2,3.8,5.2,6.2V1060.2"/>
	
		<path style="opacity:0.8;clip-path:url(#SVGID_00000083806317803380142980000001584457809886947234_);fill:#FFFFFF;enable-background:new    ;" d="
		M811.2,1035.4l-3.4,3.4l-3.4-3.4l3.4-3.4L811.2,1035.4"/>
</g>
</svg>
