<?xml version="1.0" encoding="utf-8"?>
<!-- Generator: $$$/GeneralStr/196=Adobe Illustrator 27.6.0, SVG Export Plug-In . SVG Version: 6.00 Build 0)  -->
<svg version="1.1" id="Calque_1" xmlns="http://www.w3.org/2000/svg" xmlns:xlink="http://www.w3.org/1999/xlink" x="0px" y="0px"
	 viewBox="0 0 1920 1200" style="enable-background:new 0 0 1920 1200;" xml:space="preserve">
<style type="text/css">
	.st0{clip-path:url(#SVGID_00000070102791688152693400000017517952283359696796_);fill:#284D55;}
	
		.st1{clip-path:url(#SVGID_00000070102791688152693400000017517952283359696796_);fill:url(#SVGID_00000074414536243170286340000014010723481081998259_);}
	
		.st2{opacity:0.6;clip-path:url(#SVGID_00000070102791688152693400000017517952283359696796_);fill:url(#SVGID_00000042718604961302148210000008399140777438302614_);enable-background:new    ;}
	
		.st3{opacity:0.4;clip-path:url(#SVGID_00000070102791688152693400000017517952283359696796_);fill:url(#SVGID_00000085210279399089163150000006264870915278294677_);enable-background:new    ;}
	
		.st4{clip-path:url(#SVGID_00000070102791688152693400000017517952283359696796_);fill:url(#SVGID_00000127027187784307077710000012014405569601474963_);}
	
		.st5{clip-path:url(#SVGID_00000070102791688152693400000017517952283359696796_);fill:url(#SVGID_00000109714524049815787800000013295130029309464211_);}
	
		.st6{opacity:0.5;clip-path:url(#SVGID_00000070102791688152693400000017517952283359696796_);fill:url(#SVGID_00000047049164031207757370000000072350243784658080_);enable-background:new    ;}
	
		.st7{opacity:0.5;clip-path:url(#SVGID_00000070102791688152693400000017517952283359696796_);fill:url(#SVGID_00000005250496754096906370000004960995356861670314_);enable-background:new    ;}
	
		.st8{opacity:0.5;clip-path:url(#SVGID_00000070102791688152693400000017517952283359696796_);fill:url(#SVGID_00000183968059747209728450000006603807789190309257_);enable-background:new    ;}
	
		.st9{clip-path:url(#SVGID_00000070102791688152693400000017517952283359696796_);fill:url(#SVGID_00000034054234539433316220000000807569821713459120_);}
	
		.st10{opacity:0.5;clip-path:url(#SVGID_00000070102791688152693400000017517952283359696796_);fill:url(#SVGID_00000127025163040626733170000015186328412164851338_);enable-background:new    ;}
	
		.st11{opacity:0.5;clip-path:url(#SVGID_00000070102791688152693400000017517952283359696796_);fill:url(#SVGID_00000111900482581030450150000015771590047795769754_);enable-background:new    ;}
	
		.st12{opacity:0.5;clip-path:url(#SVGID_00000070102791688152693400000017517952283359696796_);fill:url(#SVGID_00000152985174850596697330000002480127926616452243_);enable-background:new    ;}
	
		.st13{opacity:0.5;clip-path:url(#SVGID_00000070102791688152693400000017517952283359696796_);fill:url(#SVGID_00000170269027348512669300000004789648259021338776_);enable-background:new    ;}
	
		.st14{opacity:0.5;clip-path:url(#SVGID_00000070102791688152693400000017517952283359696796_);fill:url(#SVGID_00000153673094278495447020000007305597472459488926_);enable-background:new    ;}
	
		.st15{clip-path:url(#SVGID_00000070102791688152693400000017517952283359696796_);fill:url(#SVGID_00000161608434141740821010000004839019550491902887_);}
	
		.st16{opacity:0.8;clip-path:url(#SVGID_00000070102791688152693400000017517952283359696796_);fill:#FFFFFF;enable-background:new    ;}
</style>
<g>
	<defs>
		<rect id="SVGID_1_" width="1920" height="1200"/>
	</defs>
	<clipPath id="SVGID_00000101822515974939000980000009310920280444927370_">
		<use xlink:href="#SVGID_1_"  style="overflow:visible;"/>
	</clipPath>
	
		<rect style="clip-path:url(#SVGID_00000101822515974939000980000009310920280444927370_);fill:#284D55;" width="1920" height="1200"/>
	
		<linearGradient id="SVGID_00000142869964288243743640000008891406785294679436_" gradientUnits="userSpaceOnUse" x1="-11.05" y1="596.4249" x2="1924.7699" y2="596.4249" gradientTransform="matrix(1 0 0 -1 0 1200)">
		<stop  offset="0" style="stop-color:#2F7274"/>
		<stop  offset="0.5" style="stop-color:#69A8A8"/>
		<stop  offset="0.6" style="stop-color:#6CA9A8"/>
		<stop  offset="0.68" style="stop-color:#76ACA9"/>
		<stop  offset="0.76" style="stop-color:#88B2AA"/>
		<stop  offset="0.83" style="stop-color:#A0BBAC"/>
		<stop  offset="0.9" style="stop-color:#C0C6AE"/>
		<stop  offset="0.97" style="stop-color:#E7D3B1"/>
		<stop  offset="1" style="stop-color:#FCDBB3"/>
	</linearGradient>
	
		<rect x="-11.1" y="-5.6" style="clip-path:url(#SVGID_00000101822515974939000980000009310920280444927370_);fill:url(#SVGID_00000142869964288243743640000008891406785294679436_);" width="1935.8" height="1218.3"/>
	
		<linearGradient id="SVGID_00000140001652473240264100000002964787082426214570_" gradientUnits="userSpaceOnUse" x1="702.41" y1="-2035.5551" x2="1060.64" y2="-2035.5551" gradientTransform="matrix(6.123234e-17 1 1 -6.123234e-17 2857.8301 62.13)">
		<stop  offset="0" style="stop-color:#F2D6B0"/>
		<stop  offset="1" style="stop-color:#FF8C8E;stop-opacity:0"/>
	</linearGradient>
	
		<rect x="706.6" y="764.5" style="opacity:0.6;clip-path:url(#SVGID_00000101822515974939000980000009310920280444927370_);fill:url(#SVGID_00000140001652473240264100000002964787082426214570_);enable-background:new    ;" width="231.3" height="358.2"/>
	
		<radialGradient id="SVGID_00000125594896074627236400000006330772240461160849_" cx="277.62" cy="162.67" r="425.86" gradientTransform="matrix(1 0 0 -1 0 1200)" gradientUnits="userSpaceOnUse">
		<stop  offset="0" style="stop-color:#A80030"/>
		<stop  offset="1" style="stop-color:#FF8C8E;stop-opacity:0"/>
	</radialGradient>
	
		<circle style="opacity:0.4;clip-path:url(#SVGID_00000101822515974939000980000009310920280444927370_);fill:url(#SVGID_00000125594896074627236400000006330772240461160849_);enable-background:new    ;" cx="277.6" cy="1037.3" r="425.9"/>
	
		<linearGradient id="SVGID_00000042014004221123519780000006194495731878260109_" gradientUnits="userSpaceOnUse" x1="4193.1099" y1="-2058.4299" x2="4872.6802" y2="-1378.86" gradientTransform="matrix(-1 0 0 1 6189.48 2507.3699)">
		<stop  offset="0" style="stop-color:#487C80;stop-opacity:0"/>
		<stop  offset="1" style="stop-color:#5EA498"/>
	</linearGradient>
	
		<rect x="1384.1" y="381.6" style="clip-path:url(#SVGID_00000101822515974939000980000009310920280444927370_);fill:url(#SVGID_00000042014004221123519780000006194495731878260109_);" width="545" height="814.2"/>
	
		<linearGradient id="SVGID_00000078020636614790004860000001195693965840256187_" gradientUnits="userSpaceOnUse" x1="954.55" y1="-1.3101" x2="954.55" y2="730.28" gradientTransform="matrix(1 0 0 -1 0 1200)">
		<stop  offset="0" style="stop-color:#F2D6B0"/>
		<stop  offset="1" style="stop-color:#FF8C8E;stop-opacity:0"/>
	</linearGradient>
	
		<rect x="829" y="469.7" style="clip-path:url(#SVGID_00000101822515974939000980000009310920280444927370_);fill:url(#SVGID_00000078020636614790004860000001195693965840256187_);" width="251.1" height="731.6"/>
	
		<linearGradient id="SVGID_00000130622342680703396420000013501550170745351053_" gradientUnits="userSpaceOnUse" x1="2636.3" y1="1506.9449" x2="3007.03" y2="1506.9449" gradientTransform="matrix(6.123234e-17 -1 -1 -6.123234e-17 1986.46 3853.9099)">
		<stop  offset="0" style="stop-color:#206F73;stop-opacity:0.8"/>
		<stop  offset="0.31" style="stop-color:#69A8A8"/>
		<stop  offset="0.37" style="stop-color:#6CA9A8"/>
		<stop  offset="0.43" style="stop-color:#76ACA9"/>
		<stop  offset="0.48" style="stop-color:#88B2AA"/>
		<stop  offset="0.53" style="stop-color:#A0BBAC"/>
		<stop  offset="0.58" style="stop-color:#C0C6AE"/>
		<stop  offset="0.6" style="stop-color:#D0CCB0"/>
		<stop  offset="1" style="stop-color:#FCDBB3;stop-opacity:0"/>
	</linearGradient>
	
		<rect x="424.3" y="846.9" style="opacity:0.5;clip-path:url(#SVGID_00000101822515974939000980000009310920280444927370_);fill:url(#SVGID_00000130622342680703396420000013501550170745351053_);enable-background:new    ;" width="110.4" height="370.7"/>
	
		<linearGradient id="SVGID_00000024695816583916938630000018218305090591759295_" gradientUnits="userSpaceOnUse" x1="3661.2834" y1="598.1464" x2="4024.4336" y2="598.1464" gradientTransform="matrix(6.735558e-17 -1.1 -0.41 -2.510526e-17 1601.4301 5214.2998)">
		<stop  offset="0" style="stop-color:#F2D6B0"/>
		<stop  offset="1" style="stop-color:#FF8C8E;stop-opacity:0"/>
	</linearGradient>
	
		<rect x="1218" y="796.1" style="opacity:0.5;clip-path:url(#SVGID_00000101822515974939000980000009310920280444927370_);fill:url(#SVGID_00000024695816583916938630000018218305090591759295_);enable-background:new    ;" width="276.4" height="398.2"/>
	
		<linearGradient id="SVGID_00000089566383137760156020000011916639089045373337_" gradientUnits="userSpaceOnUse" x1="3644.5134" y1="3103.2683" x2="4294.8335" y2="3103.2683" gradientTransform="matrix(6.735558e-17 -1.1 -0.41 -2.510526e-17 1601.4299 5214.3003)">
		<stop  offset="0" style="stop-color:#F2D6B0"/>
		<stop  offset="1" style="stop-color:#FF8C8E;stop-opacity:0"/>
	</linearGradient>
	
		<rect x="229.4" y="499.6" style="opacity:0.5;clip-path:url(#SVGID_00000101822515974939000980000009310920280444927370_);fill:url(#SVGID_00000089566383137760156020000011916639089045373337_);enable-background:new    ;" width="199.3" height="713.1"/>
	
		<radialGradient id="SVGID_00000007419202034342026760000000533978854790371985_" cx="1325.96" cy="101.52" r="734.5601" gradientTransform="matrix(1 0 0 -1 0 1200)" gradientUnits="userSpaceOnUse">
		<stop  offset="0" style="stop-color:#FCDBB3"/>
		<stop  offset="1" style="stop-color:#F2DAB8;stop-opacity:0"/>
	</radialGradient>
	
		<circle style="clip-path:url(#SVGID_00000101822515974939000980000009310920280444927370_);fill:url(#SVGID_00000007419202034342026760000000533978854790371985_);" cx="1326" cy="1098.5" r="734.6"/>
	
		<linearGradient id="SVGID_00000042008032187185329140000000063605067726203532_" gradientUnits="userSpaceOnUse" x1="-3.01" y1="113.465" x2="1443.0699" y2="113.465" gradientTransform="matrix(1 0 0 -1 0 1200)">
		<stop  offset="0" style="stop-color:#206F73"/>
		<stop  offset="0.31" style="stop-color:#69A8A8"/>
		<stop  offset="0.37" style="stop-color:#6CA9A8"/>
		<stop  offset="0.43" style="stop-color:#76ACA9"/>
		<stop  offset="0.48" style="stop-color:#88B2AA"/>
		<stop  offset="0.53" style="stop-color:#A0BBAC"/>
		<stop  offset="0.58" style="stop-color:#C0C6AE"/>
		<stop  offset="0.6" style="stop-color:#D0CCB0"/>
		<stop  offset="1" style="stop-color:#FCDBB3;stop-opacity:0"/>
	</linearGradient>
	
		<rect x="-3" y="971.7" style="opacity:0.5;clip-path:url(#SVGID_00000101822515974939000980000009310920280444927370_);fill:url(#SVGID_00000042008032187185329140000000063605067726203532_);enable-background:new    ;" width="1446.1" height="229.6"/>
	
		<linearGradient id="SVGID_00000066479678626442790890000008780393708557719730_" gradientUnits="userSpaceOnUse" x1="3643.8335" y1="3506.6831" x2="4308.7437" y2="3506.6831" gradientTransform="matrix(6.735558e-17 -1.1 -0.41 -2.510526e-17 1601.4301 5214.2998)">
		<stop  offset="0" style="stop-color:#F2D6B0"/>
		<stop  offset="1" style="stop-color:#FF8C8E;stop-opacity:0"/>
	</linearGradient>
	
		<rect x="-13.2" y="484.3" style="opacity:0.5;clip-path:url(#SVGID_00000101822515974939000980000009310920280444927370_);fill:url(#SVGID_00000066479678626442790890000008780393708557719730_);enable-background:new    ;" width="353.8" height="729.1"/>
	
		<linearGradient id="SVGID_00000026844640449971073790000012918478886501239198_" gradientUnits="userSpaceOnUse" x1="3653.3335" y1="1859.9391" x2="4437.2437" y2="1859.9391" gradientTransform="matrix(6.735558e-17 -1.1 -0.41 -2.510526e-17 1601.4401 5214.3003)">
		<stop  offset="0" style="stop-color:#F2D6B0"/>
		<stop  offset="1" style="stop-color:#FF8C8E;stop-opacity:0"/>
	</linearGradient>
	
		<rect x="809" y="343.5" style="opacity:0.5;clip-path:url(#SVGID_00000101822515974939000980000009310920280444927370_);fill:url(#SVGID_00000026844640449971073790000012918478886501239198_);enable-background:new    ;" width="59.7" height="859.6"/>
	
		<linearGradient id="SVGID_00000005969786599837709840000017609901467630106028_" gradientUnits="userSpaceOnUse" x1="3656.0334" y1="3435.0366" x2="4087.5935" y2="3435.0366" gradientTransform="matrix(6.735558e-17 -1.1 -0.41 -2.510526e-17 1601.4401 5214.3003)">
		<stop  offset="0" style="stop-color:#F2D6B0"/>
		<stop  offset="1" style="stop-color:#FF8C8E;stop-opacity:0"/>
	</linearGradient>
	
		<rect x="102" y="726.9" style="opacity:0.5;clip-path:url(#SVGID_00000101822515974939000980000009310920280444927370_);fill:url(#SVGID_00000005969786599837709840000017609901467630106028_);enable-background:new    ;" width="182.1" height="473.2"/>
	
		<linearGradient id="SVGID_00000124124888312056878170000001549243868563287174_" gradientUnits="userSpaceOnUse" x1="3662.0835" y1="33.4024" x2="4384.3535" y2="33.4024" gradientTransform="matrix(6.735558e-17 -1.1 -0.41 -2.510526e-17 1601.4399 5214.2998)">
		<stop  offset="0" style="stop-color:#F2D6B0"/>
		<stop  offset="1" style="stop-color:#FF8C8E;stop-opacity:0"/>
	</linearGradient>
	
		<rect x="1345.6" y="401.4" style="opacity:0.5;clip-path:url(#SVGID_00000101822515974939000980000009310920280444927370_);fill:url(#SVGID_00000124124888312056878170000001549243868563287174_);enable-background:new    ;" width="484.4" height="792"/>
	
		<radialGradient id="SVGID_00000003793271524072501240000014992027034148072585_" cx="946.79" cy="583.49" r="691.56" gradientTransform="matrix(1 0 0 -1 0 1200)" gradientUnits="userSpaceOnUse">
		<stop  offset="0" style="stop-color:#009696"/>
		<stop  offset="1" style="stop-color:#497E81;stop-opacity:0"/>
	</radialGradient>
	
		<circle style="clip-path:url(#SVGID_00000101822515974939000980000009310920280444927370_);fill:url(#SVGID_00000003793271524072501240000014992027034148072585_);" cx="946.8" cy="616.5" r="691.6"/>
	
		<path style="opacity:0.8;clip-path:url(#SVGID_00000101822515974939000980000009310920280444927370_);fill:#FFFFFF;enable-background:new    ;" d="
		M923.5,1047.9c0,0,0,6.7-0.1,8.4c-0.1,1.4-0.2,4.4-3.2,4.4s-3.8-3.5-4-5c-0.3-1.7-0.3-3.1-0.3-3.7c0-2,0.1-7.5,4.8-7.5
		c1.4,0,2.2,0.4,2.8,0.7L923.5,1047.9L923.5,1047.9z M911.5,1052.8c0,11.7,6.2,11.7,7.1,11.7c2.6,0,4.2-1.4,4.9-3.8l0.1,3.7
		c0.8,0,1.6-0.1,2.8-0.1c0.5,0,0.8,0,1.2,0c0.3,0,0.7,0,1,0.1c-0.7-1.3-1.2-4.3-1.2-10.8s0-16.9,0.5-20.1c-1.5,0.7-2.8,1.2-5.6,1.4
		c1.1,1.2,1.1,1.8,1.1,7.3c-0.8-0.2-1.8-0.5-3.5-0.5C912.7,1041.5,911.5,1048,911.5,1052.8"/>
	
		<path style="opacity:0.8;clip-path:url(#SVGID_00000101822515974939000980000009310920280444927370_);fill:#FFFFFF;enable-background:new    ;" d="
		M933.9,1050.7c0-3.4,0.8-6.5,3.7-6.5c3.2,0,3.5,3.6,3.4,6.5H933.9z M945.1,1051.1c0-4.8-1-9.6-7.1-9.6c-8.4,0-8.4,9.3-8.4,11.3
		c0,8.4,3.8,11.7,10.1,11.7c2.8,0,4.2-0.4,4.9-0.6c0-1.5,0.2-2.4,0.4-3.7c-0.9,0.5-2,1.2-4.5,1.2c-6.5,0-6.5-5.9-6.5-7.9h11
		L945.1,1051.1"/>
	
		<path style="opacity:0.8;clip-path:url(#SVGID_00000101822515974939000980000009310920280444927370_);fill:#FFFFFF;enable-background:new    ;" d="
		M958.5,1052.9c0,3.8-0.7,9-5.5,9c-0.7,0-1.5-0.1-2-0.2c-0.1-1.5-0.1-4.1-0.1-7c0-3.6,0.4-5.4,0.7-6.3c0.9-2.9,2.8-3,3.2-3
		C957.9,1045.3,958.5,1049.6,958.5,1052.9L958.5,1052.9z M946.6,1057.4c0,3.1,0,4.8-0.5,6.1c1.7,0.7,3.8,1,6.3,1
		c1.6,0,6.3,0,8.8-5.2c1.2-2.4,1.6-5.6,1.6-8.1c0-1.5-0.2-4.8-1.4-6.8c-1.2-1.9-3-2.9-5-2.9c-4,0-5.1,3.3-5.8,5
		c0-2.1,0-9.5,0.4-13.2c-2.7,1.2-4.3,1.4-6.1,1.6c1.6,0.7,1.6,3.4,1.6,12.3V1057.4"/>
	
		<path style="opacity:0.8;clip-path:url(#SVGID_00000101822515974939000980000009310920280444927370_);fill:#FFFFFF;enable-background:new    ;" d="
		M970.8,1064.3c-0.8-0.1-1.4-0.2-2.6-0.2c-1.3,0-2.2,0.1-3.2,0.2c0.4-0.8,0.6-1.2,0.7-3.8c0.2-3.7,0.2-13.5-0.1-15.6
		c-0.2-1.6-0.6-1.8-1.2-2.2c3.4-0.3,4.3-0.6,5.9-1.3c-0.3,1.8-0.4,2.7-0.4,5.5C970,1061.1,969.9,1062.6,970.8,1064.3"/>
	
		<path style="opacity:0.8;clip-path:url(#SVGID_00000101822515974939000980000009310920280444927370_);fill:#FFFFFF;enable-background:new    ;" d="
		M984.1,1052.6c-0.1,2.6-0.1,4.4-0.8,5.9c-0.9,1.9-2.3,2.4-3.4,2.4c-2.5,0-3-2.1-3-4.1c0-3.9,3.5-4.2,5-4.2H984.1L984.1,1052.6z
		 M972.7,1057.7c0,2.6,0.8,5.2,3.1,6.3c1,0.5,2.1,0.5,2.4,0.5c3.8,0,5.1-2.8,5.9-4.6c0,1.8,0,2.9,0.1,4.4c0.7,0,1.5-0.1,2.7-0.1
		c0.7,0,1.4,0.1,2.1,0.1c-0.5-0.7-0.7-1.1-0.8-2.7c-0.1-1.6-0.1-3.1-0.1-5.3l0-8.4c0-3.1-0.8-6.2-7-6.2c-4.1,0-6.5,1.2-7.7,1.9
		c0.5,0.9,0.9,1.7,1.3,3.5c1.6-1.4,3.7-2.2,5.9-2.2c3.4,0,3.4,2.3,3.4,5.5c-0.8,0-1.5-0.1-2.6-0.1
		C976.2,1050.1,972.7,1052.1,972.7,1057.7"/>
	
		<path style="opacity:0.8;clip-path:url(#SVGID_00000101822515974939000980000009310920280444927370_);fill:#FFFFFF;enable-background:new    ;" d="
		M1007.9,1060.2c0,1.4,0,2.9,0.6,4.1c-0.9-0.1-1.5-0.2-3.1-0.2c-1,0-1.5,0.1-2.3,0.2c0.2-0.5,0.2-0.7,0.3-1.4
		c0.1-0.9,0.2-4.1,0.2-5.2v-4.5c0-1.9,0-4.8-0.1-5.8c-0.1-0.7-0.3-2.6-2.7-2.6s-3.1,1.7-3.4,3.1c-0.3,1.4-0.3,3-0.3,9.1
		c0,5.3,0,5.8,0.5,7.2c-0.7-0.1-1.6-0.2-2.8-0.2c-1,0-1.7,0-2.5,0.2c0.3-0.7,0.5-1,0.5-3.3c0.1-2.3,0.2-13.4-0.1-16.1
		c-0.2-1.6-0.6-2-1.1-2.4c3.3-0.2,4.4-0.7,5.5-1.2v4.4c0.5-1.3,1.5-4.1,5.7-4.1c5.2,0,5.2,3.8,5.2,6.2V1060.2"/>
	
		<path style="opacity:0.8;clip-path:url(#SVGID_00000101822515974939000980000009310920280444927370_);fill:#FFFFFF;enable-background:new    ;" d="
		M971.2,1035.4l-3.4,3.4l-3.4-3.4l3.4-3.4L971.2,1035.4"/>
</g>
</svg>
