<?xml version="1.0" encoding="utf-8"?>
<!-- Generator: $$$/GeneralStr/196=Adobe Illustrator 27.6.0, SVG Export Plug-In . SVG Version: 6.00 Build 0)  -->
<svg version="1.1" id="Calque_1" xmlns="http://www.w3.org/2000/svg" xmlns:xlink="http://www.w3.org/1999/xlink" x="0px" y="0px"
	 viewBox="0 0 1280 1024" style="enable-background:new 0 0 1280 1024;" xml:space="preserve">
<style type="text/css">
	.st0{clip-path:url(#SVGID_00000048467833759285102650000011883119965843173054_);fill:#284D55;}
	
		.st1{clip-path:url(#SVGID_00000048467833759285102650000011883119965843173054_);fill:url(#SVGID_00000118396352495439287930000015286690094077078970_);}
	
		.st2{opacity:0.6;clip-path:url(#SVGID_00000048467833759285102650000011883119965843173054_);fill:url(#SVGID_00000124883313024006047200000015410483762686915719_);enable-background:new    ;}
	
		.st3{opacity:0.4;clip-path:url(#SVGID_00000048467833759285102650000011883119965843173054_);fill:url(#SVGID_00000096766283409925883250000006840078517871260603_);enable-background:new    ;}
	
		.st4{clip-path:url(#SVGID_00000048467833759285102650000011883119965843173054_);fill:url(#SVGID_00000103247268385809420900000003290889955053736607_);}
	
		.st5{clip-path:url(#SVGID_00000048467833759285102650000011883119965843173054_);fill:url(#SVGID_00000062183964887983023600000008781680592600126096_);}
	
		.st6{opacity:0.5;clip-path:url(#SVGID_00000048467833759285102650000011883119965843173054_);fill:url(#SVGID_00000176022301999022553730000009250190971428364417_);enable-background:new    ;}
	
		.st7{opacity:0.5;clip-path:url(#SVGID_00000048467833759285102650000011883119965843173054_);fill:url(#SVGID_00000039094206416671611550000016335507319379918235_);enable-background:new    ;}
	
		.st8{opacity:0.5;clip-path:url(#SVGID_00000048467833759285102650000011883119965843173054_);fill:url(#SVGID_00000078037503255705031300000017254563339539088012_);enable-background:new    ;}
	
		.st9{clip-path:url(#SVGID_00000048467833759285102650000011883119965843173054_);fill:url(#SVGID_00000034084023678490680780000014001909452440959884_);}
	
		.st10{opacity:0.5;clip-path:url(#SVGID_00000048467833759285102650000011883119965843173054_);fill:url(#SVGID_00000155856470359694601040000003410077761441422258_);enable-background:new    ;}
	
		.st11{opacity:0.5;clip-path:url(#SVGID_00000048467833759285102650000011883119965843173054_);fill:url(#SVGID_00000106839234889577641890000017840742167005510540_);enable-background:new    ;}
	
		.st12{opacity:0.5;clip-path:url(#SVGID_00000048467833759285102650000011883119965843173054_);fill:url(#SVGID_00000070095388892790056390000013821360547028487612_);enable-background:new    ;}
	
		.st13{opacity:0.5;clip-path:url(#SVGID_00000048467833759285102650000011883119965843173054_);fill:url(#SVGID_00000150811726458072072230000001225523934117008034_);enable-background:new    ;}
	
		.st14{clip-path:url(#SVGID_00000048467833759285102650000011883119965843173054_);fill:url(#SVGID_00000029015842425003525170000012115330453508527273_);}
	
		.st15{opacity:0.8;clip-path:url(#SVGID_00000048467833759285102650000011883119965843173054_);fill:#FFFFFF;enable-background:new    ;}
</style>
<g>
	<defs>
		<rect id="SVGID_1_" width="1280" height="1024"/>
	</defs>
	<clipPath id="SVGID_00000144297350492512615410000005744156701245577346_">
		<use xlink:href="#SVGID_1_"  style="overflow:visible;"/>
	</clipPath>
	
		<rect x="-320" y="-88" style="clip-path:url(#SVGID_00000144297350492512615410000005744156701245577346_);fill:#284D55;" width="1920" height="1200"/>
	
		<linearGradient id="SVGID_00000088125326279507435620000004506746501925955233_" gradientUnits="userSpaceOnUse" x1="-331.05" y1="508.425" x2="1604.77" y2="508.425" gradientTransform="matrix(1 0 0 -1 0 1024)">
		<stop  offset="0" style="stop-color:#2F7274"/>
		<stop  offset="0.5" style="stop-color:#69A8A8"/>
		<stop  offset="0.6" style="stop-color:#6CA9A8"/>
		<stop  offset="0.68" style="stop-color:#76ACA9"/>
		<stop  offset="0.76" style="stop-color:#88B2AA"/>
		<stop  offset="0.83" style="stop-color:#A0BBAC"/>
		<stop  offset="0.9" style="stop-color:#C0C6AE"/>
		<stop  offset="0.97" style="stop-color:#E7D3B1"/>
		<stop  offset="1" style="stop-color:#FCDBB3"/>
	</linearGradient>
	
		<rect x="-331" y="-93.6" style="clip-path:url(#SVGID_00000144297350492512615410000005744156701245577346_);fill:url(#SVGID_00000088125326279507435620000004506746501925955233_);" width="1935.8" height="1218.3"/>
	
		<linearGradient id="SVGID_00000008127719778527771080000014685908382657503396_" gradientUnits="userSpaceOnUse" x1="150.41" y1="-1715.5551" x2="508.64" y2="-1715.5551" gradientTransform="matrix(6.123234e-17 1 1 -6.123234e-17 2217.8301 526.13)">
		<stop  offset="0" style="stop-color:#F2D6B0"/>
		<stop  offset="1" style="stop-color:#FF8C8E;stop-opacity:0"/>
	</linearGradient>
	
		<rect x="386.6" y="676.5" style="opacity:0.6;clip-path:url(#SVGID_00000144297350492512615410000005744156701245577346_);fill:url(#SVGID_00000008127719778527771080000014685908382657503396_);enable-background:new    ;" width="231.3" height="358.2"/>
	
		<radialGradient id="SVGID_00000036233888169256541310000003099625924175004548_" cx="-42.38" cy="74.67" r="425.86" gradientTransform="matrix(1 0 0 -1 0 1024)" gradientUnits="userSpaceOnUse">
		<stop  offset="0" style="stop-color:#A80030"/>
		<stop  offset="1" style="stop-color:#FF8C8E;stop-opacity:0"/>
	</radialGradient>
	
		<circle style="opacity:0.4;clip-path:url(#SVGID_00000144297350492512615410000005744156701245577346_);fill:url(#SVGID_00000036233888169256541310000003099625924175004548_);enable-background:new    ;" cx="-42.4" cy="949.3" r="425.9"/>
	
		<linearGradient id="SVGID_00000093891468613017307060000013256943407838331033_" gradientUnits="userSpaceOnUse" x1="3233.1099" y1="-1970.4301" x2="3912.6799" y2="-1290.86" gradientTransform="matrix(-1 0 0 1 4909.48 2331.3699)">
		<stop  offset="0" style="stop-color:#487C80;stop-opacity:0"/>
		<stop  offset="1" style="stop-color:#5EA498"/>
	</linearGradient>
	
		<rect x="1064.1" y="293.6" style="clip-path:url(#SVGID_00000144297350492512615410000005744156701245577346_);fill:url(#SVGID_00000093891468613017307060000013256943407838331033_);" width="545" height="814.2"/>
	
		<linearGradient id="SVGID_00000094581261821137730970000008739107884260510111_" gradientUnits="userSpaceOnUse" x1="634.55" y1="-89.3101" x2="634.55" y2="642.28" gradientTransform="matrix(1 0 0 -1 0 1024)">
		<stop  offset="0" style="stop-color:#F2D6B0"/>
		<stop  offset="1" style="stop-color:#FF8C8E;stop-opacity:0"/>
	</linearGradient>
	
		<rect x="509" y="381.7" style="clip-path:url(#SVGID_00000144297350492512615410000005744156701245577346_);fill:url(#SVGID_00000094581261821137730970000008739107884260510111_);" width="251.1" height="731.6"/>
	
		<linearGradient id="SVGID_00000070110848101684749490000017477116011088945050_" gradientUnits="userSpaceOnUse" x1="1908.3" y1="1186.9449" x2="2279.03" y2="1186.9449" gradientTransform="matrix(6.123234e-17 -1 -1 -6.123234e-17 1346.46 3037.9099)">
		<stop  offset="0" style="stop-color:#206F73;stop-opacity:0.8"/>
		<stop  offset="0.31" style="stop-color:#69A8A8"/>
		<stop  offset="0.37" style="stop-color:#6CA9A8"/>
		<stop  offset="0.43" style="stop-color:#76ACA9"/>
		<stop  offset="0.48" style="stop-color:#88B2AA"/>
		<stop  offset="0.53" style="stop-color:#A0BBAC"/>
		<stop  offset="0.58" style="stop-color:#C0C6AE"/>
		<stop  offset="0.6" style="stop-color:#D0CCB0"/>
		<stop  offset="1" style="stop-color:#FCDBB3;stop-opacity:0"/>
	</linearGradient>
	
		<rect x="104.3" y="758.9" style="opacity:0.5;clip-path:url(#SVGID_00000144297350492512615410000005744156701245577346_);fill:url(#SVGID_00000070110848101684749490000017477116011088945050_);enable-background:new    ;" width="110.4" height="370.7"/>
	
		<linearGradient id="SVGID_00000114758163997963367780000002232505070427236027_" gradientUnits="userSpaceOnUse" x1="2941.2837" y1="-182.6097" x2="3304.4336" y2="-182.6097" gradientTransform="matrix(6.735558e-17 -1.1 -0.41 -2.510526e-17 961.32 4335.3999)">
		<stop  offset="0" style="stop-color:#F2D6B0"/>
		<stop  offset="1" style="stop-color:#FF8C8E;stop-opacity:0"/>
	</linearGradient>
	
		<rect x="898" y="708.1" style="opacity:0.5;clip-path:url(#SVGID_00000144297350492512615410000005744156701245577346_);fill:url(#SVGID_00000114758163997963367780000002232505070427236027_);enable-background:new    ;" width="276.4" height="398.2"/>
	
		<linearGradient id="SVGID_00000157284196715384002720000015294477947294125237_" gradientUnits="userSpaceOnUse" x1="2924.5137" y1="2322.4878" x2="3574.8335" y2="2322.4878" gradientTransform="matrix(6.735558e-17 -1.1 -0.41 -2.510526e-17 961.31 4335.3999)">
		<stop  offset="0" style="stop-color:#F2D6B0"/>
		<stop  offset="1" style="stop-color:#FF8C8E;stop-opacity:0"/>
	</linearGradient>
	
		<rect x="-90.6" y="411.6" style="opacity:0.5;clip-path:url(#SVGID_00000144297350492512615410000005744156701245577346_);fill:url(#SVGID_00000157284196715384002720000015294477947294125237_);enable-background:new    ;" width="199.3" height="713.1"/>
	
		<radialGradient id="SVGID_00000064328621017445301500000013244235581040875136_" cx="1005.96" cy="13.52" r="734.56" gradientTransform="matrix(1 0 0 -1 0 1024)" gradientUnits="userSpaceOnUse">
		<stop  offset="0" style="stop-color:#FCDBB3"/>
		<stop  offset="1" style="stop-color:#F2DAB8;stop-opacity:0"/>
	</radialGradient>
	
		<circle style="clip-path:url(#SVGID_00000144297350492512615410000005744156701245577346_);fill:url(#SVGID_00000064328621017445301500000013244235581040875136_);" cx="1006" cy="1010.5" r="734.6"/>
	
		<linearGradient id="SVGID_00000010297383616327408620000014225187250475800244_" gradientUnits="userSpaceOnUse" x1="-323.01" y1="25.465" x2="1123.0699" y2="25.465" gradientTransform="matrix(1 0 0 -1 0 1024)">
		<stop  offset="0" style="stop-color:#206F73"/>
		<stop  offset="0.31" style="stop-color:#69A8A8"/>
		<stop  offset="0.37" style="stop-color:#6CA9A8"/>
		<stop  offset="0.43" style="stop-color:#76ACA9"/>
		<stop  offset="0.48" style="stop-color:#88B2AA"/>
		<stop  offset="0.53" style="stop-color:#A0BBAC"/>
		<stop  offset="0.58" style="stop-color:#C0C6AE"/>
		<stop  offset="0.6" style="stop-color:#D0CCB0"/>
		<stop  offset="1" style="stop-color:#FCDBB3;stop-opacity:0"/>
	</linearGradient>
	
		<rect x="-323" y="883.7" style="opacity:0.5;clip-path:url(#SVGID_00000144297350492512615410000005744156701245577346_);fill:url(#SVGID_00000010297383616327408620000014225187250475800244_);enable-background:new    ;" width="1446.1" height="229.6"/>
	
		<linearGradient id="SVGID_00000030468554504568980540000005027311925354763187_" gradientUnits="userSpaceOnUse" x1="2923.8335" y1="2725.9026" x2="3588.7434" y2="2725.9026" gradientTransform="matrix(6.735558e-17 -1.1 -0.41 -2.510526e-17 961.3101 4335.3901)">
		<stop  offset="0" style="stop-color:#F2D6B0"/>
		<stop  offset="1" style="stop-color:#FF8C8E;stop-opacity:0"/>
	</linearGradient>
	
		<rect x="-333.2" y="396.3" style="opacity:0.5;clip-path:url(#SVGID_00000144297350492512615410000005744156701245577346_);fill:url(#SVGID_00000030468554504568980540000005027311925354763187_);enable-background:new    ;" width="353.8" height="729.1"/>
	
		<linearGradient id="SVGID_00000155845945273238434790000016870768245179086239_" gradientUnits="userSpaceOnUse" x1="2933.3335" y1="1079.1586" x2="3717.2434" y2="1079.1586" gradientTransform="matrix(6.735558e-17 -1.1 -0.41 -2.510526e-17 961.32 4335.3999)">
		<stop  offset="0" style="stop-color:#F2D6B0"/>
		<stop  offset="1" style="stop-color:#FF8C8E;stop-opacity:0"/>
	</linearGradient>
	
		<rect x="489" y="255.5" style="opacity:0.5;clip-path:url(#SVGID_00000144297350492512615410000005744156701245577346_);fill:url(#SVGID_00000155845945273238434790000016870768245179086239_);enable-background:new    ;" width="59.7" height="859.6"/>
	
		<linearGradient id="SVGID_00000175292898045481041190000007625865835256615588_" gradientUnits="userSpaceOnUse" x1="2942.0835" y1="-747.3781" x2="3664.3535" y2="-747.3781" gradientTransform="matrix(6.735558e-17 -1.1 -0.41 -2.510526e-17 961.32 4335.3999)">
		<stop  offset="0" style="stop-color:#F2D6B0"/>
		<stop  offset="1" style="stop-color:#FF8C8E;stop-opacity:0"/>
	</linearGradient>
	
		<rect x="1025.6" y="313.4" style="opacity:0.5;clip-path:url(#SVGID_00000144297350492512615410000005744156701245577346_);fill:url(#SVGID_00000175292898045481041190000007625865835256615588_);enable-background:new    ;" width="484.4" height="792"/>
	
		<radialGradient id="SVGID_00000142156894824993392080000007575078279664575673_" cx="626.79" cy="495.49" r="691.56" gradientTransform="matrix(1 0 0 -1 0 1024)" gradientUnits="userSpaceOnUse">
		<stop  offset="0" style="stop-color:#009696"/>
		<stop  offset="1" style="stop-color:#497E81;stop-opacity:0"/>
	</radialGradient>
	
		<circle style="clip-path:url(#SVGID_00000144297350492512615410000005744156701245577346_);fill:url(#SVGID_00000142156894824993392080000007575078279664575673_);" cx="626.8" cy="528.5" r="691.6"/>
	
		<path style="opacity:0.8;clip-path:url(#SVGID_00000144297350492512615410000005744156701245577346_);fill:#FFFFFF;enable-background:new    ;" d="
		M603.5,959.9c0,0,0,6.7-0.1,8.4c-0.1,1.4-0.2,4.4-3.2,4.4s-3.8-3.5-4-5c-0.3-1.7-0.3-3.1-0.3-3.7c0-2,0.1-7.5,4.8-7.5
		c1.4,0,2.2,0.4,2.8,0.7L603.5,959.9L603.5,959.9z M591.5,964.8c0,11.7,6.2,11.7,7.1,11.7c2.6,0,4.2-1.4,4.9-3.8l0.1,3.7
		c0.8,0,1.6-0.1,2.8-0.1c0.5,0,0.8,0,1.2,0c0.3,0,0.7,0,1,0.1c-0.7-1.3-1.2-4.3-1.2-10.8s0-16.9,0.5-20.1c-1.5,0.7-2.8,1.2-5.6,1.4
		c1.1,1.2,1.1,1.8,1.1,7.3c-0.8-0.2-1.8-0.5-3.5-0.5C592.7,953.5,591.5,960,591.5,964.8"/>
	
		<path style="opacity:0.8;clip-path:url(#SVGID_00000144297350492512615410000005744156701245577346_);fill:#FFFFFF;enable-background:new    ;" d="
		M613.9,962.7c0-3.4,0.8-6.5,3.7-6.5c3.2,0,3.5,3.6,3.4,6.5H613.9z M625.1,963.1c0-4.8-1-9.6-7.1-9.6c-8.4,0-8.4,9.3-8.4,11.3
		c0,8.4,3.8,11.7,10.1,11.7c2.8,0,4.2-0.4,4.9-0.6c0-1.5,0.2-2.4,0.4-3.7c-0.9,0.5-2,1.2-4.5,1.2c-6.5,0-6.5-5.9-6.5-7.9h11
		L625.1,963.1"/>
	
		<path style="opacity:0.8;clip-path:url(#SVGID_00000144297350492512615410000005744156701245577346_);fill:#FFFFFF;enable-background:new    ;" d="
		M638.5,964.9c0,3.8-0.7,9-5.5,9c-0.7,0-1.5-0.1-2-0.2c-0.1-1.5-0.1-4-0.1-7c0-3.6,0.4-5.4,0.7-6.3c0.9-2.9,2.8-3,3.2-3
		C637.9,957.3,638.5,961.6,638.5,964.9L638.5,964.9z M626.6,969.4c0,3.1,0,4.8-0.5,6.1c1.7,0.7,3.8,1,6.3,1c1.6,0,6.3,0,8.8-5.2
		c1.2-2.4,1.6-5.6,1.6-8.1c0-1.5-0.2-4.8-1.4-6.8c-1.2-1.9-3-2.9-5-2.9c-4,0-5.1,3.3-5.8,5c0-2.1,0-9.5,0.4-13.2
		c-2.7,1.2-4.3,1.5-6.1,1.6c1.6,0.7,1.6,3.4,1.6,12.3V969.4"/>
	
		<path style="opacity:0.8;clip-path:url(#SVGID_00000144297350492512615410000005744156701245577346_);fill:#FFFFFF;enable-background:new    ;" d="
		M650.8,976.3c-0.8-0.1-1.4-0.2-2.6-0.2c-1.3,0-2.2,0.1-3.2,0.2c0.4-0.8,0.6-1.2,0.7-3.8c0.2-3.7,0.2-13.5-0.1-15.6
		c-0.2-1.6-0.6-1.8-1.2-2.2c3.4-0.3,4.3-0.6,5.9-1.3c-0.3,1.8-0.4,2.7-0.4,5.5C650,973.1,649.9,974.6,650.8,976.3"/>
	
		<path style="opacity:0.8;clip-path:url(#SVGID_00000144297350492512615410000005744156701245577346_);fill:#FFFFFF;enable-background:new    ;" d="
		M664.1,964.6c-0.1,2.6-0.1,4.4-0.8,5.9c-0.9,1.9-2.3,2.4-3.4,2.4c-2.5,0-3-2.1-3-4.1c0-3.9,3.5-4.2,5-4.2H664.1L664.1,964.6z
		 M652.7,969.7c0,2.6,0.8,5.2,3.1,6.3c1,0.5,2.1,0.5,2.4,0.5c3.8,0,5.1-2.8,5.9-4.5c0,1.8,0,2.9,0.1,4.4c0.7,0,1.5-0.1,2.7-0.1
		c0.7,0,1.4,0.1,2.1,0.1c-0.5-0.7-0.7-1.1-0.8-2.7c-0.1-1.6-0.1-3.1-0.1-5.3l0-8.4c0-3.1-0.8-6.2-7-6.2c-4.1,0-6.5,1.2-7.7,1.9
		c0.5,0.9,0.9,1.7,1.3,3.5c1.6-1.4,3.7-2.2,5.9-2.2c3.4,0,3.4,2.3,3.4,5.5c-0.8,0-1.5-0.1-2.6-0.1
		C656.2,962.1,652.7,964.1,652.7,969.7"/>
	
		<path style="opacity:0.8;clip-path:url(#SVGID_00000144297350492512615410000005744156701245577346_);fill:#FFFFFF;enable-background:new    ;" d="
		M687.9,972.2c0,1.4,0,2.9,0.6,4.1c-0.9-0.1-1.5-0.2-3.1-0.2c-1,0-1.5,0.1-2.3,0.2c0.2-0.5,0.2-0.7,0.3-1.5c0.1-1,0.2-4.1,0.2-5.2
		v-4.5c0-1.9,0-4.8-0.1-5.8c-0.1-0.7-0.3-2.6-2.7-2.6s-3.1,1.7-3.4,3.1c-0.3,1.5-0.3,3-0.3,9.1c0,5.3,0,5.8,0.5,7.2
		c-0.7-0.1-1.6-0.2-2.8-0.2c-1,0-1.7,0-2.5,0.2c0.3-0.7,0.5-1,0.5-3.3c0.1-2.3,0.2-13.4-0.1-16.1c-0.2-1.6-0.6-2-1.1-2.4
		c3.3-0.2,4.4-0.7,5.5-1.2v4.4c0.5-1.3,1.5-4.1,5.7-4.1c5.2,0,5.2,3.8,5.2,6.2V972.2"/>
	
		<path style="opacity:0.8;clip-path:url(#SVGID_00000144297350492512615410000005744156701245577346_);fill:#FFFFFF;enable-background:new    ;" d="
		M651.2,947.4l-3.4,3.4l-3.4-3.4l3.4-3.4L651.2,947.4"/>
</g>
</svg>
