<?xml version="1.0" encoding="UTF-8"?><svg id="Calque_1" xmlns="http://www.w3.org/2000/svg" xmlns:xlink="http://www.w3.org/1999/xlink" viewBox="0 0 1600 1200"><defs><style>.cls-1{fill:#284d55;}.cls-2{fill:url(#Dégradé_sans_nom_304-2);}.cls-3{fill:url(#Dégradé_sans_nom_34);}.cls-4{fill:url(#Dégradé_sans_nom_21);}.cls-5{fill:url(#Dégradé_sans_nom_304-7);}.cls-5,.cls-6,.cls-7,.cls-8,.cls-9,.cls-10,.cls-11,.cls-12{opacity:.5;}.cls-6{fill:url(#Dégradé_sans_nom_304-8);}.cls-7{fill:url(#Dégradé_sans_nom_304-6);}.cls-8{fill:url(#Dégradé_sans_nom_304-5);}.cls-9{fill:url(#Dégradé_sans_nom_304-4);}.cls-10{fill:url(#Dégradé_sans_nom_304-3);}.cls-13{fill:url(#Dégradé_sans_nom_153);opacity:.4;}.cls-14{fill:url(#Dégradé_sans_nom_304);opacity:.6;}.cls-11{fill:url(#Dégradé_sans_nom_334);}.cls-12{fill:url(#Dégradé_sans_nom_437);}.cls-15{fill:url(#Dégradé_sans_nom_342);}.cls-16{fill:url(#Dégradé_sans_nom_293);}.cls-17{fill:#fff;opacity:.8;}</style><linearGradient id="Dégradé_sans_nom_342" x1="-171.05" y1="603.58" x2="1764.77" y2="603.58" gradientUnits="userSpaceOnUse"><stop offset="0" stop-color="#2f7274"/><stop offset=".5" stop-color="#69a8a8"/><stop offset=".6" stop-color="#6ca9a8"/><stop offset=".68" stop-color="#76aca9"/><stop offset=".76" stop-color="#88b2aa"/><stop offset=".83" stop-color="#a0bbac"/><stop offset=".9" stop-color="#c0c6ae"/><stop offset=".97" stop-color="#e7d3b1"/><stop offset="1" stop-color="#fcdbb3"/></linearGradient><linearGradient id="Dégradé_sans_nom_304" x1="182.41" y1="1695.55" x2="540.64" y2="1695.55" gradientTransform="translate(300.75 -751.9)" gradientUnits="userSpaceOnUse"><stop offset="0" stop-color="#f2d6b0"/><stop offset="1" stop-color="#ff8c8e" stop-opacity="0"/></linearGradient><radialGradient id="Dégradé_sans_nom_153" cx="117.62" cy="1037.33" fx="117.62" fy="1037.33" r="425.86" gradientUnits="userSpaceOnUse"><stop offset="0" stop-color="#a80030"/><stop offset="1" stop-color="#ff8c8e" stop-opacity="0"/></radialGradient><linearGradient id="Dégradé_sans_nom_293" x1="2133.1" y1="2078.44" x2="2812.67" y2="1398.87" gradientTransform="translate(-976.3 -949.93)" gradientUnits="userSpaceOnUse"><stop offset="0" stop-color="#487c80" stop-opacity="0"/><stop offset="1" stop-color="#5ea498"/></linearGradient><linearGradient id="Dégradé_sans_nom_304-2" x1="794.55" y1="1201.31" x2="794.55" y2="469.72" gradientTransform="matrix(1,0,0,1,0,0)" xlink:href="#Dégradé_sans_nom_304"/><linearGradient id="Dégradé_sans_nom_437" x1="936.3" y1="53.05" x2="1307.03" y2="53.05" gradientTransform="translate(-802.15 979.19)" gradientUnits="userSpaceOnUse"><stop offset="0" stop-color="#206f73" stop-opacity=".8"/><stop offset=".31" stop-color="#69a8a8"/><stop offset=".37" stop-color="#6ca9a8"/><stop offset=".43" stop-color="#76aca9"/><stop offset=".48" stop-color="#88b2aa"/><stop offset=".53" stop-color="#a0bbac"/><stop offset=".58" stop-color="#c0c6ae"/><stop offset=".6" stop-color="#d0ccb0"/><stop offset="1" stop-color="#fcdbb3" stop-opacity="0"/></linearGradient><linearGradient id="Dégradé_sans_nom_304-3" x1="2014.92" y1="2336.54" x2="2378.07" y2="2336.54" gradientTransform="translate(-1212.43 40.38) scale(1.1 .41)" xlink:href="#Dégradé_sans_nom_304"/><linearGradient id="Dégradé_sans_nom_304-4" x1="1998.15" y1="-176.76" x2="2648.47" y2="-176.76" gradientTransform="translate(-2378.58 928.41) scale(1.1 .41)" xlink:href="#Dégradé_sans_nom_304"/><radialGradient id="Dégradé_sans_nom_21" cx="1165.96" cy="1098.48" fx="1165.96" fy="1098.48" r="734.56" gradientUnits="userSpaceOnUse"><stop offset="0" stop-color="#fcdbb3"/><stop offset="1" stop-color="#f2dab8" stop-opacity="0"/></radialGradient><linearGradient id="Dégradé_sans_nom_334" x1="-163.01" y1="1086.53" x2="1283.07" y2="1086.53" gradientUnits="userSpaceOnUse"><stop offset="0" stop-color="#206f73"/><stop offset=".31" stop-color="#69a8a8"/><stop offset=".37" stop-color="#6ca9a8"/><stop offset=".43" stop-color="#76aca9"/><stop offset=".48" stop-color="#88b2aa"/><stop offset=".53" stop-color="#a0bbac"/><stop offset=".58" stop-color="#c0c6ae"/><stop offset=".6" stop-color="#d0ccb0"/><stop offset="1" stop-color="#fcdbb3" stop-opacity="0"/></linearGradient><linearGradient id="Dégradé_sans_nom_304-5" x1="1997.47" y1="-581.52" x2="2662.38" y2="-581.52" gradientTransform="translate(-2551.25 1086.56) scale(1.1 .41)" xlink:href="#Dégradé_sans_nom_304"/><linearGradient id="Dégradé_sans_nom_304-6" x1="2006.97" y1="1070.64" x2="2790.88" y2="1070.64" gradientTransform="translate(-1951.73 335.73) scale(1.1 .41)" xlink:href="#Dégradé_sans_nom_304"/><linearGradient id="Dégradé_sans_nom_304-7" x1="2009.67" y1="-509.62" x2="2441.23" y2="-509.62" gradientTransform="translate(-2407.3 1171.75) scale(1.1 .41)" xlink:href="#Dégradé_sans_nom_304"/><linearGradient id="Dégradé_sans_nom_304-8" x1="2015.72" y1="2903.17" x2="2737.99" y2="2903.17" gradientTransform="translate(-1178.65 -388.95) scale(1.1 .41)" xlink:href="#Dégradé_sans_nom_304"/><radialGradient id="Dégradé_sans_nom_34" cx="786.79" cy="616.51" fx="786.79" fy="616.51" r="691.56" gradientUnits="userSpaceOnUse"><stop offset="0" stop-color="#009696"/><stop offset="1" stop-color="#497e81" stop-opacity="0"/></radialGradient></defs><rect class="cls-1" x="-160" width="1920" height="1200"/><rect class="cls-15" x="-171.05" y="-5.58" width="1935.82" height="1218.31"/><rect class="cls-14" x="483.16" y="828.01" width="358.23" height="231.29" transform="translate(1605.93 281.38) rotate(90)"/><circle class="cls-13" cx="117.62" cy="1037.33" r="425.86"/><rect class="cls-16" x="1224.11" y="381.63" width="544.97" height="814.17" transform="translate(2993.18 1577.44) rotate(180)"/><rect class="cls-2" x="669" y="469.72" width="251.1" height="731.59"/><rect class="cls-12" x="134.15" y="977.03" width="370.73" height="110.43" transform="translate(-712.73 1351.76) rotate(-90)"/><rect class="cls-10" x="997.08" y="857.05" width="398.22" height="276.38" transform="translate(200.95 2191.42) rotate(-90)"/><rect class="cls-9" x="-187.47" y="756.52" width="713.13" height="199.3" transform="translate(-687.08 1025.27) rotate(-90)"/><circle class="cls-4" cx="1165.96" cy="1098.48" r="734.56"/><rect class="cls-11" x="-163.01" y="971.74" width="1446.08" height="229.59"/><rect class="cls-8" x="-360.87" y="672.01" width="729.12" height="353.82" transform="translate(-845.23 852.6) rotate(-90)"/><rect class="cls-7" x="249.05" y="743.43" width="859.62" height="59.65" transform="translate(-94.39 1452.12) rotate(-90)"/><rect class="cls-5" x="-203.55" y="872.43" width="473.24" height="182.11" transform="translate(-930.41 996.55) rotate(-90)"/><rect class="cls-6" x="1031.73" y="555.27" width="792.02" height="484.37" transform="translate(630.29 2225.2) rotate(-90)"/><circle class="cls-3" cx="786.79" cy="616.51" r="691.56"/><path class="cls-17" d="m763.46,1047.91s-.04,6.7-.12,8.44c-.08,1.4-.21,4.42-3.18,4.42s-3.8-3.52-4.05-5.04c-.29-1.7-.29-3.1-.29-3.72,0-1.99.12-7.53,4.8-7.53,1.41,0,2.19.42,2.81.74l.04,2.69Zm-11.99,4.88c0,11.66,6.2,11.66,7.11,11.66,2.56,0,4.22-1.41,4.92-3.85l.08,3.68c.79-.04,1.57-.12,2.85-.12.46,0,.83,0,1.16.04.33,0,.66.04,1.03.08-.66-1.32-1.16-4.3-1.16-10.75s0-16.91.54-20.14c-1.49.7-2.77,1.16-5.58,1.41,1.12,1.2,1.12,1.82,1.12,7.28-.78-.25-1.78-.54-3.47-.54-7.4,0-8.6,6.45-8.6,11.25"/><path class="cls-17" d="m773.89,1050.68c.04-3.43.75-6.49,3.68-6.49,3.23,0,3.47,3.56,3.39,6.49h-7.07Zm11.17.42c0-4.84-.95-9.6-7.07-9.6-8.44,0-8.44,9.35-8.44,11.33,0,8.4,3.76,11.7,10.09,11.7,2.81,0,4.18-.41,4.92-.62-.04-1.49.17-2.44.42-3.72-.87.54-1.99,1.24-4.47,1.24-6.45,0-6.54-5.87-6.54-7.9h11l.08-2.44"/><path class="cls-17" d="m798.51,1052.87c0,3.85-.7,9.02-5.5,9.02-.66,0-1.49-.13-2.03-.25-.08-1.49-.08-4.05-.08-7.03,0-3.56.37-5.42.66-6.33.87-2.94,2.81-2.98,3.18-2.98,3.14,0,3.76,4.34,3.76,7.57Zm-11.87,4.51c0,3.06,0,4.8-.5,6.12,1.7.66,3.8,1.03,6.33,1.03,1.61,0,6.29,0,8.81-5.17,1.2-2.4,1.61-5.63,1.61-8.07,0-1.49-.17-4.76-1.36-6.82-1.16-1.94-3.02-2.94-5-2.94-3.97,0-5.13,3.31-5.75,5,0-2.11.04-9.47.37-13.23-2.69,1.24-4.34,1.45-6.12,1.61,1.61.66,1.61,3.39,1.61,12.28v10.17"/><path class="cls-17" d="m810.85,1064.28c-.83-.12-1.41-.21-2.61-.21-1.32,0-2.23.08-3.18.21.41-.79.58-1.16.7-3.85.17-3.68.21-13.53-.08-15.59-.21-1.57-.58-1.82-1.16-2.23,3.39-.33,4.34-.58,5.91-1.32-.33,1.82-.37,2.73-.37,5.5-.08,14.27-.12,15.8.79,17.5"/><path class="cls-17" d="m824.09,1052.58c-.08,2.61-.12,4.43-.83,5.87-.87,1.86-2.32,2.4-3.39,2.4-2.48,0-3.02-2.07-3.02-4.09,0-3.89,3.47-4.18,5.04-4.18h2.19Zm-11.37,5.09c0,2.61.79,5.21,3.1,6.33,1.03.46,2.07.46,2.4.46,3.81,0,5.09-2.81,5.87-4.55-.04,1.82,0,2.94.12,4.38.74-.04,1.49-.12,2.73-.12.7,0,1.36.08,2.07.12-.46-.7-.7-1.12-.83-2.73-.08-1.57-.08-3.14-.08-5.33l.04-8.44c0-3.14-.83-6.25-7.03-6.25-4.09,0-6.49,1.24-7.69,1.86.5.91.91,1.69,1.28,3.47,1.61-1.41,3.72-2.15,5.87-2.15,3.43,0,3.43,2.28,3.43,5.5-.79-.04-1.45-.12-2.57-.12-5.25,0-8.73,2.02-8.73,7.57"/><path class="cls-17" d="m847.91,1060.19c.04,1.41.04,2.9.62,4.09-.91-.08-1.45-.21-3.14-.21-.99,0-1.53.08-2.32.21.16-.54.25-.74.33-1.45.12-.95.21-4.14.21-5.25v-4.47c0-1.94,0-4.76-.13-5.75-.08-.7-.29-2.6-2.69-2.6s-3.14,1.74-3.43,3.14c-.33,1.45-.33,3.02-.33,9.14.04,5.29.04,5.79.45,7.24-.7-.08-1.57-.16-2.81-.16-.99,0-1.65.04-2.48.16.29-.66.46-.99.54-3.31.08-2.28.25-13.44-.13-16.09-.21-1.61-.62-1.99-1.07-2.4,3.35-.17,4.42-.7,5.46-1.24v4.38c.5-1.28,1.53-4.14,5.67-4.14,5.17,0,5.21,3.76,5.25,6.24v12.45"/><path class="cls-17" d="m811.2,1035.44l-3.43,3.42-3.42-3.42,3.42-3.42,3.43,3.42"/></svg>