<?xml version="1.0" encoding="UTF-8"?><svg id="Calque_1" xmlns="http://www.w3.org/2000/svg" xmlns:xlink="http://www.w3.org/1999/xlink" viewBox="0 0 1920 1080"><defs><style>.cls-1{fill:#284d55;}.cls-2{fill:url(#Dégradé_sans_nom_304-2);}.cls-3{fill:url(#Dégradé_sans_nom_34);}.cls-4{fill:url(#Dégradé_sans_nom_21);}.cls-5{fill:url(#Dégradé_sans_nom_304-7);}.cls-5,.cls-6,.cls-7,.cls-8,.cls-9,.cls-10,.cls-11,.cls-12{opacity:.5;}.cls-6{fill:url(#Dégradé_sans_nom_304-8);}.cls-7{fill:url(#Dégradé_sans_nom_304-6);}.cls-8{fill:url(#Dégradé_sans_nom_304-5);}.cls-9{fill:url(#Dégradé_sans_nom_304-4);}.cls-10{fill:url(#Dégradé_sans_nom_304-3);}.cls-13{fill:url(#Dégradé_sans_nom_153);opacity:.4;}.cls-14{fill:url(#Dégradé_sans_nom_304);opacity:.6;}.cls-11{fill:url(#Dégradé_sans_nom_334);}.cls-12{fill:url(#Dégradé_sans_nom_437);}.cls-15{fill:url(#Dégradé_sans_nom_342);}.cls-16{fill:url(#Dégradé_sans_nom_293);}.cls-17{fill:#fff;opacity:.8;}</style><linearGradient id="Dégradé_sans_nom_342" x1="-11.05" y1="543.58" x2="1924.77" y2="543.58" gradientUnits="userSpaceOnUse"><stop offset="0" stop-color="#2f7274"/><stop offset=".5" stop-color="#69a8a8"/><stop offset=".6" stop-color="#6ca9a8"/><stop offset=".68" stop-color="#76aca9"/><stop offset=".76" stop-color="#88b2aa"/><stop offset=".83" stop-color="#a0bbac"/><stop offset=".9" stop-color="#c0c6ae"/><stop offset=".97" stop-color="#e7d3b1"/><stop offset="1" stop-color="#fcdbb3"/></linearGradient><linearGradient id="Dégradé_sans_nom_304" x1="342.41" y1="1635.55" x2="700.64" y2="1635.55" gradientTransform="translate(300.75 -751.9)" gradientUnits="userSpaceOnUse"><stop offset="0" stop-color="#f2d6b0"/><stop offset="1" stop-color="#ff8c8e" stop-opacity="0"/></linearGradient><radialGradient id="Dégradé_sans_nom_153" cx="277.62" cy="977.33" fx="277.62" fy="977.33" r="425.86" gradientUnits="userSpaceOnUse"><stop offset="0" stop-color="#a80030"/><stop offset="1" stop-color="#ff8c8e" stop-opacity="0"/></radialGradient><linearGradient id="Dégradé_sans_nom_293" x1="2293.1" y1="2018.44" x2="2972.67" y2="1338.87" gradientTransform="translate(-976.3 -949.93)" gradientUnits="userSpaceOnUse"><stop offset="0" stop-color="#487c80" stop-opacity="0"/><stop offset="1" stop-color="#5ea498"/></linearGradient><linearGradient id="Dégradé_sans_nom_304-2" x1="954.55" y1="1141.31" x2="954.55" y2="409.72" gradientTransform="matrix(1,0,0,1,0,0)" xlink:href="#Dégradé_sans_nom_304"/><linearGradient id="Dégradé_sans_nom_437" x1="1096.3" y1="-6.95" x2="1467.03" y2="-6.95" gradientTransform="translate(-802.15 979.19)" gradientUnits="userSpaceOnUse"><stop offset="0" stop-color="#206f73" stop-opacity=".8"/><stop offset=".31" stop-color="#69a8a8"/><stop offset=".37" stop-color="#6ca9a8"/><stop offset=".43" stop-color="#76aca9"/><stop offset=".48" stop-color="#88b2aa"/><stop offset=".53" stop-color="#a0bbac"/><stop offset=".58" stop-color="#c0c6ae"/><stop offset=".6" stop-color="#d0ccb0"/><stop offset="1" stop-color="#fcdbb3" stop-opacity="0"/></linearGradient><linearGradient id="Dégradé_sans_nom_304-3" x1="2174.92" y1="2276.54" x2="2538.07" y2="2276.54" gradientTransform="translate(-1227.88 4.9) scale(1.1 .41)" xlink:href="#Dégradé_sans_nom_304"/><linearGradient id="Dégradé_sans_nom_304-4" x1="2158.15" y1="-236.76" x2="2808.47" y2="-236.76" gradientTransform="translate(-2394.03 892.93) scale(1.1 .41)" xlink:href="#Dégradé_sans_nom_304"/><radialGradient id="Dégradé_sans_nom_21" cx="1325.96" cy="1038.48" fx="1325.96" fy="1038.48" r="734.56" gradientUnits="userSpaceOnUse"><stop offset="0" stop-color="#fcdbb3"/><stop offset="1" stop-color="#f2dab8" stop-opacity="0"/></radialGradient><linearGradient id="Dégradé_sans_nom_334" x1="-3.01" y1="1026.53" x2="1443.07" y2="1026.53" gradientUnits="userSpaceOnUse"><stop offset="0" stop-color="#206f73"/><stop offset=".31" stop-color="#69a8a8"/><stop offset=".37" stop-color="#6ca9a8"/><stop offset=".43" stop-color="#76aca9"/><stop offset=".48" stop-color="#88b2aa"/><stop offset=".53" stop-color="#a0bbac"/><stop offset=".58" stop-color="#c0c6ae"/><stop offset=".6" stop-color="#d0ccb0"/><stop offset="1" stop-color="#fcdbb3" stop-opacity="0"/></linearGradient><linearGradient id="Dégradé_sans_nom_304-5" x1="2157.47" y1="-641.52" x2="2822.38" y2="-641.52" gradientTransform="translate(-2566.7 1051.08) scale(1.1 .41)" xlink:href="#Dégradé_sans_nom_304"/><linearGradient id="Dégradé_sans_nom_304-6" x1="2166.97" y1="1010.64" x2="2950.88" y2="1010.64" gradientTransform="translate(-1967.18 300.25) scale(1.1 .41)" xlink:href="#Dégradé_sans_nom_304"/><linearGradient id="Dégradé_sans_nom_304-7" x1="2169.67" y1="-569.62" x2="2601.23" y2="-569.62" gradientTransform="translate(-2422.75 1136.26) scale(1.1 .41)" xlink:href="#Dégradé_sans_nom_304"/><linearGradient id="Dégradé_sans_nom_304-8" x1="2175.72" y1="2843.17" x2="2897.99" y2="2843.17" gradientTransform="translate(-1194.1 -424.43) scale(1.1 .41)" xlink:href="#Dégradé_sans_nom_304"/><radialGradient id="Dégradé_sans_nom_34" cx="946.79" cy="556.51" fx="946.79" fy="556.51" r="691.56" gradientUnits="userSpaceOnUse"><stop offset="0" stop-color="#009696"/><stop offset="1" stop-color="#497e81" stop-opacity="0"/></radialGradient></defs><rect class="cls-1" y="-60" width="1920" height="1200"/><rect class="cls-15" x="-11.05" y="-65.58" width="1935.82" height="1218.31"/><rect class="cls-14" x="643.16" y="768.01" width="358.23" height="231.29" transform="translate(1705.93 61.38) rotate(90)"/><circle class="cls-13" cx="277.62" cy="977.33" r="425.86"/><rect class="cls-16" x="1384.11" y="321.63" width="544.97" height="814.17" transform="translate(3313.18 1457.44) rotate(180)"/><rect class="cls-2" x="829" y="409.72" width="251.1" height="731.59"/><rect class="cls-12" x="294.15" y="917.03" width="370.73" height="110.43" transform="translate(-492.73 1451.76) rotate(-90)"/><rect class="cls-10" x="1157.08" y="797.05" width="398.22" height="276.38" transform="translate(420.95 2291.42) rotate(-90)"/><rect class="cls-9" x="-27.47" y="696.52" width="713.13" height="199.3" transform="translate(-467.08 1125.27) rotate(-90)"/><circle class="cls-4" cx="1325.96" cy="1038.48" r="734.56"/><rect class="cls-11" x="-3.01" y="911.74" width="1446.08" height="229.59"/><rect class="cls-8" x="-200.87" y="612.01" width="729.12" height="353.82" transform="translate(-625.23 952.6) rotate(-90)"/><rect class="cls-7" x="409.05" y="683.43" width="859.62" height="59.65" transform="translate(125.61 1552.12) rotate(-90)"/><rect class="cls-5" x="-43.55" y="812.43" width="473.24" height="182.11" transform="translate(-710.41 1096.55) rotate(-90)"/><rect class="cls-6" x="1191.73" y="495.27" width="792.02" height="484.37" transform="translate(850.29 2325.2) rotate(-90)"/><circle class="cls-3" cx="946.79" cy="556.51" r="691.56"/><path class="cls-17" d="m923.46,987.91s-.04,6.7-.12,8.44c-.08,1.4-.21,4.42-3.18,4.42s-3.8-3.52-4.05-5.04c-.29-1.7-.29-3.1-.29-3.72,0-1.99.12-7.53,4.8-7.53,1.41,0,2.19.42,2.81.74l.04,2.69Zm-11.99,4.88c0,11.66,6.2,11.66,7.11,11.66,2.56,0,4.22-1.41,4.92-3.85l.08,3.68c.79-.04,1.57-.12,2.85-.12.46,0,.83,0,1.16.04.33,0,.66.04,1.03.08-.66-1.32-1.16-4.3-1.16-10.75s0-16.91.54-20.14c-1.49.7-2.77,1.16-5.58,1.41,1.12,1.2,1.12,1.82,1.12,7.28-.78-.25-1.78-.54-3.47-.54-7.4,0-8.6,6.45-8.6,11.25"/><path class="cls-17" d="m933.89,990.68c.04-3.43.75-6.49,3.68-6.49,3.23,0,3.47,3.56,3.39,6.49h-7.07Zm11.17.42c0-4.84-.95-9.6-7.07-9.6-8.44,0-8.44,9.35-8.44,11.33,0,8.4,3.76,11.7,10.09,11.7,2.81,0,4.18-.41,4.92-.62-.04-1.49.17-2.44.42-3.72-.87.54-1.99,1.24-4.47,1.24-6.45,0-6.54-5.87-6.54-7.9h11l.08-2.44"/><path class="cls-17" d="m958.51,992.87c0,3.85-.7,9.02-5.5,9.02-.66,0-1.49-.13-2.03-.25-.08-1.49-.08-4.05-.08-7.03,0-3.56.37-5.42.66-6.33.87-2.94,2.81-2.98,3.18-2.98,3.14,0,3.76,4.34,3.76,7.57Zm-11.87,4.51c0,3.06,0,4.8-.5,6.12,1.7.66,3.8,1.03,6.33,1.03,1.61,0,6.29,0,8.81-5.17,1.2-2.4,1.61-5.63,1.61-8.07,0-1.49-.17-4.76-1.36-6.82-1.16-1.94-3.02-2.94-5-2.94-3.97,0-5.13,3.31-5.75,5,0-2.11.04-9.47.37-13.23-2.69,1.24-4.34,1.45-6.12,1.61,1.61.66,1.61,3.39,1.61,12.28v10.17"/><path class="cls-17" d="m970.85,1004.28c-.83-.12-1.41-.21-2.61-.21-1.32,0-2.23.08-3.18.21.41-.79.58-1.16.7-3.85.17-3.68.21-13.53-.08-15.59-.21-1.57-.58-1.82-1.16-2.23,3.39-.33,4.34-.58,5.91-1.32-.33,1.82-.37,2.73-.37,5.5-.08,14.27-.12,15.8.79,17.5"/><path class="cls-17" d="m984.09,992.58c-.08,2.61-.12,4.43-.83,5.87-.87,1.86-2.32,2.4-3.39,2.4-2.48,0-3.02-2.07-3.02-4.09,0-3.89,3.47-4.18,5.04-4.18h2.19Zm-11.37,5.09c0,2.61.79,5.21,3.1,6.33,1.03.46,2.07.46,2.4.46,3.81,0,5.09-2.81,5.87-4.55-.04,1.82,0,2.94.12,4.38.74-.04,1.49-.12,2.73-.12.7,0,1.36.08,2.07.12-.46-.7-.7-1.12-.83-2.73-.08-1.57-.08-3.14-.08-5.33l.04-8.44c0-3.14-.83-6.25-7.03-6.25-4.09,0-6.49,1.24-7.69,1.86.5.91.91,1.69,1.28,3.47,1.61-1.41,3.72-2.15,5.87-2.15,3.43,0,3.43,2.28,3.43,5.5-.79-.04-1.45-.12-2.57-.12-5.25,0-8.73,2.02-8.73,7.57"/><path class="cls-17" d="m1007.91,1000.19c.04,1.41.04,2.9.62,4.09-.91-.08-1.45-.21-3.14-.21-.99,0-1.53.08-2.32.21.16-.54.25-.74.33-1.45.12-.95.21-4.14.21-5.25v-4.47c0-1.94,0-4.76-.13-5.75-.08-.7-.29-2.6-2.69-2.6s-3.14,1.74-3.43,3.14c-.33,1.45-.33,3.02-.33,9.14.04,5.29.04,5.79.45,7.24-.7-.08-1.57-.16-2.81-.16-.99,0-1.65.04-2.48.16.29-.66.46-.99.54-3.31.08-2.28.25-13.44-.13-16.09-.21-1.61-.62-1.99-1.07-2.4,3.35-.17,4.42-.7,5.46-1.24v4.38c.5-1.28,1.53-4.14,5.67-4.14,5.17,0,5.21,3.76,5.25,6.24v12.45"/><path class="cls-17" d="m971.2,975.44l-3.43,3.42-3.42-3.42,3.42-3.42,3.43,3.42"/></svg>