<?xml version="1.0" encoding="utf-8"?>
<!-- Generator: $$$/GeneralStr/196=Adobe Illustrator 27.6.0, SVG Export Plug-In . SVG Version: 6.00 Build 0)  -->
<svg version="1.1" id="Calque_1" xmlns="http://www.w3.org/2000/svg" xmlns:xlink="http://www.w3.org/1999/xlink" x="0px" y="0px"
	 viewBox="0 0 1280 1024" style="enable-background:new 0 0 1280 1024;" xml:space="preserve">
<style type="text/css">
	.st0{clip-path:url(#SVGID_00000090998031756664756960000017893573220020626317_);fill:#284D55;}
	
		.st1{clip-path:url(#SVGID_00000090998031756664756960000017893573220020626317_);fill:url(#SVGID_00000010285688258325241080000003616350988280523702_);}
	
		.st2{clip-path:url(#SVGID_00000090998031756664756960000017893573220020626317_);fill:url(#SVGID_00000155843634428331676790000004476391670228111244_);}
	
		.st3{opacity:0.1;clip-path:url(#SVGID_00000090998031756664756960000017893573220020626317_);fill:#FEE0B6;enable-background:new    ;}
	
		.st4{opacity:0.6;clip-path:url(#SVGID_00000090998031756664756960000017893573220020626317_);fill:url(#SVGID_00000013884887405945661820000007696803487834434967_);enable-background:new    ;}
	
		.st5{opacity:0.4;clip-path:url(#SVGID_00000090998031756664756960000017893573220020626317_);fill:url(#SVGID_00000031893621553182593470000016186697313955458238_);enable-background:new    ;}
	
		.st6{clip-path:url(#SVGID_00000090998031756664756960000017893573220020626317_);fill:url(#SVGID_00000043426746378278450790000008461884500001670584_);}
	
		.st7{opacity:0.6;clip-path:url(#SVGID_00000090998031756664756960000017893573220020626317_);fill:url(#SVGID_00000161619238726319726040000017926412044037392305_);enable-background:new    ;}
	
		.st8{opacity:0.6;clip-path:url(#SVGID_00000090998031756664756960000017893573220020626317_);fill:url(#SVGID_00000145036597018337859530000007727197453776862140_);enable-background:new    ;}
	
		.st9{clip-path:url(#SVGID_00000090998031756664756960000017893573220020626317_);fill:url(#SVGID_00000025411583338541358040000006650683059725611925_);}
	
		.st10{opacity:0.5;clip-path:url(#SVGID_00000090998031756664756960000017893573220020626317_);fill:#FEE0B6;enable-background:new    ;}
	
		.st11{opacity:0.5;clip-path:url(#SVGID_00000090998031756664756960000017893573220020626317_);fill:url(#SVGID_00000163792547523051612060000013438161123168587399_);enable-background:new    ;}
	
		.st12{opacity:0.5;clip-path:url(#SVGID_00000090998031756664756960000017893573220020626317_);fill:url(#SVGID_00000120532002142457502940000016806173990165952667_);enable-background:new    ;}
	
		.st13{opacity:0.6;clip-path:url(#SVGID_00000090998031756664756960000017893573220020626317_);fill:url(#SVGID_00000037654457591566935350000000521135612413076610_);enable-background:new    ;}
	
		.st14{opacity:0.5;clip-path:url(#SVGID_00000090998031756664756960000017893573220020626317_);fill:url(#SVGID_00000084513218371457800010000015296133449700792731_);enable-background:new    ;}
	
		.st15{opacity:0.5;clip-path:url(#SVGID_00000090998031756664756960000017893573220020626317_);fill:url(#SVGID_00000009571640803917630840000010103649314570591879_);enable-background:new    ;}
	
		.st16{opacity:0.5;clip-path:url(#SVGID_00000090998031756664756960000017893573220020626317_);fill:url(#SVGID_00000114039294195111595930000012180259102213091260_);enable-background:new    ;}
	
		.st17{opacity:0.5;clip-path:url(#SVGID_00000090998031756664756960000017893573220020626317_);fill:url(#SVGID_00000170988328482074923470000014043303700507666564_);enable-background:new    ;}
	
		.st18{clip-path:url(#SVGID_00000090998031756664756960000017893573220020626317_);fill:url(#SVGID_00000078731807361339978200000002724467296730381455_);}
	.st19{opacity:0.8;clip-path:url(#SVGID_00000090998031756664756960000017893573220020626317_);}
	.st20{fill:#F3D6B0;}
	
		.st21{opacity:0.5;clip-path:url(#SVGID_00000090998031756664756960000017893573220020626317_);fill:url(#SVGID_00000035505282536865465500000002981886855610130063_);enable-background:new    ;}
	
		.st22{opacity:0.5;clip-path:url(#SVGID_00000090998031756664756960000017893573220020626317_);fill:url(#SVGID_00000065754879427807350540000014750919482764933542_);enable-background:new    ;}
	
		.st23{opacity:0.5;clip-path:url(#SVGID_00000090998031756664756960000017893573220020626317_);fill:url(#SVGID_00000123438869651507927610000005502989216448421039_);enable-background:new    ;}
</style>
<g>
	<defs>
		<rect id="SVGID_1_" width="1280" height="1024"/>
	</defs>
	<clipPath id="SVGID_00000015329659200629373240000001490953578083854262_">
		<use xlink:href="#SVGID_1_"  style="overflow:visible;"/>
	</clipPath>
	
		<rect x="-320" y="-88" style="clip-path:url(#SVGID_00000015329659200629373240000001490953578083854262_);fill:#284D55;" width="1920" height="1200"/>
	
		<linearGradient id="SVGID_00000080178535729757975600000013573685649009251223_" gradientUnits="userSpaceOnUse" x1="954.59" y1="555.9301" x2="1608.39" y2="555.9301" gradientTransform="matrix(1 0 0 -1 0 1024)">
		<stop  offset="0" style="stop-color:#206F73"/>
		<stop  offset="0" style="stop-color:#FDDBB3"/>
		<stop  offset="1" style="stop-color:#2D7577"/>
	</linearGradient>
	
		<rect x="954.6" y="-329.3" style="clip-path:url(#SVGID_00000015329659200629373240000001490953578083854262_);fill:url(#SVGID_00000080178535729757975600000013573685649009251223_);" width="653.8" height="1594.8"/>
	
		<linearGradient id="SVGID_00000078019758587925926110000013371143937402456200_" gradientUnits="userSpaceOnUse" x1="-323.26" y1="554.615" x2="1128.86" y2="554.615" gradientTransform="matrix(1 0 0 -1 0 1024)">
		<stop  offset="0" style="stop-color:#2F7274"/>
		<stop  offset="0.5" style="stop-color:#69A8A8"/>
		<stop  offset="0.6" style="stop-color:#6CA9A8"/>
		<stop  offset="0.68" style="stop-color:#76ACA9"/>
		<stop  offset="0.76" style="stop-color:#88B2AA"/>
		<stop  offset="0.83" style="stop-color:#A0BBAC"/>
		<stop  offset="0.9" style="stop-color:#C0C6AE"/>
		<stop  offset="0.97" style="stop-color:#E7D3B1"/>
		<stop  offset="1" style="stop-color:#FCDBB3"/>
	</linearGradient>
	
		<rect x="-323.3" y="-326.2" style="clip-path:url(#SVGID_00000015329659200629373240000001490953578083854262_);fill:url(#SVGID_00000078019758587925926110000013371143937402456200_);" width="1452.1" height="1591.1"/>
	
		<rect x="-71.4" y="719.7" style="opacity:0.1;clip-path:url(#SVGID_00000015329659200629373240000001490953578083854262_);fill:#FEE0B6;enable-background:new    ;" width="251.1" height="405.4"/>
	
		<linearGradient id="SVGID_00000007424727693068814420000000542409038486158746_" gradientUnits="userSpaceOnUse" x1="12.96" y1="-1039.265" x2="371.19" y2="-1039.265" gradientTransform="matrix(6.123234e-17 1 1 -6.123234e-17 1107.15 736.72)">
		<stop  offset="0" style="stop-color:#F2D6B0"/>
		<stop  offset="1" style="stop-color:#FF8C8E;stop-opacity:0"/>
	</linearGradient>
	
		<rect x="-47.8" y="749.7" style="opacity:0.6;clip-path:url(#SVGID_00000015329659200629373240000001490953578083854262_);fill:url(#SVGID_00000007424727693068814420000000542409038486158746_);enable-background:new    ;" width="231.3" height="358.2"/>
	
		<radialGradient id="SVGID_00000077291613690259887620000016304108710712624782_" cx="1152.28" cy="312.24" r="333.36" gradientTransform="matrix(1 0 0 -1 0 1024)" gradientUnits="userSpaceOnUse">
		<stop  offset="0" style="stop-color:#A80030"/>
		<stop  offset="1" style="stop-color:#FF8C8E;stop-opacity:0"/>
	</radialGradient>
	
		<circle style="opacity:0.4;clip-path:url(#SVGID_00000015329659200629373240000001490953578083854262_);fill:url(#SVGID_00000077291613690259887620000016304108710712624782_);enable-background:new    ;" cx="1152.3" cy="711.8" r="333.4"/>
	
		<linearGradient id="SVGID_00000149378052681664885930000017534412693458386816_" gradientUnits="userSpaceOnUse" x1="2177.355" y1="-1103.165" x2="2789.385" y2="-491.135" gradientTransform="matrix(-1 0 0 1 3588.22 1431.28)">
		<stop  offset="0" style="stop-color:#487C80;stop-opacity:0"/>
		<stop  offset="1" style="stop-color:#5EA498"/>
	</linearGradient>
	
		<rect x="972.1" y="154.9" style="clip-path:url(#SVGID_00000015329659200629373240000001490953578083854262_);fill:url(#SVGID_00000149378052681664885930000017534412693458386816_);" width="265.6" height="958.5"/>
	
		<radialGradient id="SVGID_00000136401887197042905550000001864425359202622647_" cx="196.33" cy="275.22" r="435.9" gradientTransform="matrix(1 0 0 -1 0 1024)" gradientUnits="userSpaceOnUse">
		<stop  offset="0" style="stop-color:#F2D6B0"/>
		<stop  offset="1" style="stop-color:#FF8C8E;stop-opacity:0"/>
	</radialGradient>
	
		<circle style="opacity:0.6;clip-path:url(#SVGID_00000015329659200629373240000001490953578083854262_);fill:url(#SVGID_00000136401887197042905550000001864425359202622647_);enable-background:new    ;" cx="196.3" cy="748.8" r="435.9"/>
	
		<radialGradient id="SVGID_00000147194327969456871420000015335669751981989559_" cx="176.34" cy="510.39" r="248.14" gradientTransform="matrix(1 0 0 -1 0 1024)" gradientUnits="userSpaceOnUse">
		<stop  offset="0" style="stop-color:#F2D6B0"/>
		<stop  offset="1" style="stop-color:#FF8C8E;stop-opacity:0"/>
	</radialGradient>
	
		<circle style="opacity:0.6;clip-path:url(#SVGID_00000015329659200629373240000001490953578083854262_);fill:url(#SVGID_00000147194327969456871420000015335669751981989559_);enable-background:new    ;" cx="176.3" cy="513.6" r="248.1"/>
	
		<linearGradient id="SVGID_00000061447800638553315460000004643130216484686727_" gradientUnits="userSpaceOnUse" x1="58.49" y1="275.63" x2="58.49" y2="993.98" gradientTransform="matrix(1 0 0 -1 0 1024)">
		<stop  offset="0" style="stop-color:#F2D6B0"/>
		<stop  offset="1" style="stop-color:#FF8C8E;stop-opacity:0"/>
	</linearGradient>
	
		<rect x="-67.1" y="30" style="clip-path:url(#SVGID_00000015329659200629373240000001490953578083854262_);fill:url(#SVGID_00000061447800638553315460000004643130216484686727_);" width="251.1" height="718.3"/>
	
		<rect x="-45.8" y="243.2" style="opacity:0.5;clip-path:url(#SVGID_00000015329659200629373240000001490953578083854262_);fill:#FEE0B6;enable-background:new    ;" width="228.8" height="505.9"/>
	
		<radialGradient id="SVGID_00000110466409295907618090000012820180609906887590_" cx="2174.6982" cy="-249.9" r="685" gradientTransform="matrix(5.572143e-17 -0.91 -1 -6.123234e-17 386.43 2841.46)" gradientUnits="userSpaceOnUse">
		<stop  offset="0" style="stop-color:#F2D6B0"/>
		<stop  offset="1" style="stop-color:#FF8C8E;stop-opacity:0"/>
	</radialGradient>
	
		<rect x="-322.5" y="749.3" style="opacity:0.5;clip-path:url(#SVGID_00000015329659200629373240000001490953578083854262_);fill:url(#SVGID_00000110466409295907618090000012820180609906887590_);enable-background:new    ;" width="1931" height="223.5"/>
	
		<linearGradient id="SVGID_00000133522635756321404830000002694754190870259102_" gradientUnits="userSpaceOnUse" x1="-316.73" y1="430.775" x2="183.71" y2="430.775" gradientTransform="matrix(1 0 0 -1 0 1024)">
		<stop  offset="0" style="stop-color:#206F73;stop-opacity:0.8"/>
		<stop  offset="0.31" style="stop-color:#69A8A8"/>
		<stop  offset="0.37" style="stop-color:#6CA9A8"/>
		<stop  offset="0.43" style="stop-color:#76ACA9"/>
		<stop  offset="0.48" style="stop-color:#88B2AA"/>
		<stop  offset="0.53" style="stop-color:#A0BBAC"/>
		<stop  offset="0.58" style="stop-color:#C0C6AE"/>
		<stop  offset="0.6" style="stop-color:#D0CCB0"/>
		<stop  offset="1" style="stop-color:#FCDBB3;stop-opacity:0"/>
	</linearGradient>
	
		<rect x="-316.7" y="436.3" style="opacity:0.5;clip-path:url(#SVGID_00000015329659200629373240000001490953578083854262_);fill:url(#SVGID_00000133522635756321404830000002694754190870259102_);enable-background:new    ;" width="500.4" height="313.8"/>
	
		<radialGradient id="SVGID_00000113315408487847087710000013814806400135599269_" cx="321.02" cy="278.24" r="177.59" gradientTransform="matrix(1 0 0 -1 0 1024)" gradientUnits="userSpaceOnUse">
		<stop  offset="0" style="stop-color:#F2D6B0"/>
		<stop  offset="1" style="stop-color:#FF8C8E;stop-opacity:0"/>
	</radialGradient>
	
		<circle style="opacity:0.6;clip-path:url(#SVGID_00000015329659200629373240000001490953578083854262_);fill:url(#SVGID_00000113315408487847087710000013814806400135599269_);enable-background:new    ;" cx="321" cy="745.8" r="177.6"/>
	
		<linearGradient id="SVGID_00000105395795532512152110000015151267559778063769_" gradientUnits="userSpaceOnUse" x1="2195.5237" y1="425.939" x2="2599.3235" y2="425.939" gradientTransform="matrix(6.735558e-17 -1.1 -0.41 -2.510526e-17 484.6 3160.9299)">
		<stop  offset="0" style="stop-color:#F2D6B0"/>
		<stop  offset="1" style="stop-color:#FF8C8E;stop-opacity:0"/>
	</linearGradient>
	
		<rect x="235.4" y="306.9" style="opacity:0.5;clip-path:url(#SVGID_00000015329659200629373240000001490953578083854262_);fill:url(#SVGID_00000105395795532512152110000015151267559778063769_);enable-background:new    ;" width="149" height="442.8"/>
	
		<linearGradient id="SVGID_00000163037942582694531450000001696064335875959953_" gradientUnits="userSpaceOnUse" x1="183.89" y1="389.135" x2="677.64" y2="389.135" gradientTransform="matrix(1 0 0 -1 0 1024)">
		<stop  offset="0" style="stop-color:#206F73"/>
		<stop  offset="0.31" style="stop-color:#69A8A8"/>
		<stop  offset="0.37" style="stop-color:#6CA9A8"/>
		<stop  offset="0.43" style="stop-color:#76ACA9"/>
		<stop  offset="0.48" style="stop-color:#88B2AA"/>
		<stop  offset="0.53" style="stop-color:#A0BBAC"/>
		<stop  offset="0.58" style="stop-color:#C0C6AE"/>
		<stop  offset="0.6" style="stop-color:#D0CCB0"/>
		<stop  offset="1" style="stop-color:#FCDBB3;stop-opacity:0"/>
	</linearGradient>
	
		<rect x="183.9" y="520.1" style="opacity:0.5;clip-path:url(#SVGID_00000015329659200629373240000001490953578083854262_);fill:url(#SVGID_00000163037942582694531450000001696064335875959953_);enable-background:new    ;" width="493.8" height="229.6"/>
	
		<linearGradient id="SVGID_00000145058156723386092890000006766468900788474295_" gradientUnits="userSpaceOnUse" x1="2195.5237" y1="217.2805" x2="2608.3835" y2="217.2805" gradientTransform="matrix(6.735558e-17 -1.1 -0.41 -2.510526e-17 484.59 3160.9199)">
		<stop  offset="0" style="stop-color:#F2D6B0"/>
		<stop  offset="1" style="stop-color:#FF8C8E;stop-opacity:0"/>
	</linearGradient>
	
		<rect x="321" y="296.9" style="opacity:0.5;clip-path:url(#SVGID_00000015329659200629373240000001490953578083854262_);fill:url(#SVGID_00000145058156723386092890000006766468900788474295_);enable-background:new    ;" width="149" height="452.7"/>
	
		<linearGradient id="SVGID_00000153676631108032969140000001670081855559428751_" gradientUnits="userSpaceOnUse" x1="1646.2612" y1="-249.49" x2="1674.2792" y2="-249.49" gradientTransform="matrix(1.022580e-16 1.67 -1 6.123234e-17 392.38 -2047.22)">
		<stop  offset="0" style="stop-color:#F2DAB8;stop-opacity:0"/>
		<stop  offset="1" style="stop-color:#FCDBB3"/>
	</linearGradient>
	
		<rect x="-320.3" y="702.9" style="opacity:0.5;clip-path:url(#SVGID_00000015329659200629373240000001490953578083854262_);fill:url(#SVGID_00000153676631108032969140000001670081855559428751_);enable-background:new    ;" width="1924.3" height="46.8"/>
	
		<linearGradient id="SVGID_00000134948436515738459060000010688691245844829586_" gradientUnits="userSpaceOnUse" x1="1122.33" y1="571.955" x2="1128.8101" y2="571.955" gradientTransform="matrix(1 0 0 -1 0 1024)">
		<stop  offset="0" style="stop-color:#F2DAB8;stop-opacity:0"/>
		<stop  offset="1" style="stop-color:#FCDBB3"/>
	</linearGradient>
	
		<rect x="1122.3" y="154.4" style="clip-path:url(#SVGID_00000015329659200629373240000001490953578083854262_);fill:url(#SVGID_00000134948436515738459060000010688691245844829586_);" width="6.5" height="595.2"/>
	<g style="opacity:0.8;clip-path:url(#SVGID_00000015329659200629373240000001490953578083854262_);">
		<path class="st20" d="M312.5,247.3c-1.1,0,0.2,0.6,1.6,0.8c0.4-0.3,0.8-0.6,1.1-0.9C314.3,247.4,313.4,247.4,312.5,247.3"/>
		<path class="st20" d="M318.3,245.8c0.6-0.9,1.1-1.9,1.3-2.9c-0.1,0.7-0.5,1.4-0.9,2c-2,1.3-0.2-0.8,0-1.5
			C316.5,246.2,318.4,245.1,318.3,245.8"/>
		<path class="st20" d="M320.5,240.2c0.1-2-0.4-1.3-0.6-0.6C320.1,239.7,320.3,241,320.5,240.2"/>
		<path class="st20" d="M308.3,213.3c0.6,0.1,1.3,0.2,1.2,0.3C310.1,213.5,310.3,213.4,308.3,213.3"/>
		<path class="st20" d="M309.5,213.6l-0.4,0.1L309.5,213.6L309.5,213.6"/>
		<path class="st20" d="M327.7,240.9c0.1,1.8-0.5,2.6-1,4.1l-0.9,0.5c-0.8,1.5,0.1,0.9-0.5,2.1c-1.2,1.1-3.7,3.4-4.4,3.6
			c-0.6,0,0.4-0.7,0.5-0.9c-1.6,1.1-1.3,1.7-3.8,2.3l-0.1-0.2c-6.1,2.9-14.5-2.8-14.4-10.6c-0.1,0.5-0.2,0.4-0.3,0.6
			c-0.3-4,1.8-8,5.5-9.6c3.5-1.8,7.7-1,10.3,1.3c-1.4-1.8-4.2-3.8-7.5-3.6c-3.2,0.1-6.2,2.1-7.3,4.3c-1.6,1-1.9,4-2.6,4.6
			c-1,7.1,1.8,10.2,6.6,13.8c0.7,0.5,0.2,0.6,0.3,1c-1.6-0.7-3-1.9-4.2-3.2c0.6,0.9,1.3,1.8,2.2,2.5c-1.5-0.5-3.5-3.6-4-3.7
			c2.5,4.6,10.4,8,14.5,6.3c-1.9,0.1-4.3,0-6.4-0.8c-0.9-0.5-2.1-1.4-1.9-1.6c5.6,2.1,11.3,1.6,16.2-2.3c1.2-1,2.6-2.6,3-2.6
			c-0.6,0.9,0.1,0.4-0.4,1.2c1.2-2-0.5-0.8,1.3-3.4l0.7,0.9c-0.2-1.6,2-3.6,1.8-6.2c0.5-0.8,0.6,0.9,0,2.7c0.8-2,0.2-2.4,0.4-4
			c0.2,0.6,0.5,1.2,0.6,1.8c-0.5-1.9,0.5-3.3,0.8-4.4c-0.2-0.1-0.8,0.9-0.9-1.4c0-1,0.3-0.5,0.4-0.8c-0.2-0.1-0.7-0.9-1-2.4
			c0.2-0.4,0.6,0.9,0.9,0.9c-0.2-1.2-0.5-2.1-0.6-3c-0.9-1.9-0.3,0.2-1-0.8c-1-3,0.8-0.7,0.9-2.1c1.5,2.1,2.3,5.4,2.7,6.8
			c-0.3-1.7-0.8-3.3-1.3-4.8c0.5,0.2-0.7-3.4,0.6-1c-1.4-5.1-5.9-9.8-10.1-12c0.5,0.5,1.1,1.1,0.9,1.1c-2.1-1.2-1.7-1.3-2-1.9
			c-1.7-0.7-1.8,0.1-2.9,0c-3.2-1.7-3.8-1.5-6.7-2.6l0.1,0.6c-2.1-0.7-2.5,0.3-4.7,0c-0.1-0.1,0.7-0.4,1.4-0.5
			c-2,0.3-1.9-0.4-3.9,0.1c0.5-0.3,1-0.6,1.5-0.9c-1.7,0.1-4,1-3.2,0.2c-2.7,1.2-7.5,2.9-10.2,5.4l-0.1-0.6
			c-1.2,1.5-5.4,4.4-5.7,6.4l-0.3,0.1c-0.6,1.1-1.1,2.3-1.6,3.4c-0.8,1.4-1.2,0.6-1.1,0.8c-1.7,3.4-2.5,6.2-3.2,8.5
			c0.5,0.8,0,4.6,0.2,7.6c-0.8,15,10.5,29.6,23,32.9c1.8,0.6,4.5,0.6,6.8,0.7c-2.7-0.8-3.1-0.4-5.7-1.3c-1.9-0.9-2.3-1.9-3.7-3.1
			l0.5,1c-2.6-0.9-1.5-1.2-3.7-1.9l0.6-0.8c-0.9-0.1-2.3-1.5-2.7-2.2l-0.9,0c-1.1-1.4-1.7-2.4-1.7-3.2l-0.3,0.5
			c-0.3-0.6-4.2-5.2-2.2-4.1c-0.4-0.3-0.9-0.5-1.4-1.5l0.4-0.5c-1-1.2-1.8-2.8-1.7-3.3c0.5,0.7,0.9,0.8,1.2,0.9
			c-2.4-6-2.5-0.3-4.4-6.1l0.4,0c-0.3-0.4-0.5-0.9-0.7-1.4l0.2-1.7c-1.7-2-0.5-8.5-0.2-12.1c0.2-1.4,1.4-3,2.4-5.4l-0.6-0.1
			c1.1-2,6.4-7.9,8.9-7.6c1.2-1.5-0.2,0-0.5-0.4c2.6-2.7,3.4-1.9,5.2-2.4c1.9-1.1-1.6,0.4-0.7-0.4c3.3-0.8,2.3-1.9,6.6-2.3
			c0.5,0.3-1,0.4-1.4,0.7c2.7-1.3,8.7-1,12.5,0.7c4.5,2.1,9.5,8.3,9.7,14.1l0.2,0.1c-0.1,2.3,0.4,5-0.5,7.4L327.7,240.9"/>
		<path class="st20" d="M300.5,248.8l-0.1,0.8c0.7,1,1.3,2,2.2,2.8C301.9,251.1,301.5,250.5,300.5,248.8"/>
		<path class="st20" d="M302.2,248.7c-0.4-0.4-0.6-0.9-0.9-1.4c0.2,0.9,0.7,1.6,1.2,2.4L302.2,248.7"/>
		<path class="st20" d="M332.3,242.2l-0.2,0.4c-0.3,2.1-0.9,4.2-1.9,6.1C331.3,246.6,332,244.4,332.3,242.2"/>
		<path class="st20" d="M308.5,212.8c0.7-0.3,1.8-0.1,2.6-0.3c-1,0.1-2,0.1-3,0.3L308.5,212.8"/>
		<path class="st20" d="M282.6,226.6c0.2,1.6-1.2,2.2,0.3,1.1C283.7,225.9,282.6,227.2,282.6,226.6"/>
		<path class="st20" d="M280.9,233.9c0.3-1.1,0.4-1.7,0.5-2.3C280.5,232.8,281,233.1,280.9,233.9"/>
	</g>
	
		<linearGradient id="SVGID_00000117650826254866606450000014097351420788392889_" gradientUnits="userSpaceOnUse" x1="2195.5237" y1="-936.1342" x2="2579.9536" y2="-936.1342" gradientTransform="matrix(6.735558e-17 -1.1 -0.41 -2.510526e-17 484.6 3160.9302)">
		<stop  offset="0" style="stop-color:#F2D6B0"/>
		<stop  offset="1" style="stop-color:#FF8C8E;stop-opacity:0"/>
	</linearGradient>
	
		<rect x="838.6" y="328.1" style="opacity:0.5;clip-path:url(#SVGID_00000015329659200629373240000001490953578083854262_);fill:url(#SVGID_00000117650826254866606450000014097351420788392889_);enable-background:new    ;" width="59.7" height="421.6"/>
	
		<linearGradient id="SVGID_00000017483134074513935370000000824514128251452321_" gradientUnits="userSpaceOnUse" x1="1385.0164" y1="-2772.4268" x2="1547.0664" y2="-2772.4268" gradientTransform="matrix(6.735558e-17 1.1 0.41 -2.510526e-17 1540.26 -770.2501)">
		<stop  offset="0" style="stop-color:#F2D6B0"/>
		<stop  offset="1" style="stop-color:#FF8C8E;stop-opacity:0"/>
	</linearGradient>
	
		<rect x="336.7" y="749.1" style="opacity:0.5;clip-path:url(#SVGID_00000015329659200629373240000001490953578083854262_);fill:url(#SVGID_00000017483134074513935370000000824514128251452321_);enable-background:new    ;" width="133.8" height="177.7"/>
	
		<linearGradient id="SVGID_00000010305895982683754920000013137056092860815803_" gradientUnits="userSpaceOnUse" x1="1385.2563" y1="-2946.7927" x2="1578.3763" y2="-2946.7927" gradientTransform="matrix(6.735558e-17 1.1 0.41 -2.510526e-17 1540.25 -770.2499)">
		<stop  offset="0" style="stop-color:#F2D6B0"/>
		<stop  offset="1" style="stop-color:#FF8C8E;stop-opacity:0"/>
	</linearGradient>
	
		<rect x="320.4" y="749.4" style="opacity:0.5;clip-path:url(#SVGID_00000015329659200629373240000001490953578083854262_);fill:url(#SVGID_00000010305895982683754920000013137056092860815803_);enable-background:new    ;" width="23.2" height="211.8"/>
</g>
</svg>
