<?xml version="1.0" encoding="UTF-8"?><svg id="Calque_1" xmlns="http://www.w3.org/2000/svg" xmlns:xlink="http://www.w3.org/1999/xlink" viewBox="0 0 1280 1024"><defs><style>.cls-1{fill:none;opacity:.8;}.cls-2{fill:url(#Dégradé_sans_nom_2);}.cls-2,.cls-3,.cls-4,.cls-5,.cls-6,.cls-7,.cls-8,.cls-9,.cls-10,.cls-11{opacity:.5;}.cls-12{opacity:.1;}.cls-12,.cls-11{fill:#fee0b6;}.cls-13{fill:#f3d6b0;}.cls-14{fill:#284d55;}.cls-15{fill:url(#Dégradé_sans_nom_304-2);}.cls-16{fill:url(#Dégradé_sans_nom_138-2);}.cls-3{fill:url(#Dégradé_sans_nom_304-6);}.cls-4{fill:url(#Dégradé_sans_nom_304-5);}.cls-5{fill:url(#Dégradé_sans_nom_304-4);}.cls-6{fill:url(#Dégradé_sans_nom_304-3);}.cls-17{fill:url(#Dégradé_sans_nom_297-2);}.cls-17,.cls-18,.cls-19,.cls-20{opacity:.6;}.cls-18{fill:url(#Dégradé_sans_nom_297-3);}.cls-21{fill:url(#Dégradé_sans_nom_153);opacity:.4;}.cls-19{fill:url(#Dégradé_sans_nom_297);}.cls-20{fill:url(#Dégradé_sans_nom_304);}.cls-7{fill:url(#Dégradé_sans_nom_334);}.cls-8{fill:url(#Dégradé_sans_nom_435);}.cls-9{fill:url(#Dégradé_sans_nom_437);}.cls-10{fill:url(#Dégradé_sans_nom_138);}.cls-22{fill:url(#Dégradé_sans_nom_342);}.cls-23{fill:url(#Dégradé_sans_nom_291);}.cls-24{fill:url(#Dégradé_sans_nom_293);}</style><linearGradient id="Dégradé_sans_nom_291" x1="954.59" y1="468.07" x2="1608.39" y2="468.07" gradientUnits="userSpaceOnUse"><stop offset="0" stop-color="#206f73"/><stop offset="0" stop-color="#fddbb3"/><stop offset="1" stop-color="#2d7577"/></linearGradient><linearGradient id="Dégradé_sans_nom_342" x1="-323.26" y1="469.38" x2="1128.86" y2="469.38" gradientUnits="userSpaceOnUse"><stop offset="0" stop-color="#2f7274"/><stop offset=".5" stop-color="#69a8a8"/><stop offset=".6" stop-color="#6ca9a8"/><stop offset=".68" stop-color="#76aca9"/><stop offset=".76" stop-color="#88b2aa"/><stop offset=".83" stop-color="#a0bbac"/><stop offset=".9" stop-color="#c0c6ae"/><stop offset=".97" stop-color="#e7d3b1"/><stop offset="1" stop-color="#fcdbb3"/></linearGradient><linearGradient id="Dégradé_sans_nom_304" x1="-115.04" y1="931.26" x2="243.19" y2="931.26" gradientTransform="translate(3.81 -2.47)" gradientUnits="userSpaceOnUse"><stop offset="0" stop-color="#f2d6b0"/><stop offset="1" stop-color="#ff8c8e" stop-opacity="0"/></linearGradient><radialGradient id="Dégradé_sans_nom_153" cx="1152.28" cy="711.76" fx="1152.28" fy="711.76" r="333.36" gradientUnits="userSpaceOnUse"><stop offset="0" stop-color="#a80030"/><stop offset="1" stop-color="#ff8c8e" stop-opacity="0"/></radialGradient><linearGradient id="Dégradé_sans_nom_293" x1="917.35" y1="1123.17" x2="1529.38" y2="511.14" gradientTransform="translate(-118.52 -183.02)" gradientUnits="userSpaceOnUse"><stop offset="0" stop-color="#487c80" stop-opacity="0"/><stop offset="1" stop-color="#5ea498"/></linearGradient><radialGradient id="Dégradé_sans_nom_297" cx="196.33" cy="748.78" fx="196.33" fy="748.78" r="435.9" gradientUnits="userSpaceOnUse"><stop offset="0" stop-color="#f2d6b0"/><stop offset="1" stop-color="#ff8c8e" stop-opacity="0"/></radialGradient><radialGradient id="Dégradé_sans_nom_297-2" cx="176.34" cy="513.61" fx="176.34" fy="513.61" r="248.14" xlink:href="#Dégradé_sans_nom_297"/><linearGradient id="Dégradé_sans_nom_304-2" x1="58.49" y1="748.37" x2="58.49" y2="30.02" gradientTransform="matrix(1,0,0,1,0,0)" xlink:href="#Dégradé_sans_nom_304"/><radialGradient id="Dégradé_sans_nom_2" cx="993.05" cy="1401.9" fx="993.05" fy="1401.9" r="685" gradientTransform="translate(-262.18 -547.48) scale(.91 1)" gradientUnits="userSpaceOnUse"><stop offset="0" stop-color="#f2d6b0"/><stop offset="1" stop-color="#ff8c8e" stop-opacity="0"/></radialGradient><linearGradient id="Dégradé_sans_nom_437" x1="-316.73" y1="593.22" x2="183.71" y2="593.22" gradientUnits="userSpaceOnUse"><stop offset="0" stop-color="#206f73" stop-opacity=".8"/><stop offset=".31" stop-color="#69a8a8"/><stop offset=".37" stop-color="#6ca9a8"/><stop offset=".43" stop-color="#76aca9"/><stop offset=".48" stop-color="#88b2aa"/><stop offset=".53" stop-color="#a0bbac"/><stop offset=".58" stop-color="#c0c6ae"/><stop offset=".6" stop-color="#d0ccb0"/><stop offset="1" stop-color="#fcdbb3" stop-opacity="0"/></linearGradient><radialGradient id="Dégradé_sans_nom_297-3" cx="321.02" cy="745.76" fx="321.02" fy="745.76" r="177.59" xlink:href="#Dégradé_sans_nom_297"/><linearGradient id="Dégradé_sans_nom_435" x1="1109.16" y1="1637.99" x2="1512.96" y2="1637.99" gradientTransform="translate(-1127.71 -141.13) scale(1.1 .41)" gradientUnits="userSpaceOnUse"><stop offset="0" stop-color="#f2d6b0"/><stop offset="1" stop-color="#ff8c8e" stop-opacity="0"/></linearGradient><linearGradient id="Dégradé_sans_nom_334" x1="183.89" y1="634.86" x2="677.64" y2="634.86" gradientUnits="userSpaceOnUse"><stop offset="0" stop-color="#206f73"/><stop offset=".31" stop-color="#69a8a8"/><stop offset=".37" stop-color="#6ca9a8"/><stop offset=".43" stop-color="#76aca9"/><stop offset=".48" stop-color="#88b2aa"/><stop offset=".53" stop-color="#a0bbac"/><stop offset=".58" stop-color="#c0c6ae"/><stop offset=".6" stop-color="#d0ccb0"/><stop offset="1" stop-color="#fcdbb3" stop-opacity="0"/></linearGradient><linearGradient id="Dégradé_sans_nom_304-3" x1="1109.16" y1="1847.31" x2="1522.02" y2="1847.31" gradientTransform="translate(-1047.13 -231.64) scale(1.1 .41)" xlink:href="#Dégradé_sans_nom_304"/><linearGradient id="Dégradé_sans_nom_138" x1="1316.86" y1="1401.49" x2="1344.87" y2="1401.49" gradientTransform="translate(-1581.51 2127.75) scale(1.67 -1)" gradientUnits="userSpaceOnUse"><stop offset="0" stop-color="#f2dab8" stop-opacity="0"/><stop offset="1" stop-color="#fcdbb3"/></linearGradient><linearGradient id="Dégradé_sans_nom_138-2" x1="1122.33" y1="452.05" x2="1128.81" y2="452.05" gradientTransform="translate(2251.14 904.1) rotate(-180)" xlink:href="#Dégradé_sans_nom_138"/><linearGradient id="Dégradé_sans_nom_304-4" x1="1109.16" y1="3004.55" x2="1493.59" y2="3004.55" gradientTransform="translate(-558.63 -688.96) scale(1.1 .41)" xlink:href="#Dégradé_sans_nom_304"/><linearGradient id="Dégradé_sans_nom_304-5" x1="1211.38" y1="1763.6" x2="1373.43" y2="1763.6" gradientTransform="translate(-1013.65 117.25) scale(1.1 .41)" xlink:href="#Dégradé_sans_nom_304"/><linearGradient id="Dégradé_sans_nom_304-6" x1="1211.62" y1="1938.54" x2="1404.74" y2="1938.54" gradientTransform="translate(-1102.44 63.06) scale(1.1 .41)" xlink:href="#Dégradé_sans_nom_304"/></defs><rect class="cls-14" x="-320" y="-88" width="1920" height="1200"/><rect class="cls-23" x="954.59" y="-329.31" width="653.8" height="1594.76"/><rect class="cls-22" x="-323.26" y="-326.18" width="1452.12" height="1591.13"/><rect class="cls-12" x="-71.41" y="719.68" width="251.1" height="405.44"/><rect class="cls-20" x="-111.23" y="813.15" width="358.23" height="231.29" transform="translate(996.68 860.91) rotate(90)"/><circle class="cls-21" cx="1152.28" cy="711.76" r="333.36"/><rect class="cls-24" x="972.07" y="154.88" width="265.56" height="958.5" transform="translate(2209.7 1268.26) rotate(180)"/><circle class="cls-19" cx="196.33" cy="748.78" r="435.9"/><circle class="cls-17" cx="176.34" cy="513.61" r="248.14"/><rect class="cls-15" x="-67.06" y="30.02" width="251.1" height="718.35"/><rect class="cls-11" x="-45.84" y="243.23" width="228.79" height="505.94"/><rect class="cls-2" x="531.21" y="-104.45" width="223.47" height="1930.97" transform="translate(-218.09 1503.98) rotate(-90)"/><rect class="cls-9" x="-316.73" y="436.32" width="500.44" height="313.81"/><circle class="cls-18" cx="321.02" cy="745.76" r="177.59"/><rect class="cls-8" x="88.56" y="453.74" width="442.8" height="149.03" transform="translate(-218.29 838.22) rotate(-90)"/><rect class="cls-7" x="183.89" y="520.07" width="493.75" height="229.59"/><rect class="cls-6" x="169.14" y="448.78" width="452.73" height="149.03" transform="translate(-127.79 918.79) rotate(-90)"/><rect class="cls-10" x="618.48" y="-235.9" width="46.79" height="1924.32" transform="translate(1368.13 84.39) rotate(90)"/><rect class="cls-16" x="1122.33" y="154.45" width="6.47" height="595.21" transform="translate(2251.14 904.1) rotate(180)"/><g class="cls-1"><path class="cls-13" d="m312.47,247.3c-1.09.01.21.56,1.63.78.4-.31.75-.62,1.07-.92-.89.22-1.79.22-2.7.14"/><path class="cls-13" d="m318.33,245.84c.65-.9,1.13-1.88,1.29-2.9-.15.72-.54,1.35-.91,2.01-2.04,1.29-.19-.76,0-1.54-2.19,2.76-.3,1.66-.38,2.43"/><path class="cls-13" d="m320.5,240.21c.13-1.97-.39-1.34-.56-.59.2.11.36,1.39.56.59"/><path class="cls-13" d="m308.33,213.33c.58.1,1.26.18,1.16.32.64-.14.78-.27-1.16-.32"/><path class="cls-13" d="m309.5,213.65l-.41.09.38-.04.03-.05"/><path class="cls-13" d="m327.67,240.95c.07,1.77-.52,2.62-1.04,4.14l-.94.47c-.77,1.5.08.95-.48,2.15-1.21,1.07-3.66,3.35-4.44,3.56-.57-.01.39-.68.51-.94-1.61,1.11-1.3,1.66-3.77,2.34l-.07-.16c-6.09,2.86-14.54-2.81-14.43-10.55-.06.49-.18.37-.32.57-.31-3.98,1.84-7.98,5.47-9.62,3.55-1.76,7.72-1.04,10.26,1.34-1.4-1.83-4.18-3.77-7.48-3.59-3.23.05-6.25,2.11-7.26,4.34-1.65,1.04-1.85,4.02-2.57,4.56-.97,7.13,1.82,10.21,6.56,13.84.74.5.21.58.31.96-1.57-.74-3.01-1.85-4.19-3.21.63.92,1.31,1.81,2.18,2.51-1.48-.5-3.46-3.59-4.04-3.72,2.55,4.57,10.36,8.02,14.45,6.31-1.89.07-4.3.04-6.42-.75-.9-.46-2.11-1.41-1.89-1.59,5.58,2.08,11.34,1.58,16.17-2.29,1.23-.96,2.57-2.58,2.96-2.61-.58.88.1.42-.35,1.2,1.22-1.97-.53-.8,1.26-3.41l.66.91c-.25-1.64,2.04-3.63,1.8-6.22.52-.79.58.85.03,2.68.77-2.02.2-2.35.4-4.02.21.56.5,1.16.64,1.75-.5-1.95.51-3.29.77-4.43-.25-.11-.78.86-.9-1.44.02-1,.28-.53.38-.77-.2-.11-.71-.88-1.03-2.36.23-.35.61.9.92.95-.2-1.17-.54-2.07-.56-2.96-.91-1.89-.32.25-1.05-.81-.96-3.01.8-.7.92-2.06,1.46,2.12,2.29,5.4,2.68,6.76-.29-1.66-.76-3.26-1.34-4.82.45.19-.72-3.41.58-1.03-1.38-5.08-5.9-9.82-10.07-12.04.51.47,1.15,1.05.92,1.14-2.07-1.23-1.71-1.33-2-1.85-1.68-.69-1.8.06-2.91,0-3.18-1.69-3.79-1.51-6.72-2.56l.13.62c-2.11-.7-2.45.26-4.73,0-.14-.11.73-.39,1.44-.49-2.04.27-1.94-.4-3.93.07.49-.34,1.01-.57,1.53-.87-1.66.1-3.96.97-3.25.18-2.71,1.21-7.52,2.9-10.22,5.44l-.08-.57c-1.24,1.48-5.39,4.43-5.72,6.36l-.33.08c-.64,1.09-1.06,2.32-1.57,3.44-.84,1.43-1.23.55-1.11.78-1.66,3.36-2.48,6.18-3.19,8.49.51.76.01,4.55.2,7.59-.83,15.01,10.54,29.59,22.96,32.95,1.82.65,4.53.63,6.83.69-2.72-.78-3.07-.41-5.72-1.33-1.91-.9-2.33-1.93-3.68-3.1l.54.95c-2.65-.94-1.54-1.16-3.7-1.85l.57-.75c-.86-.07-2.28-1.45-2.67-2.22l-.94.04c-1.13-1.39-1.73-2.4-1.69-3.18l-.3.54c-.34-.59-4.16-5.23-2.18-4.15-.37-.33-.86-.55-1.39-1.51l.4-.46c-.95-1.23-1.75-2.8-1.69-3.32.51.69.86.81,1.21.93-2.41-5.97-2.54-.33-4.36-6.07l.38-.03c-.29-.45-.48-.93-.71-1.4l.17-1.67c-1.73-2-.48-8.51-.23-12.08.17-1.45,1.44-3,2.41-5.42l-.59-.1c1.13-1.96,6.43-7.89,8.89-7.59,1.19-1.5-.24,0-.47-.38,2.62-2.71,3.44-1.91,5.2-2.4,1.9-1.13-1.63.44-.73-.43,3.29-.84,2.33-1.91,6.62-2.34.45.26-1.05.4-1.43.73,2.74-1.34,8.67-1.04,12.53.74,4.47,2.09,9.5,8.27,9.69,14.08l.23.06c-.11,2.31.35,4.98-.46,7.44l.55-1.16"/><path class="cls-13" d="m300.55,248.8l-.15.77c.72.98,1.29,2.03,2.2,2.79-.66-1.29-1.15-1.82-2.05-3.56"/><path class="cls-13" d="m302.25,248.73c-.38-.42-.6-.93-.86-1.43.24.88.74,1.65,1.19,2.42l-.34-.99"/><path class="cls-13" d="m332.27,242.2l-.16.4c-.29,2.09-.93,4.16-1.9,6.07,1.08-2.02,1.77-4.23,2.06-6.48"/><path class="cls-13" d="m308.55,212.81c.74-.27,1.81-.15,2.6-.33-1.02.09-2.04.14-3.04.26l.44.06"/><path class="cls-13" d="m282.63,226.59c.17,1.57-1.18,2.19.3,1.15.8-1.79-.31-.49-.3-1.15"/><path class="cls-13" d="m280.88,233.88c.34-1.05.4-1.68.53-2.29-.94,1.21-.44,1.47-.53,2.29"/></g><rect class="cls-5" x="657.64" y="509.05" width="421.56" height="59.65" transform="translate(329.54 1407.3) rotate(-90)"/><rect class="cls-4" x="314.71" y="771.07" width="177.71" height="133.79" transform="translate(1241.53 434.4) rotate(90)"/><rect class="cls-3" x="226.19" y="843.64" width="211.76" height="23.25" transform="translate(1187.33 523.19) rotate(90)"/></svg>