<?xml version="1.0" encoding="utf-8"?>
<!-- Generator: $$$/GeneralStr/196=Adobe Illustrator 27.6.0, SVG Export Plug-In . SVG Version: 6.00 Build 0)  -->
<svg version="1.1" id="Calque_1" xmlns="http://www.w3.org/2000/svg" xmlns:xlink="http://www.w3.org/1999/xlink" x="0px" y="0px"
	 viewBox="0 0 1920 1200" style="enable-background:new 0 0 1920 1200;" xml:space="preserve">
<style type="text/css">
	.st0{clip-path:url(#SVGID_00000157993304843931670830000014120033487633048469_);fill:#284D55;}
	
		.st1{clip-path:url(#SVGID_00000157993304843931670830000014120033487633048469_);fill:url(#SVGID_00000090985731607570909760000010184346991991746993_);}
	
		.st2{clip-path:url(#SVGID_00000157993304843931670830000014120033487633048469_);fill:url(#SVGID_00000057134686545198593040000015281050512450781848_);}
	
		.st3{opacity:0.1;clip-path:url(#SVGID_00000157993304843931670830000014120033487633048469_);fill:#FEE0B6;enable-background:new    ;}
	
		.st4{opacity:0.6;clip-path:url(#SVGID_00000157993304843931670830000014120033487633048469_);fill:url(#SVGID_00000096751152447613734720000002371208608300794042_);enable-background:new    ;}
	
		.st5{opacity:0.4;clip-path:url(#SVGID_00000157993304843931670830000014120033487633048469_);fill:url(#SVGID_00000109752225338293170990000001097096275258119558_);enable-background:new    ;}
	
		.st6{clip-path:url(#SVGID_00000157993304843931670830000014120033487633048469_);fill:url(#SVGID_00000031898363921968107940000012074924102036324751_);}
	
		.st7{opacity:0.6;clip-path:url(#SVGID_00000157993304843931670830000014120033487633048469_);fill:url(#SVGID_00000072984508949467579160000012568017083017419908_);enable-background:new    ;}
	
		.st8{opacity:0.6;clip-path:url(#SVGID_00000157993304843931670830000014120033487633048469_);fill:url(#SVGID_00000175324027190115288120000007438496940806867601_);enable-background:new    ;}
	
		.st9{clip-path:url(#SVGID_00000157993304843931670830000014120033487633048469_);fill:url(#SVGID_00000125591626030393681710000015206076047248688547_);}
	
		.st10{opacity:0.5;clip-path:url(#SVGID_00000157993304843931670830000014120033487633048469_);fill:#FEE0B6;enable-background:new    ;}
	
		.st11{opacity:0.5;clip-path:url(#SVGID_00000157993304843931670830000014120033487633048469_);fill:url(#SVGID_00000029032619149947076050000017893464955355764408_);enable-background:new    ;}
	
		.st12{opacity:0.5;clip-path:url(#SVGID_00000157993304843931670830000014120033487633048469_);fill:url(#SVGID_00000115482912114406811280000016445698022121014945_);enable-background:new    ;}
	
		.st13{opacity:0.6;clip-path:url(#SVGID_00000157993304843931670830000014120033487633048469_);fill:url(#SVGID_00000026847508100057294590000010065912980754027423_);enable-background:new    ;}
	
		.st14{opacity:0.5;clip-path:url(#SVGID_00000157993304843931670830000014120033487633048469_);fill:url(#SVGID_00000067933924549387680240000011358015575542317704_);enable-background:new    ;}
	
		.st15{opacity:0.5;clip-path:url(#SVGID_00000157993304843931670830000014120033487633048469_);fill:url(#SVGID_00000108300552513477771790000005002204861500755840_);enable-background:new    ;}
	
		.st16{opacity:0.5;clip-path:url(#SVGID_00000157993304843931670830000014120033487633048469_);fill:url(#SVGID_00000114757860974984719630000014624680739757472670_);enable-background:new    ;}
	
		.st17{opacity:0.5;clip-path:url(#SVGID_00000157993304843931670830000014120033487633048469_);fill:url(#SVGID_00000026163483522683904350000010475682179609858474_);enable-background:new    ;}
	
		.st18{opacity:0.5;clip-path:url(#SVGID_00000157993304843931670830000014120033487633048469_);fill:url(#SVGID_00000000944179860508378050000005836776387451652999_);enable-background:new    ;}
	
		.st19{clip-path:url(#SVGID_00000157993304843931670830000014120033487633048469_);fill:url(#SVGID_00000100355628950957538230000011922376732859730336_);}
	.st20{opacity:0.8;clip-path:url(#SVGID_00000157993304843931670830000014120033487633048469_);}
	.st21{fill:#F3D6B0;}
	
		.st22{opacity:0.5;clip-path:url(#SVGID_00000157993304843931670830000014120033487633048469_);fill:url(#SVGID_00000137822130626013321830000008277530690433631387_);enable-background:new    ;}
	
		.st23{opacity:0.5;clip-path:url(#SVGID_00000157993304843931670830000014120033487633048469_);fill:url(#SVGID_00000176006206455943203320000013017174849559108264_);enable-background:new    ;}
	
		.st24{opacity:0.5;clip-path:url(#SVGID_00000157993304843931670830000014120033487633048469_);fill:url(#SVGID_00000070116548599990651860000007137394363614714798_);enable-background:new    ;}
	
		.st25{opacity:0.5;clip-path:url(#SVGID_00000157993304843931670830000014120033487633048469_);fill:url(#SVGID_00000093148061481764444880000009844273045977042596_);enable-background:new    ;}
</style>
<g>
	<defs>
		<rect id="SVGID_1_" width="1920" height="1200"/>
	</defs>
	<clipPath id="SVGID_00000003813353580398503320000016902133226749740465_">
		<use xlink:href="#SVGID_1_"  style="overflow:visible;"/>
	</clipPath>
	
		<rect style="clip-path:url(#SVGID_00000003813353580398503320000016902133226749740465_);fill:#284D55;" width="1920" height="1200"/>
	
		<linearGradient id="SVGID_00000033343846133968731230000016986459463006613439_" gradientUnits="userSpaceOnUse" x1="1274.59" y1="643.9301" x2="1928.3899" y2="643.9301" gradientTransform="matrix(1 0 0 -1 0 1200)">
		<stop  offset="0" style="stop-color:#206F73"/>
		<stop  offset="0" style="stop-color:#FDDBB3"/>
		<stop  offset="1" style="stop-color:#2D7577"/>
	</linearGradient>
	
		<rect x="1274.6" y="-241.3" style="clip-path:url(#SVGID_00000003813353580398503320000016902133226749740465_);fill:url(#SVGID_00000033343846133968731230000016986459463006613439_);" width="653.8" height="1594.8"/>
	
		<linearGradient id="SVGID_00000039854090089552366770000013869421546903648161_" gradientUnits="userSpaceOnUse" x1="-3.26" y1="642.615" x2="1448.86" y2="642.615" gradientTransform="matrix(1 0 0 -1 0 1200)">
		<stop  offset="0" style="stop-color:#2F7274"/>
		<stop  offset="0.5" style="stop-color:#69A8A8"/>
		<stop  offset="0.6" style="stop-color:#6CA9A8"/>
		<stop  offset="0.68" style="stop-color:#76ACA9"/>
		<stop  offset="0.76" style="stop-color:#88B2AA"/>
		<stop  offset="0.83" style="stop-color:#A0BBAC"/>
		<stop  offset="0.9" style="stop-color:#C0C6AE"/>
		<stop  offset="0.97" style="stop-color:#E7D3B1"/>
		<stop  offset="1" style="stop-color:#FCDBB3"/>
	</linearGradient>
	
		<rect x="-3.3" y="-238.2" style="clip-path:url(#SVGID_00000003813353580398503320000016902133226749740465_);fill:url(#SVGID_00000039854090089552366770000013869421546903648161_);" width="1452.1" height="1591.1"/>
	
		<rect x="248.6" y="807.7" style="opacity:0.1;clip-path:url(#SVGID_00000003813353580398503320000016902133226749740465_);fill:#FEE0B6;enable-background:new    ;" width="251.1" height="405.4"/>
	
		<linearGradient id="SVGID_00000158742554423575220000000016320138830256450705_" gradientUnits="userSpaceOnUse" x1="564.96" y1="-1359.265" x2="923.19" y2="-1359.265" gradientTransform="matrix(6.123234e-17 1 1 -6.123234e-17 1747.15 272.72)">
		<stop  offset="0" style="stop-color:#F2D6B0"/>
		<stop  offset="1" style="stop-color:#FF8C8E;stop-opacity:0"/>
	</linearGradient>
	
		<rect x="272.2" y="837.7" style="opacity:0.6;clip-path:url(#SVGID_00000003813353580398503320000016902133226749740465_);fill:url(#SVGID_00000158742554423575220000000016320138830256450705_);enable-background:new    ;" width="231.3" height="358.2"/>
	
		<radialGradient id="SVGID_00000175293741599731972180000016673791344389808519_" cx="1472.28" cy="400.24" r="333.36" gradientTransform="matrix(1 0 0 -1 0 1200)" gradientUnits="userSpaceOnUse">
		<stop  offset="0" style="stop-color:#A80030"/>
		<stop  offset="1" style="stop-color:#FF8C8E;stop-opacity:0"/>
	</radialGradient>
	
		<circle style="opacity:0.4;clip-path:url(#SVGID_00000003813353580398503320000016902133226749740465_);fill:url(#SVGID_00000175293741599731972180000016673791344389808519_);enable-background:new    ;" cx="1472.3" cy="799.8" r="333.4"/>
	
		<linearGradient id="SVGID_00000137119871975008410980000014276739992466975119_" gradientUnits="userSpaceOnUse" x1="3137.355" y1="-1191.165" x2="3749.385" y2="-579.135" gradientTransform="matrix(-1 0 0 1 4868.2197 1607.28)">
		<stop  offset="0" style="stop-color:#487C80;stop-opacity:0"/>
		<stop  offset="1" style="stop-color:#5EA498"/>
	</linearGradient>
	
		<rect x="1292.1" y="242.9" style="clip-path:url(#SVGID_00000003813353580398503320000016902133226749740465_);fill:url(#SVGID_00000137119871975008410980000014276739992466975119_);" width="265.6" height="958.5"/>
	
		<radialGradient id="SVGID_00000129913806636186176230000015974560889420312706_" cx="516.33" cy="363.22" r="435.9" gradientTransform="matrix(1 0 0 -1 0 1200)" gradientUnits="userSpaceOnUse">
		<stop  offset="0" style="stop-color:#F2D6B0"/>
		<stop  offset="1" style="stop-color:#FF8C8E;stop-opacity:0"/>
	</radialGradient>
	
		<circle style="opacity:0.6;clip-path:url(#SVGID_00000003813353580398503320000016902133226749740465_);fill:url(#SVGID_00000129913806636186176230000015974560889420312706_);enable-background:new    ;" cx="516.3" cy="836.8" r="435.9"/>
	
		<radialGradient id="SVGID_00000005985393362937456430000008813936976989332619_" cx="496.34" cy="598.39" r="248.14" gradientTransform="matrix(1 0 0 -1 0 1200)" gradientUnits="userSpaceOnUse">
		<stop  offset="0" style="stop-color:#F2D6B0"/>
		<stop  offset="1" style="stop-color:#FF8C8E;stop-opacity:0"/>
	</radialGradient>
	
		<circle style="opacity:0.6;clip-path:url(#SVGID_00000003813353580398503320000016902133226749740465_);fill:url(#SVGID_00000005985393362937456430000008813936976989332619_);enable-background:new    ;" cx="496.3" cy="601.6" r="248.1"/>
	
		<linearGradient id="SVGID_00000071548129582786072710000006450298359597175970_" gradientUnits="userSpaceOnUse" x1="378.49" y1="363.63" x2="378.49" y2="1081.98" gradientTransform="matrix(1 0 0 -1 0 1200)">
		<stop  offset="0" style="stop-color:#F2D6B0"/>
		<stop  offset="1" style="stop-color:#FF8C8E;stop-opacity:0"/>
	</linearGradient>
	
		<rect x="252.9" y="118" style="clip-path:url(#SVGID_00000003813353580398503320000016902133226749740465_);fill:url(#SVGID_00000071548129582786072710000006450298359597175970_);" width="251.1" height="718.3"/>
	
		<rect x="274.2" y="331.2" style="opacity:0.5;clip-path:url(#SVGID_00000003813353580398503320000016902133226749740465_);fill:#FEE0B6;enable-background:new    ;" width="228.8" height="505.9"/>
	
		<radialGradient id="SVGID_00000046339996002735550450000002580193986321997727_" cx="2911.4016" cy="70.1" r="685" gradientTransform="matrix(5.572143e-17 -0.91 -1 -6.123234e-17 1026.01 3600.3301)" gradientUnits="userSpaceOnUse">
		<stop  offset="0" style="stop-color:#F2D6B0"/>
		<stop  offset="1" style="stop-color:#FF8C8E;stop-opacity:0"/>
	</radialGradient>
	
		<rect x="-2.5" y="837.3" style="opacity:0.5;clip-path:url(#SVGID_00000003813353580398503320000016902133226749740465_);fill:url(#SVGID_00000046339996002735550450000002580193986321997727_);enable-background:new    ;" width="1931" height="223.5"/>
	
		<linearGradient id="SVGID_00000178206718184315272350000010882167552645177276_" gradientUnits="userSpaceOnUse" x1="3.27" y1="518.775" x2="503.71" y2="518.775" gradientTransform="matrix(1 0 0 -1 0 1200)">
		<stop  offset="0" style="stop-color:#206F73;stop-opacity:0.8"/>
		<stop  offset="0.31" style="stop-color:#69A8A8"/>
		<stop  offset="0.37" style="stop-color:#6CA9A8"/>
		<stop  offset="0.43" style="stop-color:#76ACA9"/>
		<stop  offset="0.48" style="stop-color:#88B2AA"/>
		<stop  offset="0.53" style="stop-color:#A0BBAC"/>
		<stop  offset="0.58" style="stop-color:#C0C6AE"/>
		<stop  offset="0.6" style="stop-color:#D0CCB0"/>
		<stop  offset="1" style="stop-color:#FCDBB3;stop-opacity:0"/>
	</linearGradient>
	
		<rect x="3.3" y="524.3" style="opacity:0.5;clip-path:url(#SVGID_00000003813353580398503320000016902133226749740465_);fill:url(#SVGID_00000178206718184315272350000010882167552645177276_);enable-background:new    ;" width="500.4" height="313.8"/>
	
		<radialGradient id="SVGID_00000045616274549754080970000008654278972842834328_" cx="641.02" cy="366.24" r="177.59" gradientTransform="matrix(1 0 0 -1 0 1200)" gradientUnits="userSpaceOnUse">
		<stop  offset="0" style="stop-color:#F2D6B0"/>
		<stop  offset="1" style="stop-color:#FF8C8E;stop-opacity:0"/>
	</radialGradient>
	
		<circle style="opacity:0.6;clip-path:url(#SVGID_00000003813353580398503320000016902133226749740465_);fill:url(#SVGID_00000045616274549754080970000008654278972842834328_);enable-background:new    ;" cx="641" cy="833.8" r="177.6"/>
	
		<linearGradient id="SVGID_00000182503826206119287230000005922380659765445541_" gradientUnits="userSpaceOnUse" x1="2915.0935" y1="2414.5854" x2="3278.2437" y2="2414.5854" gradientTransform="matrix(6.735558e-17 -1.1 -0.41 -2.510526e-17 1124.71 4039.8201)">
		<stop  offset="0" style="stop-color:#F2D6B0"/>
		<stop  offset="1" style="stop-color:#FF8C8E;stop-opacity:0"/>
	</linearGradient>
	
		<rect x="-3.5" y="439.9" style="opacity:0.5;clip-path:url(#SVGID_00000003813353580398503320000016902133226749740465_);fill:url(#SVGID_00000182503826206119287230000005922380659765445541_);enable-background:new    ;" width="276.4" height="398.2"/>
	
		<linearGradient id="SVGID_00000034084852447449461070000017343756488566155412_" gradientUnits="userSpaceOnUse" x1="2915.5237" y1="1206.7195" x2="3319.3235" y2="1206.7195" gradientTransform="matrix(6.735558e-17 -1.1 -0.41 -2.510526e-17 1124.72 4039.8301)">
		<stop  offset="0" style="stop-color:#F2D6B0"/>
		<stop  offset="1" style="stop-color:#FF8C8E;stop-opacity:0"/>
	</linearGradient>
	
		<rect x="555.5" y="394.9" style="opacity:0.5;clip-path:url(#SVGID_00000003813353580398503320000016902133226749740465_);fill:url(#SVGID_00000034084852447449461070000017343756488566155412_);enable-background:new    ;" width="149" height="442.8"/>
	
		<linearGradient id="SVGID_00000150086812786895301950000015168345547984768141_" gradientUnits="userSpaceOnUse" x1="503.89" y1="477.135" x2="997.64" y2="477.135" gradientTransform="matrix(1 0 0 -1 0 1200)">
		<stop  offset="0" style="stop-color:#206F73"/>
		<stop  offset="0.31" style="stop-color:#69A8A8"/>
		<stop  offset="0.37" style="stop-color:#6CA9A8"/>
		<stop  offset="0.43" style="stop-color:#76ACA9"/>
		<stop  offset="0.48" style="stop-color:#88B2AA"/>
		<stop  offset="0.53" style="stop-color:#A0BBAC"/>
		<stop  offset="0.58" style="stop-color:#C0C6AE"/>
		<stop  offset="0.6" style="stop-color:#D0CCB0"/>
		<stop  offset="1" style="stop-color:#FCDBB3;stop-opacity:0"/>
	</linearGradient>
	
		<rect x="503.9" y="608.1" style="opacity:0.5;clip-path:url(#SVGID_00000003813353580398503320000016902133226749740465_);fill:url(#SVGID_00000150086812786895301950000015168345547984768141_);enable-background:new    ;" width="493.8" height="229.6"/>
	
		<linearGradient id="SVGID_00000183222886172143162720000014991019426758593687_" gradientUnits="userSpaceOnUse" x1="2915.5237" y1="998.0609" x2="3328.3835" y2="998.0609" gradientTransform="matrix(6.735558e-17 -1.1 -0.41 -2.510526e-17 1124.71 4039.8301)">
		<stop  offset="0" style="stop-color:#F2D6B0"/>
		<stop  offset="1" style="stop-color:#FF8C8E;stop-opacity:0"/>
	</linearGradient>
	
		<rect x="641" y="384.9" style="opacity:0.5;clip-path:url(#SVGID_00000003813353580398503320000016902133226749740465_);fill:url(#SVGID_00000183222886172143162720000014991019426758593687_);enable-background:new    ;" width="149" height="452.7"/>
	
		<linearGradient id="SVGID_00000098193950162108760340000006270870098299977886_" gradientUnits="userSpaceOnUse" x1="2233.5667" y1="70.51" x2="2261.5845" y2="70.51" gradientTransform="matrix(1.022580e-16 1.67 -1 6.123234e-17 1032.38 -2940.23)">
		<stop  offset="0" style="stop-color:#F2DAB8;stop-opacity:0"/>
		<stop  offset="1" style="stop-color:#FCDBB3"/>
	</linearGradient>
	
		<rect x="-0.3" y="790.9" style="opacity:0.5;clip-path:url(#SVGID_00000003813353580398503320000016902133226749740465_);fill:url(#SVGID_00000098193950162108760340000006270870098299977886_);enable-background:new    ;" width="1924.3" height="46.8"/>
	
		<linearGradient id="SVGID_00000146460388859785837880000016359030340635740338_" gradientUnits="userSpaceOnUse" x1="1442.33" y1="659.955" x2="1448.8101" y2="659.955" gradientTransform="matrix(1 0 0 -1 0 1200)">
		<stop  offset="0" style="stop-color:#F2DAB8;stop-opacity:0"/>
		<stop  offset="1" style="stop-color:#FCDBB3"/>
	</linearGradient>
	
		<rect x="1442.3" y="242.4" style="clip-path:url(#SVGID_00000003813353580398503320000016902133226749740465_);fill:url(#SVGID_00000146460388859785837880000016359030340635740338_);" width="6.5" height="595.2"/>
	<g style="opacity:0.8;clip-path:url(#SVGID_00000003813353580398503320000016902133226749740465_);">
		<path class="st21" d="M632.5,335.3c-1.1,0,0.2,0.6,1.6,0.8c0.4-0.3,0.8-0.6,1.1-0.9C634.3,335.4,633.4,335.4,632.5,335.3"/>
		<path class="st21" d="M638.3,333.8c0.7-0.9,1.1-1.9,1.3-2.9c-0.2,0.7-0.5,1.4-0.9,2c-2,1.3-0.2-0.8,0-1.5
			C636.5,334.2,638.4,333.1,638.3,333.8"/>
		<path class="st21" d="M640.5,328.2c0.1-2-0.4-1.3-0.6-0.6C640.1,327.7,640.3,329,640.5,328.2"/>
		<path class="st21" d="M628.3,301.3c0.6,0.1,1.3,0.2,1.2,0.3C630.1,301.5,630.3,301.4,628.3,301.3"/>
		<path class="st21" d="M629.5,301.6l-0.4,0.1L629.5,301.6L629.5,301.6"/>
		<path class="st21" d="M647.7,329c0.1,1.8-0.5,2.6-1,4.1l-0.9,0.5c-0.8,1.5,0.1,1-0.5,2.1c-1.2,1.1-3.7,3.4-4.4,3.6
			c-0.6,0,0.4-0.7,0.5-0.9c-1.6,1.1-1.3,1.7-3.8,2.3l-0.1-0.2c-6.1,2.9-14.5-2.8-14.4-10.5c-0.1,0.5-0.2,0.4-0.3,0.6
			c-0.3-4,1.8-8,5.5-9.6c3.5-1.8,7.7-1,10.3,1.3c-1.4-1.8-4.2-3.8-7.5-3.6c-3.2,0-6.2,2.1-7.3,4.3c-1.7,1-1.8,4-2.6,4.6
			c-1,7.1,1.8,10.2,6.6,13.8c0.7,0.5,0.2,0.6,0.3,1c-1.6-0.7-3-1.9-4.2-3.2c0.6,0.9,1.3,1.8,2.2,2.5c-1.5-0.5-3.5-3.6-4-3.7
			c2.5,4.6,10.4,8,14.5,6.3c-1.9,0.1-4.3,0-6.4-0.8c-0.9-0.5-2.1-1.4-1.9-1.6c5.6,2.1,11.3,1.6,16.2-2.3c1.2-1,2.6-2.6,3-2.6
			c-0.6,0.9,0.1,0.4-0.3,1.2c1.2-2-0.5-0.8,1.3-3.4l0.7,0.9c-0.2-1.6,2-3.6,1.8-6.2c0.5-0.8,0.6,0.9,0,2.7c0.8-2,0.2-2.4,0.4-4
			c0.2,0.6,0.5,1.2,0.6,1.8c-0.5-2,0.5-3.3,0.8-4.4c-0.2-0.1-0.8,0.9-0.9-1.4c0-1,0.3-0.5,0.4-0.8c-0.2-0.1-0.7-0.9-1-2.4
			c0.2-0.4,0.6,0.9,0.9,1c-0.2-1.2-0.5-2.1-0.6-3c-0.9-1.9-0.3,0.2-1-0.8c-1-3,0.8-0.7,0.9-2.1c1.5,2.1,2.3,5.4,2.7,6.8
			c-0.3-1.7-0.8-3.3-1.3-4.8c0.5,0.2-0.7-3.4,0.6-1c-1.4-5.1-5.9-9.8-10.1-12c0.5,0.5,1.2,1,0.9,1.1c-2.1-1.2-1.7-1.3-2-1.9
			c-1.7-0.7-1.8,0.1-2.9,0c-3.2-1.7-3.8-1.5-6.7-2.6l0.1,0.6c-2.1-0.7-2.5,0.3-4.7,0c-0.1-0.1,0.7-0.4,1.4-0.5
			c-2,0.3-1.9-0.4-3.9,0.1c0.5-0.3,1-0.6,1.5-0.9c-1.7,0.1-4,1-3.2,0.2c-2.7,1.2-7.5,2.9-10.2,5.4l-0.1-0.6
			c-1.2,1.5-5.4,4.4-5.7,6.4l-0.3,0.1c-0.6,1.1-1.1,2.3-1.6,3.4c-0.8,1.4-1.2,0.5-1.1,0.8c-1.7,3.4-2.5,6.2-3.2,8.5
			c0.5,0.8,0,4.5,0.2,7.6c-0.8,15,10.5,29.6,23,33c1.8,0.6,4.5,0.6,6.8,0.7c-2.7-0.8-3.1-0.4-5.7-1.3c-1.9-0.9-2.3-1.9-3.7-3.1
			l0.5,1c-2.7-0.9-1.5-1.2-3.7-1.9l0.6-0.8c-0.9-0.1-2.3-1.5-2.7-2.2l-0.9,0c-1.1-1.4-1.7-2.4-1.7-3.2l-0.3,0.5
			c-0.3-0.6-4.2-5.2-2.2-4.1c-0.4-0.3-0.9-0.5-1.4-1.5l0.4-0.5c-1-1.2-1.8-2.8-1.7-3.3c0.5,0.7,0.9,0.8,1.2,0.9
			c-2.4-6-2.5-0.3-4.4-6.1l0.4,0c-0.3-0.5-0.5-0.9-0.7-1.4l0.2-1.7c-1.7-2-0.5-8.5-0.2-12.1c0.2-1.5,1.4-3,2.4-5.4l-0.6-0.1
			c1.1-2,6.4-7.9,8.9-7.6c1.2-1.5-0.2,0-0.5-0.4c2.6-2.7,3.4-1.9,5.2-2.4c1.9-1.1-1.6,0.4-0.7-0.4c3.3-0.8,2.3-1.9,6.6-2.3
			c0.5,0.3-1,0.4-1.4,0.7c2.7-1.3,8.7-1,12.5,0.7c4.5,2.1,9.5,8.3,9.7,14.1l0.2,0.1c-0.1,2.3,0.3,5-0.5,7.4L647.7,329"/>
		<path class="st21" d="M620.5,336.8l-0.2,0.8c0.7,1,1.3,2,2.2,2.8C621.9,339.1,621.4,338.5,620.5,336.8"/>
		<path class="st21" d="M622.2,336.7c-0.4-0.4-0.6-0.9-0.9-1.4c0.2,0.9,0.7,1.6,1.2,2.4L622.2,336.7"/>
		<path class="st21" d="M652.3,330.2l-0.2,0.4c-0.3,2.1-0.9,4.2-1.9,6.1C651.3,334.7,652,332.4,652.3,330.2"/>
		<path class="st21" d="M628.5,300.8c0.7-0.3,1.8-0.1,2.6-0.3c-1,0.1-2,0.1-3,0.3L628.5,300.8"/>
		<path class="st21" d="M602.6,314.6c0.2,1.6-1.2,2.2,0.3,1.1C603.7,313.9,602.6,315.2,602.6,314.6"/>
		<path class="st21" d="M600.9,321.9c0.3-1,0.4-1.7,0.5-2.3C600.5,320.8,601,321.1,600.9,321.9"/>
	</g>
	
		<linearGradient id="SVGID_00000146476105883572027900000010639571125859641275_" gradientUnits="userSpaceOnUse" x1="2915.0935" y1="2341.4512" x2="3440.2136" y2="2341.4512" gradientTransform="matrix(6.735558e-17 -1.1 -0.41 -2.510526e-17 1124.72 4039.8301)">
		<stop  offset="0" style="stop-color:#F2D6B0"/>
		<stop  offset="1" style="stop-color:#FF8C8E;stop-opacity:0"/>
	</linearGradient>
	
		<rect x="134.9" y="262.3" style="opacity:0.5;clip-path:url(#SVGID_00000003813353580398503320000016902133226749740465_);fill:url(#SVGID_00000146476105883572027900000010639571125859641275_);enable-background:new    ;" width="59.7" height="575.8"/>
	
		<linearGradient id="SVGID_00000156581049087152308580000009912711146687174565_" gradientUnits="userSpaceOnUse" x1="2915.5237" y1="-155.378" x2="3299.9536" y2="-155.378" gradientTransform="matrix(6.735558e-17 -1.1 -0.41 -2.510526e-17 1124.71 4039.8301)">
		<stop  offset="0" style="stop-color:#F2D6B0"/>
		<stop  offset="1" style="stop-color:#FF8C8E;stop-opacity:0"/>
	</linearGradient>
	
		<rect x="1158.6" y="416.1" style="opacity:0.5;clip-path:url(#SVGID_00000003813353580398503320000016902133226749740465_);fill:url(#SVGID_00000156581049087152308580000009912711146687174565_);enable-background:new    ;" width="59.7" height="421.6"/>
	
		<linearGradient id="SVGID_00000098911072218583592520000006546673569436398757_" gradientUnits="userSpaceOnUse" x1="1945.0164" y1="-3552.6221" x2="2107.0664" y2="-3552.6221" gradientTransform="matrix(6.735558e-17 1.1 0.41 -2.510526e-17 2180.1401 -1297.16)">
		<stop  offset="0" style="stop-color:#F2D6B0"/>
		<stop  offset="1" style="stop-color:#FF8C8E;stop-opacity:0"/>
	</linearGradient>
	
		<rect x="656.7" y="837.1" style="opacity:0.5;clip-path:url(#SVGID_00000003813353580398503320000016902133226749740465_);fill:url(#SVGID_00000098911072218583592520000006546673569436398757_);enable-background:new    ;" width="133.8" height="177.7"/>
	
		<linearGradient id="SVGID_00000045596070815579792130000013981611077991491472_" gradientUnits="userSpaceOnUse" x1="1945.2563" y1="-3726.9878" x2="2138.3765" y2="-3726.9878" gradientTransform="matrix(6.735558e-17 1.1 0.41 -2.510526e-17 2180.1299 -1297.16)">
		<stop  offset="0" style="stop-color:#F2D6B0"/>
		<stop  offset="1" style="stop-color:#FF8C8E;stop-opacity:0"/>
	</linearGradient>
	
		<rect x="640.4" y="837.4" style="opacity:0.5;clip-path:url(#SVGID_00000003813353580398503320000016902133226749740465_);fill:url(#SVGID_00000045596070815579792130000013981611077991491472_);enable-background:new    ;" width="23.2" height="211.8"/>
</g>
</svg>
