<?xml version="1.0" encoding="UTF-8"?><svg id="Calque_1" xmlns="http://www.w3.org/2000/svg" xmlns:xlink="http://www.w3.org/1999/xlink" viewBox="0 0 1920 1200"><defs><style>.cls-1{fill:none;opacity:.8;}.cls-2{fill:url(#Dégradé_sans_nom_2);}.cls-2,.cls-3,.cls-4,.cls-5,.cls-6,.cls-7,.cls-8,.cls-9,.cls-10,.cls-11,.cls-12,.cls-13{opacity:.5;}.cls-14{opacity:.1;}.cls-14,.cls-13{fill:#fee0b6;}.cls-15{fill:#f3d6b0;}.cls-16{fill:#284d55;}.cls-17{fill:url(#Dégradé_sans_nom_304-2);}.cls-18{fill:url(#Dégradé_sans_nom_138-2);}.cls-3{fill:url(#Dégradé_sans_nom_304-7);}.cls-4{fill:url(#Dégradé_sans_nom_304-8);}.cls-5{fill:url(#Dégradé_sans_nom_304-6);}.cls-6{fill:url(#Dégradé_sans_nom_304-5);}.cls-7{fill:url(#Dégradé_sans_nom_304-4);}.cls-8{fill:url(#Dégradé_sans_nom_304-3);}.cls-19{fill:url(#Dégradé_sans_nom_297-2);}.cls-19,.cls-20,.cls-21,.cls-22{opacity:.6;}.cls-20{fill:url(#Dégradé_sans_nom_297-3);}.cls-23{fill:url(#Dégradé_sans_nom_153);opacity:.4;}.cls-21{fill:url(#Dégradé_sans_nom_297);}.cls-22{fill:url(#Dégradé_sans_nom_304);}.cls-9{fill:url(#Dégradé_sans_nom_334);}.cls-10{fill:url(#Dégradé_sans_nom_435);}.cls-11{fill:url(#Dégradé_sans_nom_437);}.cls-12{fill:url(#Dégradé_sans_nom_138);}.cls-24{fill:url(#Dégradé_sans_nom_342);}.cls-25{fill:url(#Dégradé_sans_nom_291);}.cls-26{fill:url(#Dégradé_sans_nom_293);}</style><linearGradient id="Dégradé_sans_nom_291" x1="1274.59" y1="556.07" x2="1928.39" y2="556.07" gradientUnits="userSpaceOnUse"><stop offset="0" stop-color="#206f73"/><stop offset="0" stop-color="#fddbb3"/><stop offset="1" stop-color="#2d7577"/></linearGradient><linearGradient id="Dégradé_sans_nom_342" x1="-3.26" y1="557.38" x2="1448.86" y2="557.38" gradientUnits="userSpaceOnUse"><stop offset="0" stop-color="#2f7274"/><stop offset=".5" stop-color="#69a8a8"/><stop offset=".6" stop-color="#6ca9a8"/><stop offset=".68" stop-color="#76aca9"/><stop offset=".76" stop-color="#88b2aa"/><stop offset=".83" stop-color="#a0bbac"/><stop offset=".9" stop-color="#c0c6ae"/><stop offset=".97" stop-color="#e7d3b1"/><stop offset="1" stop-color="#fcdbb3"/></linearGradient><linearGradient id="Dégradé_sans_nom_304" x1="204.96" y1="1019.26" x2="563.19" y2="1019.26" gradientTransform="translate(3.81 -2.47)" gradientUnits="userSpaceOnUse"><stop offset="0" stop-color="#f2d6b0"/><stop offset="1" stop-color="#ff8c8e" stop-opacity="0"/></linearGradient><radialGradient id="Dégradé_sans_nom_153" cx="1472.28" cy="799.76" fx="1472.28" fy="799.76" r="333.36" gradientUnits="userSpaceOnUse"><stop offset="0" stop-color="#a80030"/><stop offset="1" stop-color="#ff8c8e" stop-opacity="0"/></radialGradient><linearGradient id="Dégradé_sans_nom_293" x1="1237.35" y1="1211.17" x2="1849.38" y2="599.14" gradientTransform="translate(-118.52 -183.02)" gradientUnits="userSpaceOnUse"><stop offset="0" stop-color="#487c80" stop-opacity="0"/><stop offset="1" stop-color="#5ea498"/></linearGradient><radialGradient id="Dégradé_sans_nom_297" cx="516.33" cy="836.78" fx="516.33" fy="836.78" r="435.9" gradientUnits="userSpaceOnUse"><stop offset="0" stop-color="#f2d6b0"/><stop offset="1" stop-color="#ff8c8e" stop-opacity="0"/></radialGradient><radialGradient id="Dégradé_sans_nom_297-2" cx="496.34" cy="601.61" fx="496.34" fy="601.61" r="248.14" xlink:href="#Dégradé_sans_nom_297"/><linearGradient id="Dégradé_sans_nom_304-2" x1="378.49" y1="836.37" x2="378.49" y2="118.02" gradientTransform="matrix(1,0,0,1,0,0)" xlink:href="#Dégradé_sans_nom_304"/><radialGradient id="Dégradé_sans_nom_2" cx="1313.05" cy="1489.9" fx="1313.05" fy="1489.9" r="685" gradientTransform="translate(-233.85 -547.9) scale(.91 1)" gradientUnits="userSpaceOnUse"><stop offset="0" stop-color="#f2d6b0"/><stop offset="1" stop-color="#ff8c8e" stop-opacity="0"/></radialGradient><linearGradient id="Dégradé_sans_nom_437" x1="3.27" y1="681.22" x2="503.71" y2="681.22" gradientUnits="userSpaceOnUse"><stop offset="0" stop-color="#206f73" stop-opacity=".8"/><stop offset=".31" stop-color="#69a8a8"/><stop offset=".37" stop-color="#6ca9a8"/><stop offset=".43" stop-color="#76aca9"/><stop offset=".48" stop-color="#88b2aa"/><stop offset=".53" stop-color="#a0bbac"/><stop offset=".58" stop-color="#c0c6ae"/><stop offset=".6" stop-color="#d0ccb0"/><stop offset="1" stop-color="#fcdbb3" stop-opacity="0"/></linearGradient><radialGradient id="Dégradé_sans_nom_297-3" cx="641.02" cy="833.76" fx="641.02" fy="833.76" r="177.59" xlink:href="#Dégradé_sans_nom_297"/><linearGradient id="Dégradé_sans_nom_304-3" x1="1428.73" y1="514.17" x2="1791.88" y2="514.17" gradientTransform="translate(-1631.07 428.89) scale(1.1 .41)" xlink:href="#Dégradé_sans_nom_304"/><linearGradient id="Dégradé_sans_nom_435" x1="1429.16" y1="1725.99" x2="1832.96" y2="1725.99" gradientTransform="translate(-1158.61 -89.09) scale(1.1 .41)" gradientUnits="userSpaceOnUse"><stop offset="0" stop-color="#f2d6b0"/><stop offset="1" stop-color="#ff8c8e" stop-opacity="0"/></linearGradient><linearGradient id="Dégradé_sans_nom_334" x1="503.89" y1="722.86" x2="997.64" y2="722.86" gradientUnits="userSpaceOnUse"><stop offset="0" stop-color="#206f73"/><stop offset=".31" stop-color="#69a8a8"/><stop offset=".37" stop-color="#6ca9a8"/><stop offset=".43" stop-color="#76aca9"/><stop offset=".48" stop-color="#88b2aa"/><stop offset=".53" stop-color="#a0bbac"/><stop offset=".58" stop-color="#c0c6ae"/><stop offset=".6" stop-color="#d0ccb0"/><stop offset="1" stop-color="#fcdbb3" stop-opacity="0"/></linearGradient><linearGradient id="Dégradé_sans_nom_304-4" x1="1429.16" y1="1935.31" x2="1842.02" y2="1935.31" gradientTransform="translate(-1078.04 -179.6) scale(1.1 .41)" xlink:href="#Dégradé_sans_nom_304"/><linearGradient id="Dégradé_sans_nom_138" x1="1636.86" y1="1489.49" x2="1664.87" y2="1489.49" gradientTransform="translate(-1796.12 2303.75) scale(1.67 -1)" gradientUnits="userSpaceOnUse"><stop offset="0" stop-color="#f2dab8" stop-opacity="0"/><stop offset="1" stop-color="#fcdbb3"/></linearGradient><linearGradient id="Dégradé_sans_nom_138-2" x1="1442.33" y1="540.05" x2="1448.81" y2="540.05" gradientTransform="translate(2891.14 1080.1) rotate(-180)" xlink:href="#Dégradé_sans_nom_138"/><linearGradient id="Dégradé_sans_nom_304-5" x1="1428.73" y1="587.55" x2="1953.85" y2="587.55" gradientTransform="translate(-1689.89 310.1) scale(1.1 .41)" xlink:href="#Dégradé_sans_nom_304"/><linearGradient id="Dégradé_sans_nom_304-6" x1="1429.16" y1="3092.55" x2="1813.59" y2="3092.55" gradientTransform="translate(-589.53 -636.93) scale(1.1 .41)" xlink:href="#Dégradé_sans_nom_304"/><linearGradient id="Dégradé_sans_nom_304-7" x1="1531.38" y1="1851.6" x2="1693.43" y2="1851.6" gradientTransform="translate(-1044.56 169.29) scale(1.1 .41)" xlink:href="#Dégradé_sans_nom_304"/><linearGradient id="Dégradé_sans_nom_304-8" x1="1531.62" y1="2026.54" x2="1724.74" y2="2026.54" gradientTransform="translate(-1133.35 115.1) scale(1.1 .41)" xlink:href="#Dégradé_sans_nom_304"/></defs><rect class="cls-16" width="1920" height="1200"/><rect class="cls-25" x="1274.59" y="-241.31" width="653.8" height="1594.76"/><rect class="cls-24" x="-3.26" y="-238.18" width="1452.12" height="1591.13"/><rect class="cls-14" x="248.59" y="807.68" width="251.1" height="405.44"/><rect class="cls-22" x="208.77" y="901.15" width="358.23" height="231.29" transform="translate(1404.68 628.91) rotate(90)"/><circle class="cls-23" cx="1472.28" cy="799.76" r="333.36"/><rect class="cls-26" x="1292.07" y="242.88" width="265.56" height="958.5" transform="translate(2849.7 1444.26) rotate(180)"/><circle class="cls-21" cx="516.33" cy="836.78" r="435.9"/><circle class="cls-19" cx="496.34" cy="601.61" r="248.14"/><rect class="cls-17" x="252.94" y="118.02" width="251.1" height="718.35"/><rect class="cls-13" x="274.16" y="331.23" width="228.79" height="505.94"/><rect class="cls-2" x="851.21" y="-16.45" width="223.47" height="1930.97" transform="translate(13.91 1911.98) rotate(-90)"/><rect class="cls-11" x="3.27" y="524.32" width="500.44" height="313.81"/><circle class="cls-20" cx="641.02" cy="833.76" r="177.59"/><rect class="cls-8" x="-64.37" y="500.82" width="398.22" height="276.38" transform="translate(-504.28 773.75) rotate(-90)"/><rect class="cls-10" x="408.56" y="541.74" width="442.8" height="149.03" transform="translate(13.71 1246.22) rotate(-90)"/><rect class="cls-9" x="503.89" y="608.07" width="493.75" height="229.59"/><rect class="cls-7" x="489.14" y="536.78" width="452.73" height="149.03" transform="translate(104.21 1326.79) rotate(-90)"/><rect class="cls-12" x="938.48" y="-147.9" width="46.79" height="1924.32" transform="translate(1776.13 -147.61) rotate(90)"/><rect class="cls-18" x="1442.33" y="242.45" width="6.47" height="595.21" transform="translate(2891.14 1080.1) rotate(180)"/><g class="cls-1"><path class="cls-15" d="m632.47,335.3c-1.09.01.21.56,1.63.78.4-.31.75-.62,1.07-.92-.89.22-1.79.22-2.7.14"/><path class="cls-15" d="m638.33,333.84c.65-.9,1.13-1.88,1.29-2.9-.15.72-.54,1.35-.91,2.01-2.04,1.29-.19-.76,0-1.54-2.19,2.76-.3,1.66-.38,2.43"/><path class="cls-15" d="m640.5,328.21c.13-1.97-.39-1.34-.56-.59.2.11.36,1.39.56.59"/><path class="cls-15" d="m628.33,301.33c.58.1,1.26.18,1.16.32.64-.14.78-.27-1.16-.32"/><path class="cls-15" d="m629.5,301.65l-.41.09.38-.04.03-.05"/><path class="cls-15" d="m647.67,328.95c.07,1.77-.52,2.62-1.04,4.14l-.94.47c-.77,1.5.08.95-.48,2.15-1.21,1.07-3.66,3.35-4.44,3.56-.57-.01.39-.68.51-.94-1.61,1.11-1.3,1.66-3.77,2.34l-.07-.16c-6.09,2.86-14.54-2.81-14.43-10.55-.06.49-.18.37-.32.57-.31-3.98,1.84-7.98,5.47-9.62,3.55-1.76,7.72-1.04,10.26,1.34-1.4-1.83-4.18-3.77-7.48-3.59-3.23.05-6.25,2.11-7.26,4.34-1.65,1.04-1.85,4.02-2.57,4.56-.97,7.13,1.82,10.21,6.56,13.84.74.5.21.58.31.96-1.57-.74-3.01-1.85-4.19-3.21.63.92,1.31,1.81,2.18,2.51-1.48-.5-3.46-3.59-4.04-3.72,2.55,4.57,10.36,8.02,14.45,6.31-1.89.07-4.3.04-6.42-.75-.9-.46-2.11-1.41-1.89-1.59,5.58,2.08,11.34,1.58,16.17-2.29,1.23-.96,2.57-2.58,2.96-2.61-.58.88.1.42-.35,1.2,1.22-1.97-.53-.8,1.26-3.41l.66.91c-.25-1.64,2.04-3.63,1.8-6.22.52-.79.58.85.03,2.68.77-2.02.2-2.35.4-4.02.21.56.5,1.16.64,1.75-.5-1.95.51-3.29.77-4.43-.25-.11-.78.86-.9-1.44.02-1,.28-.53.38-.77-.2-.11-.71-.88-1.03-2.36.23-.35.61.9.92.95-.2-1.17-.54-2.07-.56-2.96-.91-1.89-.32.25-1.05-.81-.96-3.01.8-.7.92-2.06,1.46,2.12,2.29,5.4,2.68,6.76-.29-1.66-.76-3.26-1.34-4.82.45.19-.72-3.41.58-1.03-1.38-5.08-5.9-9.82-10.07-12.04.51.47,1.15,1.05.92,1.14-2.07-1.23-1.71-1.33-2-1.85-1.68-.69-1.8.06-2.91,0-3.18-1.69-3.79-1.51-6.72-2.56l.13.62c-2.11-.7-2.45.26-4.73,0-.14-.11.73-.39,1.44-.49-2.04.27-1.94-.4-3.93.07.49-.34,1.01-.57,1.53-.87-1.66.1-3.96.97-3.25.18-2.71,1.21-7.52,2.9-10.22,5.44l-.08-.57c-1.24,1.48-5.39,4.43-5.72,6.36l-.33.08c-.64,1.09-1.06,2.32-1.57,3.44-.84,1.43-1.23.55-1.11.78-1.66,3.36-2.48,6.18-3.19,8.49.51.76.01,4.55.2,7.59-.83,15.01,10.54,29.59,22.96,32.95,1.82.65,4.53.63,6.83.69-2.72-.78-3.07-.41-5.72-1.33-1.91-.9-2.33-1.93-3.68-3.1l.54.95c-2.65-.94-1.54-1.16-3.7-1.85l.57-.75c-.86-.07-2.28-1.45-2.67-2.22l-.94.04c-1.13-1.39-1.73-2.4-1.69-3.18l-.3.54c-.34-.59-4.16-5.23-2.18-4.15-.37-.33-.86-.55-1.39-1.51l.4-.46c-.95-1.23-1.75-2.8-1.69-3.32.51.69.86.81,1.21.93-2.41-5.97-2.54-.33-4.36-6.07l.38-.03c-.29-.45-.48-.93-.71-1.4l.17-1.67c-1.73-2-.48-8.51-.23-12.08.17-1.45,1.44-3,2.41-5.42l-.59-.1c1.13-1.96,6.43-7.89,8.89-7.59,1.19-1.5-.24,0-.47-.38,2.62-2.71,3.44-1.91,5.2-2.4,1.9-1.13-1.63.44-.73-.43,3.29-.84,2.33-1.91,6.62-2.34.45.26-1.05.4-1.43.73,2.74-1.34,8.67-1.04,12.53.74,4.47,2.09,9.5,8.27,9.69,14.08l.23.06c-.11,2.31.35,4.98-.46,7.44l.55-1.16"/><path class="cls-15" d="m620.55,336.8l-.15.77c.72.98,1.29,2.03,2.2,2.79-.66-1.29-1.15-1.82-2.05-3.56"/><path class="cls-15" d="m622.25,336.73c-.38-.42-.6-.93-.86-1.43.24.88.74,1.65,1.19,2.42l-.34-.99"/><path class="cls-15" d="m652.27,330.2l-.16.4c-.29,2.09-.93,4.16-1.9,6.07,1.08-2.02,1.77-4.23,2.06-6.48"/><path class="cls-15" d="m628.55,300.81c.74-.27,1.81-.15,2.6-.33-1.02.09-2.04.14-3.04.26l.44.06"/><path class="cls-15" d="m602.63,314.59c.17,1.57-1.18,2.19.3,1.15.8-1.79-.31-.49-.3-1.15"/><path class="cls-15" d="m600.88,321.88c.34-1.05.4-1.68.53-2.29-.94,1.21-.44,1.47-.53,2.29"/></g><rect class="cls-6" x="-123.19" y="520.38" width="575.83" height="59.65" transform="translate(-385.48 714.94) rotate(-90)"/><rect class="cls-5" x="977.64" y="597.05" width="421.56" height="59.65" transform="translate(561.54 1815.3) rotate(-90)"/><rect class="cls-3" x="634.71" y="859.07" width="177.71" height="133.79" transform="translate(1649.53 202.4) rotate(90)"/><rect class="cls-4" x="546.19" y="931.64" width="211.76" height="23.25" transform="translate(1595.33 291.19) rotate(90)"/></svg>