<?xml version="1.0" encoding="utf-8"?>
<!-- Generator: $$$/GeneralStr/196=Adobe Illustrator 27.6.0, SVG Export Plug-In . SVG Version: 6.00 Build 0)  -->
<svg version="1.1" id="Calque_1" xmlns="http://www.w3.org/2000/svg" xmlns:xlink="http://www.w3.org/1999/xlink" x="0px" y="0px"
	 viewBox="0 0 1600 1200" style="enable-background:new 0 0 1600 1200;" xml:space="preserve">
<style type="text/css">
	.st0{clip-path:url(#SVGID_00000013901570453599597300000016659868754303395220_);fill:#284D55;}
	
		.st1{clip-path:url(#SVGID_00000013901570453599597300000016659868754303395220_);fill:url(#SVGID_00000158014435053737333300000002570485617344805819_);}
	
		.st2{clip-path:url(#SVGID_00000013901570453599597300000016659868754303395220_);fill:url(#SVGID_00000105404679174152666930000007157573074681455758_);}
	
		.st3{opacity:0.1;clip-path:url(#SVGID_00000013901570453599597300000016659868754303395220_);fill:#FEE0B6;enable-background:new    ;}
	
		.st4{opacity:0.6;clip-path:url(#SVGID_00000013901570453599597300000016659868754303395220_);fill:url(#SVGID_00000110448702468583279000000017843735068864669058_);enable-background:new    ;}
	
		.st5{opacity:0.4;clip-path:url(#SVGID_00000013901570453599597300000016659868754303395220_);fill:url(#SVGID_00000166653296781168748060000002644021314697661618_);enable-background:new    ;}
	
		.st6{clip-path:url(#SVGID_00000013901570453599597300000016659868754303395220_);fill:url(#SVGID_00000066483789691699020980000007990345437381085349_);}
	
		.st7{opacity:0.6;clip-path:url(#SVGID_00000013901570453599597300000016659868754303395220_);fill:url(#SVGID_00000174591217106769602790000005209262447811708069_);enable-background:new    ;}
	
		.st8{opacity:0.6;clip-path:url(#SVGID_00000013901570453599597300000016659868754303395220_);fill:url(#SVGID_00000072994562839416599310000001738452536936934544_);enable-background:new    ;}
	
		.st9{clip-path:url(#SVGID_00000013901570453599597300000016659868754303395220_);fill:url(#SVGID_00000047757399773369524090000012707285353482779302_);}
	
		.st10{opacity:0.5;clip-path:url(#SVGID_00000013901570453599597300000016659868754303395220_);fill:#FEE0B6;enable-background:new    ;}
	
		.st11{opacity:0.5;clip-path:url(#SVGID_00000013901570453599597300000016659868754303395220_);fill:url(#SVGID_00000031181736678479806210000006865096027174570421_);enable-background:new    ;}
	
		.st12{opacity:0.5;clip-path:url(#SVGID_00000013901570453599597300000016659868754303395220_);fill:url(#SVGID_00000158031028348617598330000014940301304572395920_);enable-background:new    ;}
	
		.st13{opacity:0.6;clip-path:url(#SVGID_00000013901570453599597300000016659868754303395220_);fill:url(#SVGID_00000168093814130379199490000016109500806747386542_);enable-background:new    ;}
	
		.st14{opacity:0.5;clip-path:url(#SVGID_00000013901570453599597300000016659868754303395220_);fill:url(#SVGID_00000072274421330559245260000008356496713379182476_);enable-background:new    ;}
	
		.st15{opacity:0.5;clip-path:url(#SVGID_00000013901570453599597300000016659868754303395220_);fill:url(#SVGID_00000065754007288724602180000009742448959165710226_);enable-background:new    ;}
	
		.st16{opacity:0.5;clip-path:url(#SVGID_00000013901570453599597300000016659868754303395220_);fill:url(#SVGID_00000021101623179302558590000018109905856285974144_);enable-background:new    ;}
	
		.st17{opacity:0.5;clip-path:url(#SVGID_00000013901570453599597300000016659868754303395220_);fill:url(#SVGID_00000078742163867143151240000009625413377607531394_);enable-background:new    ;}
	
		.st18{opacity:0.5;clip-path:url(#SVGID_00000013901570453599597300000016659868754303395220_);fill:url(#SVGID_00000047033348096240121640000007911078476969480109_);enable-background:new    ;}
	
		.st19{clip-path:url(#SVGID_00000013901570453599597300000016659868754303395220_);fill:url(#SVGID_00000006696341756358170310000015023599721159928216_);}
	.st20{opacity:0.8;clip-path:url(#SVGID_00000013901570453599597300000016659868754303395220_);}
	.st21{fill:#F3D6B0;}
	
		.st22{opacity:0.5;clip-path:url(#SVGID_00000013901570453599597300000016659868754303395220_);fill:url(#SVGID_00000050635514699794437630000007155163546720341144_);enable-background:new    ;}
	
		.st23{opacity:0.5;clip-path:url(#SVGID_00000013901570453599597300000016659868754303395220_);fill:url(#SVGID_00000160182115206621361730000013836573964506900650_);enable-background:new    ;}
	
		.st24{opacity:0.5;clip-path:url(#SVGID_00000013901570453599597300000016659868754303395220_);fill:url(#SVGID_00000111180460688253794120000009580209595570409113_);enable-background:new    ;}
	
		.st25{opacity:0.5;clip-path:url(#SVGID_00000013901570453599597300000016659868754303395220_);fill:url(#SVGID_00000016076268289187329200000009212736229640490901_);enable-background:new    ;}
</style>
<g>
	<defs>
		<rect id="SVGID_1_" width="1600" height="1200"/>
	</defs>
	<clipPath id="SVGID_00000075852540232324188510000001707417857392950968_">
		<use xlink:href="#SVGID_1_"  style="overflow:visible;"/>
	</clipPath>
	
		<rect x="-160" style="clip-path:url(#SVGID_00000075852540232324188510000001707417857392950968_);fill:#284D55;" width="1920" height="1200"/>
	
		<linearGradient id="SVGID_00000024701981052810464480000006583118049142573756_" gradientUnits="userSpaceOnUse" x1="1114.59" y1="643.9301" x2="1768.3899" y2="643.9301" gradientTransform="matrix(1 0 0 -1 0 1200)">
		<stop  offset="0" style="stop-color:#206F73"/>
		<stop  offset="0" style="stop-color:#FDDBB3"/>
		<stop  offset="1" style="stop-color:#2D7577"/>
	</linearGradient>
	
		<rect x="1114.6" y="-241.3" style="clip-path:url(#SVGID_00000075852540232324188510000001707417857392950968_);fill:url(#SVGID_00000024701981052810464480000006583118049142573756_);" width="653.8" height="1594.8"/>
	
		<linearGradient id="SVGID_00000044154508676638671890000005232359717527387295_" gradientUnits="userSpaceOnUse" x1="-163.26" y1="642.615" x2="1288.86" y2="642.615" gradientTransform="matrix(1 0 0 -1 0 1200)">
		<stop  offset="0" style="stop-color:#2F7274"/>
		<stop  offset="0.5" style="stop-color:#69A8A8"/>
		<stop  offset="0.6" style="stop-color:#6CA9A8"/>
		<stop  offset="0.68" style="stop-color:#76ACA9"/>
		<stop  offset="0.76" style="stop-color:#88B2AA"/>
		<stop  offset="0.83" style="stop-color:#A0BBAC"/>
		<stop  offset="0.9" style="stop-color:#C0C6AE"/>
		<stop  offset="0.97" style="stop-color:#E7D3B1"/>
		<stop  offset="1" style="stop-color:#FCDBB3"/>
	</linearGradient>
	
		<rect x="-163.3" y="-238.2" style="clip-path:url(#SVGID_00000075852540232324188510000001707417857392950968_);fill:url(#SVGID_00000044154508676638671890000005232359717527387295_);" width="1452.1" height="1591.1"/>
	
		<rect x="88.6" y="807.7" style="opacity:0.1;clip-path:url(#SVGID_00000075852540232324188510000001707417857392950968_);fill:#FEE0B6;enable-background:new    ;" width="251.1" height="405.4"/>
	
		<linearGradient id="SVGID_00000131368401498955458740000000770760181331364241_" gradientUnits="userSpaceOnUse" x1="244.96" y1="-1199.265" x2="603.19" y2="-1199.265" gradientTransform="matrix(6.123234e-17 1 1 -6.123234e-17 1427.15 592.72)">
		<stop  offset="0" style="stop-color:#F2D6B0"/>
		<stop  offset="1" style="stop-color:#FF8C8E;stop-opacity:0"/>
	</linearGradient>
	
		<rect x="112.2" y="837.7" style="opacity:0.6;clip-path:url(#SVGID_00000075852540232324188510000001707417857392950968_);fill:url(#SVGID_00000131368401498955458740000000770760181331364241_);enable-background:new    ;" width="231.3" height="358.2"/>
	
		<radialGradient id="SVGID_00000099657613967278407890000006595598737366780036_" cx="1312.28" cy="400.24" r="333.36" gradientTransform="matrix(1 0 0 -1 0 1200)" gradientUnits="userSpaceOnUse">
		<stop  offset="0" style="stop-color:#A80030"/>
		<stop  offset="1" style="stop-color:#FF8C8E;stop-opacity:0"/>
	</radialGradient>
	
		<circle style="opacity:0.4;clip-path:url(#SVGID_00000075852540232324188510000001707417857392950968_);fill:url(#SVGID_00000099657613967278407890000006595598737366780036_);enable-background:new    ;" cx="1312.3" cy="799.8" r="333.4"/>
	
		<linearGradient id="SVGID_00000115500969825611175250000016088254425387832233_" gradientUnits="userSpaceOnUse" x1="2657.355" y1="-1191.165" x2="3269.385" y2="-579.135" gradientTransform="matrix(-1 0 0 1 4228.2197 1607.28)">
		<stop  offset="0" style="stop-color:#487C80;stop-opacity:0"/>
		<stop  offset="1" style="stop-color:#5EA498"/>
	</linearGradient>
	
		<rect x="1132.1" y="242.9" style="clip-path:url(#SVGID_00000075852540232324188510000001707417857392950968_);fill:url(#SVGID_00000115500969825611175250000016088254425387832233_);" width="265.6" height="958.5"/>
	
		<radialGradient id="SVGID_00000111887745578093920990000018102646320505327762_" cx="356.33" cy="363.22" r="435.9" gradientTransform="matrix(1 0 0 -1 0 1200)" gradientUnits="userSpaceOnUse">
		<stop  offset="0" style="stop-color:#F2D6B0"/>
		<stop  offset="1" style="stop-color:#FF8C8E;stop-opacity:0"/>
	</radialGradient>
	
		<circle style="opacity:0.6;clip-path:url(#SVGID_00000075852540232324188510000001707417857392950968_);fill:url(#SVGID_00000111887745578093920990000018102646320505327762_);enable-background:new    ;" cx="356.3" cy="836.8" r="435.9"/>
	
		<radialGradient id="SVGID_00000136411085731284155520000016144613608308133009_" cx="336.34" cy="598.39" r="248.14" gradientTransform="matrix(1 0 0 -1 0 1200)" gradientUnits="userSpaceOnUse">
		<stop  offset="0" style="stop-color:#F2D6B0"/>
		<stop  offset="1" style="stop-color:#FF8C8E;stop-opacity:0"/>
	</radialGradient>
	
		<circle style="opacity:0.6;clip-path:url(#SVGID_00000075852540232324188510000001707417857392950968_);fill:url(#SVGID_00000136411085731284155520000016144613608308133009_);enable-background:new    ;" cx="336.3" cy="601.6" r="248.1"/>
	
		<linearGradient id="SVGID_00000043419839479298661880000008450952729109780401_" gradientUnits="userSpaceOnUse" x1="218.49" y1="363.63" x2="218.49" y2="1081.98" gradientTransform="matrix(1 0 0 -1 0 1200)">
		<stop  offset="0" style="stop-color:#F2D6B0"/>
		<stop  offset="1" style="stop-color:#FF8C8E;stop-opacity:0"/>
	</linearGradient>
	
		<rect x="92.9" y="118" style="clip-path:url(#SVGID_00000075852540232324188510000001707417857392950968_);fill:url(#SVGID_00000043419839479298661880000008450952729109780401_);" width="251.1" height="718.3"/>
	
		<rect x="114.2" y="331.2" style="opacity:0.5;clip-path:url(#SVGID_00000075852540232324188510000001707417857392950968_);fill:#FEE0B6;enable-background:new    ;" width="228.8" height="505.9"/>
	
		<radialGradient id="SVGID_00000045588419701889150380000013633466115905934243_" cx="2591.4016" cy="-89.9" r="685" gradientTransform="matrix(5.572143e-17 -0.91 -1 -6.123234e-17 706.01 3308.8999)" gradientUnits="userSpaceOnUse">
		<stop  offset="0" style="stop-color:#F2D6B0"/>
		<stop  offset="1" style="stop-color:#FF8C8E;stop-opacity:0"/>
	</radialGradient>
	
		<rect x="-162.5" y="837.3" style="opacity:0.5;clip-path:url(#SVGID_00000075852540232324188510000001707417857392950968_);fill:url(#SVGID_00000045588419701889150380000013633466115905934243_);enable-background:new    ;" width="1931" height="223.5"/>
	
		<linearGradient id="SVGID_00000158733224819239131610000005222234209820722068_" gradientUnits="userSpaceOnUse" x1="-156.73" y1="518.775" x2="343.71" y2="518.775" gradientTransform="matrix(1 0 0 -1 0 1200)">
		<stop  offset="0" style="stop-color:#206F73;stop-opacity:0.8"/>
		<stop  offset="0.31" style="stop-color:#69A8A8"/>
		<stop  offset="0.37" style="stop-color:#6CA9A8"/>
		<stop  offset="0.43" style="stop-color:#76ACA9"/>
		<stop  offset="0.48" style="stop-color:#88B2AA"/>
		<stop  offset="0.53" style="stop-color:#A0BBAC"/>
		<stop  offset="0.58" style="stop-color:#C0C6AE"/>
		<stop  offset="0.6" style="stop-color:#D0CCB0"/>
		<stop  offset="1" style="stop-color:#FCDBB3;stop-opacity:0"/>
	</linearGradient>
	
		<rect x="-156.7" y="524.3" style="opacity:0.5;clip-path:url(#SVGID_00000075852540232324188510000001707417857392950968_);fill:url(#SVGID_00000158733224819239131610000005222234209820722068_);enable-background:new    ;" width="500.4" height="313.8"/>
	
		<radialGradient id="SVGID_00000006666313044816571400000011092166989234360480_" cx="481.02" cy="366.24" r="177.59" gradientTransform="matrix(1 0 0 -1 0 1200)" gradientUnits="userSpaceOnUse">
		<stop  offset="0" style="stop-color:#F2D6B0"/>
		<stop  offset="1" style="stop-color:#FF8C8E;stop-opacity:0"/>
	</radialGradient>
	
		<circle style="opacity:0.6;clip-path:url(#SVGID_00000075852540232324188510000001707417857392950968_);fill:url(#SVGID_00000006666313044816571400000011092166989234360480_);enable-background:new    ;" cx="481" cy="833.8" r="177.6"/>
	
		<linearGradient id="SVGID_00000175307150928290103080000003043708386163183291_" gradientUnits="userSpaceOnUse" x1="2595.0935" y1="2024.3414" x2="2958.2437" y2="2024.3414" gradientTransform="matrix(6.735558e-17 -1.1 -0.41 -2.510526e-17 804.71 3688.3701)">
		<stop  offset="0" style="stop-color:#F2D6B0"/>
		<stop  offset="1" style="stop-color:#FF8C8E;stop-opacity:0"/>
	</linearGradient>
	
		<rect x="-163.5" y="439.9" style="opacity:0.5;clip-path:url(#SVGID_00000075852540232324188510000001707417857392950968_);fill:url(#SVGID_00000175307150928290103080000003043708386163183291_);enable-background:new    ;" width="276.4" height="398.2"/>
	
		<linearGradient id="SVGID_00000022538002108512339350000003339240804715879810_" gradientUnits="userSpaceOnUse" x1="2595.5237" y1="816.4756" x2="2999.3235" y2="816.4756" gradientTransform="matrix(6.735558e-17 -1.1 -0.41 -2.510526e-17 804.72 3688.3801)">
		<stop  offset="0" style="stop-color:#F2D6B0"/>
		<stop  offset="1" style="stop-color:#FF8C8E;stop-opacity:0"/>
	</linearGradient>
	
		<rect x="395.5" y="394.9" style="opacity:0.5;clip-path:url(#SVGID_00000075852540232324188510000001707417857392950968_);fill:url(#SVGID_00000022538002108512339350000003339240804715879810_);enable-background:new    ;" width="149" height="442.8"/>
	
		<linearGradient id="SVGID_00000121255040809910797550000018431651417723169446_" gradientUnits="userSpaceOnUse" x1="343.89" y1="477.135" x2="837.64" y2="477.135" gradientTransform="matrix(1 0 0 -1 0 1200)">
		<stop  offset="0" style="stop-color:#206F73"/>
		<stop  offset="0.31" style="stop-color:#69A8A8"/>
		<stop  offset="0.37" style="stop-color:#6CA9A8"/>
		<stop  offset="0.43" style="stop-color:#76ACA9"/>
		<stop  offset="0.48" style="stop-color:#88B2AA"/>
		<stop  offset="0.53" style="stop-color:#A0BBAC"/>
		<stop  offset="0.58" style="stop-color:#C0C6AE"/>
		<stop  offset="0.6" style="stop-color:#D0CCB0"/>
		<stop  offset="1" style="stop-color:#FCDBB3;stop-opacity:0"/>
	</linearGradient>
	
		<rect x="343.9" y="608.1" style="opacity:0.5;clip-path:url(#SVGID_00000075852540232324188510000001707417857392950968_);fill:url(#SVGID_00000121255040809910797550000018431651417723169446_);enable-background:new    ;" width="493.8" height="229.6"/>
	
		<linearGradient id="SVGID_00000116198062203290755170000007618040722320161968_" gradientUnits="userSpaceOnUse" x1="2595.5237" y1="607.817" x2="3008.3835" y2="607.817" gradientTransform="matrix(6.735558e-17 -1.1 -0.41 -2.510526e-17 804.71 3688.3701)">
		<stop  offset="0" style="stop-color:#F2D6B0"/>
		<stop  offset="1" style="stop-color:#FF8C8E;stop-opacity:0"/>
	</linearGradient>
	
		<rect x="481" y="384.9" style="opacity:0.5;clip-path:url(#SVGID_00000075852540232324188510000001707417857392950968_);fill:url(#SVGID_00000116198062203290755170000007618040722320161968_);enable-background:new    ;" width="149" height="452.7"/>
	
		<linearGradient id="SVGID_00000066513283222927929440000018103668601190206878_" gradientUnits="userSpaceOnUse" x1="1913.5665" y1="-89.49" x2="1941.5845" y2="-89.49" gradientTransform="matrix(1.022580e-16 1.67 -1 6.123234e-17 712.38 -2405.73)">
		<stop  offset="0" style="stop-color:#F2DAB8;stop-opacity:0"/>
		<stop  offset="1" style="stop-color:#FCDBB3"/>
	</linearGradient>
	
		<rect x="-160.3" y="790.9" style="opacity:0.5;clip-path:url(#SVGID_00000075852540232324188510000001707417857392950968_);fill:url(#SVGID_00000066513283222927929440000018103668601190206878_);enable-background:new    ;" width="1924.3" height="46.8"/>
	
		<linearGradient id="SVGID_00000127727022963383346070000012352415026102229690_" gradientUnits="userSpaceOnUse" x1="1282.33" y1="659.955" x2="1288.8101" y2="659.955" gradientTransform="matrix(1 0 0 -1 0 1200)">
		<stop  offset="0" style="stop-color:#F2DAB8;stop-opacity:0"/>
		<stop  offset="1" style="stop-color:#FCDBB3"/>
	</linearGradient>
	
		<rect x="1282.3" y="242.4" style="clip-path:url(#SVGID_00000075852540232324188510000001707417857392950968_);fill:url(#SVGID_00000127727022963383346070000012352415026102229690_);" width="6.5" height="595.2"/>
	<g style="opacity:0.8;clip-path:url(#SVGID_00000075852540232324188510000001707417857392950968_);">
		<path class="st21" d="M472.5,335.3c-1.1,0,0.2,0.6,1.6,0.8c0.4-0.3,0.8-0.6,1.1-0.9C474.3,335.4,473.4,335.4,472.5,335.3"/>
		<path class="st21" d="M478.3,333.8c0.6-0.9,1.1-1.9,1.3-2.9c-0.1,0.7-0.5,1.4-0.9,2c-2,1.3-0.2-0.8,0-1.5
			C476.5,334.2,478.4,333.1,478.3,333.8"/>
		<path class="st21" d="M480.5,328.2c0.1-2-0.4-1.3-0.6-0.6C480.1,327.7,480.3,329,480.5,328.2"/>
		<path class="st21" d="M468.3,301.3c0.6,0.1,1.3,0.2,1.2,0.3C470.1,301.5,470.3,301.4,468.3,301.3"/>
		<path class="st21" d="M469.5,301.6l-0.4,0.1L469.5,301.6L469.5,301.6"/>
		<path class="st21" d="M487.7,329c0.1,1.8-0.5,2.6-1,4.1l-0.9,0.5c-0.8,1.5,0.1,1-0.5,2.1c-1.2,1.1-3.7,3.4-4.4,3.6
			c-0.6,0,0.4-0.7,0.5-0.9c-1.6,1.1-1.3,1.7-3.8,2.3l-0.1-0.2c-6.1,2.9-14.5-2.8-14.4-10.5c-0.1,0.5-0.2,0.4-0.3,0.6
			c-0.3-4,1.8-8,5.5-9.6c3.5-1.8,7.7-1,10.3,1.3c-1.4-1.8-4.2-3.8-7.5-3.6c-3.2,0-6.2,2.1-7.3,4.3c-1.6,1-1.9,4-2.6,4.6
			c-1,7.1,1.8,10.2,6.6,13.8c0.7,0.5,0.2,0.6,0.3,1c-1.6-0.7-3-1.9-4.2-3.2c0.6,0.9,1.3,1.8,2.2,2.5c-1.5-0.5-3.5-3.6-4-3.7
			c2.5,4.6,10.4,8,14.5,6.3c-1.9,0.1-4.3,0-6.4-0.8c-0.9-0.5-2.1-1.4-1.9-1.6c5.6,2.1,11.3,1.6,16.2-2.3c1.2-1,2.6-2.6,3-2.6
			c-0.6,0.9,0.1,0.4-0.4,1.2c1.2-2-0.5-0.8,1.3-3.4l0.7,0.9c-0.2-1.6,2-3.6,1.8-6.2c0.5-0.8,0.6,0.9,0,2.7c0.8-2,0.2-2.4,0.4-4
			c0.2,0.6,0.5,1.2,0.6,1.8c-0.5-2,0.5-3.3,0.8-4.4c-0.2-0.1-0.8,0.9-0.9-1.4c0-1,0.3-0.5,0.4-0.8c-0.2-0.1-0.7-0.9-1-2.4
			c0.2-0.4,0.6,0.9,0.9,1c-0.2-1.2-0.5-2.1-0.6-3c-0.9-1.9-0.3,0.2-1-0.8c-1-3,0.8-0.7,0.9-2.1c1.5,2.1,2.3,5.4,2.7,6.8
			c-0.3-1.7-0.8-3.3-1.3-4.8c0.5,0.2-0.7-3.4,0.6-1c-1.4-5.1-5.9-9.8-10.1-12c0.5,0.5,1.1,1,0.9,1.1c-2.1-1.2-1.7-1.3-2-1.9
			c-1.7-0.7-1.8,0.1-2.9,0c-3.2-1.7-3.8-1.5-6.7-2.6l0.1,0.6c-2.1-0.7-2.5,0.3-4.7,0c-0.1-0.1,0.7-0.4,1.4-0.5
			c-2,0.3-1.9-0.4-3.9,0.1c0.5-0.3,1-0.6,1.5-0.9c-1.7,0.1-4,1-3.2,0.2c-2.7,1.2-7.5,2.9-10.2,5.4l-0.1-0.6
			c-1.2,1.5-5.4,4.4-5.7,6.4l-0.3,0.1c-0.6,1.1-1.1,2.3-1.6,3.4c-0.8,1.4-1.2,0.5-1.1,0.8c-1.7,3.4-2.5,6.2-3.2,8.5
			c0.5,0.8,0,4.5,0.2,7.6c-0.8,15,10.5,29.6,23,33c1.8,0.6,4.5,0.6,6.8,0.7c-2.7-0.8-3.1-0.4-5.7-1.3c-1.9-0.9-2.3-1.9-3.7-3.1
			l0.5,1c-2.6-0.9-1.5-1.2-3.7-1.9l0.6-0.8c-0.9-0.1-2.3-1.5-2.7-2.2l-0.9,0c-1.1-1.4-1.7-2.4-1.7-3.2l-0.3,0.5
			c-0.3-0.6-4.2-5.2-2.2-4.1c-0.4-0.3-0.9-0.5-1.4-1.5l0.4-0.5c-1-1.2-1.8-2.8-1.7-3.3c0.5,0.7,0.9,0.8,1.2,0.9
			c-2.4-6-2.5-0.3-4.4-6.1l0.4,0c-0.3-0.5-0.5-0.9-0.7-1.4l0.2-1.7c-1.7-2-0.5-8.5-0.2-12.1c0.2-1.5,1.4-3,2.4-5.4l-0.6-0.1
			c1.1-2,6.4-7.9,8.9-7.6c1.2-1.5-0.2,0-0.5-0.4c2.6-2.7,3.4-1.9,5.2-2.4c1.9-1.1-1.6,0.4-0.7-0.4c3.3-0.8,2.3-1.9,6.6-2.3
			c0.5,0.3-1,0.4-1.4,0.7c2.7-1.3,8.7-1,12.5,0.7c4.5,2.1,9.5,8.3,9.7,14.1l0.2,0.1c-0.1,2.3,0.4,5-0.5,7.4L487.7,329"/>
		<path class="st21" d="M460.5,336.8l-0.1,0.8c0.7,1,1.3,2,2.2,2.8C461.9,339.1,461.5,338.5,460.5,336.8"/>
		<path class="st21" d="M462.2,336.7c-0.4-0.4-0.6-0.9-0.9-1.4c0.2,0.9,0.7,1.6,1.2,2.4L462.2,336.7"/>
		<path class="st21" d="M492.3,330.2l-0.2,0.4c-0.3,2.1-0.9,4.2-1.9,6.1C491.3,334.7,492,332.4,492.3,330.2"/>
		<path class="st21" d="M468.5,300.8c0.7-0.3,1.8-0.1,2.6-0.3c-1,0.1-2,0.1-3,0.3L468.5,300.8"/>
		<path class="st21" d="M442.6,314.6c0.2,1.6-1.2,2.2,0.3,1.1C443.7,313.9,442.6,315.2,442.6,314.6"/>
		<path class="st21" d="M440.9,321.9c0.3-1,0.4-1.7,0.5-2.3C440.5,320.8,441,321.1,440.9,321.9"/>
	</g>
	
		<linearGradient id="SVGID_00000009558247231272438590000016591682864849947816_" gradientUnits="userSpaceOnUse" x1="2595.0935" y1="1951.2073" x2="3120.2136" y2="1951.2073" gradientTransform="matrix(6.735558e-17 -1.1 -0.41 -2.510526e-17 804.72 3688.3799)">
		<stop  offset="0" style="stop-color:#F2D6B0"/>
		<stop  offset="1" style="stop-color:#FF8C8E;stop-opacity:0"/>
	</linearGradient>
	
		<rect x="-25.1" y="262.3" style="opacity:0.5;clip-path:url(#SVGID_00000075852540232324188510000001707417857392950968_);fill:url(#SVGID_00000009558247231272438590000016591682864849947816_);enable-background:new    ;" width="59.7" height="575.8"/>
	
		<linearGradient id="SVGID_00000106840766241799155760000017948978729913281161_" gradientUnits="userSpaceOnUse" x1="2595.5237" y1="-545.6219" x2="2979.9536" y2="-545.6219" gradientTransform="matrix(6.735558e-17 -1.1 -0.41 -2.510526e-17 804.71 3688.3801)">
		<stop  offset="0" style="stop-color:#F2D6B0"/>
		<stop  offset="1" style="stop-color:#FF8C8E;stop-opacity:0"/>
	</linearGradient>
	
		<rect x="998.6" y="416.1" style="opacity:0.5;clip-path:url(#SVGID_00000075852540232324188510000001707417857392950968_);fill:url(#SVGID_00000106840766241799155760000017948978729913281161_);enable-background:new    ;" width="59.7" height="421.6"/>
	
		<linearGradient id="SVGID_00000127739646562137586650000004323275312312919707_" gradientUnits="userSpaceOnUse" x1="1625.0164" y1="-3162.3782" x2="1787.0664" y2="-3162.3782" gradientTransform="matrix(6.735558e-17 1.1 0.41 -2.510526e-17 1860.14 -945.71)">
		<stop  offset="0" style="stop-color:#F2D6B0"/>
		<stop  offset="1" style="stop-color:#FF8C8E;stop-opacity:0"/>
	</linearGradient>
	
		<rect x="496.7" y="837.1" style="opacity:0.5;clip-path:url(#SVGID_00000075852540232324188510000001707417857392950968_);fill:url(#SVGID_00000127739646562137586650000004323275312312919707_);enable-background:new    ;" width="133.8" height="177.7"/>
	
		<linearGradient id="SVGID_00000106118540702435165120000004673296984964308118_" gradientUnits="userSpaceOnUse" x1="1625.2563" y1="-3336.7439" x2="1818.3763" y2="-3336.7439" gradientTransform="matrix(6.735558e-17 1.1 0.41 -2.510526e-17 1860.13 -945.7)">
		<stop  offset="0" style="stop-color:#F2D6B0"/>
		<stop  offset="1" style="stop-color:#FF8C8E;stop-opacity:0"/>
	</linearGradient>
	
		<rect x="480.4" y="837.4" style="opacity:0.5;clip-path:url(#SVGID_00000075852540232324188510000001707417857392950968_);fill:url(#SVGID_00000106118540702435165120000004673296984964308118_);enable-background:new    ;" width="23.2" height="211.8"/>
</g>
</svg>
