<?xml version="1.0" encoding="utf-8"?>
<!-- Generator: $$$/GeneralStr/196=Adobe Illustrator 27.6.0, SVG Export Plug-In . SVG Version: 6.00 Build 0)  -->
<svg version="1.1" id="Calque_1" xmlns="http://www.w3.org/2000/svg" xmlns:xlink="http://www.w3.org/1999/xlink" x="0px" y="0px"
	 viewBox="0 0 1920 1080" style="enable-background:new 0 0 1920 1080;" xml:space="preserve">
<style type="text/css">
	.st0{clip-path:url(#SVGID_00000108310281131483629020000017432244635275208586_);fill:#284D55;}
	
		.st1{clip-path:url(#SVGID_00000108310281131483629020000017432244635275208586_);fill:url(#SVGID_00000011730131366729976700000010985417114782185130_);}
	
		.st2{clip-path:url(#SVGID_00000108310281131483629020000017432244635275208586_);fill:url(#SVGID_00000044154243611348426310000008502125570458073497_);}
	
		.st3{opacity:0.1;clip-path:url(#SVGID_00000108310281131483629020000017432244635275208586_);fill:#FEE0B6;enable-background:new    ;}
	
		.st4{opacity:0.6;clip-path:url(#SVGID_00000108310281131483629020000017432244635275208586_);fill:url(#SVGID_00000070120866222954396320000003708904108355513010_);enable-background:new    ;}
	
		.st5{opacity:0.4;clip-path:url(#SVGID_00000108310281131483629020000017432244635275208586_);fill:url(#SVGID_00000014609947402465185000000004131412451605654206_);enable-background:new    ;}
	
		.st6{clip-path:url(#SVGID_00000108310281131483629020000017432244635275208586_);fill:url(#SVGID_00000103967682757956065170000007416653654839710641_);}
	
		.st7{opacity:0.6;clip-path:url(#SVGID_00000108310281131483629020000017432244635275208586_);fill:url(#SVGID_00000145056717331216698050000013300692031627513513_);enable-background:new    ;}
	
		.st8{opacity:0.6;clip-path:url(#SVGID_00000108310281131483629020000017432244635275208586_);fill:url(#SVGID_00000016777810585319483380000016902397433033856679_);enable-background:new    ;}
	
		.st9{clip-path:url(#SVGID_00000108310281131483629020000017432244635275208586_);fill:url(#SVGID_00000088122753571480592750000018212579471431792278_);}
	
		.st10{opacity:0.5;clip-path:url(#SVGID_00000108310281131483629020000017432244635275208586_);fill:#FEE0B6;enable-background:new    ;}
	
		.st11{opacity:0.5;clip-path:url(#SVGID_00000108310281131483629020000017432244635275208586_);fill:url(#SVGID_00000159428716207405565930000004956095791117216404_);enable-background:new    ;}
	
		.st12{opacity:0.5;clip-path:url(#SVGID_00000108310281131483629020000017432244635275208586_);fill:url(#SVGID_00000147923810017279851090000012603210466702578567_);enable-background:new    ;}
	
		.st13{opacity:0.6;clip-path:url(#SVGID_00000108310281131483629020000017432244635275208586_);fill:url(#SVGID_00000131328269067619482680000016515873748803952311_);enable-background:new    ;}
	
		.st14{opacity:0.5;clip-path:url(#SVGID_00000108310281131483629020000017432244635275208586_);fill:url(#SVGID_00000145042093198664394240000000316998817694774660_);enable-background:new    ;}
	
		.st15{opacity:0.5;clip-path:url(#SVGID_00000108310281131483629020000017432244635275208586_);fill:url(#SVGID_00000082327915314961077930000015384539705078390443_);enable-background:new    ;}
	
		.st16{opacity:0.5;clip-path:url(#SVGID_00000108310281131483629020000017432244635275208586_);fill:url(#SVGID_00000092420182638938250400000006020377760619614867_);enable-background:new    ;}
	
		.st17{opacity:0.5;clip-path:url(#SVGID_00000108310281131483629020000017432244635275208586_);fill:url(#SVGID_00000026131289978931641490000003825515117453310142_);enable-background:new    ;}
	
		.st18{opacity:0.5;clip-path:url(#SVGID_00000108310281131483629020000017432244635275208586_);fill:url(#SVGID_00000082349610042769747790000013976913236003934655_);enable-background:new    ;}
	
		.st19{clip-path:url(#SVGID_00000108310281131483629020000017432244635275208586_);fill:url(#SVGID_00000183225921204365129930000003376032759545814414_);}
	.st20{opacity:0.8;clip-path:url(#SVGID_00000108310281131483629020000017432244635275208586_);}
	.st21{fill:#F3D6B0;}
	
		.st22{opacity:0.5;clip-path:url(#SVGID_00000108310281131483629020000017432244635275208586_);fill:url(#SVGID_00000042714872223265273560000010787308961930471598_);enable-background:new    ;}
	
		.st23{opacity:0.5;clip-path:url(#SVGID_00000108310281131483629020000017432244635275208586_);fill:url(#SVGID_00000003079044622759035230000000658548711980179858_);enable-background:new    ;}
	
		.st24{opacity:0.5;clip-path:url(#SVGID_00000108310281131483629020000017432244635275208586_);fill:url(#SVGID_00000174602662626609899460000006834140955035798158_);enable-background:new    ;}
	
		.st25{opacity:0.5;clip-path:url(#SVGID_00000108310281131483629020000017432244635275208586_);fill:url(#SVGID_00000058582735664039333820000008263838844152905632_);enable-background:new    ;}
</style>
<g>
	<defs>
		<rect id="SVGID_1_" width="1920" height="1080"/>
	</defs>
	<clipPath id="SVGID_00000013899866680583954050000002402616101565487497_">
		<use xlink:href="#SVGID_1_"  style="overflow:visible;"/>
	</clipPath>
	
		<rect y="-60" style="clip-path:url(#SVGID_00000013899866680583954050000002402616101565487497_);fill:#284D55;" width="1920" height="1200"/>
	
		<linearGradient id="SVGID_00000170993532450962762250000005975518942871066301_" gradientUnits="userSpaceOnUse" x1="1274.59" y1="583.9301" x2="1928.3899" y2="583.9301" gradientTransform="matrix(1 0 0 -1 0 1080)">
		<stop  offset="0" style="stop-color:#206F73"/>
		<stop  offset="0" style="stop-color:#FDDBB3"/>
		<stop  offset="1" style="stop-color:#2D7577"/>
	</linearGradient>
	
		<rect x="1274.6" y="-301.3" style="clip-path:url(#SVGID_00000013899866680583954050000002402616101565487497_);fill:url(#SVGID_00000170993532450962762250000005975518942871066301_);" width="653.8" height="1594.8"/>
	
		<linearGradient id="SVGID_00000171683937451812940440000010701890774419355307_" gradientUnits="userSpaceOnUse" x1="-3.26" y1="582.615" x2="1448.86" y2="582.615" gradientTransform="matrix(1 0 0 -1 0 1080)">
		<stop  offset="0" style="stop-color:#2F7274"/>
		<stop  offset="0.5" style="stop-color:#69A8A8"/>
		<stop  offset="0.6" style="stop-color:#6CA9A8"/>
		<stop  offset="0.68" style="stop-color:#76ACA9"/>
		<stop  offset="0.76" style="stop-color:#88B2AA"/>
		<stop  offset="0.83" style="stop-color:#A0BBAC"/>
		<stop  offset="0.9" style="stop-color:#C0C6AE"/>
		<stop  offset="0.97" style="stop-color:#E7D3B1"/>
		<stop  offset="1" style="stop-color:#FCDBB3"/>
	</linearGradient>
	
		<rect x="-3.3" y="-298.2" style="clip-path:url(#SVGID_00000013899866680583954050000002402616101565487497_);fill:url(#SVGID_00000171683937451812940440000010701890774419355307_);" width="1452.1" height="1591.1"/>
	
		<rect x="248.6" y="747.7" style="opacity:0.1;clip-path:url(#SVGID_00000013899866680583954050000002402616101565487497_);fill:#FEE0B6;enable-background:new    ;" width="251.1" height="405.4"/>
	
		<linearGradient id="SVGID_00000153664202137996646630000004474690749977499299_" gradientUnits="userSpaceOnUse" x1="624.96" y1="-1359.265" x2="983.19" y2="-1359.265" gradientTransform="matrix(6.123234e-17 1 1 -6.123234e-17 1747.15 152.72)">
		<stop  offset="0" style="stop-color:#F2D6B0"/>
		<stop  offset="1" style="stop-color:#FF8C8E;stop-opacity:0"/>
	</linearGradient>
	
		<rect x="272.2" y="777.7" style="opacity:0.6;clip-path:url(#SVGID_00000013899866680583954050000002402616101565487497_);fill:url(#SVGID_00000153664202137996646630000004474690749977499299_);enable-background:new    ;" width="231.3" height="358.2"/>
	
		<radialGradient id="SVGID_00000075848548680908275580000010836887795442828165_" cx="1472.28" cy="340.24" r="333.36" gradientTransform="matrix(1 0 0 -1 0 1080)" gradientUnits="userSpaceOnUse">
		<stop  offset="0" style="stop-color:#A80030"/>
		<stop  offset="1" style="stop-color:#FF8C8E;stop-opacity:0"/>
	</radialGradient>
	
		<circle style="opacity:0.4;clip-path:url(#SVGID_00000013899866680583954050000002402616101565487497_);fill:url(#SVGID_00000075848548680908275580000010836887795442828165_);enable-background:new    ;" cx="1472.3" cy="739.8" r="333.4"/>
	
		<linearGradient id="SVGID_00000080915382579944244780000015436459388437139892_" gradientUnits="userSpaceOnUse" x1="3137.355" y1="-1131.165" x2="3749.385" y2="-519.135" gradientTransform="matrix(-1 0 0 1 4868.2197 1487.28)">
		<stop  offset="0" style="stop-color:#487C80;stop-opacity:0"/>
		<stop  offset="1" style="stop-color:#5EA498"/>
	</linearGradient>
	
		<rect x="1292.1" y="182.9" style="clip-path:url(#SVGID_00000013899866680583954050000002402616101565487497_);fill:url(#SVGID_00000080915382579944244780000015436459388437139892_);" width="265.6" height="958.5"/>
	
		<radialGradient id="SVGID_00000127039765176875421590000014135224048781323688_" cx="516.33" cy="303.22" r="435.9" gradientTransform="matrix(1 0 0 -1 0 1080)" gradientUnits="userSpaceOnUse">
		<stop  offset="0" style="stop-color:#F2D6B0"/>
		<stop  offset="1" style="stop-color:#FF8C8E;stop-opacity:0"/>
	</radialGradient>
	
		<circle style="opacity:0.6;clip-path:url(#SVGID_00000013899866680583954050000002402616101565487497_);fill:url(#SVGID_00000127039765176875421590000014135224048781323688_);enable-background:new    ;" cx="516.3" cy="776.8" r="435.9"/>
	
		<radialGradient id="SVGID_00000070828723305417359550000000181795352742267538_" cx="496.34" cy="538.39" r="248.14" gradientTransform="matrix(1 0 0 -1 0 1080)" gradientUnits="userSpaceOnUse">
		<stop  offset="0" style="stop-color:#F2D6B0"/>
		<stop  offset="1" style="stop-color:#FF8C8E;stop-opacity:0"/>
	</radialGradient>
	
		<circle style="opacity:0.6;clip-path:url(#SVGID_00000013899866680583954050000002402616101565487497_);fill:url(#SVGID_00000070828723305417359550000000181795352742267538_);enable-background:new    ;" cx="496.3" cy="541.6" r="248.1"/>
	
		<linearGradient id="SVGID_00000119803081663393509670000000332562140090457229_" gradientUnits="userSpaceOnUse" x1="378.49" y1="303.63" x2="378.49" y2="1021.98" gradientTransform="matrix(1 0 0 -1 0 1080)">
		<stop  offset="0" style="stop-color:#F2D6B0"/>
		<stop  offset="1" style="stop-color:#FF8C8E;stop-opacity:0"/>
	</linearGradient>
	
		<rect x="252.9" y="58" style="clip-path:url(#SVGID_00000013899866680583954050000002402616101565487497_);fill:url(#SVGID_00000119803081663393509670000000332562140090457229_);" width="251.1" height="718.3"/>
	
		<rect x="274.2" y="271.2" style="opacity:0.5;clip-path:url(#SVGID_00000013899866680583954050000002402616101565487497_);fill:#FEE0B6;enable-background:new    ;" width="228.8" height="505.9"/>
	
		<radialGradient id="SVGID_00000072960273453929908960000010194898570985408915_" cx="2845.4675" cy="70.1" r="685" gradientTransform="matrix(5.572143e-17 -0.91 -1 -6.123234e-17 1026.29 3480.3301)" gradientUnits="userSpaceOnUse">
		<stop  offset="0" style="stop-color:#F2D6B0"/>
		<stop  offset="1" style="stop-color:#FF8C8E;stop-opacity:0"/>
	</radialGradient>
	
		<rect x="-2.5" y="777.3" style="opacity:0.5;clip-path:url(#SVGID_00000013899866680583954050000002402616101565487497_);fill:url(#SVGID_00000072960273453929908960000010194898570985408915_);enable-background:new    ;" width="1931" height="223.5"/>
	
		<linearGradient id="SVGID_00000143608528403592920440000011579746660230810041_" gradientUnits="userSpaceOnUse" x1="3.27" y1="458.775" x2="503.71" y2="458.775" gradientTransform="matrix(1 0 0 -1 0 1080)">
		<stop  offset="0" style="stop-color:#206F73;stop-opacity:0.8"/>
		<stop  offset="0.31" style="stop-color:#69A8A8"/>
		<stop  offset="0.37" style="stop-color:#6CA9A8"/>
		<stop  offset="0.43" style="stop-color:#76ACA9"/>
		<stop  offset="0.48" style="stop-color:#88B2AA"/>
		<stop  offset="0.53" style="stop-color:#A0BBAC"/>
		<stop  offset="0.58" style="stop-color:#C0C6AE"/>
		<stop  offset="0.6" style="stop-color:#D0CCB0"/>
		<stop  offset="1" style="stop-color:#FCDBB3;stop-opacity:0"/>
	</linearGradient>
	
		<rect x="3.3" y="464.3" style="opacity:0.5;clip-path:url(#SVGID_00000013899866680583954050000002402616101565487497_);fill:url(#SVGID_00000143608528403592920440000011579746660230810041_);enable-background:new    ;" width="500.4" height="313.8"/>
	
		<radialGradient id="SVGID_00000124132626921087765220000007198470094140697216_" cx="641.02" cy="306.24" r="177.59" gradientTransform="matrix(1 0 0 -1 0 1080)" gradientUnits="userSpaceOnUse">
		<stop  offset="0" style="stop-color:#F2D6B0"/>
		<stop  offset="1" style="stop-color:#FF8C8E;stop-opacity:0"/>
	</radialGradient>
	
		<circle style="opacity:0.6;clip-path:url(#SVGID_00000013899866680583954050000002402616101565487497_);fill:url(#SVGID_00000124132626921087765220000007198470094140697216_);enable-background:new    ;" cx="641" cy="773.8" r="177.6"/>
	
		<linearGradient id="SVGID_00000183939820590949574710000012190012585934064003_" gradientUnits="userSpaceOnUse" x1="2860.5481" y1="2414.3901" x2="3223.6982" y2="2414.3901" gradientTransform="matrix(6.735558e-17 -1.1 -0.41 -2.510526e-17 1124.63 3919.8201)">
		<stop  offset="0" style="stop-color:#F2D6B0"/>
		<stop  offset="1" style="stop-color:#FF8C8E;stop-opacity:0"/>
	</linearGradient>
	
		<rect x="-3.5" y="379.9" style="opacity:0.5;clip-path:url(#SVGID_00000013899866680583954050000002402616101565487497_);fill:url(#SVGID_00000183939820590949574710000012190012585934064003_);enable-background:new    ;" width="276.4" height="398.2"/>
	
		<linearGradient id="SVGID_00000051341514164098770310000010586799399292544944_" gradientUnits="userSpaceOnUse" x1="2860.9783" y1="1206.5244" x2="3264.7781" y2="1206.5244" gradientTransform="matrix(6.735558e-17 -1.1 -0.41 -2.510526e-17 1124.64 3919.8301)">
		<stop  offset="0" style="stop-color:#F2D6B0"/>
		<stop  offset="1" style="stop-color:#FF8C8E;stop-opacity:0"/>
	</linearGradient>
	
		<rect x="555.5" y="334.9" style="opacity:0.5;clip-path:url(#SVGID_00000013899866680583954050000002402616101565487497_);fill:url(#SVGID_00000051341514164098770310000010586799399292544944_);enable-background:new    ;" width="149" height="442.8"/>
	
		<linearGradient id="SVGID_00000003080499154893666490000009360569529124050358_" gradientUnits="userSpaceOnUse" x1="503.89" y1="417.135" x2="997.64" y2="417.135" gradientTransform="matrix(1 0 0 -1 0 1080)">
		<stop  offset="0" style="stop-color:#206F73"/>
		<stop  offset="0.31" style="stop-color:#69A8A8"/>
		<stop  offset="0.37" style="stop-color:#6CA9A8"/>
		<stop  offset="0.43" style="stop-color:#76ACA9"/>
		<stop  offset="0.48" style="stop-color:#88B2AA"/>
		<stop  offset="0.53" style="stop-color:#A0BBAC"/>
		<stop  offset="0.58" style="stop-color:#C0C6AE"/>
		<stop  offset="0.6" style="stop-color:#D0CCB0"/>
		<stop  offset="1" style="stop-color:#FCDBB3;stop-opacity:0"/>
	</linearGradient>
	
		<rect x="503.9" y="548.1" style="opacity:0.5;clip-path:url(#SVGID_00000013899866680583954050000002402616101565487497_);fill:url(#SVGID_00000003080499154893666490000009360569529124050358_);enable-background:new    ;" width="493.8" height="229.6"/>
	
		<linearGradient id="SVGID_00000021806390539459781760000018418332111715952301_" gradientUnits="userSpaceOnUse" x1="2860.9783" y1="997.8658" x2="3273.8381" y2="997.8658" gradientTransform="matrix(6.735558e-17 -1.1 -0.41 -2.510526e-17 1124.63 3919.8301)">
		<stop  offset="0" style="stop-color:#F2D6B0"/>
		<stop  offset="1" style="stop-color:#FF8C8E;stop-opacity:0"/>
	</linearGradient>
	
		<rect x="641" y="324.9" style="opacity:0.5;clip-path:url(#SVGID_00000013899866680583954050000002402616101565487497_);fill:url(#SVGID_00000021806390539459781760000018418332111715952301_);enable-background:new    ;" width="149" height="452.7"/>
	
		<linearGradient id="SVGID_00000047025104407890357440000011561160822290335879_" gradientUnits="userSpaceOnUse" x1="2269.4946" y1="70.51" x2="2297.5127" y2="70.51" gradientTransform="matrix(1.022580e-16 1.67 -1 6.123234e-17 1032.38 -3060.23)">
		<stop  offset="0" style="stop-color:#F2DAB8;stop-opacity:0"/>
		<stop  offset="1" style="stop-color:#FCDBB3"/>
	</linearGradient>
	
		<rect x="-0.3" y="730.9" style="opacity:0.5;clip-path:url(#SVGID_00000013899866680583954050000002402616101565487497_);fill:url(#SVGID_00000047025104407890357440000011561160822290335879_);enable-background:new    ;" width="1924.3" height="46.8"/>
	
		<linearGradient id="SVGID_00000042719051485049094370000014189568095289234837_" gradientUnits="userSpaceOnUse" x1="1442.33" y1="599.955" x2="1448.8101" y2="599.955" gradientTransform="matrix(1 0 0 -1 0 1080)">
		<stop  offset="0" style="stop-color:#F2DAB8;stop-opacity:0"/>
		<stop  offset="1" style="stop-color:#FCDBB3"/>
	</linearGradient>
	
		<rect x="1442.3" y="182.4" style="clip-path:url(#SVGID_00000013899866680583954050000002402616101565487497_);fill:url(#SVGID_00000042719051485049094370000014189568095289234837_);" width="6.5" height="595.2"/>
	<g style="opacity:0.8;clip-path:url(#SVGID_00000013899866680583954050000002402616101565487497_);">
		<path class="st21" d="M632.5,275.3c-1.1,0,0.2,0.6,1.6,0.8c0.4-0.3,0.8-0.6,1.1-0.9C634.3,275.4,633.4,275.4,632.5,275.3"/>
		<path class="st21" d="M638.3,273.8c0.7-0.9,1.1-1.9,1.3-2.9c-0.2,0.7-0.5,1.4-0.9,2c-2,1.3-0.2-0.8,0-1.5
			C636.5,274.2,638.4,273.1,638.3,273.8"/>
		<path class="st21" d="M640.5,268.2c0.1-2-0.4-1.3-0.6-0.6C640.1,267.7,640.3,269,640.5,268.2"/>
		<path class="st21" d="M628.3,241.3c0.6,0.1,1.3,0.2,1.2,0.3C630.1,241.5,630.3,241.4,628.3,241.3"/>
		<path class="st21" d="M629.5,241.6l-0.4,0.1L629.5,241.6L629.5,241.6"/>
		<path class="st21" d="M647.7,269c0.1,1.8-0.5,2.6-1,4.1l-0.9,0.5c-0.8,1.5,0.1,1-0.5,2.1c-1.2,1.1-3.7,3.4-4.4,3.6
			c-0.6,0,0.4-0.7,0.5-0.9c-1.6,1.1-1.3,1.7-3.8,2.3l-0.1-0.2c-6.1,2.9-14.5-2.8-14.4-10.5c-0.1,0.5-0.2,0.4-0.3,0.6
			c-0.3-4,1.8-8,5.5-9.6c3.5-1.8,7.7-1,10.3,1.3c-1.4-1.8-4.2-3.8-7.5-3.6c-3.2,0-6.2,2.1-7.3,4.3c-1.7,1-1.8,4-2.6,4.6
			c-1,7.1,1.8,10.2,6.6,13.8c0.7,0.5,0.2,0.6,0.3,1c-1.6-0.7-3-1.9-4.2-3.2c0.6,0.9,1.3,1.8,2.2,2.5c-1.5-0.5-3.5-3.6-4-3.7
			c2.5,4.6,10.4,8,14.5,6.3c-1.9,0.1-4.3,0-6.4-0.8c-0.9-0.5-2.1-1.4-1.9-1.6c5.6,2.1,11.3,1.6,16.2-2.3c1.2-1,2.6-2.6,3-2.6
			c-0.6,0.9,0.1,0.4-0.3,1.2c1.2-2-0.5-0.8,1.3-3.4l0.7,0.9c-0.2-1.6,2-3.6,1.8-6.2c0.5-0.8,0.6,0.9,0,2.7c0.8-2,0.2-2.4,0.4-4
			c0.2,0.6,0.5,1.2,0.6,1.8c-0.5-2,0.5-3.3,0.8-4.4c-0.2-0.1-0.8,0.9-0.9-1.4c0-1,0.3-0.5,0.4-0.8c-0.2-0.1-0.7-0.9-1-2.4
			c0.2-0.4,0.6,0.9,0.9,1c-0.2-1.2-0.5-2.1-0.6-3c-0.9-1.9-0.3,0.2-1-0.8c-1-3,0.8-0.7,0.9-2.1c1.5,2.1,2.3,5.4,2.7,6.8
			c-0.3-1.7-0.8-3.3-1.3-4.8c0.5,0.2-0.7-3.4,0.6-1c-1.4-5.1-5.9-9.8-10.1-12c0.5,0.5,1.2,1.1,0.9,1.1c-2.1-1.2-1.7-1.3-2-1.9
			c-1.7-0.7-1.8,0.1-2.9,0c-3.2-1.7-3.8-1.5-6.7-2.6l0.1,0.6c-2.1-0.7-2.5,0.3-4.7,0c-0.1-0.1,0.7-0.4,1.4-0.5
			c-2,0.3-1.9-0.4-3.9,0.1c0.5-0.3,1-0.6,1.5-0.9c-1.7,0.1-4,1-3.2,0.2c-2.7,1.2-7.5,2.9-10.2,5.4l-0.1-0.6
			c-1.2,1.5-5.4,4.4-5.7,6.4l-0.3,0.1c-0.6,1.1-1.1,2.3-1.6,3.4c-0.8,1.4-1.2,0.6-1.1,0.8c-1.7,3.4-2.5,6.2-3.2,8.5
			c0.5,0.8,0,4.5,0.2,7.6c-0.8,15,10.5,29.6,23,33c1.8,0.6,4.5,0.6,6.8,0.7c-2.7-0.8-3.1-0.4-5.7-1.3c-1.9-0.9-2.3-1.9-3.7-3.1
			l0.5,1c-2.7-0.9-1.5-1.2-3.7-1.9l0.6-0.8c-0.9-0.1-2.3-1.5-2.7-2.2l-0.9,0c-1.1-1.4-1.7-2.4-1.7-3.2l-0.3,0.5
			c-0.3-0.6-4.2-5.2-2.2-4.1c-0.4-0.3-0.9-0.5-1.4-1.5l0.4-0.5c-1-1.2-1.8-2.8-1.7-3.3c0.5,0.7,0.9,0.8,1.2,0.9
			c-2.4-6-2.5-0.3-4.4-6.1l0.4,0c-0.3-0.5-0.5-0.9-0.7-1.4l0.2-1.7c-1.7-2-0.5-8.5-0.2-12.1c0.2-1.5,1.4-3,2.4-5.4l-0.6-0.1
			c1.1-2,6.4-7.9,8.9-7.6c1.2-1.5-0.2,0-0.5-0.4c2.6-2.7,3.4-1.9,5.2-2.4c1.9-1.1-1.6,0.4-0.7-0.4c3.3-0.8,2.3-1.9,6.6-2.3
			c0.5,0.3-1,0.4-1.4,0.7c2.7-1.3,8.7-1,12.5,0.7c4.5,2.1,9.5,8.3,9.7,14.1l0.2,0.1c-0.1,2.3,0.3,5-0.5,7.4L647.7,269"/>
		<path class="st21" d="M620.5,276.8l-0.2,0.8c0.7,1,1.3,2,2.2,2.8C621.9,279.1,621.4,278.5,620.5,276.8"/>
		<path class="st21" d="M622.2,276.7c-0.4-0.4-0.6-0.9-0.9-1.4c0.2,0.9,0.7,1.6,1.2,2.4L622.2,276.7"/>
		<path class="st21" d="M652.3,270.2l-0.2,0.4c-0.3,2.1-0.9,4.2-1.9,6.1C651.3,274.7,652,272.4,652.3,270.2"/>
		<path class="st21" d="M628.5,240.8c0.7-0.3,1.8-0.1,2.6-0.3c-1,0.1-2,0.1-3,0.3L628.5,240.8"/>
		<path class="st21" d="M602.6,254.6c0.2,1.6-1.2,2.2,0.3,1.1C603.7,253.9,602.6,255.2,602.6,254.6"/>
		<path class="st21" d="M600.9,261.9c0.3-1,0.4-1.7,0.5-2.3C600.5,260.8,601,261.1,600.9,261.9"/>
	</g>
	
		<linearGradient id="SVGID_00000040547317389932925600000015844444993014878857_" gradientUnits="userSpaceOnUse" x1="2860.5481" y1="2341.2561" x2="3385.6682" y2="2341.2561" gradientTransform="matrix(6.735558e-17 -1.1 -0.41 -2.510526e-17 1124.64 3919.8301)">
		<stop  offset="0" style="stop-color:#F2D6B0"/>
		<stop  offset="1" style="stop-color:#FF8C8E;stop-opacity:0"/>
	</linearGradient>
	
		<rect x="134.9" y="202.3" style="opacity:0.5;clip-path:url(#SVGID_00000013899866680583954050000002402616101565487497_);fill:url(#SVGID_00000040547317389932925600000015844444993014878857_);enable-background:new    ;" width="59.7" height="575.8"/>
	
		<linearGradient id="SVGID_00000059280206433777210130000017753908522531260324_" gradientUnits="userSpaceOnUse" x1="2860.9783" y1="-155.5731" x2="3245.4082" y2="-155.5731" gradientTransform="matrix(6.735558e-17 -1.1 -0.41 -2.510526e-17 1124.63 3919.8301)">
		<stop  offset="0" style="stop-color:#F2D6B0"/>
		<stop  offset="1" style="stop-color:#FF8C8E;stop-opacity:0"/>
	</linearGradient>
	
		<rect x="1158.6" y="356.1" style="opacity:0.5;clip-path:url(#SVGID_00000013899866680583954050000002402616101565487497_);fill:url(#SVGID_00000059280206433777210130000017753908522531260324_);enable-background:new    ;" width="59.7" height="421.6"/>
	
		<linearGradient id="SVGID_00000075139480996775420140000007611919734337507238_" gradientUnits="userSpaceOnUse" x1="1999.5619" y1="-3552.8171" x2="2161.6118" y2="-3552.8171" gradientTransform="matrix(6.735558e-17 1.1 0.41 -2.510526e-17 2180.22 -1417.16)">
		<stop  offset="0" style="stop-color:#F2D6B0"/>
		<stop  offset="1" style="stop-color:#FF8C8E;stop-opacity:0"/>
	</linearGradient>
	
		<rect x="656.7" y="777.1" style="opacity:0.5;clip-path:url(#SVGID_00000013899866680583954050000002402616101565487497_);fill:url(#SVGID_00000075139480996775420140000007611919734337507238_);enable-background:new    ;" width="133.8" height="177.7"/>
	
		<linearGradient id="SVGID_00000173132850582290993980000013994495987163032967_" gradientUnits="userSpaceOnUse" x1="1999.8019" y1="-3727.1831" x2="2192.9219" y2="-3727.1831" gradientTransform="matrix(6.735558e-17 1.1 0.41 -2.510526e-17 2180.21 -1417.16)">
		<stop  offset="0" style="stop-color:#F2D6B0"/>
		<stop  offset="1" style="stop-color:#FF8C8E;stop-opacity:0"/>
	</linearGradient>
	
		<rect x="640.4" y="777.4" style="opacity:0.5;clip-path:url(#SVGID_00000013899866680583954050000002402616101565487497_);fill:url(#SVGID_00000173132850582290993980000013994495987163032967_);enable-background:new    ;" width="23.2" height="211.8"/>
</g>
</svg>
