<?xml version="1.0" encoding="utf-8"?>
<!-- Generator: $$$/GeneralStr/196=Adobe Illustrator 27.6.0, SVG Export Plug-In . SVG Version: 6.00 Build 0)  -->
<svg version="1.1" id="Calque_1" xmlns="http://www.w3.org/2000/svg" xmlns:xlink="http://www.w3.org/1999/xlink" x="0px" y="0px"
	 viewBox="0 0 720 1440" style="enable-background:new 0 0 720 1440;" xml:space="preserve">
<style type="text/css">
	.st0{clip-path:url(#SVGID_00000072263027084402680960000010801589705886218651_);fill:#284D55;}
	
		.st1{clip-path:url(#SVGID_00000072263027084402680960000010801589705886218651_);fill:url(#SVGID_00000134956133581559745760000004663326285940216232_);}
	
		.st2{opacity:0.1;clip-path:url(#SVGID_00000072263027084402680960000010801589705886218651_);fill:#FEE0B6;enable-background:new    ;}
	
		.st3{opacity:0.6;clip-path:url(#SVGID_00000072263027084402680960000010801589705886218651_);fill:url(#SVGID_00000127025801321953971960000013428808063110368447_);enable-background:new    ;}
	
		.st4{opacity:0.4;clip-path:url(#SVGID_00000072263027084402680960000010801589705886218651_);fill:url(#SVGID_00000133521562806978286930000017394886380595230860_);enable-background:new    ;}
	
		.st5{opacity:0.6;clip-path:url(#SVGID_00000072263027084402680960000010801589705886218651_);fill:url(#SVGID_00000139991893245679254370000013086768748149865648_);enable-background:new    ;}
	
		.st6{opacity:0.6;clip-path:url(#SVGID_00000072263027084402680960000010801589705886218651_);fill:url(#SVGID_00000160876835174099570890000004370435454886790535_);enable-background:new    ;}
	
		.st7{clip-path:url(#SVGID_00000072263027084402680960000010801589705886218651_);fill:url(#SVGID_00000145777075075058867900000000086084919525224577_);}
	
		.st8{opacity:0.5;clip-path:url(#SVGID_00000072263027084402680960000010801589705886218651_);fill:#FEE0B6;enable-background:new    ;}
	
		.st9{opacity:0.5;clip-path:url(#SVGID_00000072263027084402680960000010801589705886218651_);fill:url(#SVGID_00000012471221628697723910000016146353132292016778_);enable-background:new    ;}
	
		.st10{opacity:0.5;clip-path:url(#SVGID_00000072263027084402680960000010801589705886218651_);fill:url(#SVGID_00000029033794713802177440000006935954953100879786_);enable-background:new    ;}
	
		.st11{opacity:0.6;clip-path:url(#SVGID_00000072263027084402680960000010801589705886218651_);fill:url(#SVGID_00000003081239836168388460000011025637500916504962_);enable-background:new    ;}
	
		.st12{opacity:0.5;clip-path:url(#SVGID_00000072263027084402680960000010801589705886218651_);fill:url(#SVGID_00000153664746933354960580000011920885332011112868_);enable-background:new    ;}
	
		.st13{opacity:0.5;clip-path:url(#SVGID_00000072263027084402680960000010801589705886218651_);fill:url(#SVGID_00000022519008419220073050000012387993131531736193_);enable-background:new    ;}
	
		.st14{opacity:0.5;clip-path:url(#SVGID_00000072263027084402680960000010801589705886218651_);fill:url(#SVGID_00000098193609532729471600000002668300701872816524_);enable-background:new    ;}
	
		.st15{opacity:0.5;clip-path:url(#SVGID_00000072263027084402680960000010801589705886218651_);fill:url(#SVGID_00000158001375392277542980000001139589183514745769_);enable-background:new    ;}
	.st16{opacity:0.8;clip-path:url(#SVGID_00000072263027084402680960000010801589705886218651_);}
	.st17{fill:#F3D6B0;}
	
		.st18{opacity:0.5;clip-path:url(#SVGID_00000072263027084402680960000010801589705886218651_);fill:url(#SVGID_00000080918926357592723380000005468390102563535247_);enable-background:new    ;}
	
		.st19{opacity:0.5;clip-path:url(#SVGID_00000072263027084402680960000010801589705886218651_);fill:url(#SVGID_00000179622938502769860790000010891456292955404988_);enable-background:new    ;}
	
		.st20{opacity:0.5;clip-path:url(#SVGID_00000072263027084402680960000010801589705886218651_);fill:url(#SVGID_00000038388567279913866610000011531530862411699895_);enable-background:new    ;}
</style>
<g>
	<defs>
		<rect id="SVGID_1_" width="720" height="1440"/>
	</defs>
	<clipPath id="SVGID_00000057858950711654408180000017521581751521228714_">
		<use xlink:href="#SVGID_1_"  style="overflow:visible;"/>
	</clipPath>
	
		<rect x="-470" y="90.3" style="clip-path:url(#SVGID_00000057858950711654408180000017521581751521228714_);fill:#284D55;" width="1920" height="1200"/>
	
		<linearGradient id="SVGID_00000051350777634485380920000011570071568121634434_" gradientUnits="userSpaceOnUse" x1="-473.29" y1="792.355" x2="978.83" y2="792.355" gradientTransform="matrix(1 0 0 -1 0 1440)">
		<stop  offset="0" style="stop-color:#2F7274"/>
		<stop  offset="0.5" style="stop-color:#69A8A8"/>
		<stop  offset="0.6" style="stop-color:#6CA9A8"/>
		<stop  offset="0.68" style="stop-color:#76ACA9"/>
		<stop  offset="0.76" style="stop-color:#88B2AA"/>
		<stop  offset="0.83" style="stop-color:#A0BBAC"/>
		<stop  offset="0.9" style="stop-color:#C0C6AE"/>
		<stop  offset="0.97" style="stop-color:#E7D3B1"/>
		<stop  offset="1" style="stop-color:#FCDBB3"/>
	</linearGradient>
	
		<rect x="-473.3" y="-147.9" style="clip-path:url(#SVGID_00000057858950711654408180000017521581751521228714_);fill:url(#SVGID_00000051350777634485380920000011570071568121634434_);" width="1452.1" height="1591.1"/>
	
		<rect x="-221.4" y="897.9" style="opacity:0.1;clip-path:url(#SVGID_00000057858950711654408180000017521581751521228714_);fill:#FEE0B6;enable-background:new    ;" width="251.1" height="405.4"/>
	
		<linearGradient id="SVGID_00000021097254537004052070000000862546324957712800_" gradientUnits="userSpaceOnUse" x1="-625.08" y1="-729.535" x2="-266.85" y2="-729.535" gradientTransform="matrix(6.123234e-17 1 1 -6.123234e-17 647.38 1553.02)">
		<stop  offset="0" style="stop-color:#F2D6B0"/>
		<stop  offset="1" style="stop-color:#FF8C8E;stop-opacity:0"/>
	</linearGradient>
	
		<rect x="-197.8" y="927.9" style="opacity:0.6;clip-path:url(#SVGID_00000057858950711654408180000017521581751521228714_);fill:url(#SVGID_00000021097254537004052070000000862546324957712800_);enable-background:new    ;" width="231.3" height="358.2"/>
	
		<radialGradient id="SVGID_00000071518998641077120220000007311052855136726929_" cx="1002.25" cy="549.97" r="333.36" gradientTransform="matrix(1 0 0 -1 0 1440)" gradientUnits="userSpaceOnUse">
		<stop  offset="0" style="stop-color:#A80030"/>
		<stop  offset="1" style="stop-color:#FF8C8E;stop-opacity:0"/>
	</radialGradient>
	
		<circle style="opacity:0.4;clip-path:url(#SVGID_00000057858950711654408180000017521581751521228714_);fill:url(#SVGID_00000071518998641077120220000007311052855136726929_);enable-background:new    ;" cx="1002.2" cy="890" r="333.4"/>
	
		<radialGradient id="SVGID_00000067943518898244231140000010229116951684401057_" cx="46.29" cy="512.96" r="435.9" gradientTransform="matrix(1 0 0 -1 0 1440)" gradientUnits="userSpaceOnUse">
		<stop  offset="0" style="stop-color:#F2D6B0"/>
		<stop  offset="1" style="stop-color:#FF8C8E;stop-opacity:0"/>
	</radialGradient>
	
		<circle style="opacity:0.6;clip-path:url(#SVGID_00000057858950711654408180000017521581751521228714_);fill:url(#SVGID_00000067943518898244231140000010229116951684401057_);enable-background:new    ;" cx="46.3" cy="927" r="435.9"/>
	
		<radialGradient id="SVGID_00000016061585115501510510000006376370171026020769_" cx="26.3" cy="748.12" r="248.14" gradientTransform="matrix(1 0 0 -1 0 1440)" gradientUnits="userSpaceOnUse">
		<stop  offset="0" style="stop-color:#F2D6B0"/>
		<stop  offset="1" style="stop-color:#FF8C8E;stop-opacity:0"/>
	</radialGradient>
	
		<circle style="opacity:0.6;clip-path:url(#SVGID_00000057858950711654408180000017521581751521228714_);fill:url(#SVGID_00000016061585115501510510000006376370171026020769_);enable-background:new    ;" cx="26.3" cy="691.9" r="248.1"/>
	
		<linearGradient id="SVGID_00000065794660903313485420000016810117497506788528_" gradientUnits="userSpaceOnUse" x1="-91.54" y1="513.37" x2="-91.54" y2="1231.72" gradientTransform="matrix(1 0 0 -1 0 1440)">
		<stop  offset="0" style="stop-color:#F2D6B0"/>
		<stop  offset="1" style="stop-color:#FF8C8E;stop-opacity:0"/>
	</linearGradient>
	
		<rect x="-217.1" y="208.3" style="clip-path:url(#SVGID_00000057858950711654408180000017521581751521228714_);fill:url(#SVGID_00000065794660903313485420000016810117497506788528_);" width="251.1" height="718.3"/>
	
		<rect x="-195.9" y="421.5" style="opacity:0.5;clip-path:url(#SVGID_00000057858950711654408180000017521581751521228714_);fill:#FEE0B6;enable-background:new    ;" width="228.8" height="505.9"/>
	
		<radialGradient id="SVGID_00000178175395491828977560000001033747185103902366_" cx="1973.2297" cy="-500.17" r="685" gradientTransform="matrix(5.572143e-17 -0.91 -1 -6.123234e-17 -14.71 2836.1699)" gradientUnits="userSpaceOnUse">
		<stop  offset="0" style="stop-color:#F2D6B0"/>
		<stop  offset="1" style="stop-color:#FF8C8E;stop-opacity:0"/>
	</radialGradient>
	
		<rect x="-472.6" y="927.6" style="opacity:0.5;clip-path:url(#SVGID_00000057858950711654408180000017521581751521228714_);fill:url(#SVGID_00000178175395491828977560000001033747185103902366_);enable-background:new    ;" width="1931" height="223.5"/>
	
		<linearGradient id="SVGID_00000115476313225677615200000009907090008727487151_" gradientUnits="userSpaceOnUse" x1="-466.77" y1="668.515" x2="33.67" y2="668.515" gradientTransform="matrix(1 0 0 -1 0 1440)">
		<stop  offset="0" style="stop-color:#206F73;stop-opacity:0.8"/>
		<stop  offset="0.31" style="stop-color:#69A8A8"/>
		<stop  offset="0.37" style="stop-color:#6CA9A8"/>
		<stop  offset="0.43" style="stop-color:#76ACA9"/>
		<stop  offset="0.48" style="stop-color:#88B2AA"/>
		<stop  offset="0.53" style="stop-color:#A0BBAC"/>
		<stop  offset="0.58" style="stop-color:#C0C6AE"/>
		<stop  offset="0.6" style="stop-color:#D0CCB0"/>
		<stop  offset="1" style="stop-color:#FCDBB3;stop-opacity:0"/>
	</linearGradient>
	
		<rect x="-466.8" y="614.6" style="opacity:0.5;clip-path:url(#SVGID_00000057858950711654408180000017521581751521228714_);fill:url(#SVGID_00000115476313225677615200000009907090008727487151_);enable-background:new    ;" width="500.4" height="313.8"/>
	
		<radialGradient id="SVGID_00000129898512915683644110000002261303041332333973_" cx="170.98" cy="515.97" r="177.59" gradientTransform="matrix(1 0 0 -1 0 1440)" gradientUnits="userSpaceOnUse">
		<stop  offset="0" style="stop-color:#F2D6B0"/>
		<stop  offset="1" style="stop-color:#FF8C8E;stop-opacity:0"/>
	</radialGradient>
	
		<circle style="opacity:0.6;clip-path:url(#SVGID_00000057858950711654408180000017521581751521228714_);fill:url(#SVGID_00000129898512915683644110000002261303041332333973_);enable-background:new    ;" cx="171" cy="924" r="177.6"/>
	
		<linearGradient id="SVGID_00000143591669586255338070000008552883349264953009_" gradientUnits="userSpaceOnUse" x1="1954.5746" y1="-226.6708" x2="2358.3745" y2="-226.6708" gradientTransform="matrix(6.735558e-17 -1.1 -0.41 -2.510526e-17 66.99 3074.6699)">
		<stop  offset="0" style="stop-color:#F2D6B0"/>
		<stop  offset="1" style="stop-color:#FF8C8E;stop-opacity:0"/>
	</linearGradient>
	
		<rect x="85.4" y="485.1" style="opacity:0.5;clip-path:url(#SVGID_00000057858950711654408180000017521581751521228714_);fill:url(#SVGID_00000143591669586255338070000008552883349264953009_);enable-background:new    ;" width="149" height="442.8"/>
	
		<linearGradient id="SVGID_00000181793101209714219740000013399677077772722623_" gradientUnits="userSpaceOnUse" x1="33.86" y1="626.875" x2="527.61" y2="626.875" gradientTransform="matrix(1 0 0 -1 0 1440)">
		<stop  offset="0" style="stop-color:#206F73"/>
		<stop  offset="0.31" style="stop-color:#69A8A8"/>
		<stop  offset="0.37" style="stop-color:#6CA9A8"/>
		<stop  offset="0.43" style="stop-color:#76ACA9"/>
		<stop  offset="0.48" style="stop-color:#88B2AA"/>
		<stop  offset="0.53" style="stop-color:#A0BBAC"/>
		<stop  offset="0.58" style="stop-color:#C0C6AE"/>
		<stop  offset="0.6" style="stop-color:#D0CCB0"/>
		<stop  offset="1" style="stop-color:#FCDBB3;stop-opacity:0"/>
	</linearGradient>
	
		<rect x="33.9" y="698.3" style="opacity:0.5;clip-path:url(#SVGID_00000057858950711654408180000017521581751521228714_);fill:url(#SVGID_00000181793101209714219740000013399677077772722623_);enable-background:new    ;" width="493.8" height="229.6"/>
	
		<linearGradient id="SVGID_00000000940477374369048320000010970522908131730320_" gradientUnits="userSpaceOnUse" x1="1954.5746" y1="-435.3048" x2="2367.4346" y2="-435.3048" gradientTransform="matrix(6.735558e-17 -1.1 -0.41 -2.510526e-17 66.99 3074.6602)">
		<stop  offset="0" style="stop-color:#F2D6B0"/>
		<stop  offset="1" style="stop-color:#FF8C8E;stop-opacity:0"/>
	</linearGradient>
	
		<rect x="170.9" y="475.2" style="opacity:0.5;clip-path:url(#SVGID_00000057858950711654408180000017521581751521228714_);fill:url(#SVGID_00000000940477374369048320000010970522908131730320_);enable-background:new    ;" width="149" height="452.7"/>
	
		<linearGradient id="SVGID_00000021823314343655811870000007680526715024669609_" gradientUnits="userSpaceOnUse" x1="1091.6703" y1="-499.7601" x2="1119.6882" y2="-499.7601" gradientTransform="matrix(1.022580e-16 1.67 -1 6.123234e-17 -7.92 -942.7)">
		<stop  offset="0" style="stop-color:#F2DAB8;stop-opacity:0"/>
		<stop  offset="1" style="stop-color:#FCDBB3"/>
	</linearGradient>
	
		<rect x="-470.3" y="881.1" style="opacity:0.5;clip-path:url(#SVGID_00000057858950711654408180000017521581751521228714_);fill:url(#SVGID_00000021823314343655811870000007680526715024669609_);enable-background:new    ;" width="1924.3" height="46.8"/>
	<g style="opacity:0.8;clip-path:url(#SVGID_00000057858950711654408180000017521581751521228714_);">
		<path class="st17" d="M162.4,425.6c-1.1,0,0.2,0.6,1.6,0.8c0.4-0.3,0.8-0.6,1.1-0.9C164.3,425.6,163.4,425.6,162.4,425.6"/>
		<path class="st17" d="M168.3,424.1c0.6-0.9,1.1-1.9,1.3-2.9c-0.1,0.7-0.5,1.4-0.9,2c-2,1.3-0.2-0.8,0-1.5
			C166.5,424.4,168.4,423.3,168.3,424.1"/>
		<path class="st17" d="M170.5,418.5c0.1-2-0.4-1.3-0.6-0.6C170.1,418,170.3,419.3,170.5,418.5"/>
		<path class="st17" d="M158.3,391.6c0.6,0.1,1.3,0.2,1.2,0.3C160.1,391.8,160.2,391.7,158.3,391.6"/>
		<path class="st17" d="M159.5,391.9l-0.4,0.1L159.5,391.9L159.5,391.9"/>
		<path class="st17" d="M177.6,419.2c0.1,1.8-0.5,2.6-1,4.1l-0.9,0.5c-0.8,1.5,0.1,1-0.5,2.1c-1.2,1.1-3.7,3.4-4.4,3.6
			c-0.6,0,0.4-0.7,0.5-0.9c-1.6,1.1-1.3,1.7-3.8,2.3l-0.1-0.2c-6.1,2.9-14.5-2.8-14.4-10.5c-0.1,0.5-0.2,0.4-0.3,0.6
			c-0.3-4,1.8-8,5.5-9.6c3.6-1.8,7.7-1,10.3,1.3c-1.4-1.8-4.2-3.8-7.5-3.6c-3.2,0-6.2,2.1-7.3,4.3c-1.6,1-1.9,4-2.6,4.6
			c-1,7.1,1.8,10.2,6.6,13.8c0.7,0.5,0.2,0.6,0.3,1c-1.6-0.7-3-1.9-4.2-3.2c0.6,0.9,1.3,1.8,2.2,2.5c-1.5-0.5-3.5-3.6-4-3.7
			c2.6,4.6,10.4,8,14.4,6.3c-1.9,0.1-4.3,0-6.4-0.8c-0.9-0.5-2.1-1.4-1.9-1.6c5.6,2.1,11.3,1.6,16.2-2.3c1.2-1,2.6-2.6,3-2.6
			c-0.6,0.9,0.1,0.4-0.4,1.2c1.2-2-0.5-0.8,1.3-3.4l0.7,0.9c-0.2-1.6,2-3.6,1.8-6.2c0.5-0.8,0.6,0.9,0,2.7c0.8-2,0.2-2.4,0.4-4
			c0.2,0.6,0.5,1.2,0.6,1.8c-0.5-2,0.5-3.3,0.8-4.4c-0.2-0.1-0.8,0.9-0.9-1.4c0-1,0.3-0.5,0.4-0.8c-0.2-0.1-0.7-0.9-1-2.4
			c0.2-0.4,0.6,0.9,0.9,1c-0.2-1.2-0.5-2.1-0.6-3c-0.9-1.9-0.3,0.2-1.1-0.8c-1-3,0.8-0.7,0.9-2.1c1.5,2.1,2.3,5.4,2.7,6.8
			c-0.3-1.7-0.8-3.3-1.3-4.8c0.4,0.2-0.7-3.4,0.6-1c-1.4-5.1-5.9-9.8-10.1-12c0.5,0.5,1.1,1,0.9,1.1c-2.1-1.2-1.7-1.3-2-1.9
			c-1.7-0.7-1.8,0.1-2.9,0c-3.2-1.7-3.8-1.5-6.7-2.6l0.1,0.6c-2.1-0.7-2.4,0.3-4.7,0c-0.1-0.1,0.7-0.4,1.4-0.5
			c-2,0.3-1.9-0.4-3.9,0.1c0.5-0.3,1-0.6,1.5-0.9c-1.7,0.1-4,1-3.2,0.2c-2.7,1.2-7.5,2.9-10.2,5.4l-0.1-0.6
			c-1.2,1.5-5.4,4.4-5.7,6.4l-0.3,0.1c-0.6,1.1-1.1,2.3-1.6,3.4c-0.8,1.4-1.2,0.5-1.1,0.8c-1.7,3.4-2.5,6.2-3.2,8.5
			c0.5,0.8,0,4.5,0.2,7.6c-0.8,15,10.5,29.6,23,33c1.8,0.6,4.5,0.6,6.8,0.7c-2.7-0.8-3.1-0.4-5.7-1.3c-1.9-0.9-2.3-1.9-3.7-3.1
			l0.5,1c-2.6-0.9-1.5-1.2-3.7-1.9l0.6-0.8c-0.9-0.1-2.3-1.5-2.7-2.2l-0.9,0c-1.1-1.4-1.7-2.4-1.7-3.2l-0.3,0.5
			c-0.3-0.6-4.2-5.2-2.2-4.1c-0.4-0.3-0.9-0.5-1.4-1.5l0.4-0.5c-0.9-1.2-1.8-2.8-1.7-3.3c0.5,0.7,0.9,0.8,1.2,0.9
			c-2.4-6-2.5-0.3-4.4-6.1l0.4,0c-0.3-0.5-0.5-0.9-0.7-1.4l0.2-1.7c-1.7-2-0.5-8.5-0.2-12.1c0.2-1.5,1.4-3,2.4-5.4l-0.6-0.1
			c1.1-2,6.4-7.9,8.9-7.6c1.2-1.5-0.2,0-0.5-0.4c2.6-2.7,3.4-1.9,5.2-2.4c1.9-1.1-1.6,0.4-0.7-0.4c3.3-0.8,2.3-1.9,6.6-2.3
			c0.4,0.3-1.1,0.4-1.4,0.7c2.7-1.3,8.7-1,12.5,0.7c4.5,2.1,9.5,8.3,9.7,14.1l0.2,0.1c-0.1,2.3,0.4,5-0.5,7.4L177.6,419.2"/>
		<path class="st17" d="M150.5,427.1l-0.1,0.8c0.7,1,1.3,2,2.2,2.8C151.9,429.3,151.4,428.8,150.5,427.1"/>
		<path class="st17" d="M152.2,427c-0.4-0.4-0.6-0.9-0.9-1.4c0.2,0.9,0.7,1.6,1.2,2.4L152.2,427"/>
		<path class="st17" d="M182.2,420.5l-0.2,0.4c-0.3,2.1-0.9,4.2-1.9,6.1C181.3,424.9,182,422.7,182.2,420.5"/>
		<path class="st17" d="M158.5,391.1c0.7-0.3,1.8-0.1,2.6-0.3c-1,0.1-2,0.1-3,0.3L158.5,391.1"/>
		<path class="st17" d="M132.6,404.9c0.2,1.6-1.2,2.2,0.3,1.1C133.7,404.2,132.6,405.5,132.6,404.9"/>
		<path class="st17" d="M130.8,412.1c0.3-1,0.4-1.7,0.5-2.3C130.4,411.1,130.9,411.3,130.8,412.1"/>
	</g>
	
		<linearGradient id="SVGID_00000019649296244445190190000011814601212434180241_" gradientUnits="userSpaceOnUse" x1="1954.5746" y1="-1588.7683" x2="2339.0046" y2="-1588.7683" gradientTransform="matrix(6.735558e-17 -1.1 -0.41 -2.510526e-17 66.99 3074.6702)">
		<stop  offset="0" style="stop-color:#F2D6B0"/>
		<stop  offset="1" style="stop-color:#FF8C8E;stop-opacity:0"/>
	</linearGradient>
	
		<rect x="688.6" y="506.4" style="opacity:0.5;clip-path:url(#SVGID_00000057858950711654408180000017521581751521228714_);fill:url(#SVGID_00000019649296244445190190000011814601212434180241_);enable-background:new    ;" width="59.7" height="421.6"/>
	
		<linearGradient id="SVGID_00000165221237637374745120000014809195646116454559_" gradientUnits="userSpaceOnUse" x1="765.8854" y1="-2059.1831" x2="927.9455" y2="-2059.1831" gradientTransform="matrix(6.735558e-17 1.1 0.41 -2.510526e-17 1097.79 88.54)">
		<stop  offset="0" style="stop-color:#F2D6B0"/>
		<stop  offset="1" style="stop-color:#FF8C8E;stop-opacity:0"/>
	</linearGradient>
	
		<rect x="186.6" y="927.4" style="opacity:0.5;clip-path:url(#SVGID_00000057858950711654408180000017521581751521228714_);fill:url(#SVGID_00000165221237637374745120000014809195646116454559_);enable-background:new    ;" width="133.8" height="177.7"/>
	
		<linearGradient id="SVGID_00000018210283582982527750000017287089653757212039_" gradientUnits="userSpaceOnUse" x1="766.1354" y1="-2233.5244" x2="959.2454" y2="-2233.5244" gradientTransform="matrix(6.735558e-17 1.1 0.41 -2.510526e-17 1097.78 88.54)">
		<stop  offset="0" style="stop-color:#F2D6B0"/>
		<stop  offset="1" style="stop-color:#FF8C8E;stop-opacity:0"/>
	</linearGradient>
	
		<rect x="170.4" y="927.6" style="opacity:0.5;clip-path:url(#SVGID_00000057858950711654408180000017521581751521228714_);fill:url(#SVGID_00000018210283582982527750000017287089653757212039_);enable-background:new    ;" width="23.2" height="211.8"/>
</g>
</svg>
